<svg xmlns="http://www.w3.org/2000/svg" width="122.8" height="168.84" viewBox="0 0 122.79768 168.84388" xmlns:xlink="http://www.w3.org/1999/xlink"><g transform="translate(-315.65-325.68)"><path d="m323.88 346.35h106.35" fill="none" stroke="#000" stroke-linejoin="round" stroke-linecap="round" stroke-width=".54" stroke-miterlimit="10" id="0"/><g fill="none" stroke="#000" stroke-linejoin="round" stroke-linecap="round" stroke-width=".54" stroke-miterlimit="10"><path d="m323.88 348.15h106.35"/><path d="m323.88 365.85h106.35"/><path d="m323.88 371.1h106.35"/><path d="m326.13 375.6h101.85"/><path d="m326.13 378.15h101.85"/><path d="m323.88 418.95h106.35"/><path d="m323.88 447.3h106.35"/><path d="m405.93 358.8c.401-.3.649-.7.75-1.2.101-.401.101-.851 0-1.35-.101-.401-.349-.8-.75-1.2-.3-.3-.7-.5-1.2-.6-.401-.2-.851-.2-1.35 0-.5.101-.9.3-1.2.6-.3.401-.5.8-.6 1.2-.2.5-.2.95 0 1.35.101.5.3.9.6 1.2.3.401.7.649 1.2.75.5.101.95.101 1.35 0 .5-.101.9-.349 1.2-.75"/><path d="m404.13 357v-3"/><path d="m417.93 358.8c.401-.3.649-.7.75-1.2.101-.401.101-.851 0-1.35-.101-.401-.349-.8-.75-1.2-.3-.3-.649-.5-1.05-.6-.5-.2-1-.2-1.5 0-.401.101-.8.3-1.2.6-.3.401-.5.8-.6 1.2-.101.5-.101.95 0 1.35.101.5.3.9.6 1.2.401.401.8.649 1.2.75.5.101 1 .101 1.5 0 .401-.101.75-.349 1.05-.75"/><path d="m416.13 357v-3.15"/><path d="m348.18 358.8c.3.401.7.649 1.2.75.401.101.851.101 1.35 0 .5-.101.9-.349 1.2-.75.3-.3.5-.7.6-1.2.2-.401.2-.851 0-1.35-.101-.401-.3-.8-.6-1.2-.3-.3-.7-.5-1.2-.6-.5-.2-.95-.2-1.35 0-.5.101-.9.3-1.2.6-.401.401-.649.8-.75 1.2-.101.5-.101.95 0 1.35.101.5.349.9.75 1.2"/><path d="m349.98 357v-2.7"/><path d="m336.03 358.8c.401.401.8.649 1.2.75.5.101 1 .101 1.5 0 .401-.101.8-.349 1.2-.75.3-.3.5-.7.6-1.2.101-.401.101-.851 0-1.35-.101-.401-.3-.8-.6-1.2-.401-.3-.8-.5-1.2-.6-.5-.2-1-.2-1.5 0-.401.101-.8.3-1.2.6-.3.401-.5.8-.6 1.2-.101.5-.101.95 0 1.35.101.5.3.9.6 1.2"/><path d="m337.98 357v-2.7"/><path d="m363.03 357h28.35"/><path d="m363.03 355.2h28.35"/><path d="m363.03 355.2v1.8"/><path d="m391.38 355.2v1.8"/><path d="m326.13 375.6v2.55"/><path d="m427.98 375.6v2.55"/><path d="m323.88 346.35v106.35"/><path d="m430.23 346.35v106.35"/></g><path d="m323.88 452.7h106.35" fill="none" stroke="#000" stroke-linejoin="round" stroke-linecap="round" stroke-width=".54" stroke-miterlimit="10" id="1"/><g fill="none" stroke="#000" stroke-linejoin="round" stroke-linecap="round" stroke-width=".54" stroke-miterlimit="10"><path d="m323.88 387.15h106.35"/><path d="m430.23 494.25v-147.9"/><path d="m323.88 494.25v-147.9"/><path d="m315.93 340.2h122.25"/><path d="m315.93 340.2v154.05"/><path d="m438.18 340.2v154.05"/></g><use xlink:href="#1"/><g fill="none" stroke="#000" stroke-linejoin="round" stroke-linecap="round" stroke-width=".54" stroke-miterlimit="10"><path d="m315.93 494.25h122.25"/><path d="m323.88 473.85h106.35"/></g><use xlink:href="#0"/><g fill="none" stroke="#000" stroke-linejoin="round" stroke-linecap="round" stroke-width=".54" stroke-miterlimit="10"><path d="m323.88 453.6h106.35"/><path d="m315.93 334.8h122.25"/><path d="m315.93 325.95h122.25"/></g><path d="m543.33 346.35h106.35" fill="none" stroke="#000" stroke-linejoin="round" stroke-linecap="round" stroke-width=".54" stroke-miterlimit="10" id="2"/><path d="m543.33 452.7h106.35" fill="none" stroke="#000" stroke-linejoin="round" stroke-linecap="round" stroke-width=".54" stroke-miterlimit="10" id="3"/><use xlink:href="#3"/><use xlink:href="#2"/><path d="m98.73 346.35h106.2" fill="none" stroke="#000" stroke-linejoin="round" stroke-linecap="round" stroke-width=".54" stroke-miterlimit="10" id="4"/><path d="m98.73 452.7h106.2" fill="none" stroke="#000" stroke-linejoin="round" stroke-linecap="round" stroke-width=".54" stroke-miterlimit="10" id="5"/><use xlink:href="#5"/><use xlink:href="#4"/><path d="m323.88 542.4h2.55" fill="none" stroke="#000" stroke-linejoin="round" stroke-linecap="round" stroke-width=".54" stroke-miterlimit="10" id="6"/><path d="m330.18 542.4h3.75" fill="none" stroke="#000" stroke-linejoin="round" stroke-linecap="round" stroke-width=".54" stroke-miterlimit="10" id="7"/><path d="m337.68 542.4h3.75" fill="none" stroke="#000" stroke-linejoin="round" stroke-linecap="round" stroke-width=".54" stroke-miterlimit="10" id="8"/><path d="m345.18 542.4h3.75" fill="none" stroke="#000" stroke-linejoin="round" stroke-linecap="round" stroke-width=".54" stroke-miterlimit="10" id="9"/><path d="m352.68 542.4h3.75" fill="none" stroke="#000" stroke-linejoin="round" stroke-linecap="round" stroke-width=".54" stroke-miterlimit="10" id="A"/><path d="m360.18 542.4h3.75" fill="none" stroke="#000" stroke-linejoin="round" stroke-linecap="round" stroke-width=".54" stroke-miterlimit="10" id="B"/><path d="m367.68 542.4h3.75" fill="none" stroke="#000" stroke-linejoin="round" stroke-linecap="round" stroke-width=".54" stroke-miterlimit="10" id="C"/><path d="m375.18 542.4h3.75" fill="none" stroke="#000" stroke-linejoin="round" stroke-linecap="round" stroke-width=".54" stroke-miterlimit="10" id="D"/><path d="m382.68 542.4h3.75" fill="none" stroke="#000" stroke-linejoin="round" stroke-linecap="round" stroke-width=".54" stroke-miterlimit="10" id="E"/><path d="m390.18 542.4h3.75" fill="none" stroke="#000" stroke-linejoin="round" stroke-linecap="round" stroke-width=".54" stroke-miterlimit="10" id="F"/><path d="m397.68 542.4h3.75" fill="none" stroke="#000" stroke-linejoin="round" stroke-linecap="round" stroke-width=".54" stroke-miterlimit="10" id="G"/><path d="m405.18 542.4h3.75" fill="none" stroke="#000" stroke-linejoin="round" stroke-linecap="round" stroke-width=".54" stroke-miterlimit="10" id="H"/><path d="m412.68 542.4h3.75" fill="none" stroke="#000" stroke-linejoin="round" stroke-linecap="round" stroke-width=".54" stroke-miterlimit="10" id="I"/><path d="m420.18 542.4h3.75" fill="none" stroke="#000" stroke-linejoin="round" stroke-linecap="round" stroke-width=".54" stroke-miterlimit="10" id="J"/><path d="m427.68 542.4h2.55" fill="none" stroke="#000" stroke-linejoin="round" stroke-linecap="round" stroke-width=".54" stroke-miterlimit="10" id="K"/><use xlink:href="#6"/><use xlink:href="#7"/><use xlink:href="#8"/><use xlink:href="#9"/><use xlink:href="#A"/><use xlink:href="#B"/><use xlink:href="#C"/><use xlink:href="#D"/><use xlink:href="#E"/><use xlink:href="#F"/><use xlink:href="#G"/><use xlink:href="#H"/><use xlink:href="#I"/><use xlink:href="#J"/><use xlink:href="#K"/></g></svg>