<svg xmlns="http://www.w3.org/2000/svg" height="200.64" viewBox="0 0 128.03999 200.64273"><g transform="translate(-124.67-641.17)" fill="none" stroke-linejoin="round" stroke-linecap="round" stroke-width=".54" stroke-miterlimit="10"><g stroke="#888"><path d="m132.89 760.09v.75"/><path d="m132.89 760.84v.6"/><path d="m132.89 761.44v.75"/><path d="m132.89 762.19v.6"/><path d="m132.89 762.79v.75"/><path d="m132.89 763.54v.3"/><path d="m133.19 767.59v.75"/><path d="m133.19 768.34v.6"/><path d="m133.19 768.94l.15.75"/><path d="m133.34 769.69v.6"/><path d="m133.34 770.29v.75"/><path d="m133.34 771.04v.3"/><path d="m133.94 775.09v.75"/><path d="m133.94 775.84l.15.6"/><path d="m134.09 776.44l.15.75"/><path d="m134.24 777.19v.6"/><path d="m134.24 777.79l.15.75"/><path d="m134.39 778.54v.3"/><path d="m135.14 782.44v.15"/><path d="m135.14 782.59l.15.6"/><path d="m135.29 783.19l.15.75"/><path d="m135.44 783.94l.15.6"/><path d="m135.59 784.54l.15.75"/><path d="m135.74 785.29l.15.6"/><path d="m135.89 785.89v.15"/><path d="m136.94 789.64v.3"/><path d="m136.94 789.94l.15.6"/><path d="m137.09 790.54l.15.6"/><path d="m137.24 791.14l.3.75"/><path d="m137.54 791.89l.15.6"/><path d="m137.69 792.49l.15.6"/><path d="m137.84 793.09v.15"/><path d="m139.04 796.69l.15.3"/><path d="m139.19 796.99l.15.75"/><path d="m139.34 797.74l.3.6"/><path d="m139.64 798.34l.15.6"/><path d="m139.79 798.94l.3.75"/><path d="m140.09 799.69l.3.45"/><path d="m141.74 803.59l.15.45"/><path d="m141.89 804.04l.3.6"/><path d="m142.19 804.64l.3.75"/><path d="m142.49 805.39l.3.6"/><path d="m142.79 805.99l.15.6"/><path d="m142.94 806.59l.3.45"/><path d="m144.74 810.49l.3.45"/><path d="m145.04 810.94l.3.6"/><path d="m145.34 811.54l.45.6"/><path d="m145.79 812.14l.3.6"/><path d="m146.09 812.74l.3.6"/><path d="m146.39 813.34l.15.45"/><path d="m148.34 817.09l.45.45"/><path d="m148.79 817.54l.3.6"/><path d="m149.09 818.14l.3.45"/><path d="m149.39 818.59l.45.6"/><path d="m149.84 819.19l.3.6"/><path d="m150.14 819.79l.3.45"/><path d="m152.54 823.39l.3.45"/><path d="m152.84 823.84l.45.6"/><path d="m153.29 824.44l.3.45"/><path d="m153.59 824.89l.45.6"/><path d="m154.04 825.49l.45.6"/><path d="m154.49 826.09l.3.3"/><path d="m157.04 829.39l.3.45"/><path d="m157.34 829.84l.45.6"/><path d="m157.79 830.44l.45.45"/><path d="m158.24 830.89l.45.6"/><path d="m158.69 831.49l.45.45"/><path d="m159.14 831.94l.3.3"/><path d="m161.84 835.09l.45.45"/><path d="m162.29 835.54l.45.6"/><path d="m162.74 836.14l.45.45"/><path d="m163.19 836.59l.45.45"/><path d="m163.64 837.04l.45.45"/><path d="m164.09 837.49l.3.3"/></g><g stroke="#000"><path d="m124.94 641.44v118.65h127.5v-118.65h-127.5z"/><path d="m244.49 760.09l-81.45 81.45"/></g></g></svg>