<svg xmlns="http://www.w3.org/2000/svg" width="128.05" height="381.4" viewBox="0 0 128.0477 381.39828"><g transform="translate(-124.67-232.41)" fill="none" stroke="#000" stroke-linejoin="round" stroke-linecap="round" stroke-width=".54" stroke-miterlimit="10"><path d="m124.94 613.54v-380.85"/><path d="m252.44 613.54v-380.85"/><path d="m132.89 459.34h111.6"/><path d="m244.49 593.14h-111.6"/><path d="m149.69 576.34h78"/><path d="m149.69 482.44h78"/><path d="m227.69 442.54h-78"/><path d="m149.69 257.44v185.1"/><path d="m149.69 482.44v93.9"/><path d="m227.69 576.34v-93.9"/><path d="m227.69 442.54v-185.1"/><path d="m252.44 232.69h-127.5"/><path d="m244.49 240.64h-111.6"/><path d="m227.69 257.44h-78"/><path d="m132.89 465.64h111.6"/><path d="m244.49 462.19v-221.55"/><path d="m244.49 613.54v-154.2"/><path d="m132.89 461.89v-221.25"/><path d="m132.89 613.54v-154.2"/><path d="m150.74 257.44v185.1"/><path d="m150.74 482.44v93.9"/><path d="m226.64 576.34v-93.9"/><path d="m226.64 442.54v-185.1"/><path d="m252.44 613.54h-127.5"/><path d="m143.84 362.14c0 1.409-1.142 2.55-2.55 2.55-1.407 0-2.55-1.142-2.55-2.55 0-1.409 1.143-2.55 2.55-2.55 1.409 0 2.55 1.142 2.55 2.55"/><path d="m143.84 522.34c0 1.409-1.142 2.55-2.55 2.55-1.407 0-2.55-1.141-2.55-2.55 0-1.409 1.143-2.55 2.55-2.55 1.409 0 2.55 1.141 2.55 2.55"/></g></svg>