<svg xmlns="http://www.w3.org/2000/svg" width="128.05" height="381.4" viewBox="0 0 128.0477 381.39828"><g transform="translate(-150.6-233.38)" fill="none" stroke="#000" stroke-linejoin="round" stroke-linecap="round" stroke-width=".54" stroke-miterlimit="10"><path d="m150.87 614.5v-380.85"/><path d="m278.37 614.5v-380.85"/><path d="m270.42 594.1h-111.6"/><path d="m175.62 577.3h78"/><path d="m175.62 483.4h78"/><path d="m253.62 443.5h-78"/><path d="m175.62 258.4v185.1"/><path d="m175.62 483.4v93.9"/><path d="m253.62 577.3v-93.9"/><path d="m253.62 443.5v-185.1"/><path d="m278.37 233.65h-127.5"/><path d="m270.42 241.6h-111.6"/><path d="m253.62 258.4h-78"/><path d="m270.42 463.15v-221.55"/><path d="m270.42 614.5v-154.2"/><path d="m158.82 462.85v-221.25"/><path d="m158.82 614.5v-154.2"/><path d="m176.67 258.4v185.1"/><path d="m176.67 483.4v93.9"/><path d="m252.57 577.3v-93.9"/><path d="m252.57 443.5v-185.1"/><path d="m278.37 614.5h-127.5"/><path d="m169.77 398.2c0 1.409-1.142 2.55-2.55 2.55-1.407 0-2.55-1.142-2.55-2.55 0-1.409 1.143-2.55 2.55-2.55 1.409 0 2.55 1.142 2.55 2.55"/></g></svg>