<svg xmlns="http://www.w3.org/2000/svg" height="200.64" viewBox="0 0 128.03999 200.64273"><g transform="translate(-150.6-642.13)" fill="none" stroke-linejoin="round" stroke-linecap="round" stroke-width=".54" stroke-miterlimit="10"><g stroke="#888"><path d="m158.82 761.05v.75"/><path d="m158.82 761.8v.6"/><path d="m158.82 762.4v.75"/><path d="m158.82 763.15v.6"/><path d="m158.82 763.75v.75"/><path d="m158.82 764.5v.3"/><path d="m158.97 768.55l.15.75"/><path d="m159.12 769.3v.6"/><path d="m159.12 769.9l.15.75"/><path d="m159.27 770.65v.6"/><path d="m159.27 771.25v.75"/><path d="m159.27 772v.3"/><path d="m159.87 776.05v.75"/><path d="m159.87 776.8l.15.6"/><path d="m160.02 777.4v.75"/><path d="m160.02 778.15l.15.6"/><path d="m160.17 778.75l.15.75"/><path d="m160.32 779.5v.3"/><path d="m161.07 783.4v.15"/><path d="m161.07 783.55l.15.6"/><path d="m161.22 784.15l.15.75"/><path d="m161.37 784.9l.15.6"/><path d="m161.52 785.5l.15.75"/><path d="m161.67 786.25l.15.6"/><path d="m161.82 786.85v.15"/><path d="m162.87 790.6v.3"/><path d="m162.87 790.9l.15.6"/><path d="m163.02 791.5l.15.6"/><path d="m163.17 792.1l.15.75"/><path d="m163.32 792.85l.3.6"/><path d="m163.62 793.45l.15.6"/><path d="m163.77 794.05v.15"/><path d="m164.97 797.65l.15.3"/><path d="m165.12 797.95l.15.75"/><path d="m165.27 798.7l.3.6"/><path d="m165.57 799.3l.15.6"/><path d="m165.72 799.9l.3.75"/><path d="m166.02 800.65l.3.45"/><path d="m167.67 804.55l.15.45"/><path d="m167.82 805l.3.6"/><path d="m168.12 805.6l.3.75"/><path d="m168.42 806.35l.15.6"/><path d="m168.57 806.95l.3.6"/><path d="m168.87 807.55l.3.45"/><path d="m170.67 811.45l.3.45"/><path d="m170.97 811.9l.3.6"/><path d="m171.27 812.5l.3.6"/><path d="m171.57 813.1l.45.6"/><path d="m172.02 813.7l.3.6"/><path d="m172.32 814.3l.15.45"/><path d="m174.27 818.05l.45.45"/><path d="m174.72 818.5l.3.6"/><path d="m175.02 819.1l.3.45"/><path d="m175.32 819.55l.45.6"/><path d="m175.77 820.15l.3.6"/><path d="m176.07 820.75l.3.45"/><path d="m178.47 824.35l.3.45"/><path d="m178.77 824.8l.3.6"/><path d="m179.07 825.4l.45.45"/><path d="m179.52 825.85l.45.6"/><path d="m179.97 826.45l.3.6"/><path d="m180.27 827.05l.3.3"/><path d="m182.82 830.35l.45.45"/><path d="m183.27 830.8l.45.6"/><path d="m183.72 831.4l.45.45"/><path d="m184.17 831.85l.45.6"/><path d="m184.62 832.45l.3.45"/><path d="m184.92 832.9l.3.3"/><path d="m187.77 836.05l.45.45"/><path d="m188.22 836.5l.45.6"/><path d="m188.67 837.1l.45.45"/><path d="m189.12 837.55l.45.45"/><path d="m189.57 838l.45.45"/><path d="m190.02 838.45l.3.3"/></g><g stroke="#000"><path d="m150.87 642.4v118.65h127.5v-118.65h-127.5z"/><path d="m270.42 761.05l-81.45 81.45"/></g></g></svg>