<svg xmlns="http://www.w3.org/2000/svg" width="128.2" height="381.4" viewBox="0 0 128.19769 381.39829"><g transform="translate(-143.14-339.54)" fill="none" stroke="#000" stroke-linejoin="round" stroke-linecap="round" stroke-width=".54" stroke-miterlimit="10"><path d="m271.06 720.67v-380.85"/><path d="m143.41 720.67v-380.85"/><path d="m262.96 566.47h-111.6"/><path d="m151.36 700.27h111.6"/><path d="m246.16 683.47h-78"/><path d="m246.16 589.57h-78"/><path d="m168.16 549.67h78"/><path d="m246.16 364.57v185.1"/><path d="m246.16 589.57v93.9"/><path d="m168.16 683.47v-93.9"/><path d="m168.16 549.67v-185.1"/><path d="m143.41 339.82h127.65"/><path d="m151.36 347.77h111.6"/><path d="m168.16 364.57h78"/><path d="m262.96 572.77h-111.6"/><path d="m151.36 569.32v-221.55"/><path d="m151.36 720.67v-154.2"/><path d="m262.96 569.02v-221.25"/><path d="m262.96 720.67v-154.2"/><path d="m245.11 364.57v185.1"/><path d="m245.11 589.57v93.9"/><path d="m169.36 683.47v-93.9"/><path d="m169.36 549.67v-185.1"/><path d="m143.41 720.67h127.65"/><path d="m257.11 469.27c0 1.409-1.142 2.55-2.55 2.55-1.407 0-2.55-1.142-2.55-2.55 0-1.409 1.143-2.55 2.55-2.55 1.409 0 2.55 1.142 2.55 2.55"/><path d="m257.11 629.47c0 1.409-1.142 2.55-2.55 2.55-1.407 0-2.55-1.141-2.55-2.55 0-1.409 1.143-2.55 2.55-2.55 1.409 0 2.55 1.141 2.55 2.55"/></g></svg>