<svg xmlns="http://www.w3.org/2000/svg" height="85.59" viewBox="0 0 128.19 85.592729"><g transform="translate(-143.14-809.05)" fill="none" stroke-linejoin="round" stroke-linecap="round" stroke-width=".54" stroke-miterlimit="10"><g stroke="#000"><path d="m143.41 809.32v3.6h127.65v-3.6h-127.65z"/><path d="m151.36 812.92l81.45 81.45"/></g><g stroke="#888"><path d="m230.26 891.82l.6-.45"/><path d="m230.86 891.37l.45-.45"/><path d="m231.31 890.92l.45-.45"/><path d="m231.76 890.47l.45-.6"/><path d="m232.21 889.87l.45-.45"/><path d="m232.66 889.42l.3-.3"/><path d="m235.51 886.42l.45-.6"/><path d="m235.96 885.82l.45-.45"/><path d="m236.41 885.37l.45-.6"/><path d="m236.86 884.77l.45-.45"/><path d="m237.31 884.32l.3-.6"/><path d="m237.61 883.72l.15-.15"/><path d="m240.16 880.72v-.15"/><path d="m240.16 880.57l.45-.6"/><path d="m240.61 879.97l.45-.45"/><path d="m241.06 879.52l.45-.6"/><path d="m241.51 878.92l.3-.6"/><path d="m241.81 878.32l.45-.6"/><path d="m244.36 874.72l.15-.3"/><path d="m244.51 874.42l.45-.6"/><path d="m244.96 873.82l.3-.6"/><path d="m245.26 873.22l.45-.6"/><path d="m245.71 872.62l.3-.45"/><path d="m246.01 872.17l.45-.6"/><path d="m248.26 868.27l.3-.3"/><path d="m248.56 867.97l.3-.6"/><path d="m248.86 867.37l.3-.6"/><path d="m249.16 866.77l.3-.6"/><path d="m249.46 866.17l.3-.6"/><path d="m249.76 865.57l.45-.45"/><path d="m251.86 861.82l.15-.45"/><path d="m252.01 861.37l.3-.75"/><path d="m252.31 860.62l.3-.6"/><path d="m252.61 860.02l.3-.6"/><path d="m252.91 859.42l.3-.6"/><path d="m253.21 858.82l.15-.45"/><path d="m254.71 854.92l.3-.45"/><path d="m255.01 854.47l.3-.75"/><path d="m255.31 853.72l.15-.6"/><path d="m255.46 853.12l.3-.6"/><path d="m255.76 852.52l.3-.6"/><path d="m256.06 851.92l.15-.45"/><path d="m257.41 848.02l.15-.75"/><path d="m257.56 847.27l.3-.6"/><path d="m257.86 846.67l.15-.6"/><path d="m258.01 846.07l.15-.75"/><path d="m258.16 845.32l.3-.6"/><path d="m258.46 844.72v-.3"/><path d="m259.51 840.82l.15-.75"/><path d="m259.66 840.07l.15-.6"/><path d="m259.81 839.47l.15-.75"/><path d="m259.96 838.72l.15-.6"/><path d="m260.11 838.12l.15-.75"/><path d="m260.26 837.37v-.15"/><path d="m261.16 833.62v-.15"/><path d="m261.16 833.47l.15-.75"/><path d="m261.31 832.72v-.6"/><path d="m261.31 832.12l.15-.75"/><path d="m261.46 831.37l.15-.6"/><path d="m261.61 830.77l.15-.75"/><path d="m261.76 830.02v-.15"/><path d="m262.21 826.12v-.15"/><path d="m262.21 825.97l.15-.75"/><path d="m262.36 825.22v-.6"/><path d="m262.36 824.62l.15-.75"/><path d="m262.51 823.87v-.6"/><path d="m262.51 823.27l.15-.75"/><path d="m262.66 822.52v-.15"/><path d="m262.81 818.62v-.15"/><path d="m262.81 818.47l.15-.75"/><path d="m262.96 817.72v-.6"/><path d="m262.96 817.12v-.75"/><path d="m262.96 816.37v-.6"/><path d="m262.96 815.77v-.75"/><path d="m262.96 815.02v-.15"/></g></g></svg>