<svg xmlns="http://www.w3.org/2000/svg" width="158.2" height="168.84" viewBox="0 0 158.1977 168.84387" xmlns:xlink="http://www.w3.org/1999/xlink"><g transform="translate(-287.43-327.05)"><g fill="none" stroke="#000" stroke-linejoin="round" stroke-linecap="round" stroke-width=".54" stroke-miterlimit="10"><path d="m445.36 495.62h-157.65"/><path d="m295.66 347.72h141.75"/><path d="m445.36 341.57v154.05"/><path d="m287.71 495.62v-154.05"/><path d="m287.71 341.57h157.65"/><path d="m295.66 376.07h141.75"/><path d="m295.66 421.22h141.75"/><path d="m295.66 475.22h141.75"/><path d="m437.41 347.72v147.9"/><path d="m295.66 495.62v-147.9"/><path d="m417.76 361.89c0 1.449-1.142 2.625-2.55 2.625-1.409 0-2.55-1.176-2.55-2.625 0-1.449 1.142-2.625 2.55-2.625 1.409 0 2.55 1.176 2.55 2.625"/><path d="m417.76 398.64c0 1.449-1.142 2.625-2.55 2.625-1.409 0-2.55-1.176-2.55-2.625 0-1.449 1.142-2.625 2.55-2.625 1.409 0 2.55 1.176 2.55 2.625"/><path d="m417.76 448.22c0 1.409-1.142 2.55-2.55 2.55-1.409 0-2.55-1.142-2.55-2.55 0-1.409 1.142-2.55 2.55-2.55 1.409 0 2.55 1.142 2.55 2.55"/><path d="m320.41 361.89c0 1.449-1.142 2.625-2.55 2.625-1.409 0-2.55-1.176-2.55-2.625 0-1.449 1.142-2.625 2.55-2.625 1.409 0 2.55 1.176 2.55 2.625"/><path d="m320.41 398.64c0 1.449-1.142 2.625-2.55 2.625-1.409 0-2.55-1.176-2.55-2.625 0-1.449 1.142-2.625 2.55-2.625 1.409 0 2.55 1.176 2.55 2.625"/><path d="m320.41 448.22c0 1.409-1.142 2.55-2.55 2.55-1.409 0-2.55-1.142-2.55-2.55 0-1.409 1.142-2.55 2.55-2.55 1.409 0 2.55 1.142 2.55 2.55"/><path d="m287.71 336.17h157.65"/><path d="m287.71 327.32h157.65"/></g><path d="m51.907 495.62v-154.05" fill="none" stroke="#000" stroke-linejoin="round" stroke-linecap="round" stroke-width=".54" stroke-miterlimit="10" id="0"/><use xlink:href="#0"/></g></svg>