<svg xmlns="http://www.w3.org/2000/svg" width="167.05" height="168.85" viewBox="0 0 167.04769 168.84766" xmlns:xlink="http://www.w3.org/1999/xlink"><g transform="translate(-42.783-327.04)"><g fill="none" stroke="#000" stroke-linejoin="round" stroke-linecap="round" stroke-width=".54" stroke-miterlimit="10"><path d="m209.56 495.62h-157.65"/><path d="m59.857 347.72h141.75"/><path d="m209.56 341.57v154.05"/></g><path d="m51.907 495.62v-154.05" fill="none" stroke="#000" stroke-linejoin="round" stroke-linecap="round" stroke-width=".54" stroke-miterlimit="10" id="0"/><g fill="none" stroke="#000" stroke-linejoin="round" stroke-linecap="round" stroke-width=".54" stroke-miterlimit="10"><path d="m51.907 341.57h157.65"/><path d="m59.857 376.07h141.75"/><path d="m59.857 421.22h141.75"/><path d="m59.857 475.22h141.75"/><path d="m201.61 347.72v147.9"/><path d="m59.857 495.62v-147.9"/><path d="m181.96 361.89c0 1.449-1.142 2.625-2.55 2.625-1.409 0-2.55-1.176-2.55-2.625 0-1.449 1.142-2.625 2.55-2.625 1.409 0 2.55 1.176 2.55 2.625"/><path d="m181.96 398.64c0 1.449-1.142 2.625-2.55 2.625-1.409 0-2.55-1.176-2.55-2.625 0-1.449 1.142-2.625 2.55-2.625 1.409 0 2.55 1.176 2.55 2.625"/><path d="m181.96 448.22c0 1.409-1.142 2.55-2.55 2.55-1.409 0-2.55-1.142-2.55-2.55 0-1.409 1.142-2.55 2.55-2.55 1.409 0 2.55 1.142 2.55 2.55"/><path d="m84.61 361.89c0 1.449-1.141 2.625-2.55 2.625-1.409 0-2.55-1.176-2.55-2.625 0-1.449 1.141-2.625 2.55-2.625 1.409 0 2.55 1.176 2.55 2.625"/><path d="m84.61 398.64c0 1.449-1.141 2.625-2.55 2.625-1.409 0-2.55-1.176-2.55-2.625 0-1.449 1.141-2.625 2.55-2.625 1.409 0 2.55 1.176 2.55 2.625"/><path d="m84.61 448.22c0 1.409-1.141 2.55-2.55 2.55-1.409 0-2.55-1.142-2.55-2.55 0-1.409 1.141-2.55 2.55-2.55 1.409 0 2.55 1.142 2.55 2.55"/><path d="m51.907 336.17h157.65"/><path d="m51.907 327.32h157.65"/></g><use xlink:href="#0"/><g fill="none" stroke="#000" stroke-linejoin="round" stroke-linecap="round" stroke-width=".54" stroke-miterlimit="10"><path d="m43.06 341.57h8.85"/><path d="m43.06 336.17v5.4"/><path d="m51.907 336.17h-8.85"/><path d="m43.06 336.17h8.85"/><path d="m43.06 327.32v8.85"/><path d="m51.907 327.32h-8.85"/></g></g></svg>