<svg xmlns="http://www.w3.org/2000/svg" width="167.2" height="168.85" viewBox="0 0 167.19768 168.84766" xmlns:xlink="http://www.w3.org/1999/xlink"><g transform="translate(-515.73-327.04)"><g fill="none" stroke="#000" stroke-linejoin="round" stroke-linecap="round" stroke-width=".54" stroke-miterlimit="10"><path d="m673.81 495.62h-157.8"/><path d="m523.96 347.72h141.75"/><path d="m673.81 341.57v154.05"/><path d="m516.01 495.62v-154.05"/><path d="m516.01 341.57h157.8"/><path d="m523.96 376.07h141.75"/><path d="m523.96 421.22h141.75"/><path d="m523.96 475.22h141.75"/><path d="m665.71 347.72v147.9"/><path d="m523.96 495.62v-147.9"/><path d="m646.21 361.89c0 1.449-1.141 2.625-2.55 2.625-1.409 0-2.55-1.176-2.55-2.625 0-1.449 1.141-2.625 2.55-2.625 1.409 0 2.55 1.176 2.55 2.625"/><path d="m646.21 398.64c0 1.449-1.141 2.625-2.55 2.625-1.409 0-2.55-1.176-2.55-2.625 0-1.449 1.141-2.625 2.55-2.625 1.409 0 2.55 1.176 2.55 2.625"/><path d="m646.21 448.22c0 1.409-1.141 2.55-2.55 2.55-1.409 0-2.55-1.142-2.55-2.55 0-1.409 1.141-2.55 2.55-2.55 1.409 0 2.55 1.142 2.55 2.55"/><path d="m548.71 361.89c0 1.449-1.141 2.625-2.55 2.625-1.409 0-2.55-1.176-2.55-2.625 0-1.449 1.141-2.625 2.55-2.625 1.409 0 2.55 1.176 2.55 2.625"/><path d="m548.71 398.64c0 1.449-1.141 2.625-2.55 2.625-1.409 0-2.55-1.176-2.55-2.625 0-1.449 1.141-2.625 2.55-2.625 1.409 0 2.55 1.176 2.55 2.625"/><path d="m548.71 448.22c0 1.409-1.141 2.55-2.55 2.55-1.409 0-2.55-1.142-2.55-2.55 0-1.409 1.141-2.55 2.55-2.55 1.409 0 2.55 1.142 2.55 2.55"/><path d="m516.01 336.17h157.8"/><path d="m516.01 327.32h157.8"/></g><path d="m51.907 495.62v-154.05" fill="none" stroke="#000" stroke-linejoin="round" stroke-linecap="round" stroke-width=".54" stroke-miterlimit="10" id="0"/><use xlink:href="#0"/><g fill="none" stroke="#000" stroke-linejoin="round" stroke-linecap="round" stroke-width=".54" stroke-miterlimit="10"><path d="m673.81 495.62v-154.05"/><path d="m682.66 341.57h-8.85"/><path d="m682.66 336.17v5.4"/><path d="m673.81 336.17h8.85"/><path d="m682.66 336.17h-8.85"/><path d="m682.66 327.32v8.85"/><path d="m673.81 327.32h8.85"/></g></g></svg>