<svg xmlns="http://www.w3.org/2000/svg" height="175.89" viewBox="0 0 100.74 175.89273"><g transform="translate(-330.45-491.97)" fill="none" stroke-linejoin="round" stroke-linecap="round" stroke-width=".54" stroke-miterlimit="10"><g stroke="#000"><path d="m330.72 492.24v113.4h100.2v-113.4h-100.2z"/><path d="m338.82 605.64l61.95 61.95"/></g><g stroke="#888"><path d="m398.22 665.19l.45-.45"/><path d="m398.67 664.74l.3-.3"/><path d="m398.97 664.44l.45-.45"/><path d="m399.42 663.99l.3-.3"/><path d="m399.72 663.69l.3-.45"/><path d="m400.02 663.24l.45-.3"/><path d="m400.47 662.94l.3-.45"/><path d="m403.17 659.64l.3-.3"/><path d="m403.47 659.34l.3-.3"/><path d="m403.77 659.04l.3-.45"/><path d="m404.07 658.59l.45-.45"/><path d="m404.52 658.14l.3-.3"/><path d="m404.82 657.84l.3-.45"/><path d="m405.12 657.39l.3-.45"/><path d="m405.42 656.94l.15-.15"/><path d="m407.82 653.79v-.15"/><path d="m407.82 653.64l.3-.45"/><path d="m408.12 653.19l.3-.45"/><path d="m408.42 652.74l.3-.3"/><path d="m408.72 652.44l.3-.45"/><path d="m409.02 651.99l.3-.45"/><path d="m409.32 651.54l.3-.45"/><path d="m409.62 651.09l.3-.45"/><path d="m411.72 647.34l.3-.3"/><path d="m412.02 647.04l.15-.45"/><path d="m412.17 646.59l.3-.45"/><path d="m412.47 646.14l.3-.45"/><path d="m412.77 645.69l.15-.45"/><path d="m412.92 645.24l.3-.45"/><path d="m413.22 644.79l.3-.45"/><path d="m413.52 644.34v-.15"/><path d="m415.17 640.89l.15-.3"/><path d="m415.32 640.59l.15-.45"/><path d="m415.47 640.14l.3-.45"/><path d="m415.77 639.69l.15-.45"/><path d="m415.92 639.24l.15-.45"/><path d="m416.07 638.79l.3-.45"/><path d="m416.37 638.34l.15-.45"/><path d="m416.52 637.89l.15-.45"/><path d="m418.02 633.99l.15-.45"/><path d="m418.17 633.54l.15-.6"/><path d="m418.32 632.94l.15-.45"/><path d="m418.47 632.49l.15-.45"/><path d="m418.62 632.04l.15-.45"/><path d="m418.77 631.59l.15-.6"/><path d="m418.92 630.99l.3-.45"/><path d="m420.12 626.94l.15-.45"/><path d="m420.27 626.49l.15-.45"/><path d="m420.42 626.04l.15-.45"/><path d="m420.57 625.59v-.6"/><path d="m420.57 624.99l.15-.45"/><path d="m420.72 624.54l.15-.45"/><path d="m420.87 624.09l.15-.6"/><path d="m421.02 623.49v-.15"/><path d="m421.77 619.74v-.3"/><path d="m421.77 619.44l.15-.45"/><path d="m421.92 618.99v-.45"/><path d="m421.92 618.54l.15-.6"/><path d="m422.07 617.94v-.45"/><path d="m422.07 617.49l.15-.6"/><path d="m422.22 616.89v-.45"/><path d="m422.22 616.44v-.45"/><path d="m422.67 612.24v-.45"/><path d="m422.67 611.79v-.45"/><path d="m422.67 611.34l.15-.6"/><path d="m422.82 610.74v-.45"/><path d="m422.82 610.29v-.6"/><path d="m422.82 609.69v-.45"/><path d="m422.82 609.24v-.6"/><path d="m422.82 608.64v-.15"/></g></g></svg>