<svg xmlns="http://www.w3.org/2000/svg" width="109.45" height="168.85" viewBox="0 0 109.44769 168.84768"><g transform="translate(-519.45-282.57)" fill="none" stroke="#000" stroke-linejoin="round" stroke-linecap="round" stroke-width=".54" stroke-miterlimit="10"><path d="m519.72 451.14h100.05"/><path d="m605.97 359.94c0 1.409-1.141 2.55-2.55 2.55-1.407 0-2.55-1.142-2.55-2.55 0-1.409 1.143-2.55 2.55-2.55 1.409 0 2.55 1.142 2.55 2.55"/><path d="m611.82 451.14v-147.9"/><path d="m527.67 451.14v-147.9"/><path d="m527.67 303.24h84.15"/><path d="m544.47 413.94v-93.9"/><path d="m595.02 413.94v-93.9"/><path d="m544.47 320.04h50.55"/><path d="m519.72 297.09h100.05"/><path d="m519.72 297.09v154.05"/><path d="m619.77 297.09v154.05"/><path d="m527.67 430.74h84.15"/><path d="m544.47 413.94h50.55"/><path d="m545.82 413.94v-93.9"/><path d="m593.82 413.94v-93.9"/><path d="m519.72 291.69h100.05"/><path d="m519.72 282.84h100.05"/><path d="m619.77 451.14v-154.05"/><path d="m628.62 297.09h-8.85"/><path d="m628.62 291.69v5.4"/><path d="m619.77 291.69h8.85"/><path d="m628.62 291.69h-8.85"/><path d="m628.62 282.84v8.85"/><path d="m619.77 282.84h8.85"/></g></svg>