<svg xmlns="http://www.w3.org/2000/svg" width="100.75" height="168.84" viewBox="0 0 100.74769 168.84387"><g transform="translate(-330.45-282.57)" fill="none" stroke="#000" stroke-linejoin="round" stroke-linecap="round" stroke-width=".54" stroke-miterlimit="10"><path d="m330.72 451.14h100.2"/><path d="m417.12 359.94c0 1.409-1.175 2.55-2.625 2.55-1.449 0-2.625-1.142-2.625-2.55 0-1.409 1.176-2.55 2.625-2.55 1.45 0 2.625 1.142 2.625 2.55"/><path d="m422.97 451.14v-147.9"/><path d="m338.82 451.14v-147.9"/><path d="m338.82 303.24h84.15"/><path d="m355.62 413.94v-93.9"/><path d="m406.02 413.94v-93.9"/><path d="m355.62 320.04h50.4"/><path d="m330.72 297.09h100.2"/><path d="m330.72 297.09v154.05"/><path d="m430.92 297.09v154.05"/><path d="m338.82 430.74h84.15"/><path d="m355.62 413.94h50.4"/><path d="m356.82 413.94v-93.9"/><path d="m404.82 413.94v-93.9"/><path d="m330.72 291.69h100.2"/><path d="m330.72 282.84h100.2"/></g></svg>