<svg xmlns="http://www.w3.org/2000/svg" width="100.6" height="133.45" viewBox="0 0 100.59769 133.44769"><g transform="translate(-162.71-297.45)" fill="none" stroke-linejoin="round" stroke-linecap="round" stroke-width=".54" stroke-miterlimit="10"><g stroke="#000"><path d="m263.03 430.62h-100.05"/><path d="m263.03 297.72h-100.05"/><path d="m263.03 430.62v-132.9"/><path d="m170.93 419.07v-113.25"/><path d="m255.08 419.07v-113.25"/><path d="m255.08 305.82h-84.15"/><path d="m255.08 419.07h-84.15"/><path d="m243.53 319.92h-61.05"/><path d="m162.98 430.62v-132.9"/><path d="m243.53 404.97h-61.05"/><path d="m243.53 404.97v-85.05"/><path d="m182.48 404.97v-85.05"/><path d="m179.18 368.75c0 1.449-1.142 2.625-2.55 2.625-1.407 0-2.55-1.176-2.55-2.625 0-1.45 1.143-2.625 2.55-2.625 1.409 0 2.55 1.175 2.55 2.625"/></g><g stroke="#888"><path d="m232.88 367.92l-20.85 20.85"/><path d="m224.93 343.17l-24 24.15"/><path d="m236.33 327.42l-42.15 42.3"/><path d="m243.53 380.22h-17.4"/><path d="m222.38 380.22h-18.75"/><path d="m199.88 380.22h-17.4"/><path d="m243.53 383.52h-17.4"/><path d="m222.38 383.52h-18.75"/><path d="m199.88 383.52h-17.4"/><path d="m243.53 341.37h-17.4"/><path d="m222.38 341.37h-18.75"/><path d="m199.88 341.37h-17.4"/><path d="m243.53 344.67h-17.4"/><path d="m222.38 344.67h-18.75"/><path d="m199.88 344.67h-17.4"/></g></g></svg>