<svg xmlns="http://www.w3.org/2000/svg" height="101.04" viewBox="0 0 100.59 101.04193"><g transform="translate(-162.71-511.95)" fill="none" stroke="#888" stroke-linejoin="round" stroke-linecap="round" stroke-width=".54" stroke-miterlimit="10"><path d="m255.08 568.92l-75.9 43.8"/><path d="m170.93 568.92v.3"/><path d="m170.93 569.22v.3"/><path d="m170.93 569.52v.45"/><path d="m170.93 569.97v.3"/><path d="m170.93 570.27v.3"/><path d="m170.93 570.57v.45"/><path d="m170.93 571.02v.3"/><path d="m170.93 571.32v.3"/><path d="m170.93 571.62v.3"/><path d="m170.93 571.92v.45"/><path d="m170.93 572.37v.3"/><path d="m171.23 576.42v.45"/><path d="m171.23 576.87l.15.3"/><path d="m171.38 577.17v.3"/><path d="m171.38 577.47v.3"/><path d="m171.38 577.77v.45"/><path d="m171.38 578.22l.15.3"/><path d="m171.53 578.52v.3"/><path d="m171.53 578.82v.45"/><path d="m171.53 579.27v.3"/><path d="m171.53 579.57l.15.3"/><path d="m171.68 579.87v.15"/><path d="m172.28 583.62v.3"/><path d="m172.28 583.92v.45"/><path d="m172.28 584.37l.15.3"/><path d="m172.43 584.67v.3"/><path d="m172.43 584.97l.15.3"/><path d="m172.58 585.27v.45"/><path d="m172.58 585.72l.15.3"/><path d="m172.73 586.02v.3"/><path d="m172.73 586.32l.15.3"/><path d="m172.88 586.62v.45"/><path d="m172.88 587.07v.15"/><path d="m173.78 590.67l.15.3"/><path d="m173.93 590.97v.3"/><path d="m173.93 591.27l.15.45"/><path d="m174.08 591.72v.3"/><path d="m174.08 592.02l.15.3"/><path d="m174.23 592.32l.15.3"/><path d="m174.38 592.62v.3"/><path d="m174.38 592.92l.15.45"/><path d="m174.53 593.37l.15.3"/><path d="m174.68 593.67v.3"/><path d="m174.68 593.97l.15.3"/><path d="m176.03 597.72v.15"/><path d="m176.03 597.87l.15.3"/><path d="m176.18 598.17l.15.3"/><path d="m176.33 598.47l.15.45"/><path d="m176.48 598.92v.3"/><path d="m176.48 599.22l.15.3"/><path d="m176.63 599.52l.15.3"/><path d="m176.78 599.82l.15.3"/><path d="m176.93 600.12l.15.3"/><path d="m177.08 600.42l.15.3"/><path d="m177.23 600.72l.15.45"/><path d="m178.88 604.62l.15.3"/><path d="m179.03 604.92l.15.3"/><path d="m179.18 605.22l.15.3"/><path d="m179.33 605.52l.15.3"/><path d="m179.48 605.82l.15.3"/><path d="m179.63 606.12l.15.3"/><path d="m179.78 606.42l.15.3"/><path d="m179.93 606.72l.15.3"/><path d="m180.08 607.02l.15.3"/><path d="m180.23 607.32l.15.3"/><path d="m180.38 607.62l.15.3"/><path d="m162.98 512.22v56.7h100.05v-56.7h-100.05z"/></g></svg>