<svg xmlns="http://www.w3.org/2000/svg" width="106.75" height="168.84" viewBox="0 0 106.74768 168.84388"><g transform="translate(-160.88-353.84)" fill="none" stroke="#000" stroke-linejoin="round" stroke-linecap="round" stroke-width=".54" stroke-miterlimit="10"><path d="m161.15 522.41h106.2"/><path d="m216.8 382.69c0 1.449-1.142 2.625-2.55 2.625-1.407 0-2.55-1.176-2.55-2.625 0-1.45 1.143-2.625 2.55-2.625 1.409 0 2.55 1.175 2.55 2.625"/><path d="m267.35 522.41v-154.2"/><path d="m161.15 522.41v-154.2"/><path d="m161.15 374.51h106.2"/><path d="m177.95 485.21v-93.9"/><path d="m250.55 485.21v-93.9"/><path d="m177.95 391.31h72.6"/><path d="m161.15 368.21h106.2"/><path d="m161.15 502.01h106.2"/><path d="m177.95 485.21h72.6"/><path d="m179.15 485.21v-93.9"/><path d="m249.35 485.21v-93.9"/><path d="m161.15 362.96h106.2"/><path d="m161.15 354.11h106.2"/></g></svg>