<svg xmlns="http://www.w3.org/2000/svg" height="101.04" viewBox="0 0 144.98999 101.04193"><g transform="translate(-135.09-549.09)" fill="none" stroke="#888" stroke-linejoin="round" stroke-linecap="round" stroke-width=".54" stroke-miterlimit="10"><path d="m135.36 549.36v56.7h144.45v-56.7h-144.45z"/><path d="m187.71 606.06l75.9 43.8"/><path d="m260.61 648.06l.15-.3"/><path d="m260.76 647.76l.15-.3"/><path d="m260.91 647.46l.15-.3"/><path d="m261.06 647.16l.15-.3"/><path d="m261.21 646.86l.15-.3"/><path d="m261.36 646.56l.15-.3"/><path d="m261.51 646.26l.15-.3"/><path d="m261.66 645.96l.3-.3"/><path d="m261.96 645.66l.15-.3"/><path d="m262.11 645.36l.15-.3"/><path d="m262.26 645.06l.15-.3"/><path d="m264.06 641.46l.15-.45"/><path d="m264.21 641.01l.15-.3"/><path d="m264.36 640.71l.15-.3"/><path d="m264.51 640.41l.15-.3"/><path d="m264.66 640.11l.15-.3"/><path d="m264.81 639.81v-.3"/><path d="m264.81 639.51l.15-.3"/><path d="m264.96 639.21l.15-.3"/><path d="m265.11 638.91l.15-.3"/><path d="m265.26 638.61l.15-.3"/><path d="m265.41 638.31l.15-.3"/><path d="m266.91 634.56v-.15"/><path d="m266.91 634.41l.15-.3"/><path d="m267.06 634.11v-.3"/><path d="m267.06 633.81l.15-.45"/><path d="m267.21 633.36l.15-.3"/><path d="m267.36 633.06l.15-.3"/><path d="m267.51 632.76v-.3"/><path d="m267.51 632.46l.15-.3"/><path d="m267.66 632.16l.15-.45"/><path d="m267.81 631.71l.15-.3"/><path d="m267.96 631.41v-.3"/><path d="m269.01 627.66v-.15"/><path d="m269.01 627.51l.15-.3"/><path d="m269.16 627.21v-.45"/><path d="m269.16 626.76l.15-.3"/><path d="m269.31 626.46l.15-.3"/><path d="m269.46 626.16v-.3"/><path d="m269.46 625.86l.15-.45"/><path d="m269.61 625.41v-.3"/><path d="m269.61 625.11l.15-.3"/><path d="m269.76 624.81v-.3"/><path d="m269.76 624.51l.15-.3"/><path d="m269.91 624.21v-.15"/><path d="m270.66 620.46v-.45"/><path d="m270.66 620.01v-.3"/><path d="m270.66 619.71l.15-.3"/><path d="m270.81 619.41v-.3"/><path d="m270.81 619.11v-.45"/><path d="m270.81 618.66l.15-.3"/><path d="m270.96 618.36v-.3"/><path d="m270.96 618.06v-.3"/><path d="m270.96 617.76l.15-.45"/><path d="m271.11 617.31v-.3"/><path d="m271.11 617.01v-.15"/><path d="m271.56 613.26v-.3"/><path d="m271.56 612.96v-.45"/><path d="m271.56 612.51v-.3"/><path d="m271.56 612.21v-.3"/><path d="m271.56 611.91l.15-.3"/><path d="m271.71 611.61v-.45"/><path d="m271.71 611.16v-.3"/><path d="m271.71 610.86v-.3"/><path d="m271.71 610.56v-.45"/><path d="m271.71 610.11v-.3"/><path d="m271.71 609.81v-.3"/></g></svg>