<svg xmlns="http://www.w3.org/2000/svg" width="145" height="133.45" viewBox="0 0 144.9977 133.44769"><g transform="translate(-135.08-334.59)" fill="none" stroke="#000" stroke-linejoin="round" stroke-linecap="round" stroke-width=".54" stroke-miterlimit="10"><path d="m279.81 467.76h-100.05"/><path d="m279.81 334.86h-100.05"/><path d="m279.81 467.76v-132.9"/><path d="m187.71 456.21v-113.25"/><path d="m271.86 456.21v-113.25"/><path d="m271.86 342.96h-84.15"/><path d="m271.86 456.21h-84.15"/><path d="m260.31 357.06h-61.05"/><path d="m171.66 467.76v-3.75"/><path d="m171.66 460.26v-3.75"/><path d="m171.66 452.76v-3.75"/><path d="m171.66 445.26v-3.75"/><path d="m171.66 437.76v-3.75"/><path d="m171.66 430.26v-3.75"/><path d="m171.66 422.76v-3.75"/><path d="m171.66 415.26v-3.75"/><path d="m171.66 407.76v-3.75"/><path d="m171.66 400.26v-3.75"/><path d="m171.66 392.76v-3.75"/><path d="m171.66 385.26v-3.75"/><path d="m171.66 377.76v-3.75"/><path d="m171.66 370.26v-3.75"/><path d="m171.66 362.76v-3.75"/><path d="m171.66 355.26v-3.75"/><path d="m171.66 347.76v-3.75"/><path d="m171.66 340.26v-3.75"/><path d="m171.66 335.16v-.3"/><path d="m260.31 442.11h-61.05"/><path d="m199.26 442.11v-85.05"/><path d="m260.31 442.11v-85.05"/><path d="m268.71 405.89c0 1.449-1.175 2.625-2.625 2.625-1.449 0-2.625-1.176-2.625-2.625 0-1.45 1.176-2.625 2.625-2.625 1.45 0 2.625 1.175 2.625 2.625"/><path d="m135.36 467.76v-3.75"/><path d="m135.36 460.26v-3.75"/><path d="m135.36 452.76v-3.75"/><path d="m135.36 445.26v-3.75"/><path d="m135.36 437.76v-3.75"/><path d="m135.36 430.26v-3.75"/><path d="m135.36 422.76v-3.75"/><path d="m135.36 415.26v-3.75"/><path d="m135.36 407.76v-3.75"/><path d="m135.36 400.26v-3.75"/><path d="m135.36 392.76v-3.75"/><path d="m135.36 385.26v-3.75"/><path d="m135.36 377.76v-3.75"/><path d="m135.36 370.26v-3.75"/><path d="m135.36 362.76v-3.75"/><path d="m135.36 355.26v-3.75"/><path d="m135.36 347.76v-3.75"/><path d="m135.36 340.26v-3.75"/><path d="m135.36 335.16v-.3"/><path d="m179.76 467.76h-1.5"/><path d="m174.51 467.76h-3.75"/><path d="m167.01 467.76h-3.75"/><path d="m159.51 467.76h-3.75"/><path d="m152.01 467.76h-3.75"/><path d="m144.51 467.76h-3.75"/><path d="m137.01 467.76h-1.65"/><path d="m135.36 334.86h1.5"/><path d="m140.61 334.86h3.75"/><path d="m148.11 334.86h3.75"/><path d="m155.61 334.86h3.75"/><path d="m163.11 334.86h3.75"/><path d="m170.61 334.86h3.75"/><path d="m178.11 334.86h1.65"/><path d="m179.76 467.76v-132.9"/><path d="m200.46 442.11v-85.05"/><path d="m259.11 442.11v-85.05"/></g></svg>