<svg xmlns="http://www.w3.org/2000/svg" width="137.05" height="168.85" viewBox="0 0 137.04768 168.84769"><g transform="translate(-343-521.39)" fill="none" stroke="#000" stroke-linejoin="round" stroke-linecap="round" stroke-width=".54" stroke-miterlimit="10"><path d="m343.27 689.97h127.65"/><path d="m457.12 598.77c0 1.409-1.175 2.55-2.625 2.55-1.449 0-2.625-1.141-2.625-2.55 0-1.409 1.176-2.55 2.625-2.55 1.45 0 2.625 1.141 2.625 2.55"/><path d="m462.82 689.97v-147.9"/><path d="m351.22 689.97v-147.9"/><path d="m351.22 542.07h111.6"/><path d="m368.17 652.77v-93.9"/><path d="m446.02 652.77v-93.9"/><path d="m368.17 558.87h77.85"/><path d="m343.27 535.92h127.65"/><path d="m343.27 535.92v154.05"/><path d="m470.92 535.92v154.05"/><path d="m368.17 652.77h77.85"/><path d="m351.22 669.57h111.6"/><path d="m369.37 652.77v-93.9"/><path d="m444.82 652.77v-93.9"/><path d="m343.27 530.52h127.65"/><path d="m343.27 521.67h127.65"/><path d="m479.77 535.92h-8.85"/><path d="m479.77 530.52v5.4"/><path d="m470.92 530.52h8.85"/><path d="m479.77 530.52h-8.85"/><path d="m479.77 521.67v8.85"/><path d="m470.92 521.67h8.85"/></g></svg>