<svg xmlns="http://www.w3.org/2000/svg" width="137.05" height="168.85" viewBox="0 0 137.04739 168.84769"><g transform="translate(-19.748-521.39)" fill="none" stroke="#000" stroke-linejoin="round" stroke-linecap="round" stroke-width=".54" stroke-miterlimit="10"><path d="m28.872 689.97h127.65"/><path d="m142.72 598.77c0 1.409-1.175 2.55-2.625 2.55-1.45 0-2.625-1.141-2.625-2.55 0-1.409 1.175-2.55 2.625-2.55 1.45 0 2.625 1.141 2.625 2.55"/><path d="m148.57 689.97v-147.9"/><path d="m36.972 689.97v-147.9"/><path d="m36.972 542.07h111.6"/><path d="m53.772 652.77v-93.9"/><path d="m131.62 652.77v-93.9"/><path d="m53.772 558.87h77.85"/><path d="m28.872 535.92h127.65"/><path d="m28.872 535.92v154.05"/><path d="m156.52 535.92v154.05"/><path d="m53.772 652.77h77.85"/><path d="m36.972 669.57h111.6"/><path d="m54.972 652.77v-93.9"/><path d="m130.42 652.77v-93.9"/><path d="m28.872 530.52h127.65"/><path d="m28.872 521.67h127.65"/><path d="m20.02 535.92h8.85"/><path d="m20.02 530.52v5.4"/><path d="m28.872 530.52h-8.85"/><path d="m20.02 530.52h8.85"/><path d="m20.02 521.67v8.85"/><path d="m28.872 521.67h-8.85"/></g></svg>