<svg xmlns="http://www.w3.org/2000/svg" width="128.05" height="168.84" viewBox="0 0 128.04769 168.84388"><g transform="translate(-732.85-521.4)" fill="none" stroke="#000" stroke-linejoin="round" stroke-linecap="round" stroke-width=".54" stroke-miterlimit="10"><path d="m860.62 689.97h-127.5"/><path d="m752.02 598.77c0 1.409-1.141 2.55-2.55 2.55-1.409 0-2.55-1.141-2.55-2.55 0-1.409 1.141-2.55 2.55-2.55 1.409 0 2.55 1.141 2.55 2.55"/><path d="m741.07 689.97v-147.9"/><path d="m852.67 689.97v-147.9"/><path d="m852.67 542.07h-111.6"/><path d="m835.87 652.77v-93.9"/><path d="m757.87 652.77v-93.9"/><path d="m835.87 558.87h-78"/><path d="m860.62 535.92h-127.5"/><path d="m860.62 535.92v154.05"/><path d="m733.12 535.92v154.05"/><path d="m835.87 652.77h-78"/><path d="m852.67 669.57h-111.6"/><path d="m834.52 652.77v-93.9"/><path d="m759.07 652.77v-93.9"/><path d="m860.62 530.52h-127.5"/><path d="m860.62 521.67h-127.5"/></g></svg>