<svg xmlns="http://www.w3.org/2000/svg" width="136.9" height="168.85" viewBox="0 0 136.89769 168.84769"><g transform="translate(-565-521.39)" fill="none" stroke="#000" stroke-linejoin="round" stroke-linecap="round" stroke-width=".54" stroke-miterlimit="10"><path d="m565.27 535.92h8.85"/><path d="m565.27 530.52v5.4"/><path d="m574.12 530.52h-8.85"/><path d="m565.27 530.52h8.85"/><path d="m565.27 521.67v8.85"/><path d="m574.12 521.67h-8.85"/><path d="m701.62 689.97h-127.5"/><path d="m593.02 598.77c0 1.409-1.141 2.55-2.55 2.55-1.409 0-2.55-1.141-2.55-2.55 0-1.409 1.141-2.55 2.55-2.55 1.409 0 2.55 1.141 2.55 2.55"/><path d="m582.07 689.97v-147.9"/><path d="m693.67 689.97v-147.9"/><path d="m693.67 542.07h-111.6"/><path d="m676.87 652.77v-93.9"/><path d="m598.87 652.77v-93.9"/><path d="m676.87 558.87h-78"/><path d="m701.62 535.92h-127.5"/><path d="m701.62 535.92v154.05"/><path d="m574.12 535.92v154.05"/><path d="m676.87 652.77h-78"/><path d="m693.67 669.57h-111.6"/><path d="m675.67 652.77v-93.9"/><path d="m600.22 652.77v-93.9"/><path d="m701.62 530.52h-127.5"/><path d="m701.62 521.67h-127.5"/></g></svg>