<svg xmlns="http://www.w3.org/2000/svg" width="136.9" height="168.85" viewBox="0 0 136.89771 168.84769"><g transform="translate(-890.5-521.39)" fill="none" stroke="#000" stroke-linejoin="round" stroke-linecap="round" stroke-width=".54" stroke-miterlimit="10"><path d="m1027.12 535.92h-8.85"/><path d="m1027.12 530.52v5.4"/><path d="m1018.27 530.52h8.85"/><path d="m1027.12 530.52h-8.85"/><path d="m1027.12 521.67v8.85"/><path d="m1018.27 521.67h8.85"/><path d="m1018.27 689.97h-127.5"/><path d="m909.67 598.77c0 1.409-1.141 2.55-2.55 2.55-1.409 0-2.55-1.141-2.55-2.55 0-1.409 1.141-2.55 2.55-2.55 1.409 0 2.55 1.141 2.55 2.55"/><path d="m898.72 689.97v-147.9"/><path d="m1010.32 689.97v-147.9"/><path d="m1010.32 542.07h-111.6"/><path d="m993.52 652.77v-93.9"/><path d="m915.52 652.77v-93.9"/><path d="m993.52 558.87h-78"/><path d="m1018.27 535.92h-127.5"/><path d="m1018.27 535.92v154.05"/><path d="m890.77 535.92v154.05"/><path d="m993.52 652.77h-78"/><path d="m1010.32 669.57h-111.6"/><path d="m992.32 652.77v-93.9"/><path d="m916.72 652.77v-93.9"/><path d="m1018.27 530.52h-127.5"/><path d="m1018.27 521.67h-127.5"/></g></svg>