<svg xmlns="http://www.w3.org/2000/svg" height="188.34" viewBox="0 0 128.03999 188.34273"><g transform="translate(-145.43-665.86)" fill="none" stroke-linejoin="round" stroke-linecap="round" stroke-width=".54" stroke-miterlimit="10"><g stroke="#888"><path d="m232.55 851.38l.45-.45"/><path d="m233 850.93l.45-.45"/><path d="m233.45 850.48l.6-.6"/><path d="m234.05 849.88l.45-.45"/><path d="m234.5 849.43l.45-.45"/><path d="m234.95 848.98l.3-.3"/><path d="m237.8 845.83l.3-.45"/><path d="m238.1 845.38l.45-.45"/><path d="m238.55 844.93l.45-.6"/><path d="m239 844.33l.45-.45"/><path d="m239.45 843.88l.45-.6"/><path d="m239.9 843.28l.3-.3"/><path d="m242.45 839.98l.45-.45"/><path d="m242.9 839.53l.45-.6"/><path d="m243.35 838.93l.3-.45"/><path d="m243.65 838.48l.45-.6"/><path d="m244.1 837.88l.45-.6"/><path d="m244.55 837.28l.15-.3"/><path d="m246.8 833.98l.45-.6"/><path d="m247.25 833.38l.3-.6"/><path d="m247.55 832.78l.3-.6"/><path d="m247.85 832.18l.45-.6"/><path d="m248.3 831.58l.3-.6"/><path d="m248.6 830.98l.15-.15"/><path d="m250.7 827.68v-.15"/><path d="m250.7 827.53l.45-.6"/><path d="m251.15 826.93l.3-.6"/><path d="m251.45 826.33l.3-.6"/><path d="m251.75 825.73l.3-.6"/><path d="m252.05 825.13l.3-.6"/><path d="m252.35 824.53v-.15"/><path d="m254.15 821.08l.15-.3"/><path d="m254.3 820.78l.15-.6"/><path d="m254.45 820.18l.3-.6"/><path d="m254.75 819.58l.3-.6"/><path d="m255.05 818.98l.3-.6"/><path d="m255.35 818.38l.3-.6"/><path d="m255.65 817.78v-.15"/><path d="m257.15 814.18l.15-.3"/><path d="m257.3 813.88l.15-.6"/><path d="m257.45 813.28l.3-.6"/><path d="m257.75 812.68l.3-.6"/><path d="m258.05 812.08l.15-.75"/><path d="m258.2 811.33l.3-.6"/><path d="m259.7 807.13l.15-.3"/><path d="m259.85 806.83l.15-.6"/><path d="m260 806.23l.3-.75"/><path d="m260.3 805.48l.15-.6"/><path d="m260.45 804.88l.15-.6"/><path d="m260.6 804.28l.15-.75"/><path d="m261.8 799.93l.15-.3"/><path d="m261.95 799.63l.15-.75"/><path d="m262.1 798.88l.15-.6"/><path d="m262.25 798.28l.15-.6"/><path d="m262.4 797.68l.15-.75"/><path d="m262.55 796.93l.15-.6"/><path d="m263.3 792.58l.15-.3"/><path d="m263.45 792.28l.15-.75"/><path d="m263.6 791.53l.15-.6"/><path d="m263.75 790.93v-.75"/><path d="m263.75 790.18l.15-.6"/><path d="m263.9 789.58l.15-.6"/><path d="m264.5 785.23v-.45"/><path d="m264.5 784.78l.15-.6"/><path d="m264.65 784.18v-.75"/><path d="m264.65 783.43l.15-.75"/><path d="m264.8 782.68v-.6"/><path d="m264.8 782.08l.15-.6"/><path d="m265.1 777.73v-.45"/><path d="m265.1 777.28v-.75"/><path d="m265.1 776.53l.15-.6"/><path d="m265.25 775.93v-.75"/><path d="m265.25 775.18v-.6"/><path d="m265.25 774.58v-.6"/></g><g stroke="#000"><path d="m145.7 666.13v106.35h127.5v-106.35h-127.5z"/><path d="m153.65 772.48l81.45 81.45"/></g></g></svg>