<svg xmlns="http://www.w3.org/2000/svg" width="128.05" height="381.4" viewBox="0 0 128.04768 381.39829"><g transform="translate(-145.43-244.81)" fill="none" stroke="#000" stroke-linejoin="round" stroke-linecap="round" stroke-width=".54" stroke-miterlimit="10"><path d="m273.2 625.93v-380.85"/><path d="m145.7 625.93v-380.85"/><path d="m265.25 471.73h-111.6"/><path d="m153.65 605.53h111.6"/><path d="m248.45 588.73h-78"/><path d="m248.45 494.83h-78"/><path d="m170.45 454.93h78"/><path d="m248.45 269.83v185.1"/><path d="m248.45 494.83v93.9"/><path d="m170.45 588.73v-93.9"/><path d="m170.45 454.93v-185.1"/><path d="m145.7 245.08h127.5"/><path d="m153.65 253.03h111.6"/><path d="m170.45 269.83h78"/><path d="m265.25 478.03h-111.6"/><path d="m153.65 474.58v-221.55"/><path d="m153.65 625.93v-154.2"/><path d="m265.25 474.28v-221.25"/><path d="m265.25 625.93v-154.2"/><path d="m247.4 269.83v185.1"/><path d="m247.4 494.83v93.9"/><path d="m171.5 588.73v-93.9"/><path d="m171.5 454.93v-185.1"/><path d="m145.7 625.93h127.5"/><path d="m259.4 374.53c0 1.409-1.142 2.55-2.55 2.55-1.407 0-2.55-1.142-2.55-2.55 0-1.409 1.143-2.55 2.55-2.55 1.409 0 2.55 1.142 2.55 2.55"/><path d="m259.4 534.73c0 1.409-1.142 2.55-2.55 2.55-1.407 0-2.55-1.141-2.55-2.55 0-1.409 1.143-2.55 2.55-2.55 1.409 0 2.55 1.141 2.55 2.55"/></g></svg>