<svg xmlns="http://www.w3.org/2000/svg" width="69.7" height="168.85" viewBox="0 0 69.697692 168.84768"><g transform="translate(-427.76-376.4)" fill="none" stroke="#000" stroke-linejoin="round" stroke-linecap="round" stroke-width=".54" stroke-miterlimit="10"><path d="m428.04 544.98h60.3"/><path d="m480.39 544.98v-147.9"/><path d="m435.99 544.98v-147.9"/><path d="m435.99 397.08h44.4"/><path d="m428.04 390.93h60.3"/><path d="m428.04 390.93v154.05"/><path d="m488.34 390.93v154.05"/><path d="m456.84 520.23v-123.15"/><path d="m459.54 520.23v-123.15"/><path d="m480.39 520.23h-44.4"/><path d="m480.39 522.93h-44.4"/><path d="m428.04 385.53h60.3"/><path d="m428.04 376.68h60.3"/><path d="m488.34 544.98v-154.05"/><path d="m497.19 390.93h-8.85"/><path d="m497.19 385.53v5.4"/><path d="m488.34 385.53h8.85"/><path d="m497.19 385.53h-8.85"/><path d="m497.19 376.68v8.85"/><path d="m488.34 376.68h8.85"/></g></svg>