<svg xmlns="http://www.w3.org/2000/svg" width="69.7" height="168.85" viewBox="0 0 69.697692 168.84768"><g transform="translate(-148.76-376.4)" fill="none" stroke="#000" stroke-linejoin="round" stroke-linecap="round" stroke-width=".54" stroke-miterlimit="10"><path d="m157.89 544.98h60.3"/><path d="m210.09 544.98v-147.9"/><path d="m165.84 544.98v-147.9"/><path d="m165.84 397.08h44.25"/><path d="m157.89 390.93h60.3"/><path d="m157.89 390.93v154.05"/><path d="m218.19 390.93v154.05"/><path d="m186.69 520.23v-123.15"/><path d="m189.39 520.23v-123.15"/><path d="m210.09 520.23h-44.25"/><path d="m210.09 522.93h-44.25"/><path d="m157.89 385.53h60.3"/><path d="m157.89 376.68h60.3"/><path d="m157.89 544.98v-154.05"/><path d="m149.04 390.93h8.85"/><path d="m149.04 385.53v5.4"/><path d="m157.89 385.53h-8.85"/><path d="m149.04 385.53h8.85"/><path d="m149.04 376.68v8.85"/><path d="m157.89 376.68h-8.85"/></g></svg>