<svg xmlns="http://www.w3.org/2000/svg" height="113.95" viewBox="0 0 60.84769 113.94769"><g transform="translate(-295.61-585.8)" fill="none" stroke-linejoin="round" stroke-linecap="round" stroke-width=".54" stroke-miterlimit="10"><g stroke="#000"><path d="m356.19 586.08h-60.3"/><path d="m295.89 699.48v-113.4"/><path d="m356.19 699.48h-60.3"/><path d="m356.19 586.08v113.4"/></g><g stroke="#888"><path d="m303.84 593.13v2.55"/><path d="m303.84 599.43v3.75"/><path d="m303.84 606.93v3.75"/><path d="m303.84 614.43v3.75"/><path d="m303.84 621.93v3.75"/><path d="m303.84 629.43v3.75"/><path d="m303.84 636.93v3.75"/><path d="m303.84 644.43v3.75"/><path d="m303.84 651.93v3.75"/><path d="m303.84 659.43v3.75"/><path d="m303.84 666.93v3.75"/><path d="m303.84 674.43v3.75"/><path d="m303.84 681.93v3.75"/><path d="m303.84 689.43v3.75"/><path d="m303.84 696.93v2.55"/><path d="m348.24 593.13v2.55"/><path d="m348.24 599.43v3.75"/><path d="m348.24 606.93v3.75"/><path d="m348.24 614.43v3.75"/><path d="m348.24 621.93v3.75"/><path d="m348.24 629.43v3.75"/><path d="m348.24 636.93v3.75"/><path d="m348.24 644.43v3.75"/><path d="m348.24 651.93v3.75"/><path d="m348.24 659.43v3.75"/><path d="m348.24 666.93v3.75"/><path d="m348.24 674.43v3.75"/><path d="m348.24 681.93v3.75"/><path d="m348.24 689.43v3.75"/><path d="m348.24 696.93v2.55"/><path d="m303.84 593.13h1.5"/><path d="m309.09 593.13h3.75"/><path d="m316.59 593.13h3.75"/><path d="m324.09 593.13h3.75"/><path d="m331.59 593.13h3.75"/><path d="m339.09 593.13h3.75"/><path d="m346.59 593.13h1.65"/></g></g></svg>