<svg xmlns="http://www.w3.org/2000/svg" width="78.4" height="168.84" viewBox="0 0 78.39769 168.84388"><g transform="translate(-281.06-406.46)" fill="none" stroke="#000" stroke-linejoin="round" stroke-linecap="round" stroke-width=".54" stroke-miterlimit="10"><path d="m351.24 575.03v-147.9"/><path d="m289.29 575.03v-147.9"/><path d="m289.29 427.13h61.95"/><path d="m306.09 537.83v-93.9"/><path d="m334.44 537.83v-93.9"/><path d="m306.09 443.93h28.35"/><path d="m281.34 420.98h77.85"/><path d="m281.34 420.98v154.05"/><path d="m359.19 420.98v154.05"/><path d="m281.34 575.03h77.85"/><path d="m306.09 537.83h28.35"/><path d="m289.29 554.63h61.95"/><path d="m300.24 483.83c0 1.409-1.142 2.55-2.55 2.55-1.407 0-2.55-1.142-2.55-2.55 0-1.409 1.143-2.55 2.55-2.55 1.409 0 2.55 1.142 2.55 2.55"/><path d="m307.29 537.83v-93.9"/><path d="m333.24 537.83v-93.9"/><path d="m281.34 415.58h77.85"/><path d="m281.34 406.73h77.85"/></g></svg>