<svg xmlns="http://www.w3.org/2000/svg" height="160.29" viewBox="0 0 78.540001 160.29273"><g transform="translate(-281.22-615.11)" fill="none" stroke-linejoin="round" stroke-linecap="round" stroke-width=".54" stroke-miterlimit="10"><g stroke="#000"><path d="m351.54 728.78l-46.35 46.35"/><path d="m281.49 615.38v113.4h78v-113.4h-78z"/></g><g stroke="#888"><path d="m289.44 728.78v.75"/><path d="m289.44 729.53v.75"/><path d="m289.44 730.28v.75"/><path d="m289.44 731.03l.15.75"/><path d="m289.59 731.78v.75"/><path d="m289.89 736.28l.15.75"/><path d="m290.04 737.03l.15.75"/><path d="m290.19 737.78v.75"/><path d="m290.19 738.53l.15.75"/><path d="m290.34 739.28l.15.75"/><path d="m291.39 743.63v.15"/><path d="m291.39 743.78l.15.75"/><path d="m291.54 744.53l.15.75"/><path d="m291.69 745.28l.3.75"/><path d="m291.99 746.03l.15.75"/><path d="m292.14 746.78l.15.45"/><path d="m293.49 750.68l.15.3"/><path d="m293.64 750.98l.3.75"/><path d="m293.94 751.73l.3.75"/><path d="m294.24 752.48l.3.75"/><path d="m294.54 753.23l.3.6"/><path d="m294.84 753.83l.15.3"/><path d="m296.64 757.43l.15.6"/><path d="m296.79 758.03l.3.6"/><path d="m297.09 758.63l.45.6"/><path d="m297.54 759.23l.3.75"/><path d="m297.84 759.98l.45.6"/><path d="m298.29 760.58l.15.15"/><path d="m300.39 763.88l.45.6"/><path d="m300.84 764.48l.45.6"/><path d="m301.29 765.08l.45.6"/><path d="m301.74 765.68l.45.6"/><path d="m302.19 766.28l.45.6"/><path d="m305.04 769.73l.45.6"/><path d="m305.49 770.33l.6.6"/><path d="m306.09 770.93l.45.6"/><path d="m306.54 771.53l.6.45"/><path d="m307.14 771.98l.45.45"/></g></g></svg>