<svg xmlns="http://www.w3.org/2000/svg" width="87.25" height="168.85" viewBox="0 0 87.247688 168.84769"><g transform="translate(-139.31-406.46)" fill="none" stroke="#000" stroke-linejoin="round" stroke-linecap="round" stroke-width=".54" stroke-miterlimit="10"><path d="m148.44 575.03v-154.05"/><path d="m139.59 420.98h8.85"/><path d="m139.59 415.58v5.4"/><path d="m148.44 415.58h-8.85"/><path d="m139.59 415.58h8.85"/><path d="m139.59 406.73v8.85"/><path d="m148.44 406.73h-8.85"/><path d="m218.34 575.03v-147.9"/><path d="m156.39 575.03v-147.9"/><path d="m156.39 427.13h61.95"/><path d="m173.19 537.83v-93.9"/><path d="m201.54 537.83v-93.9"/><path d="m173.19 443.93h28.35"/><path d="m148.44 420.98h77.85"/><path d="m148.44 420.98v154.05"/><path d="m226.29 420.98v154.05"/><path d="m148.44 575.03h77.85"/><path d="m173.19 537.83h28.35"/><path d="m156.39 554.63h61.95"/><path d="m167.34 483.83c0 1.409-1.142 2.55-2.55 2.55-1.407 0-2.55-1.142-2.55-2.55 0-1.409 1.143-2.55 2.55-2.55 1.409 0 2.55 1.142 2.55 2.55"/><path d="m174.39 537.83v-93.9"/><path d="m200.34 537.83v-93.9"/><path d="m148.44 415.58h77.85"/><path d="m148.44 406.73h77.85"/></g></svg>