<svg xmlns="http://www.w3.org/2000/svg" width="87.4" height="168.85" viewBox="0 0 87.39769 168.84769"><g transform="translate(-415.01-406.46)" fill="none" stroke="#000" stroke-linejoin="round" stroke-linecap="round" stroke-width=".54" stroke-miterlimit="10"><path d="m485.34 575.03v-147.9"/><path d="m423.24 575.03v-147.9"/><path d="m423.24 427.13h62.1"/><path d="m440.04 537.83v-93.9"/><path d="m468.39 537.83v-93.9"/><path d="m440.04 443.93h28.35"/><path d="m415.29 420.98h78"/><path d="m415.29 420.98v154.05"/><path d="m493.29 420.98v154.05"/><path d="m415.29 575.03h78"/><path d="m440.04 537.83h28.35"/><path d="m423.24 554.63h62.1"/><path d="m434.19 483.83c0 1.409-1.142 2.55-2.55 2.55-1.407 0-2.55-1.142-2.55-2.55 0-1.409 1.143-2.55 2.55-2.55 1.409 0 2.55 1.142 2.55 2.55"/><path d="m441.39 537.83v-93.9"/><path d="m467.19 537.83v-93.9"/><path d="m415.29 415.58h78"/><path d="m415.29 406.73h78"/><path d="m493.29 575.03v-154.05"/><path d="m502.14 420.98h-8.85"/><path d="m502.14 415.58v5.4"/><path d="m493.29 415.58h8.85"/><path d="m502.14 415.58h-8.85"/><path d="m502.14 406.73v8.85"/><path d="m493.29 406.73h8.85"/></g></svg>