<svg xmlns="http://www.w3.org/2000/svg" height="200.64" viewBox="0 0 128.03999 200.64273"><g transform="translate(-151.14-607.85)" fill="none" stroke-linejoin="round" stroke-linecap="round" stroke-width=".54" stroke-miterlimit="10"><g stroke="#888"><path d="m238.26 805.67l.45-.45"/><path d="m238.71 805.22l.45-.45"/><path d="m239.16 804.77l.6-.6"/><path d="m239.76 804.17l.45-.45"/><path d="m240.21 803.72l.45-.45"/><path d="m240.66 803.27l.3-.3"/><path d="m243.51 800.12l.3-.45"/><path d="m243.81 799.67l.45-.45"/><path d="m244.26 799.22l.45-.6"/><path d="m244.71 798.62l.45-.45"/><path d="m245.16 798.17l.45-.6"/><path d="m245.61 797.57l.3-.3"/><path d="m248.16 794.27l.45-.45"/><path d="m248.61 793.82l.45-.6"/><path d="m249.06 793.22l.3-.45"/><path d="m249.36 792.77l.45-.6"/><path d="m249.81 792.17l.45-.6"/><path d="m250.26 791.57l.15-.3"/><path d="m252.51 788.27l.45-.6"/><path d="m252.96 787.67l.3-.6"/><path d="m253.26 787.07l.3-.6"/><path d="m253.56 786.47l.45-.6"/><path d="m254.01 785.87l.3-.6"/><path d="m254.31 785.27l.15-.15"/><path d="m256.41 781.97v-.15"/><path d="m256.41 781.82l.45-.6"/><path d="m256.86 781.22l.3-.6"/><path d="m257.16 780.62l.3-.6"/><path d="m257.46 780.02l.3-.6"/><path d="m257.76 779.42l.3-.6"/><path d="m258.06 778.82v-.15"/><path d="m259.86 775.37l.15-.3"/><path d="m260.01 775.07l.15-.6"/><path d="m260.16 774.47l.3-.6"/><path d="m260.46 773.87l.3-.6"/><path d="m260.76 773.27l.3-.6"/><path d="m261.06 772.67l.3-.6"/><path d="m261.36 772.07v-.15"/><path d="m262.86 768.47l.15-.3"/><path d="m263.01 768.17l.15-.6"/><path d="m263.16 767.57l.3-.6"/><path d="m263.46 766.97l.3-.6"/><path d="m263.76 766.37l.15-.75"/><path d="m263.91 765.62l.3-.6"/><path d="m265.41 761.42l.15-.3"/><path d="m265.56 761.12l.15-.6"/><path d="m265.71 760.52l.3-.75"/><path d="m266.01 759.77l.15-.6"/><path d="m266.16 759.17l.15-.6"/><path d="m266.31 758.57l.15-.75"/><path d="m267.51 754.22l.15-.3"/><path d="m267.66 753.92l.15-.75"/><path d="m267.81 753.17l.15-.6"/><path d="m267.96 752.57l.15-.6"/><path d="m268.11 751.97l.15-.75"/><path d="m268.26 751.22l.15-.6"/><path d="m269.01 746.87l.15-.3"/><path d="m269.16 746.57l.15-.75"/><path d="m269.31 745.82l.15-.6"/><path d="m269.46 745.22v-.75"/><path d="m269.46 744.47l.15-.6"/><path d="m269.61 743.87l.15-.6"/><path d="m270.21 739.52v-.45"/><path d="m270.21 739.07l.15-.6"/><path d="m270.36 738.47v-.75"/><path d="m270.36 737.72l.15-.75"/><path d="m270.51 736.97v-.6"/><path d="m270.51 736.37l.15-.6"/><path d="m270.81 732.02v-.45"/><path d="m270.81 731.57v-.75"/><path d="m270.81 730.82l.15-.6"/><path d="m270.96 730.22v-.75"/><path d="m270.96 729.47v-.6"/><path d="m270.96 728.87v-.6"/></g><g stroke="#000"><path d="m151.41 608.12v118.65h127.5v-118.65h-127.5z"/><path d="m159.36 726.77l81.45 81.45"/></g></g></svg>