<svg xmlns="http://www.w3.org/2000/svg" width="128.05" height="381.4" viewBox="0 0 128.0477 381.39828"><g transform="translate(-151.14-199.09)" fill="none" stroke="#000" stroke-linejoin="round" stroke-linecap="round" stroke-width=".54" stroke-miterlimit="10"><path d="m278.91 580.22v-380.85"/><path d="m151.41 580.22v-380.85"/><path d="m270.96 426.02h-111.6"/><path d="m159.36 559.82h111.6"/><path d="m254.16 543.02h-78"/><path d="m254.16 449.12h-78"/><path d="m176.16 409.22h78"/><path d="m254.16 224.12v185.1"/><path d="m254.16 449.12v93.9"/><path d="m176.16 543.02v-93.9"/><path d="m176.16 409.22v-185.1"/><path d="m151.41 199.37h127.5"/><path d="m159.36 207.32h111.6"/><path d="m176.16 224.12h78"/><path d="m270.96 432.32h-111.6"/><path d="m159.36 428.87v-221.55"/><path d="m159.36 580.22v-154.2"/><path d="m270.96 428.57v-221.25"/><path d="m270.96 580.22v-154.2"/><path d="m253.11 224.12v185.1"/><path d="m253.11 449.12v93.9"/><path d="m177.21 543.02v-93.9"/><path d="m177.21 409.22v-185.1"/><path d="m151.41 580.22h127.5"/><path d="m265.11 328.82c0 1.409-1.142 2.55-2.55 2.55-1.407 0-2.55-1.142-2.55-2.55 0-1.409 1.143-2.55 2.55-2.55 1.409 0 2.55 1.142 2.55 2.55"/><path d="m265.11 489.02c0 1.409-1.142 2.55-2.55 2.55-1.407 0-2.55-1.142-2.55-2.55 0-1.409 1.143-2.55 2.55-2.55 1.409 0 2.55 1.142 2.55 2.55"/></g></svg>