<svg xmlns="http://www.w3.org/2000/svg" height="200.64" viewBox="0 0 128.03999 200.64273"><g transform="translate(-128.29-602.13)" fill="none" stroke-linejoin="round" stroke-linecap="round" stroke-width=".54" stroke-miterlimit="10"><g stroke="#888"><path d="m215.41 799.95l.45-.45"/><path d="m215.86 799.5l.45-.45"/><path d="m216.31 799.05l.6-.6"/><path d="m216.91 798.45l.45-.45"/><path d="m217.36 798l.45-.45"/><path d="m217.81 797.55l.3-.3"/><path d="m220.66 794.4l.3-.45"/><path d="m220.96 793.95l.45-.45"/><path d="m221.41 793.5l.45-.6"/><path d="m221.86 792.9l.45-.45"/><path d="m222.31 792.45l.45-.6"/><path d="m222.76 791.85l.3-.3"/><path d="m225.31 788.55l.45-.45"/><path d="m225.76 788.1l.45-.6"/><path d="m226.21 787.5l.3-.45"/><path d="m226.51 787.05l.45-.6"/><path d="m226.96 786.45l.45-.6"/><path d="m227.41 785.85l.15-.3"/><path d="m229.66 782.55l.45-.6"/><path d="m230.11 781.95l.3-.6"/><path d="m230.41 781.35l.3-.6"/><path d="m230.71 780.75l.45-.6"/><path d="m231.16 780.15l.3-.6"/><path d="m231.46 779.55l.15-.15"/><path d="m233.56 776.25v-.15"/><path d="m233.56 776.1l.45-.6"/><path d="m234.01 775.5l.3-.6"/><path d="m234.31 774.9l.3-.6"/><path d="m234.61 774.3l.3-.6"/><path d="m234.91 773.7l.3-.6"/><path d="m235.21 773.1v-.15"/><path d="m237.01 769.65l.15-.3"/><path d="m237.16 769.35l.15-.6"/><path d="m237.31 768.75l.3-.6"/><path d="m237.61 768.15l.3-.6"/><path d="m237.91 767.55l.3-.6"/><path d="m238.21 766.95l.3-.6"/><path d="m238.51 766.35v-.15"/><path d="m240.01 762.75l.15-.3"/><path d="m240.16 762.45l.15-.6"/><path d="m240.31 761.85l.3-.6"/><path d="m240.61 761.25l.3-.6"/><path d="m240.91 760.65l.15-.75"/><path d="m241.06 759.9l.3-.6"/><path d="m242.56 755.7l.15-.3"/><path d="m242.71 755.4l.15-.6"/><path d="m242.86 754.8l.3-.75"/><path d="m243.16 754.05l.15-.6"/><path d="m243.31 753.45l.15-.6"/><path d="m243.46 752.85l.15-.75"/><path d="m244.66 748.5l.15-.3"/><path d="m244.81 748.2l.15-.75"/><path d="m244.96 747.45l.15-.6"/><path d="m245.11 746.85l.15-.6"/><path d="m245.26 746.25l.15-.75"/><path d="m245.41 745.5l.15-.6"/><path d="m246.16 741.15l.15-.3"/><path d="m246.31 740.85l.15-.75"/><path d="m246.46 740.1l.15-.6"/><path d="m246.61 739.5v-.75"/><path d="m246.61 738.75l.15-.6"/><path d="m246.76 738.15l.15-.6"/><path d="m247.36 733.8v-.45"/><path d="m247.36 733.35l.15-.6"/><path d="m247.51 732.75v-.75"/><path d="m247.51 732l.15-.75"/><path d="m247.66 731.25v-.6"/><path d="m247.66 730.65l.15-.6"/><path d="m247.96 726.3v-.45"/><path d="m247.96 725.85v-.75"/><path d="m247.96 725.1l.15-.6"/><path d="m248.11 724.5v-.75"/><path d="m248.11 723.75v-.6"/><path d="m248.11 723.15v-.6"/></g><g stroke="#000"><path d="m128.56 602.4v118.65h127.5v-118.65h-127.5z"/><path d="m136.51 721.05l81.45 81.45"/></g></g></svg>