<svg xmlns="http://www.w3.org/2000/svg" width="128.05" height="381.4" viewBox="0 0 128.0477 381.39828"><g transform="translate(-128.29-193.38)" fill="none" stroke="#000" stroke-linejoin="round" stroke-linecap="round" stroke-width=".54" stroke-miterlimit="10"><path d="m256.06 574.5v-380.85"/><path d="m128.56 574.5v-380.85"/><path d="m248.11 420.3h-111.6"/><path d="m136.51 554.1h111.6"/><path d="m231.31 537.3h-78"/><path d="m231.31 443.4h-78"/><path d="m153.31 403.5h78"/><path d="m231.31 218.4v185.1"/><path d="m231.31 443.4v93.9"/><path d="m153.31 537.3v-93.9"/><path d="m153.31 403.5v-185.1"/><path d="m128.56 193.65h127.5"/><path d="m136.51 201.6h111.6"/><path d="m153.31 218.4h78"/><path d="m248.11 426.6h-111.6"/><path d="m136.51 423.15v-221.55"/><path d="m136.51 574.5v-154.2"/><path d="m248.11 422.85v-221.25"/><path d="m248.11 574.5v-154.2"/><path d="m230.26 218.4v185.1"/><path d="m230.26 443.4v93.9"/><path d="m154.36 537.3v-93.9"/><path d="m154.36 403.5v-185.1"/><path d="m128.56 574.5h127.5"/><path d="m242.26 323.1c0 1.409-1.142 2.55-2.55 2.55-1.407 0-2.55-1.142-2.55-2.55 0-1.409 1.143-2.55 2.55-2.55 1.409 0 2.55 1.142 2.55 2.55"/><path d="m242.26 483.3c0 1.409-1.142 2.55-2.55 2.55-1.407 0-2.55-1.142-2.55-2.55 0-1.409 1.143-2.55 2.55-2.55 1.409 0 2.55 1.142 2.55 2.55"/></g></svg>