<svg xmlns="http://www.w3.org/2000/svg" width="113.94" height="154.6" viewBox="0 0 113.94387 154.5977"><g transform="translate(-198.08-375.6)" fill="none" stroke="#000" stroke-linejoin="round" stroke-linecap="round" stroke-width=".54" stroke-miterlimit="10"><path d="m198.35 375.87v154.05h113.4v-154.05h-113.4z"/><path d="m308 375.87v154.05"/><path d="m287.3 375.87v53.1"/><path d="m287.3 433.47v53.1"/><path d="m287.3 490.92v39"/><path d="m267.8 375.87v53.1"/><path d="m267.8 433.47v53.1"/><path d="m267.8 490.92v39"/><path d="m248.3 375.87v53.1"/><path d="m248.3 433.47v53.1"/><path d="m248.3 490.92v39"/><path d="m228.8 375.87v53.1"/><path d="m228.8 433.47v53.1"/><path d="m228.8 490.92v39"/><path d="m209.3 375.87v53.1"/><path d="m209.3 433.47v53.1"/><path d="m209.3 490.92v39"/><path d="m306.8 428.97h-108.45"/><path d="m306.8 433.47h-108.45"/><path d="m306.8 486.57h-108.45"/><path d="m306.8 490.92h-108.45"/><path d="m306.8 375.87v154.05"/><path d="m311.75 375.87v154.05"/></g></svg>