<svg xmlns="http://www.w3.org/2000/svg" width="113.94" height="154.6" viewBox="0 0 113.94386 154.59768"><g transform="translate(-447.98-375.6)" fill="none" stroke="#000" stroke-linejoin="round" stroke-linecap="round" stroke-width=".54" stroke-miterlimit="10"><path d="m448.25 375.87v154.05h113.4v-154.05h-113.4z"/><path d="m452 375.87v154.05"/><path d="m472.7 375.87v53.1"/><path d="m472.7 433.47v53.1"/><path d="m472.7 490.92v39"/><path d="m492.2 375.87v53.1"/><path d="m492.2 433.47v53.1"/><path d="m492.2 490.92v39"/><path d="m511.7 375.87v53.1"/><path d="m511.7 433.47v53.1"/><path d="m511.7 490.92v39"/><path d="m531.2 375.87v53.1"/><path d="m531.2 433.47v53.1"/><path d="m531.2 490.92v39"/><path d="m550.7 375.87v53.1"/><path d="m550.7 433.47v53.1"/><path d="m550.7 490.92v39"/><path d="m453.2 428.97h108.45"/><path d="m453.2 433.47h108.45"/><path d="m453.2 486.57h108.45"/><path d="m453.2 490.92h108.45"/><path d="m453.2 375.87v154.05"/><path d="m448.25 375.87v154.05"/></g></svg>