<svg xmlns="http://www.w3.org/2000/svg" height="188.34" viewBox="0 0 128.03999 188.34273"><g transform="translate(-404.34-683)" fill="none" stroke-linejoin="round" stroke-linecap="round" stroke-width=".54" stroke-miterlimit="10"><g stroke="#888"><path d="m412.56 789.62v.75"/><path d="m412.56 790.37v.6"/><path d="m412.56 790.97v.75"/><path d="m412.56 791.72v.6"/><path d="m412.56 792.32v.75"/><path d="m412.56 793.07v.3"/><path d="m412.71 797.12l.15.75"/><path d="m412.86 797.87v.6"/><path d="m412.86 798.47l.15.75"/><path d="m413.01 799.22v.6"/><path d="m413.01 799.82v.75"/><path d="m413.01 800.57v.3"/><path d="m413.61 804.62v.75"/><path d="m413.61 805.37l.15.6"/><path d="m413.76 805.97v.75"/><path d="m413.76 806.72l.15.6"/><path d="m413.91 807.32l.15.75"/><path d="m414.06 808.07v.3"/><path d="m414.81 811.97v.15"/><path d="m414.81 812.12l.15.6"/><path d="m414.96 812.72l.15.75"/><path d="m415.11 813.47l.15.6"/><path d="m415.26 814.07l.15.75"/><path d="m415.41 814.82l.15.6"/><path d="m415.56 815.42v.15"/><path d="m416.61 819.17v.3"/><path d="m416.61 819.47l.15.6"/><path d="m416.76 820.07l.15.6"/><path d="m416.91 820.67l.15.75"/><path d="m417.06 821.42l.3.6"/><path d="m417.36 822.02l.15.6"/><path d="m417.51 822.62v.15"/><path d="m418.71 826.22l.15.3"/><path d="m418.86 826.52l.15.75"/><path d="m419.01 827.27l.3.6"/><path d="m419.31 827.87l.15.6"/><path d="m419.46 828.47l.3.75"/><path d="m419.76 829.22l.3.45"/><path d="m421.41 833.12l.15.45"/><path d="m421.56 833.57l.3.6"/><path d="m421.86 834.17l.3.75"/><path d="m422.16 834.92l.15.6"/><path d="m422.31 835.52l.3.6"/><path d="m422.61 836.12l.3.45"/><path d="m424.41 840.02l.3.45"/><path d="m424.71 840.47l.3.6"/><path d="m425.01 841.07l.3.6"/><path d="m425.31 841.67l.45.6"/><path d="m425.76 842.27l.3.6"/><path d="m426.06 842.87l.15.45"/><path d="m428.01 846.62l.45.45"/><path d="m428.46 847.07l.3.6"/><path d="m428.76 847.67l.3.45"/><path d="m429.06 848.12l.45.6"/><path d="m429.51 848.72l.3.6"/><path d="m429.81 849.32l.3.45"/><path d="m432.21 852.92l.3.45"/><path d="m432.51 853.37l.3.6"/><path d="m432.81 853.97l.45.45"/><path d="m433.26 854.42l.45.6"/><path d="m433.71 855.02l.3.6"/><path d="m434.01 855.62l.3.3"/><path d="m436.56 858.92l.45.45"/><path d="m437.01 859.37l.45.6"/><path d="m437.46 859.97l.45.45"/><path d="m437.91 860.42l.45.6"/><path d="m438.36 861.02l.3.45"/><path d="m438.66 861.47l.3.3"/><path d="m441.51 864.62l.45.45"/><path d="m441.96 865.07l.45.6"/><path d="m442.41 865.67l.45.45"/><path d="m442.86 866.12l.45.45"/><path d="m443.31 866.57l.45.45"/><path d="m443.76 867.02l.3.3"/></g><g stroke="#000"><path d="m404.61 683.27v106.35h127.5v-106.35h-127.5z"/><path d="m524.16 789.62l-81.45 81.45"/></g></g></svg>