<svg xmlns="http://www.w3.org/2000/svg" width="128.05" height="381.4" viewBox="0 0 128.04768 381.39829"><g transform="translate(-404.34-261.95)" fill="none" stroke="#000" stroke-linejoin="round" stroke-linecap="round" stroke-width=".54" stroke-miterlimit="10"><path d="m404.61 643.07v-380.85"/><path d="m532.11 643.07v-380.85"/><path d="m412.56 488.87h111.6"/><path d="m524.16 622.67h-111.6"/><path d="m429.36 605.87h78"/><path d="m429.36 511.97h78"/><path d="m507.36 472.07h-78"/><path d="m429.36 286.97v185.1"/><path d="m429.36 511.97v93.9"/><path d="m507.36 605.87v-93.9"/><path d="m507.36 472.07v-185.1"/><path d="m532.11 262.22h-127.5"/><path d="m524.16 270.17h-111.6"/><path d="m507.36 286.97h-78"/><path d="m412.56 495.17h111.6"/><path d="m524.16 491.72v-221.55"/><path d="m524.16 643.07v-154.2"/><path d="m412.56 491.42v-221.25"/><path d="m412.56 643.07v-154.2"/><path d="m430.41 286.97v185.1"/><path d="m430.41 511.97v93.9"/><path d="m506.31 605.87v-93.9"/><path d="m506.31 472.07v-185.1"/><path d="m532.11 643.07h-127.5"/><path d="m423.51 391.67c0 1.409-1.142 2.55-2.55 2.55-1.407 0-2.55-1.142-2.55-2.55 0-1.409 1.143-2.55 2.55-2.55 1.409 0 2.55 1.142 2.55 2.55"/><path d="m423.51 551.87c0 1.409-1.142 2.55-2.55 2.55-1.407 0-2.55-1.141-2.55-2.55 0-1.409 1.143-2.55 2.55-2.55 1.409 0 2.55 1.141 2.55 2.55"/></g></svg>