<svg xmlns="http://www.w3.org/2000/svg" width="136.9" height="168.85" viewBox="0 0 136.8977 168.84769"><g transform="translate(-591.21-438.54)" fill="none" stroke="#000" stroke-linejoin="round" stroke-linecap="round" stroke-width=".54" stroke-miterlimit="10"><path d="m718.98 607.11h-127.5"/><path d="m610.38 515.91c0 1.409-1.141 2.55-2.55 2.55-1.409 0-2.55-1.141-2.55-2.55 0-1.409 1.141-2.55 2.55-2.55 1.409 0 2.55 1.141 2.55 2.55"/><path d="m599.43 607.11v-147.9"/><path d="m711.03 607.11v-147.9"/><path d="m711.03 459.21h-111.6"/><path d="m694.23 569.91v-93.9"/><path d="m616.23 569.91v-93.9"/><path d="m694.23 476.01h-78"/><path d="m718.98 453.06h-127.5"/><path d="m718.98 453.06v154.05"/><path d="m591.48 453.06v154.05"/><path d="m694.23 569.91h-78"/><path d="m711.03 586.71h-111.6"/><path d="m692.88 569.91v-93.9"/><path d="m617.43 569.91v-93.9"/><path d="m718.98 447.66h-127.5"/><path d="m718.98 438.81h-127.5"/><path d="m718.98 607.11v-154.05"/><path d="m727.83 453.06h-8.85"/><path d="m727.83 447.66v5.4"/><path d="m718.98 447.66h8.85"/><path d="m727.83 447.66h-8.85"/><path d="m727.83 438.81v8.85"/><path d="m718.98 438.81h8.85"/></g></svg>