<svg xmlns="http://www.w3.org/2000/svg" width="128.05" height="381.4" viewBox="0 0 128.04768 381.39829"><g transform="translate(-174.7-200.53)" fill="none" stroke="#000" stroke-linejoin="round" stroke-linecap="round" stroke-width=".54" stroke-miterlimit="10"><path d="m174.97 581.65v-380.85"/><path d="m302.47 581.65v-380.85"/><path d="m182.92 427.45h111.6"/><path d="m294.52 561.25h-111.6"/><path d="m199.72 544.45h78"/><path d="m199.72 450.55h78"/><path d="m277.72 410.65h-78"/><path d="m199.72 225.55v185.1"/><path d="m199.72 450.55v93.9"/><path d="m277.72 544.45v-93.9"/><path d="m277.72 410.65v-185.1"/><path d="m302.47 200.8h-127.5"/><path d="m294.52 208.75h-111.6"/><path d="m277.72 225.55h-78"/><path d="m182.92 433.75h111.6"/><path d="m294.52 430.3v-221.55"/><path d="m294.52 581.65v-154.2"/><path d="m182.92 430v-221.25"/><path d="m182.92 581.65v-154.2"/><path d="m200.77 225.55v185.1"/><path d="m200.77 450.55v93.9"/><path d="m276.67 544.45v-93.9"/><path d="m276.67 410.65v-185.1"/><path d="m302.47 581.65h-127.5"/><path d="m193.87 330.25c0 1.409-1.142 2.55-2.55 2.55-1.407 0-2.55-1.142-2.55-2.55 0-1.409 1.143-2.55 2.55-2.55 1.409 0 2.55 1.142 2.55 2.55"/><path d="m193.87 490.45c0 1.409-1.142 2.55-2.55 2.55-1.407 0-2.55-1.142-2.55-2.55 0-1.409 1.143-2.55 2.55-2.55 1.409 0 2.55 1.142 2.55 2.55"/></g></svg>