<svg xmlns="http://www.w3.org/2000/svg" height="85.59" viewBox="0 0 128.03999 85.592729"><g transform="translate(-174.7-670.03)" fill="none" stroke-linejoin="round" stroke-linecap="round" stroke-width=".54" stroke-miterlimit="10"><g stroke="#000"><path d="m174.97 670.3v3.6h127.5v-3.6h-127.5z"/><path d="m294.52 673.9l-81.45 81.45"/></g><g stroke="#888"><path d="m182.92 673.9v.75"/><path d="m182.92 674.65v.6"/><path d="m182.92 675.25v.75"/><path d="m182.92 676v.75"/><path d="m182.92 676.75l.15.6"/><path d="m183.07 677.35v.3"/><path d="m183.22 681.4v.15"/><path d="m183.22 681.55v.6"/><path d="m183.22 682.15l.15.75"/><path d="m183.37 682.9v.6"/><path d="m183.37 683.5v.75"/><path d="m183.37 684.25l.15.6"/><path d="m183.52 684.85v.3"/><path d="m183.97 688.9l.15.75"/><path d="m184.12 689.65v.6"/><path d="m184.12 690.25l.15.75"/><path d="m184.27 691l.15.75"/><path d="m184.42 691.75v.6"/><path d="m184.42 692.35v.3"/><path d="m185.17 696.25v.15"/><path d="m185.17 696.4l.15.6"/><path d="m185.32 697l.15.75"/><path d="m185.47 697.75l.15.6"/><path d="m185.62 698.35l.15.75"/><path d="m185.77 699.1l.15.6"/><path d="m185.92 699.7v.15"/><path d="m186.97 703.45v.3"/><path d="m186.97 703.75l.15.6"/><path d="m187.12 704.35l.3.75"/><path d="m187.42 705.1l.15.6"/><path d="m187.57 705.7l.15.6"/><path d="m187.72 706.3l.3.75"/><path d="m189.22 710.65v.3"/><path d="m189.22 710.95l.3.6"/><path d="m189.52 711.55l.15.6"/><path d="m189.67 712.15l.3.75"/><path d="m189.97 712.9l.15.6"/><path d="m190.12 713.5l.3.6"/><path d="m191.77 717.55l.15.3"/><path d="m191.92 717.85l.3.75"/><path d="m192.22 718.6l.3.6"/><path d="m192.52 719.2l.3.6"/><path d="m192.82 719.8l.3.6"/><path d="m193.12 720.4l.3.6"/><path d="m195.07 724.45l.15.3"/><path d="m195.22 724.75l.3.6"/><path d="m195.52 725.35l.3.6"/><path d="m195.82 725.95l.3.6"/><path d="m196.12 726.55l.3.6"/><path d="m196.42 727.15l.3.6"/><path d="m198.67 730.9l.15.45"/><path d="m198.82 731.35l.3.6"/><path d="m199.12 731.95l.45.6"/><path d="m199.57 732.55l.3.6"/><path d="m199.87 733.15l.45.45"/><path d="m200.32 733.6l.3.45"/><path d="m202.57 737.2l.3.45"/><path d="m202.87 737.65l.45.6"/><path d="m203.32 738.25l.45.45"/><path d="m203.77 738.7l.3.6"/><path d="m204.07 739.3l.45.6"/><path d="m204.52 739.9l.3.3"/><path d="m206.92 743.2l.45.45"/><path d="m207.37 743.65l.45.6"/><path d="m207.82 744.25l.45.45"/><path d="m208.27 744.7l.45.6"/><path d="m208.72 745.3l.45.45"/><path d="m209.17 745.75l.15.3"/><path d="m211.87 748.9l.45.45"/><path d="m212.32 749.35l.45.6"/><path d="m212.77 749.95l.45.45"/><path d="m213.22 750.4l.45.45"/><path d="m213.67 750.85l.45.6"/><path d="m214.12 751.45l.3.15"/></g></g></svg>