<svg xmlns="http://www.w3.org/2000/svg" viewBox="0 0 229.14 60.843846"><g transform="translate(-413.96-750.34)" fill="none" stroke-linejoin="round" stroke-linecap="round" stroke-width=".54" stroke-miterlimit="10"><path d="m414.23 750.61v60.3h228.6v-60.3h-228.6z" stroke="#000"/><g stroke="#888"><path d="m422.18 810.91v-.9"/><path d="m422.18 806.26v-3.75"/><path d="m422.18 798.76v-3.75"/><path d="m422.18 791.26v-3.75"/><path d="m422.18 783.76v-3.75"/><path d="m422.18 776.26v-3.75"/><path d="m422.18 768.76v-3.75"/><path d="m422.18 761.26v-.9"/><path d="m634.88 810.91v-.9"/><path d="m634.88 806.26v-3.75"/><path d="m634.88 798.76v-3.75"/><path d="m634.88 791.26v-3.75"/><path d="m634.88 783.76v-3.75"/><path d="m634.88 776.26v-3.75"/><path d="m634.88 768.76v-3.75"/><path d="m634.88 761.26v-.9"/><path d="m634.88 760.36h-3.15"/><path d="m627.98 760.36h-3.75"/><path d="m620.48 760.36h-3.75"/><path d="m612.98 760.36h-3.75"/><path d="m605.48 760.36h-3.75"/><path d="m597.98 760.36h-3.75"/><path d="m590.48 760.36h-3.75"/><path d="m582.98 760.36h-3.75"/><path d="m575.48 760.36h-3.75"/><path d="m567.98 760.36h-3.75"/><path d="m560.48 760.36h-3.75"/><path d="m552.98 760.36h-3.75"/><path d="m545.48 760.36h-3.75"/><path d="m537.98 760.36h-3.75"/><path d="m530.48 760.36h-3.75"/><path d="m522.98 760.36h-3.75"/><path d="m515.48 760.36h-3.75"/><path d="m507.98 760.36h-3.75"/><path d="m500.48 760.36h-3.75"/><path d="m492.98 760.36h-3.75"/><path d="m485.48 760.36h-3.75"/><path d="m477.98 760.36h-3.75"/><path d="m470.48 760.36h-3.75"/><path d="m462.98 760.36h-3.75"/><path d="m455.48 760.36h-3.75"/><path d="m447.98 760.36h-3.75"/><path d="m440.48 760.36h-3.75"/><path d="m432.98 760.36h-3.75"/><path d="m425.48 760.36h-3.3"/></g></g></svg>