<svg xmlns="http://www.w3.org/2000/svg" width="238" height="168.85" viewBox="0 0 237.99709 168.84768"><g transform="translate(-100.16-487.83)" fill="none" stroke-linejoin="round" stroke-linecap="round" stroke-miterlimit="10"><g stroke="#aaa"><g stroke-width=".09"><path d="m224.48 601.43c0 .456-.369.825-.825.825-.454 0-.825-.369-.825-.825 0-.456.37-.825.825-.825.456 0 .825.369.825.825"/><path d="m224.48 592.58c0 .456-.369.825-.825.825-.454 0-.825-.369-.825-.825 0-.456.37-.825.825-.825.456 0 .825.369.825.825"/><path d="m224.48 583.73c0 .456-.369.825-.825.825-.454 0-.825-.369-.825-.825 0-.456.37-.825.825-.825.456 0 .825.369.825.825"/><path d="m224.48 574.88c0 .456-.369.825-.825.825-.454 0-.825-.369-.825-.825 0-.456.37-.825.825-.825.456 0 .825.369.825.825"/><path d="m224.48 566.03c0 .456-.369.825-.825.825-.454 0-.825-.369-.825-.825 0-.456.37-.825.825-.825.456 0 .825.369.825.825"/><path d="m224.48 557.18c0 .456-.369.825-.825.825-.454 0-.825-.369-.825-.825 0-.456.37-.825.825-.825.456 0 .825.369.825.825"/><path d="m224.48 548.33c0 .456-.369.825-.825.825-.454 0-.825-.369-.825-.825 0-.456.37-.825.825-.825.456 0 .825.369.825.825"/><path d="m224.48 539.41c0 .414-.369.75-.825.75-.454 0-.825-.336-.825-.75 0-.414.37-.75.825-.75.456 0 .825.336.825.75"/></g><g stroke-width=".54"><path d="m135.98 543.76v-35.25"/><path d="m135.98 588.01v-40.5"/><path d="m135.98 632.41v-40.65"/><path d="m155.33 543.76v-35.25"/><path d="m155.33 588.01v-40.5"/><path d="m155.33 632.41v-40.65"/><path d="m174.83 543.76v-35.25"/><path d="m174.83 588.01v-40.5"/><path d="m174.83 632.41v-40.65"/><path d="m194.33 543.76v-35.25"/><path d="m194.33 588.01v-40.5"/><path d="m194.33 632.41v-40.65"/><path d="m213.83 543.76v-35.25"/><path d="m213.83 588.01v-40.5"/><path d="m213.83 632.41v-40.65"/><path d="m233.33 543.76v-35.25"/><path d="m233.33 588.01v-40.5"/><path d="m233.33 632.41v-40.65"/><path d="m252.83 543.76v-35.25"/><path d="m252.83 588.01v-40.5"/><path d="m252.83 632.41v-40.65"/><path d="m272.33 543.76v-35.25"/><path d="m272.33 588.01v-40.5"/><path d="m272.33 632.41v-40.65"/><path d="m291.83 543.76v-35.25"/><path d="m291.83 588.01v-40.5"/><path d="m291.83 632.41v-40.65"/><path d="m311.33 543.76v-35.25"/><path d="m311.33 588.01v-40.5"/><path d="m311.33 632.41v-40.65"/></g></g><g stroke="#000" stroke-width=".54"><path d="m117.38 656.41v-147.9"/><path d="m109.28 502.36h228.6"/><path d="m109.28 502.36v154.05"/><path d="m329.93 656.41v-147.9"/><path d="m117.38 508.51h212.55"/><path d="m337.88 502.36v154.05"/><path d="m109.28 656.41h228.6"/><path d="m117.38 632.41h212.55"/><path d="m117.38 636.01h212.55"/><path d="m117.38 591.76h212.55"/><path d="m117.38 588.01h212.55"/><path d="m117.38 547.51h212.55"/><path d="m117.38 543.76h212.55"/></g><path d="m329.93 508.51v-6.15" stroke="#aaa" stroke-width=".09"/><g stroke="#000" stroke-width=".54"><path d="m109.28 496.96h228.6"/><path d="m109.28 488.11h228.6"/><path d="m109.28 656.41v-154.05"/><path d="m100.43 502.36h8.85"/><path d="m100.43 496.96v5.4"/><path d="m109.28 496.96h-8.85"/><path d="m100.43 496.96h8.85"/><path d="m100.43 488.11v8.85"/><path d="m109.28 488.11h-8.85"/></g></g></svg>