<svg xmlns="http://www.w3.org/2000/svg" width="238" height="168.85" viewBox="0 0 237.9977 168.84768"><g transform="translate(-717.56-487.83)" fill="none" stroke-linejoin="round" stroke-linecap="round" stroke-miterlimit="10"><g stroke="#aaa"><g stroke-width=".09"><path d="m833.03 601.43c0 .456-.369.825-.825.825-.455 0-.825-.369-.825-.825 0-.456.37-.825.825-.825.456 0 .825.369.825.825"/><path d="m833.03 592.58c0 .456-.369.825-.825.825-.455 0-.825-.369-.825-.825 0-.456.37-.825.825-.825.456 0 .825.369.825.825"/><path d="m833.03 583.73c0 .456-.369.825-.825.825-.455 0-.825-.369-.825-.825 0-.456.37-.825.825-.825.456 0 .825.369.825.825"/><path d="m833.03 574.88c0 .456-.369.825-.825.825-.455 0-.825-.369-.825-.825 0-.456.37-.825.825-.825.456 0 .825.369.825.825"/><path d="m833.03 566.03c0 .456-.369.825-.825.825-.455 0-.825-.369-.825-.825 0-.456.37-.825.825-.825.456 0 .825.369.825.825"/><path d="m833.03 557.18c0 .456-.369.825-.825.825-.455 0-.825-.369-.825-.825 0-.456.37-.825.825-.825.456 0 .825.369.825.825"/><path d="m833.03 548.33c0 .456-.369.825-.825.825-.455 0-.825-.369-.825-.825 0-.456.37-.825.825-.825.456 0 .825.369.825.825"/><path d="m833.03 539.41c0 .414-.369.75-.825.75-.455 0-.825-.336-.825-.75 0-.414.37-.75.825-.75.456 0 .825.336.825.75"/></g><g stroke-width=".54"><path d="m744.53 543.76v-35.25"/><path d="m744.53 588.01v-40.5"/><path d="m744.53 632.41v-40.65"/><path d="m764.03 543.76v-35.25"/><path d="m764.03 588.01v-40.5"/><path d="m764.03 632.41v-40.65"/><path d="m783.38 543.76v-35.25"/><path d="m783.38 588.01v-40.5"/><path d="m783.38 632.41v-40.65"/><path d="m802.88 543.76v-35.25"/><path d="m802.88 588.01v-40.5"/><path d="m802.88 632.41v-40.65"/><path d="m822.38 543.76v-35.25"/><path d="m822.38 588.01v-40.5"/><path d="m822.38 632.41v-40.65"/><path d="m841.88 543.76v-35.25"/><path d="m841.88 588.01v-40.5"/><path d="m841.88 632.41v-40.65"/><path d="m861.38 543.76v-35.25"/><path d="m861.38 588.01v-40.5"/><path d="m861.38 632.41v-40.65"/><path d="m880.88 543.76v-35.25"/><path d="m880.88 588.01v-40.5"/><path d="m880.88 632.41v-40.65"/><path d="m900.38 543.76v-35.25"/><path d="m900.38 588.01v-40.5"/><path d="m900.38 632.41v-40.65"/><path d="m919.88 543.76v-35.25"/><path d="m919.88 588.01v-40.5"/><path d="m919.88 632.41v-40.65"/></g></g><g stroke="#000" stroke-width=".54"><path d="m725.93 656.41v-147.9"/><path d="m717.83 502.36h228.6"/><path d="m717.83 502.36v154.05"/><path d="m938.48 656.41v-147.9"/><path d="m725.93 508.51h212.55"/><path d="m946.43 502.36v154.05"/><path d="m717.83 656.41h228.6"/><path d="m725.93 632.41h212.55"/><path d="m725.93 636.01h212.55"/><path d="m725.93 591.76h212.55"/><path d="m725.93 588.01h212.55"/><path d="m725.93 547.51h212.55"/><path d="m725.93 543.76h212.55"/></g><path d="m938.48 508.51v-6.15" stroke="#aaa" stroke-width=".09"/><g stroke="#000" stroke-width=".54"><path d="m717.83 496.96h228.6"/><path d="m717.83 488.11h228.6"/><path d="m946.43 656.41v-154.05"/><path d="m955.28 502.36h-8.85"/><path d="m955.28 496.96v5.4"/><path d="m946.43 496.96h8.85"/><path d="m955.28 496.96h-8.85"/><path d="m955.28 488.11v8.85"/><path d="m946.43 488.11h8.85"/></g></g></svg>