<svg xmlns="http://www.w3.org/2000/svg" width="229.15" height="168.84" viewBox="0 0 229.14769 168.84387"><g transform="translate(-413.96-487.84)" fill="none" stroke-linejoin="round" stroke-linecap="round" stroke-miterlimit="10"><g stroke="#aaa"><g stroke-width=".09"><path d="m529.28 601.43c0 .456-.335.825-.75.825-.413 0-.75-.369-.75-.825 0-.456.337-.825.75-.825.415 0 .75.369.75.825"/><path d="m529.28 592.58c0 .456-.335.825-.75.825-.413 0-.75-.369-.75-.825 0-.456.337-.825.75-.825.415 0 .75.369.75.825"/><path d="m529.28 583.73c0 .456-.335.825-.75.825-.413 0-.75-.369-.75-.825 0-.456.337-.825.75-.825.415 0 .75.369.75.825"/><path d="m529.28 574.88c0 .456-.335.825-.75.825-.413 0-.75-.369-.75-.825 0-.456.337-.825.75-.825.415 0 .75.369.75.825"/><path d="m529.28 566.03c0 .456-.335.825-.75.825-.413 0-.75-.369-.75-.825 0-.456.337-.825.75-.825.415 0 .75.369.75.825"/><path d="m529.28 557.18c0 .456-.335.825-.75.825-.413 0-.75-.369-.75-.825 0-.456.337-.825.75-.825.415 0 .75.369.75.825"/><path d="m529.28 548.33c0 .456-.335.825-.75.825-.413 0-.75-.369-.75-.825 0-.456.337-.825.75-.825.415 0 .75.369.75.825"/><path d="m529.28 539.41c0 .414-.335.75-.75.75-.413 0-.75-.336-.75-.75 0-.414.337-.75.75-.75.415 0 .75.336.75.75"/></g><g stroke-width=".54"><path d="m440.78 543.76v-35.25"/><path d="m440.78 588.01v-40.5"/><path d="m440.78 632.41v-40.65"/><path d="m460.28 543.76v-35.25"/><path d="m460.28 588.01v-40.5"/><path d="m460.28 632.41v-40.65"/><path d="m479.78 543.76v-35.25"/><path d="m479.78 588.01v-40.5"/><path d="m479.78 632.41v-40.65"/><path d="m499.28 543.76v-35.25"/><path d="m499.28 588.01v-40.5"/><path d="m499.28 632.41v-40.65"/><path d="m518.78 543.76v-35.25"/><path d="m518.78 588.01v-40.5"/><path d="m518.78 632.41v-40.65"/><path d="m538.28 543.76v-35.25"/><path d="m538.28 588.01v-40.5"/><path d="m538.28 632.41v-40.65"/><path d="m557.78 543.76v-35.25"/><path d="m557.78 588.01v-40.5"/><path d="m557.78 632.41v-40.65"/><path d="m577.28 543.76v-35.25"/><path d="m577.28 588.01v-40.5"/><path d="m577.28 632.41v-40.65"/><path d="m596.78 543.76v-35.25"/><path d="m596.78 588.01v-40.5"/><path d="m596.78 632.41v-40.65"/><path d="m616.28 543.76v-35.25"/><path d="m616.28 588.01v-40.5"/><path d="m616.28 632.41v-40.65"/></g></g><g stroke="#000" stroke-width=".54"><path d="m422.18 656.41v-147.9"/><path d="m414.23 502.36h228.6"/><path d="m414.23 502.36v154.05"/><path d="m634.88 656.41v-147.9"/><path d="m422.18 508.51h212.7"/><path d="m642.83 502.36v154.05"/><path d="m414.23 656.41h228.6"/><path d="m422.18 632.41h212.7"/><path d="m422.18 636.01h212.7"/><path d="m422.18 591.76h212.7"/><path d="m422.18 588.01h212.7"/><path d="m422.18 547.51h212.7"/><path d="m422.18 543.76h212.7"/></g><path d="m634.88 508.51v-6.15" stroke="#aaa" stroke-width=".09"/><g stroke="#000" stroke-width=".54"><path d="m414.23 496.96h228.6"/><path d="m414.23 488.11h228.6"/></g></g></svg>