<svg xmlns="http://www.w3.org/2000/svg" width="184.9" height="133.45" viewBox="0 0 184.89769 133.44769"><g transform="translate(-146.11-320.3)" fill="none" stroke="#000" stroke-linejoin="round" stroke-linecap="round" stroke-width=".54" stroke-miterlimit="10"><path d="m146.39 453.48h184.35"/><path d="m146.39 320.58h184.35"/><path d="m146.39 453.48v-132.9"/><path d="m238.49 441.93v-113.25"/><path d="m154.34 441.93v-113.25"/><path d="m154.34 328.68h168.3"/><path d="m154.34 441.93h168.3"/><path d="m165.89 342.78h61.2"/><path d="m322.64 441.93v-113.25"/><path d="m250.04 342.78h61.2"/><path d="m330.74 453.48v-132.9"/><path d="m235.34 391.6c0 1.449-1.142 2.625-2.55 2.625-1.407 0-2.55-1.176-2.55-2.625 0-1.45 1.143-2.625 2.55-2.625 1.409 0 2.55 1.175 2.55 2.625"/><path d="m250.04 427.83h61.2"/><path d="m165.89 427.83h61.2"/><path d="m165.89 427.83v-85.05"/><path d="m227.09 427.83v-85.05"/><path d="m250.04 427.83v-85.05"/><path d="m311.24 427.83v-85.05"/><path d="m167.09 427.83v-85.05"/><path d="m225.74 427.83v-85.05"/><path d="m251.24 427.83v-85.05"/><path d="m309.89 427.83v-85.05"/><path d="m246.89 391.6c0 1.449-1.142 2.625-2.55 2.625-1.407 0-2.55-1.176-2.55-2.625 0-1.45 1.143-2.625 2.55-2.625 1.409 0 2.55 1.175 2.55 2.625"/></g></svg>