<svg xmlns="http://www.w3.org/2000/svg" height="101.04" viewBox="0 0 184.89 101.04193"><g transform="translate(-146.12-534.81)" fill="none" stroke="#888" stroke-linejoin="round" stroke-linecap="round" stroke-width=".54" stroke-miterlimit="10"><path d="m146.39 535.08v56.7h184.35v-56.7h-184.35z"/><path d="m154.34 591.78l76.05 43.8"/><path d="m227.24 633.78l.15-.3"/><path d="m227.39 633.48l.3-.3"/><path d="m227.69 633.18l.15-.3"/><path d="m227.84 632.88l.15-.3"/><path d="m227.99 632.58l.15-.3"/><path d="m228.14 632.28l.15-.3"/><path d="m228.29 631.98l.15-.3"/><path d="m228.44 631.68l.15-.3"/><path d="m228.59 631.38l.15-.3"/><path d="m228.74 631.08l.15-.3"/><path d="m228.89 630.78l.15-.3"/><path d="m230.69 627.18l.15-.45"/><path d="m230.84 626.73l.15-.3"/><path d="m230.99 626.43l.15-.3"/><path d="m231.14 626.13l.15-.3"/><path d="m231.29 625.83l.15-.3"/><path d="m231.44 625.53l.15-.3"/><path d="m231.59 625.23l.15-.3"/><path d="m231.74 624.93l.15-.3"/><path d="m231.89 624.63l.15-.3"/><path d="m232.04 624.33l.15-.3"/><path d="m232.19 624.03l.15-.3"/><path d="m233.54 620.28l.15-.15"/><path d="m233.69 620.13v-.3"/><path d="m233.69 619.83l.15-.3"/><path d="m233.84 619.53l.15-.45"/><path d="m233.99 619.08l.15-.3"/><path d="m234.14 618.78v-.3"/><path d="m234.14 618.48l.15-.3"/><path d="m234.29 618.18l.15-.3"/><path d="m234.44 617.88l.15-.45"/><path d="m234.59 617.43v-.3"/><path d="m234.59 617.13l.15-.3"/><path d="m235.79 613.23v-.3"/><path d="m235.79 612.93l.15-.45"/><path d="m235.94 612.48l.15-.3"/><path d="m236.09 612.18v-.3"/><path d="m236.09 611.88l.15-.3"/><path d="m236.24 611.58v-.45"/><path d="m236.24 611.13l.15-.3"/><path d="m236.39 610.83v-.3"/><path d="m236.39 610.53l.15-.3"/><path d="m236.54 610.23v-.3"/><path d="m236.54 609.93l.15-.3"/><path d="m237.29 606.03l.15-.3"/><path d="m237.44 605.73v-.3"/><path d="m237.44 605.43v-.3"/><path d="m237.44 605.13l.15-.3"/><path d="m237.59 604.83v-.45"/><path d="m237.59 604.38v-.3"/><path d="m237.59 604.08l.15-.3"/><path d="m237.74 603.78v-.3"/><path d="m237.74 603.48v-.45"/><path d="m237.74 603.03l.15-.3"/><path d="m237.89 602.73v-.3"/><path d="m238.34 598.83v-.15"/><path d="m238.34 598.68v-.45"/><path d="m238.34 598.23v-.3"/><path d="m238.34 597.93v-.3"/><path d="m238.34 597.63v-.3"/><path d="m238.34 597.33v-.45"/><path d="m238.34 596.88v-.3"/><path d="m238.34 596.58l.15-.3"/><path d="m238.49 596.28v-.45"/><path d="m238.49 595.83v-.3"/><path d="m238.49 595.53v-.3"/><path d="m238.49 595.23v-.15"/><path d="m322.64 591.78l-75.9 43.8"/><path d="m238.49 591.78v.3"/><path d="m238.49 592.08v.3"/><path d="m238.49 592.38v.45"/><path d="m238.49 592.83v.3"/><path d="m238.49 593.13l.15.3"/><path d="m238.64 593.43v.45"/><path d="m238.64 593.88v.3"/><path d="m238.64 594.18v.3"/><path d="m238.64 594.48v.3"/><path d="m238.64 594.78v.45"/><path d="m238.64 595.23v.3"/><path d="m238.94 599.28v.45"/><path d="m238.94 599.73v.3"/><path d="m238.94 600.03v.3"/><path d="m238.94 600.33l.15.3"/><path d="m239.09 600.63v.45"/><path d="m239.09 601.08v.3"/><path d="m239.09 601.38v.3"/><path d="m239.09 601.68l.15.45"/><path d="m239.24 602.13v.3"/><path d="m239.24 602.43v.3"/><path d="m239.24 602.73l.15.15"/><path d="m239.84 606.48v.3"/><path d="m239.84 606.78l.15.45"/><path d="m239.99 607.23v.3"/><path d="m239.99 607.53l.15.3"/><path d="m240.14 607.83v.3"/><path d="m240.14 608.13l.15.45"/><path d="m240.29 608.58v.3"/><path d="m240.29 608.88l.15.3"/><path d="m240.44 609.18v.3"/><path d="m240.44 609.48l.15.45"/><path d="m240.59 609.93v.15"/><path d="m241.49 613.68v.15"/><path d="m241.49 613.83l.15.3"/><path d="m241.64 614.13v.45"/><path d="m241.64 614.58l.15.3"/><path d="m241.79 614.88l.15.3"/><path d="m241.94 615.18v.3"/><path d="m241.94 615.48l.15.3"/><path d="m242.09 615.78l.15.45"/><path d="m242.24 616.23v.3"/><path d="m242.24 616.53l.15.3"/><path d="m242.39 616.83l.15.3"/><path d="m243.74 620.58v.15"/><path d="m243.74 620.73l.15.3"/><path d="m243.89 621.03v.3"/><path d="m243.89 621.33l.15.45"/><path d="m244.04 621.78l.15.3"/><path d="m244.19 622.08l.15.3"/><path d="m244.34 622.38l.15.3"/><path d="m244.49 622.68l.15.3"/><path d="m244.64 622.98v.3"/><path d="m244.64 623.28l.15.3"/><path d="m244.79 623.58l.15.45"/><path d="m246.44 627.48l.15.3"/><path d="m246.59 627.78l.15.3"/><path d="m246.74 628.08l.15.3"/><path d="m246.89 628.38l.15.3"/><path d="m247.04 628.68l.15.3"/><path d="m247.19 628.98l.15.3"/><path d="m247.34 629.28l.15.3"/><path d="m247.49 629.58l.15.3"/><path d="m247.64 629.88l.15.3"/><path d="m247.79 630.18l.15.3"/><path d="m247.94 630.48l.3.3"/></g></svg>