<svg xmlns="http://www.w3.org/2000/svg" width="122.8" height="381.4" viewBox="0 0 122.79768 381.3983" xmlns:xlink="http://www.w3.org/1999/xlink"><g transform="translate(-103.39-162.23)"><g fill="none" stroke="#000" stroke-linejoin="round" stroke-linecap="round" stroke-width=".54" stroke-miterlimit="10"><path d="m111.31 330.8h106.65"/><path d="m111.61 427.1h106.35"/><path d="m111.61 347.15h106.35"/><path d="m111.61 351.5h106.35"/><path d="m134.26 344.15v-10.95"/><path d="m195.01 344.15h-60.75"/><path d="m134.26 333.2h60.75"/><path d="m132.76 355.7h64.5"/><path d="m132.76 360.35h64.5"/><path d="m132.76 355.7v4.65"/><path d="m197.26 355.7v4.65"/><path d="m195.01 344.15v-10.95"/><path d="m202.36 366.2h-75.6"/><path d="m202.36 366.2v44.25"/><path d="m126.76 366.2v44.25"/><path d="m202.36 410.45h-75.6"/><path d="m111.61 330.8h106.35"/><path d="m111.61 320.75h106.35"/><path d="m111.61 265.7h106.35"/><path d="m111.61 270.05h106.35"/><path d="m134.26 256.4v-4.65"/><path d="m195.01 256.4h-60.75"/><path d="m134.26 251.75h60.75"/><path d="m132.76 274.25h64.5"/><path d="m132.76 278.9h64.5"/><path d="m132.76 274.25v4.65"/><path d="m197.26 274.25v4.65"/><path d="m195.01 256.4v-4.65"/></g><path d="m151.81 260.6c0 1.656-1.343 3-3 3-1.656 0-3-1.344-3-3 0-1.658 1.344-3 3-3 1.657 0 3 1.342 3 3" fill="#fff"/><path d="m151.81 260.6c0 1.656-1.343 3-3 3-1.656 0-3-1.344-3-3 0-1.658 1.344-3 3-3 1.657 0 3 1.342 3 3" fill="none" stroke="#000" stroke-linejoin="round" stroke-linecap="round" stroke-width=".54" stroke-miterlimit="10"/><path d="m183.46 260.6c0 1.656-1.343 3-3 3-1.656 0-3-1.344-3-3 0-1.658 1.344-3 3-3 1.657 0 3 1.342 3 3" fill="#fff"/><path d="m183.46 260.6c0 1.656-1.343 3-3 3-1.656 0-3-1.344-3-3 0-1.658 1.344-3 3-3 1.657 0 3 1.342 3 3" fill="none" stroke="#000" stroke-linejoin="round" stroke-linecap="round" stroke-width=".54" stroke-miterlimit="10"/><path d="m111.61 437v-187.8" fill="none" stroke="#000" stroke-linejoin="round" stroke-linecap="round" stroke-width=".54" stroke-miterlimit="10" id="0"/><path d="m217.96 437v-187.8" fill="none" stroke="#000" stroke-linejoin="round" stroke-linecap="round" stroke-width=".54" stroke-miterlimit="10" id="1"/><path d="m111.61 437h106.35" fill="none" stroke="#000" stroke-linejoin="round" stroke-linecap="round" stroke-width=".54" stroke-miterlimit="10" id="2"/><path d="m111.61 249.2h106.35" fill="none" stroke="#000" stroke-linejoin="round" stroke-linecap="round" stroke-width=".54" stroke-miterlimit="10" id="3"/><use xlink:href="#2"/><use xlink:href="#0"/><use xlink:href="#1"/><g fill="none" stroke="#000" stroke-linejoin="round" stroke-linecap="round" stroke-width=".54" stroke-miterlimit="10"><path d="m103.66 543.35h122.25"/><path d="m168.16 234.2c0 1.409-1.174 2.55-2.625 2.55-1.449 0-2.625-1.141-2.625-2.55 0-1.408 1.176-2.55 2.625-2.55 1.451 0 2.625 1.142 2.625 2.55"/><path d="m167.11 453.43c0 1.449-1.142 2.625-2.55 2.625-1.407 0-2.55-1.176-2.55-2.625 0-1.45 1.143-2.625 2.55-2.625 1.409 0 2.55 1.175 2.55 2.625"/></g><use xlink:href="#3"/><g fill="none" stroke="#000" stroke-linejoin="round" stroke-linecap="round" stroke-width=".54" stroke-miterlimit="10"><path d="m225.91 543.35v-380.85"/><path d="m103.66 543.35v-380.85"/><path d="m111.61 522.95h106.35"/><path d="m103.66 162.5h122.25"/><path d="m111.61 170.45h106.35"/><path d="m203.71 227.15h-77.85"/><path d="m125.86 184.55h77.85"/><path d="m201.16 461.9h-72.75"/><path d="m128.41 506.15h72.75"/><path d="m125.86 227.15v-42.6"/><path d="m128.41 506.15v-44.25"/><path d="m203.71 227.15v-42.6"/><path d="m201.16 506.15v-44.25"/><path d="m111.61 543.35v-98.4"/><path d="m217.96 543.35v-98.4"/><path d="m111.61 241.25v-70.8"/><path d="m217.96 241.25v-70.8"/><path d="m111.61 444.95h106.35"/><path d="m111.61 241.25h106.35"/><path d="m129.76 506.15v-44.25"/><path d="m199.81 506.15v-44.25"/><path d="m127.06 227.15v-42.6"/><path d="m202.51 227.15v-42.6"/></g></g></svg>