<svg xmlns="http://www.w3.org/2000/svg" height="175.89" viewBox="0 0 122.79 175.89385" xmlns:xlink="http://www.w3.org/1999/xlink"><g transform="translate(-103.54-578.03)"><g fill="none" stroke="#000" stroke-linejoin="round" stroke-linecap="round" stroke-width=".54" stroke-miterlimit="10"><path d="m103.81 578.3v118.65h122.25v-118.65h-122.25z"/><path d="m221.71 750.2h-2.25"/><path d="m215.71 750.2h-3.75"/><path d="m208.21 750.2h-3.75"/><path d="m200.71 750.2h-3.75"/><path d="m193.21 750.2h-3.75"/><path d="m185.71 750.2h-3.75"/><path d="m178.21 750.2h-3.75"/><path d="m170.71 750.2h-3.75"/><path d="m163.21 750.2h-3.75"/><path d="m155.71 750.2h-3.75"/><path d="m148.21 750.2h-3.75"/><path d="m140.71 750.2h-3.75"/><path d="m133.21 750.2h-3.75"/><path d="m125.71 750.2h-3.75"/><path d="m118.21 750.2h-3.75"/><path d="m110.71 750.2h-2.4"/><path d="m218.11 696.95v3.75"/><path d="m218.11 704.45v3.75"/><path d="m218.11 711.95v3.75"/><path d="m218.11 719.45v3.75"/><path d="m218.11 726.95v3.75"/><path d="m218.11 734.45v3.75"/><path d="m218.11 741.95v3.75"/><path d="m218.11 749.45v3.75"/><path d="m218.11 753.35v.3"/><path d="m111.91 696.95h106.2"/><path d="m111.91 696.95v3.75"/><path d="m111.91 704.45v3.75"/><path d="m111.91 711.95v3.75"/><path d="m111.91 719.45v3.75"/><path d="m111.91 726.95v3.75"/><path d="m111.91 734.45v3.75"/><path d="m111.91 741.95v3.75"/><path d="m111.91 749.45v3.75"/><path d="m111.91 753.35v.3"/><path d="m221.71 723.65h-113.4"/></g><path d="m111.61 437v-187.8" fill="none" stroke="#000" stroke-linejoin="round" stroke-linecap="round" stroke-width=".54" stroke-miterlimit="10" id="0"/><path d="m217.96 437v-187.8" fill="none" stroke="#000" stroke-linejoin="round" stroke-linecap="round" stroke-width=".54" stroke-miterlimit="10" id="1"/><path d="m111.61 437h106.35" fill="none" stroke="#000" stroke-linejoin="round" stroke-linecap="round" stroke-width=".54" stroke-miterlimit="10" id="2"/><path d="m111.61 249.2h106.35" fill="none" stroke="#000" stroke-linejoin="round" stroke-linecap="round" stroke-width=".54" stroke-miterlimit="10" id="3"/><use xlink:href="#2"/><use xlink:href="#0"/><use xlink:href="#1"/><use xlink:href="#3"/></g></svg>