<svg xmlns="http://www.w3.org/2000/svg" width="109.6" height="168.85" viewBox="0 0 109.59769 168.84768"><g transform="translate(-471.98-356.86)" fill="none" stroke="#000" stroke-linejoin="round" stroke-linecap="round" stroke-width=".54" stroke-miterlimit="10"><path d="m572.46 525.43h-100.2"/><path d="m491.31 434.23c0 1.409-1.142 2.55-2.55 2.55-1.407 0-2.55-1.142-2.55-2.55 0-1.409 1.143-2.55 2.55-2.55 1.409 0 2.55 1.142 2.55 2.55"/><path d="m480.36 525.43v-147.9"/><path d="m564.51 525.43v-147.9"/><path d="m564.51 377.53h-84.15"/><path d="m547.56 488.23v-93.9"/><path d="m497.16 488.23v-93.9"/><path d="m547.56 394.33h-50.4"/><path d="m572.46 371.38h-100.2"/><path d="m572.46 371.38v154.05"/><path d="m472.26 371.38v154.05"/><path d="m564.51 505.03h-84.15"/><path d="m547.56 488.23h-50.4"/><path d="m546.36 488.23v-93.9"/><path d="m498.36 488.23v-93.9"/><path d="m572.46 365.98h-100.2"/><path d="m572.46 357.13h-100.2"/><path d="m572.46 525.43v-154.05"/><path d="m581.31 371.38h-8.85"/><path d="m581.31 365.98v5.4"/><path d="m572.46 365.98h8.85"/><path d="m581.31 365.98h-8.85"/><path d="m581.31 357.13v8.85"/><path d="m572.46 357.13h8.85"/></g></svg>