<svg xmlns="http://www.w3.org/2000/svg" width="109.6" height="168.85" viewBox="0 0 109.59769 168.84768"><g transform="translate(-70.73-356.86)" fill="none" stroke="#000" stroke-linejoin="round" stroke-linecap="round" stroke-width=".54" stroke-miterlimit="10"><path d="m180.06 525.43h-100.2"/><path d="m98.91 434.23c0 1.409-1.174 2.55-2.625 2.55-1.449 0-2.625-1.142-2.625-2.55 0-1.409 1.176-2.55 2.625-2.55 1.451 0 2.625 1.142 2.625 2.55"/><path d="m87.81 525.43v-147.9"/><path d="m171.96 525.43v-147.9"/><path d="m171.96 377.53h-84.15"/><path d="m155.16 488.23v-93.9"/><path d="m104.76 488.23v-93.9"/><path d="m155.16 394.33h-50.4"/><path d="m180.06 371.38h-100.2"/><path d="m180.06 371.38v154.05"/><path d="m79.86 371.38v154.05"/><path d="m171.96 505.03h-84.15"/><path d="m155.16 488.23h-50.4"/><path d="m153.96 488.23v-93.9"/><path d="m105.96 488.23v-93.9"/><path d="m180.06 365.98h-100.2"/><path d="m180.06 357.13h-100.2"/><path d="m79.86 525.43v-154.05"/><path d="m71.01 371.38h8.85"/><path d="m71.01 365.98v5.4"/><path d="m79.86 365.98h-8.85"/><path d="m71.01 365.98h8.85"/><path d="m71.01 357.13v8.85"/><path d="m79.86 357.13h-8.85"/></g></svg>