<svg xmlns="http://www.w3.org/2000/svg" width="87.4" height="168.85" viewBox="0 0 87.397689 168.84768" xmlns:xlink="http://www.w3.org/1999/xlink"><g transform="translate(-456.64-301.33)"><path d="m305.71 322h62.1" fill="none" stroke="#000" stroke-linejoin="round" stroke-linecap="round" stroke-width=".54" stroke-miterlimit="10" id="0"/><use xlink:href="#0"/><path d="m137.11 469.9v-154.05" fill="none" stroke="#000" stroke-linejoin="round" stroke-linecap="round" stroke-width=".54" stroke-miterlimit="10" id="1"/><g fill="none" stroke="#000" stroke-linejoin="round" stroke-linecap="round" stroke-width=".54" stroke-miterlimit="10"><path d="m534.91 469.9v-154.05"/><path d="m543.76 315.85h-8.85"/><path d="m543.76 310.45v5.4"/><path d="m534.91 310.45h8.85"/><path d="m543.76 310.45h-8.85"/><path d="m543.76 301.6v8.85"/><path d="m534.91 301.6h8.85"/></g><path d="m145.06 322h62.1" fill="none" stroke="#000" stroke-linejoin="round" stroke-linecap="round" stroke-width=".54" stroke-miterlimit="10" id="2"/><use xlink:href="#2"/><use xlink:href="#1"/><g fill="none" stroke="#000" stroke-linejoin="round" stroke-linecap="round" stroke-width=".54" stroke-miterlimit="10"><path d="m534.91 469.9h-78"/><path d="m498.46 336.18c0 1.449-1.142 2.625-2.55 2.625-1.407 0-2.55-1.176-2.55-2.625 0-1.45 1.143-2.625 2.55-2.625 1.409 0 2.55 1.175 2.55 2.625"/><path d="m498.46 364.53c0 1.449-1.142 2.625-2.55 2.625-1.407 0-2.55-1.176-2.55-2.625 0-1.45 1.143-2.625 2.55-2.625 1.409 0 2.55 1.175 2.55 2.625"/><path d="m498.46 392.88c0 1.449-1.142 2.625-2.55 2.625-1.407 0-2.55-1.176-2.55-2.625 0-1.45 1.143-2.625 2.55-2.625 1.409 0 2.55 1.175 2.55 2.625"/><path d="m498.46 428.35c0 1.409-1.142 2.55-2.55 2.55-1.407 0-2.55-1.142-2.55-2.55 0-1.409 1.143-2.55 2.55-2.55 1.409 0 2.55 1.142 2.55 2.55"/><path d="m464.86 469.9v-147.9"/></g><path d="m464.86 322h61.95" fill="none" stroke="#000" stroke-linejoin="round" stroke-linecap="round" stroke-width=".54" stroke-miterlimit="10" id="3"/><path d="m526.81 322v147.9" fill="none" stroke="#000" stroke-linejoin="round" stroke-linecap="round" stroke-width=".54" stroke-miterlimit="10"/><use xlink:href="#3"/><g fill="none" stroke="#000" stroke-linejoin="round" stroke-linecap="round" stroke-width=".54" stroke-miterlimit="10"><path d="m534.91 315.85v154.05"/><path d="m456.91 469.9v-154.05"/><path d="m456.91 315.85h78"/><path d="m464.86 350.35h61.95"/><path d="m464.86 378.7h61.95"/><path d="m464.86 407.05h61.95"/><path d="m464.86 449.5h61.95"/><path d="m456.91 310.45h78"/><path d="m456.91 301.6h78"/></g></g></svg>