<svg xmlns="http://www.w3.org/2000/svg" width="144.99" height="101.04" viewBox="0 0 144.99383 101.04193"><g transform="translate(-118.5-577.66)" fill="none" stroke="#888" stroke-linejoin="round" stroke-linecap="round" stroke-width=".54" stroke-miterlimit="10"><path d="m263.22 634.63v-56.7h-144.45v56.7h144.45"/><path d="m170.97 634.63l76.05 43.8"/><path d="m243.87 676.63l.15-.3"/><path d="m244.02 676.33l.3-.3"/><path d="m244.32 676.03l.15-.3"/><path d="m244.47 675.73l.15-.3"/><path d="m244.62 675.43l.15-.3"/><path d="m244.77 675.13l.15-.3"/><path d="m244.92 674.83l.15-.3"/><path d="m245.07 674.53l.15-.3"/><path d="m245.22 674.23l.15-.3"/><path d="m245.37 673.93l.15-.3"/><path d="m245.52 673.63l.15-.3"/><path d="m247.32 670.03l.15-.45"/><path d="m247.47 669.58l.15-.3"/><path d="m247.62 669.28l.15-.3"/><path d="m247.77 668.98l.15-.3"/><path d="m247.92 668.68l.15-.3"/><path d="m248.07 668.38l.15-.3"/><path d="m248.22 668.08l.15-.3"/><path d="m248.37 667.78l.15-.3"/><path d="m248.52 667.48l.15-.3"/><path d="m248.67 667.18l.15-.3"/><path d="m248.82 666.88l.15-.3"/><path d="m250.17 663.13l.15-.15"/><path d="m250.32 662.98v-.3"/><path d="m250.32 662.68l.15-.3"/><path d="m250.47 662.38l.15-.45"/><path d="m250.62 661.93l.15-.3"/><path d="m250.77 661.63v-.3"/><path d="m250.77 661.33l.15-.3"/><path d="m250.92 661.03l.15-.3"/><path d="m251.07 660.73v-.45"/><path d="m251.07 660.28l.15-.3"/><path d="m251.22 659.98l.15-.3"/><path d="m252.42 656.08v-.3"/><path d="m252.42 655.78l.15-.45"/><path d="m252.57 655.33l.15-.3"/><path d="m252.72 655.03v-.3"/><path d="m252.72 654.73l.15-.3"/><path d="m252.87 654.43v-.45"/><path d="m252.87 653.98l.15-.3"/><path d="m253.02 653.68v-.3"/><path d="m253.02 653.38l.15-.3"/><path d="m253.17 653.08v-.3"/><path d="m253.17 652.78l.15-.3"/><path d="m253.92 648.88l.15-.3"/><path d="m254.07 648.58v-.3"/><path d="m254.07 648.28v-.3"/><path d="m254.07 647.98l.15-.3"/><path d="m254.22 647.68v-.45"/><path d="m254.22 647.23v-.3"/><path d="m254.22 646.93l.15-.3"/><path d="m254.37 646.63v-.3"/><path d="m254.37 646.33v-.45"/><path d="m254.37 645.88l.15-.3"/><path d="m254.52 645.58v-.3"/><path d="m254.97 641.68v-.15"/><path d="m254.97 641.53v-.45"/><path d="m254.97 641.08v-.3"/><path d="m254.97 640.78v-.3"/><path d="m254.97 640.48v-.3"/><path d="m254.97 640.18v-.45"/><path d="m254.97 639.73v-.3"/><path d="m254.97 639.43l.15-.3"/><path d="m255.12 639.13v-.45"/><path d="m255.12 638.68v-.3"/><path d="m255.12 638.38v-.3"/><path d="m255.12 638.08v-.15"/></g></svg>