<svg xmlns="http://www.w3.org/2000/svg" width="145" height="133.45" viewBox="0 0 144.99769 133.44769"><g transform="translate(-118.5-363.16)" fill="none" stroke-linejoin="round" stroke-linecap="round" stroke-width=".54" stroke-miterlimit="10"><g stroke="#000"><path d="m263.22 496.33h-100.2"/><path d="m263.22 363.43h-100.2"/><path d="m263.22 496.33v-132.9"/><path d="m170.97 484.78v-113.25"/><path d="m255.12 484.78v-113.25"/><path d="m255.12 371.53h-84.15"/><path d="m255.12 484.78h-84.15"/><path d="m243.72 385.63h-61.2"/><path d="m155.07 496.33v-3.75"/><path d="m155.07 488.83v-3.75"/><path d="m155.07 481.33v-3.75"/><path d="m155.07 473.83v-3.75"/><path d="m155.07 466.33v-3.75"/><path d="m155.07 458.83v-3.75"/><path d="m155.07 451.33v-3.75"/><path d="m155.07 443.83v-3.75"/><path d="m155.07 436.33v-3.75"/><path d="m155.07 428.83v-3.75"/><path d="m155.07 421.33v-3.75"/><path d="m155.07 413.83v-3.75"/><path d="m155.07 406.33v-3.75"/><path d="m155.07 398.83v-3.75"/><path d="m155.07 391.33v-3.75"/><path d="m155.07 383.83v-3.75"/><path d="m155.07 376.33v-3.75"/><path d="m155.07 368.83v-3.75"/><path d="m155.07 363.73v-.3"/><path d="m243.72 470.68h-61.2"/><path d="m182.52 470.68v-85.05"/><path d="m243.72 470.68v-85.05"/><path d="m251.97 434.46c0 1.449-1.142 2.625-2.55 2.625-1.409 0-2.55-1.176-2.55-2.625 0-1.449 1.142-2.625 2.55-2.625 1.409 0 2.55 1.176 2.55 2.625"/><path d="m118.77 496.33v-3.75"/><path d="m118.77 488.83v-3.75"/><path d="m118.77 481.33v-3.75"/><path d="m118.77 473.83v-3.75"/><path d="m118.77 466.33v-3.75"/><path d="m118.77 458.83v-3.75"/><path d="m118.77 451.33v-3.75"/><path d="m118.77 443.83v-3.75"/><path d="m118.77 436.33v-3.75"/><path d="m118.77 428.83v-3.75"/><path d="m118.77 421.33v-3.75"/><path d="m118.77 413.83v-3.75"/><path d="m118.77 406.33v-3.75"/><path d="m118.77 398.83v-3.75"/><path d="m118.77 391.33v-3.75"/><path d="m118.77 383.83v-3.75"/><path d="m118.77 376.33v-3.75"/><path d="m118.77 368.83v-3.75"/><path d="m118.77 363.73v-.3"/><path d="m163.02 496.33h-1.5"/><path d="m157.77 496.33h-3.75"/><path d="m150.27 496.33h-3.75"/><path d="m142.77 496.33h-3.75"/><path d="m135.27 496.33h-3.75"/><path d="m127.77 496.33h-3.75"/><path d="m120.27 496.33h-1.5"/><path d="m118.77 363.43h1.5"/><path d="m124.02 363.43h3.75"/><path d="m131.52 363.43h3.75"/><path d="m139.02 363.43h3.75"/><path d="m146.52 363.43h3.75"/><path d="m154.02 363.43h3.75"/><path d="m161.52 363.43h1.5"/><path d="m163.02 496.33v-132.9"/></g><g stroke="#888"><path d="m232.92 433.63l-20.7 20.85"/><path d="m224.97 408.88l-24 24.15"/><path d="m236.52 393.13l-42.3 42.3"/><path d="m243.72 445.93h-17.4"/><path d="m222.57 445.93h-18.75"/><path d="m200.07 445.93h-17.55"/><path d="m243.72 449.23h-17.4"/><path d="m222.57 449.23h-18.75"/><path d="m200.07 449.23h-17.55"/><path d="m243.72 407.08h-17.4"/><path d="m222.57 407.08h-18.75"/><path d="m200.07 407.08h-17.55"/><path d="m243.72 410.38h-17.4"/><path d="m222.57 410.38h-18.75"/><path d="m200.07 410.38h-17.55"/></g></g></svg>