<svg xmlns="http://www.w3.org/2000/svg" width="140.5" height="133.45" viewBox="0 0 140.4977 133.4477"><g transform="translate(-132.48-474.43)" fill="none" stroke-linejoin="round" stroke-linecap="round" stroke-width=".54" stroke-miterlimit="10"><g stroke="#888"><path d="m157.95 506.95l29.25 29.4"/><path d="m162.15 516.55l20.85 20.85"/><path d="m152.25 557.5h6.3"/><path d="m162.3 557.5h18.75"/><path d="m184.8 557.5h6.3"/><path d="m152.25 560.05h6.3"/><path d="m162.3 560.05h18.75"/><path d="m184.8 560.05h6.3"/><path d="m152.25 518.8h6.3"/><path d="m162.3 518.8h18.75"/><path d="m184.8 518.8h6.3"/><path d="m152.25 521.35h6.3"/><path d="m162.3 521.35h18.75"/><path d="m184.8 521.35h6.3"/><path d="m162.15 550.9l20.85 21"/></g><g stroke="#000"><path d="m132.75 607.6v-132.9"/><path d="m202.65 596.05v-113.25"/><path d="m140.7 596.05v-113.25"/><path d="m140.7 482.8h124.05"/><path d="m140.7 596.05h124.05"/><path d="m152.25 496.9h38.85"/><path d="m132.75 607.6h139.95"/><path d="m132.75 474.7h139.95"/><path d="m264.75 596.05v-113.25"/><path d="m214.2 496.9h39"/><path d="m272.7 607.6v-132.9"/><path d="m211.05 545.72c0 1.449-1.174 2.625-2.625 2.625-1.449 0-2.625-1.176-2.625-2.625 0-1.449 1.176-2.625 2.625-2.625 1.451 0 2.625 1.176 2.625 2.625"/><path d="m152.25 581.95h38.85"/><path d="m214.2 581.95h39"/><path d="m152.25 581.95v-85.05"/><path d="m191.1 581.95v-85.05"/><path d="m214.2 581.95v-85.05"/><path d="m253.2 581.95v-85.05"/><path d="m199.5 545.72c0 1.449-1.142 2.625-2.55 2.625-1.409 0-2.55-1.176-2.55-2.625 0-1.449 1.142-2.625 2.55-2.625 1.409 0 2.55 1.176 2.55 2.625"/></g><g stroke="#888"><path d="m219.9 503.2l29.4 29.25"/><path d="m224.1 512.8l20.85 20.85"/><path d="m214.2 557.5h6.3"/><path d="m224.25 557.5h18.75"/><path d="m246.75 557.5h6.45"/><path d="m214.2 560.05h6.3"/><path d="m224.25 560.05h18.75"/><path d="m246.75 560.05h6.45"/><path d="m214.2 518.8h6.3"/><path d="m224.25 518.8h18.75"/><path d="m246.75 518.8h6.45"/><path d="m214.2 521.35h6.3"/><path d="m224.25 521.35h18.75"/><path d="m246.75 521.35h6.45"/><path d="m224.1 547.3l20.85 20.85"/></g></g></svg>