<svg xmlns="http://www.w3.org/2000/svg" width="140.49" height="89.94" viewBox="0 0 140.49384 89.941937"><g transform="translate(-132.48-688.93)" fill="none" stroke="#888" stroke-linejoin="round" stroke-linecap="round" stroke-width=".54" stroke-miterlimit="10"><path d="m272.7 745.9v-56.7h-139.95v56.7h139.95"/><path d="m140.7 745.9l56.7 32.7"/><path d="m194.4 776.95l.15-.45"/><path d="m194.55 776.5l.3-.45"/><path d="m194.85 776.05l.3-.45"/><path d="m195.15 775.6l.15-.45"/><path d="m195.3 775.15l.3-.45"/><path d="m195.6 774.7l.3-.45"/><path d="m195.9 774.25l.15-.45"/><path d="m196.05 773.8l.15-.15"/><path d="m197.7 770.2v-.15"/><path d="m197.7 770.05l.3-.45"/><path d="m198 769.6l.15-.45"/><path d="m198.15 769.15l.15-.45"/><path d="m198.3 768.7l.15-.45"/><path d="m198.45 768.25l.3-.6"/><path d="m198.75 767.65l.15-.45"/><path d="m198.9 767.2l.15-.45"/><path d="m200.1 763.15l.15-.3"/><path d="m200.25 762.85l.15-.45"/><path d="m200.4 762.4l.15-.45"/><path d="m200.55 761.95l.15-.45"/><path d="m200.7 761.5l.15-.6"/><path d="m200.85 760.9l.15-.45"/><path d="m201 760.45v-.45"/><path d="m201 760l.15-.45"/><path d="m201.9 755.95v-.45"/><path d="m201.9 755.5l.15-.6"/><path d="m202.05 754.9v-.45"/><path d="m202.05 754.45l.15-.45"/><path d="m202.2 754v-.6"/><path d="m202.2 753.4v-.45"/><path d="m202.2 752.95l.15-.45"/><path d="m202.35 752.5v-.3"/><path d="m202.65 748.45v-.6"/><path d="m202.65 747.85v-.45"/><path d="m202.65 747.4v-.45"/><path d="m202.65 746.95v-.6"/><path d="m202.65 746.35v-.45"/><path d="m264.75 745.9l-56.85 32.7"/><path d="m202.65 745.9v.45"/><path d="m202.65 746.35v.6"/><path d="m202.65 746.95v.45"/><path d="m202.65 747.4v.45"/><path d="m202.65 747.85l.15.6"/><path d="m202.8 748.45v.45"/><path d="m202.8 748.9v.45"/><path d="m202.8 749.35v.3"/><path d="m203.1 753.4l.15.6"/><path d="m203.25 754v.45"/><path d="m203.25 754.45l.15.45"/><path d="m203.4 754.9v.6"/><path d="m203.4 755.5l.15.45"/><path d="m203.55 755.95v.6"/><path d="m203.55 756.55l.15.45"/><path d="m204.45 760.6l.15.3"/><path d="m204.6 760.9v.6"/><path d="m204.6 761.5l.15.45"/><path d="m204.75 761.95l.15.45"/><path d="m204.9 762.4l.15.45"/><path d="m205.05 762.85l.15.6"/><path d="m205.2 763.45l.15.45"/><path d="m205.35 763.9l.15.3"/><path d="m206.7 767.65l.15.6"/><path d="m206.85 768.25l.15.45"/><path d="m207 768.7l.15.45"/><path d="m207.15 769.15l.3.45"/><path d="m207.45 769.6l.15.45"/><path d="m207.6 770.05l.15.45"/><path d="m207.75 770.5l.3.45"/><path d="m208.05 770.95v.15"/><path d="m209.55 774.4l.15.3"/><path d="m209.7 774.7l.3.45"/><path d="m210 775.15l.3.45"/><path d="m210.3 775.6l.15.45"/><path d="m210.45 776.05l.3.45"/><path d="m210.75 776.5l.3.45"/></g></svg>