<svg xmlns="http://www.w3.org/2000/svg" width="158.2" height="168.84" viewBox="0 0 158.19769 168.84388"><g transform="translate(-233.88-347.52)" fill="none" stroke="#000" stroke-linejoin="round" stroke-linecap="round" stroke-width=".54" stroke-miterlimit="10"><path d="m391.8 516.09v-3.75"/><path d="m391.8 508.59v-3.75"/><path d="m391.8 501.09v-3.75"/><path d="m391.8 493.59v-3.75"/><path d="m391.8 486.09v-3.75"/><path d="m391.8 478.59v-3.75"/><path d="m391.8 471.09v-3.75"/><path d="m391.8 463.59v-3.75"/><path d="m391.8 456.09v-3.75"/><path d="m391.8 448.59v-3.75"/><path d="m391.8 441.09v-3.75"/><path d="m391.8 433.59v-3.75"/><path d="m391.8 426.09v-3.75"/><path d="m391.8 418.59v-3.75"/><path d="m391.8 411.09v-3.75"/><path d="m391.8 403.59v-3.75"/><path d="m391.8 396.09v-3.75"/><path d="m391.8 388.59v-3.75"/><path d="m391.8 381.09v-3.75"/><path d="m391.8 373.59v-3.75"/><path d="m391.8 366.09v-3.75"/><path d="m391.8 362.34v-.3"/><path d="m312 516.09h3.75"/><path d="m319.5 516.09h3.75"/><path d="m327 516.09h3.75"/><path d="m334.5 516.09h3.75"/><path d="m342 516.09h3.75"/><path d="m349.5 516.09h3.75"/><path d="m357 516.09h3.75"/><path d="m364.5 516.09h3.75"/><path d="m372 516.09h3.75"/><path d="m379.5 516.09h3.75"/><path d="m387 516.09h3.75"/><path d="m391.5 516.09h.3"/><path d="m312 362.04v154.05"/><path d="m391.8 362.04h-3.75"/><path d="m384.3 362.04h-3.75"/><path d="m376.8 362.04h-3.75"/><path d="m369.3 362.04h-3.75"/><path d="m361.8 362.04h-3.75"/><path d="m354.3 362.04h-3.75"/><path d="m346.8 362.04h-3.75"/><path d="m339.3 362.04h-3.75"/><path d="m331.8 362.04h-3.75"/><path d="m324.3 362.04h-3.75"/><path d="m316.8 362.04h-3.75"/><path d="m312.3 362.04h-.3"/><path d="m253.05 424.89c0 1.409-1.142 2.55-2.55 2.55-1.407 0-2.55-1.142-2.55-2.55 0-1.409 1.143-2.55 2.55-2.55 1.409 0 2.55 1.142 2.55 2.55"/><path d="m304.05 516.09v-147.9"/><path d="m242.1 516.09v-147.9"/><path d="m242.1 368.19h61.95"/><path d="m258.9 478.89v-93.9"/><path d="m287.25 478.89v-93.9"/><path d="m258.9 384.99h28.35"/><path d="m234.15 362.04v154.05"/><path d="m242.1 495.69h61.95"/><path d="m258.9 478.89h28.35"/><path d="m320.1 362.04v3.75"/><path d="m320.1 369.54v3.75"/><path d="m320.1 377.04v3.75"/><path d="m320.1 384.54v3.75"/><path d="m320.1 392.04v3.75"/><path d="m320.1 399.54v3.75"/><path d="m320.1 407.04v3.75"/><path d="m320.1 414.54v3.75"/><path d="m320.1 422.04v3.75"/><path d="m320.1 429.54v3.75"/><path d="m320.1 437.04v3.75"/><path d="m320.1 444.54v3.75"/><path d="m320.1 452.04v3.75"/><path d="m320.1 459.54v3.75"/><path d="m320.1 467.04v3.75"/><path d="m320.1 474.54v3.75"/><path d="m320.1 482.04v3.75"/><path d="m320.1 489.54v3.75"/><path d="m320.1 497.04v3.75"/><path d="m320.1 504.54v3.75"/><path d="m320.1 512.04v3.75"/><path d="m320.1 515.79v.3"/><path d="m260.1 478.89v-93.9"/><path d="m286.05 478.89v-93.9"/><path d="m312 516.09h-77.85"/><path d="m312 362.04h-77.85"/><path d="m312 356.64h-77.85"/><path d="m312 347.79h-77.85"/></g></svg>