<svg xmlns="http://www.w3.org/2000/svg" height="160.29" viewBox="0 0 158.19 160.29273"><g transform="translate(-233.88-556.92)" fill="none" stroke-linejoin="round" stroke-linecap="round" stroke-width=".54" stroke-miterlimit="10"><g stroke="#000"><path d="m234.15 557.19v113.4h157.65v-113.4h-157.65z"/><path d="m304.05 670.59l-46.35 46.35"/></g><g stroke="#888"><path d="m242.1 670.59v.75"/><path d="m242.1 671.34v.75"/><path d="m242.1 672.09v.75"/><path d="m242.1 672.84v.75"/><path d="m242.1 673.59l.15.75"/><path d="m242.55 678.09l.15.75"/><path d="m242.7 678.84v.75"/><path d="m242.7 679.59l.15.9"/><path d="m242.85 680.49l.15.75"/><path d="m243 681.24l.15.6"/><path d="m243.9 685.44v.15"/><path d="m243.9 685.59l.15.75"/><path d="m244.05 686.34l.3.75"/><path d="m244.35 687.09l.15.75"/><path d="m244.5 687.84l.3.75"/><path d="m244.8 688.59l.15.45"/><path d="m246.15 692.64l.15.3"/><path d="m246.3 692.94l.15.6"/><path d="m246.45 693.54l.3.75"/><path d="m246.75 694.29l.3.75"/><path d="m247.05 695.04l.3.6"/><path d="m247.35 695.64l.15.45"/><path d="m249.15 699.39l.3.45"/><path d="m249.45 699.84l.3.6"/><path d="m249.75 700.44l.45.75"/><path d="m250.2 701.19l.3.6"/><path d="m250.5 701.79l.45.6"/><path d="m250.95 702.39l.15.3"/><path d="m253.05 705.84l.3.45"/><path d="m253.35 706.29l.45.6"/><path d="m253.8 706.89l.45.6"/><path d="m254.25 707.49l.45.6"/><path d="m254.7 708.09l.45.6"/><path d="m255.15 708.69l.15.15"/><path d="m257.7 711.69l.45.45"/><path d="m258.15 712.14l.45.6"/><path d="m258.6 712.74l.6.6"/><path d="m259.2 713.34l.45.6"/><path d="m259.65 713.94l.6.45"/></g></g></svg>