<svg xmlns="http://www.w3.org/2000/svg" width="167.2" height="168.85" viewBox="0 0 167.19767 168.84769"><g transform="translate(-10.828-347.51)" fill="none" stroke="#000" stroke-linejoin="round" stroke-linecap="round" stroke-width=".54" stroke-miterlimit="10"><path d="m177.75 516.09v-3.75"/><path d="m177.75 508.59v-3.75"/><path d="m177.75 501.09v-3.75"/><path d="m177.75 493.59v-3.75"/><path d="m177.75 486.09v-3.75"/><path d="m177.75 478.59v-3.75"/><path d="m177.75 471.09v-3.75"/><path d="m177.75 463.59v-3.75"/><path d="m177.75 456.09v-3.75"/><path d="m177.75 448.59v-3.75"/><path d="m177.75 441.09v-3.75"/><path d="m177.75 433.59v-3.75"/><path d="m177.75 426.09v-3.75"/><path d="m177.75 418.59v-3.75"/><path d="m177.75 411.09v-3.75"/><path d="m177.75 403.59v-3.75"/><path d="m177.75 396.09v-3.75"/><path d="m177.75 388.59v-3.75"/><path d="m177.75 381.09v-3.75"/><path d="m177.75 373.59v-3.75"/><path d="m177.75 366.09v-3.75"/><path d="m177.75 362.34v-.3"/><path d="m97.95 516.09h3.75"/><path d="m105.45 516.09h3.75"/><path d="m112.95 516.09h3.75"/><path d="m120.45 516.09h3.75"/><path d="m127.95 516.09h3.75"/><path d="m135.45 516.09h3.75"/><path d="m142.95 516.09h3.75"/><path d="m150.45 516.09h3.75"/><path d="m157.95 516.09h3.75"/><path d="m165.45 516.09h3.75"/><path d="m172.95 516.09h3.75"/><path d="m177.45 516.09h.3"/><path d="m97.95 362.04v154.05"/><path d="m177.75 362.04h-3.75"/><path d="m170.25 362.04h-3.75"/><path d="m162.75 362.04h-3.75"/><path d="m155.25 362.04h-3.75"/><path d="m147.75 362.04h-3.75"/><path d="m140.25 362.04h-3.75"/><path d="m132.75 362.04h-3.75"/><path d="m125.25 362.04h-3.75"/><path d="m117.75 362.04h-3.75"/><path d="m110.25 362.04h-3.75"/><path d="m102.75 362.04h-3.75"/><path d="m98.25 362.04h-.3"/><path d="m39 424.89c0 1.409-1.142 2.55-2.55 2.55-1.407 0-2.55-1.142-2.55-2.55 0-1.409 1.143-2.55 2.55-2.55 1.409 0 2.55 1.142 2.55 2.55"/><path d="m90 516.09v-147.9"/><path d="m28.05 516.09v-147.9"/><path d="m28.05 368.19h61.95"/><path d="m44.852 478.89v-93.9"/><path d="m73.2 478.89v-93.9"/><path d="m44.852 384.99h28.35"/><path d="m19.952 362.04v154.05"/><path d="m28.05 495.69h61.95"/><path d="m44.852 478.89h28.35"/><path d="m105.9 362.04v3.75"/><path d="m105.9 369.54v3.75"/><path d="m105.9 377.04v3.75"/><path d="m105.9 384.54v3.75"/><path d="m105.9 392.04v3.75"/><path d="m105.9 399.54v3.75"/><path d="m105.9 407.04v3.75"/><path d="m105.9 414.54v3.75"/><path d="m105.9 422.04v3.75"/><path d="m105.9 429.54v3.75"/><path d="m105.9 437.04v3.75"/><path d="m105.9 444.54v3.75"/><path d="m105.9 452.04v3.75"/><path d="m105.9 459.54v3.75"/><path d="m105.9 467.04v3.75"/><path d="m105.9 474.54v3.75"/><path d="m105.9 482.04v3.75"/><path d="m105.9 489.54v3.75"/><path d="m105.9 497.04v3.75"/><path d="m105.9 504.54v3.75"/><path d="m105.9 512.04v3.75"/><path d="m105.9 515.79v.3"/><path d="m46.05 478.89v-93.9"/><path d="m72 478.89v-93.9"/><path d="m97.95 516.09h-78"/><path d="m97.95 362.04h-78"/><path d="m97.95 356.64h-78"/><path d="m97.95 347.79h-78"/><path d="m19.952 516.09v-154.05"/><path d="m11.1 362.04h8.85"/><path d="m11.1 356.64v5.4"/><path d="m19.952 356.64h-8.85"/><path d="m11.1 356.64h8.85"/><path d="m11.1 347.79v8.85"/><path d="m19.952 347.79h-8.85"/></g></svg>