<svg xmlns="http://www.w3.org/2000/svg" width="100.6" height="168.84" viewBox="0 0 100.59769 168.84387"><g transform="translate(-276.08-356.86)" fill="none" stroke="#000" stroke-linejoin="round" stroke-linecap="round" stroke-width=".54" stroke-miterlimit="10"><path d="m376.41 525.43h-100.05"/><path d="m295.26 434.23c0 1.409-1.142 2.55-2.55 2.55-1.407 0-2.55-1.142-2.55-2.55 0-1.409 1.143-2.55 2.55-2.55 1.409 0 2.55 1.142 2.55 2.55"/><path d="m284.31 525.43v-147.9"/><path d="m368.46 525.43v-147.9"/><path d="m368.46 377.53h-84.15"/><path d="m351.66 488.23v-93.9"/><path d="m301.11 488.23v-93.9"/><path d="m351.66 394.33h-50.55"/><path d="m376.41 371.38h-100.05"/><path d="m376.41 371.38v154.05"/><path d="m276.36 371.38v154.05"/><path d="m368.46 505.03h-84.15"/><path d="m351.66 488.23h-50.55"/><path d="m350.31 488.23v-93.9"/><path d="m302.31 488.23v-93.9"/><path d="m376.41 365.98h-100.05"/><path d="m376.41 357.13h-100.05"/></g></svg>