<svg xmlns="http://www.w3.org/2000/svg" height="175.89" viewBox="0 0 100.59 175.89273"><g transform="translate(-276.09-566.26)" fill="none" stroke-linejoin="round" stroke-linecap="round" stroke-width=".54" stroke-miterlimit="10"><g stroke="#000"><path d="m276.36 566.53v113.4h100.05v-113.4h-100.05z"/><path d="m368.46 679.93l-61.95 61.95"/></g><g stroke="#888"><path d="m284.31 679.93v.45"/><path d="m284.31 680.38v.6"/><path d="m284.31 680.98v.45"/><path d="m284.31 681.43v.6"/><path d="m284.31 682.03v.45"/><path d="m284.31 682.48v.45"/><path d="m284.31 682.93v.6"/><path d="m284.31 683.53v.15"/><path d="m284.61 687.43v.15"/><path d="m284.61 687.58l.15.6"/><path d="m284.76 688.18v.45"/><path d="m284.76 688.63v.6"/><path d="m284.76 689.23l.15.45"/><path d="m284.91 689.68v.6"/><path d="m284.91 690.28l.15.45"/><path d="m285.06 690.73v.45"/><path d="m285.66 694.78v.6"/><path d="m285.66 695.38l.15.45"/><path d="m285.81 695.83l.15.45"/><path d="m285.96 696.28v.6"/><path d="m285.96 696.88l.15.45"/><path d="m286.11 697.33l.15.45"/><path d="m286.26 697.78l.15.6"/><path d="m287.16 701.98l.15.3"/><path d="m287.31 702.28l.15.6"/><path d="m287.46 702.88l.15.45"/><path d="m287.61 703.33l.15.45"/><path d="m287.76 703.78l.15.6"/><path d="m287.91 704.38l.15.45"/><path d="m288.06 704.83l.15.45"/><path d="m288.21 705.28v.3"/><path d="m289.56 709.03v.15"/><path d="m289.56 709.18l.15.6"/><path d="m289.71 709.78l.15.45"/><path d="m289.86 710.23l.3.45"/><path d="m290.16 710.68l.15.45"/><path d="m290.31 711.13l.15.45"/><path d="m290.46 711.58l.3.6"/><path d="m290.76 712.18l.15.3"/><path d="m292.41 715.93l.15.45"/><path d="m292.56 716.38l.3.45"/><path d="m292.86 716.83l.15.45"/><path d="m293.01 717.28l.3.45"/><path d="m293.31 717.73l.15.45"/><path d="m293.46 718.18l.3.45"/><path d="m293.76 718.63l.3.45"/><path d="m294.06 719.08v.15"/><path d="m295.86 722.53l.15.15"/><path d="m296.01 722.68l.3.45"/><path d="m296.31 723.13l.3.45"/><path d="m296.61 723.58l.15.45"/><path d="m296.76 724.03l.3.45"/><path d="m297.06 724.48l.3.45"/><path d="m297.36 724.93l.3.45"/><path d="m297.66 725.38l.15.3"/><path d="m299.91 728.83l.3.3"/><path d="m300.21 729.13l.3.45"/><path d="m300.51 729.58l.3.45"/><path d="m300.81 730.03l.3.45"/><path d="m301.11 730.48l.3.45"/><path d="m301.41 730.93l.45.3"/><path d="m301.86 731.23l.3.45"/><path d="m304.56 734.68l.15.15"/><path d="m304.71 734.83l.3.45"/><path d="m305.01 735.28l.45.3"/><path d="m305.46 735.58l.3.45"/><path d="m305.76 736.03l.3.45"/><path d="m306.06 736.48l.45.3"/><path d="m306.51 736.78l.3.45"/><path d="m306.81 737.23l.15.15"/></g></g></svg>