<svg xmlns="http://www.w3.org/2000/svg" width="131.65" height="168.85" viewBox="0 0 131.64769 168.84769" xmlns:xlink="http://www.w3.org/1999/xlink"><g transform="translate(-81.65-325.68)"><path d="m323.88 346.35h106.35" fill="none" stroke="#000" stroke-linejoin="round" stroke-linecap="round" stroke-width=".54" stroke-miterlimit="10" id="0"/><path d="m323.88 452.7h106.35" fill="none" stroke="#000" stroke-linejoin="round" stroke-linecap="round" stroke-width=".54" stroke-miterlimit="10" id="1"/><use xlink:href="#1"/><use xlink:href="#0"/><path d="m543.33 346.35h106.35" fill="none" stroke="#000" stroke-linejoin="round" stroke-linecap="round" stroke-width=".54" stroke-miterlimit="10" id="2"/><path d="m543.33 452.7h106.35" fill="none" stroke="#000" stroke-linejoin="round" stroke-linecap="round" stroke-width=".54" stroke-miterlimit="10" id="3"/><use xlink:href="#3"/><use xlink:href="#2"/><path d="m98.73 346.35h106.2" fill="none" stroke="#000" stroke-linejoin="round" stroke-linecap="round" stroke-width=".54" stroke-miterlimit="10" id="4"/><g fill="none" stroke="#000" stroke-linejoin="round" stroke-linecap="round" stroke-width=".54" stroke-miterlimit="10"><path d="m98.73 348.15h106.2"/><path d="m98.73 365.85h106.2"/><path d="m98.73 371.1h106.2"/><path d="m100.98 375.6h101.85"/><path d="m100.98 378.15h101.85"/><path d="m98.73 418.95h106.2"/><path d="m98.73 447.3h106.2"/><path d="m180.78 358.8c.3-.3.5-.7.6-1.2.2-.401.2-.851 0-1.35-.101-.401-.3-.8-.6-1.2-.4-.3-.799-.5-1.2-.6-.5-.2-.95-.2-1.35 0-.5.101-.9.3-1.2.6-.4.401-.649.8-.75 1.2-.101.5-.101.95 0 1.35.101.5.35.9.75 1.2.3.401.701.649 1.2.75.4.101.851.101 1.35 0 .4-.101.799-.349 1.2-.75"/><path d="m178.83 357v-3"/><path d="m192.78 358.8c.3-.3.55-.7.75-1.2.101-.401.101-.851 0-1.35-.2-.401-.45-.8-.75-1.2-.3-.3-.701-.5-1.2-.6-.4-.2-.851-.2-1.35 0-.5.101-.9.3-1.2.6-.3.401-.55.8-.75 1.2-.101.5-.101.95 0 1.35.2.5.45.9.75 1.2.3.401.701.649 1.2.75.5.101.95.101 1.35 0 .5-.101.9-.349 1.2-.75"/><path d="m190.98 357v-3.15"/><path d="m122.88 358.8c.4.401.799.649 1.2.75.499.101 1 .101 1.5 0 .4-.101.75-.349 1.05-.75.4-.3.65-.7.75-1.2.1-.401.1-.851 0-1.35-.1-.401-.35-.8-.75-1.2-.3-.3-.65-.5-1.05-.6-.499-.2-1-.2-1.5 0-.4.101-.799.3-1.2.6-.3.401-.499.8-.6 1.2-.1.5-.1.95 0 1.35.1.5.3.9.6 1.2"/><path d="m124.83 357v-2.7"/><path d="m110.88 358.8c.3.401.701.649 1.2.75.499.101.95.101 1.35 0 .499-.101.9-.349 1.2-.75.4-.3.65-.7.75-1.2.1-.401.1-.851 0-1.35-.1-.401-.35-.8-.75-1.2-.3-.3-.701-.5-1.2-.6-.4-.2-.85-.2-1.35 0-.499.101-.9.3-1.2.6-.3.401-.499.8-.6 1.2-.2.5-.2.95 0 1.35.1.5.3.9.6 1.2"/><path d="m112.83 357v-2.7"/><path d="m137.73 357h28.35"/><path d="m137.73 355.2h28.35"/><path d="m137.73 355.2v1.8"/><path d="m166.08 355.2v1.8"/><path d="m100.98 375.6v2.55"/><path d="m202.83 375.6v2.55"/><path d="m98.73 346.35v106.35"/><path d="m204.93 346.35v106.35"/></g><path d="m98.73 452.7h106.2" fill="none" stroke="#000" stroke-linejoin="round" stroke-linecap="round" stroke-width=".54" stroke-miterlimit="10" id="5"/><g fill="none" stroke="#000" stroke-linejoin="round" stroke-linecap="round" stroke-width=".54" stroke-miterlimit="10"><path d="m98.73 387.15h106.2"/><path d="m204.93 494.25v-147.9"/><path d="m98.73 494.25v-147.9"/><path d="m90.78 340.2h122.25"/><path d="m90.78 340.2v154.05"/><path d="m213.03 340.2v154.05"/></g><use xlink:href="#5"/><g fill="none" stroke="#000" stroke-linejoin="round" stroke-linecap="round" stroke-width=".54" stroke-miterlimit="10"><path d="m90.78 494.25h122.25"/><path d="m98.73 473.85h106.2"/></g><use xlink:href="#4"/><g fill="none" stroke="#000" stroke-linejoin="round" stroke-linecap="round" stroke-width=".54" stroke-miterlimit="10"><path d="m98.73 453.6h106.2"/><path d="m90.78 334.8h122.25"/><path d="m90.78 325.95h122.25"/><path d="m90.78 494.25v-154.05"/><path d="m81.926 340.2h8.85"/><path d="m81.926 334.8v5.4"/><path d="m90.78 334.8h-8.85"/><path d="m81.926 334.8h8.85"/><path d="m81.926 325.95v8.85"/><path d="m90.78 325.95h-8.85"/></g><path d="m323.88 542.4h2.55" fill="none" stroke="#000" stroke-linejoin="round" stroke-linecap="round" stroke-width=".54" stroke-miterlimit="10" id="6"/><path d="m330.18 542.4h3.75" fill="none" stroke="#000" stroke-linejoin="round" stroke-linecap="round" stroke-width=".54" stroke-miterlimit="10" id="7"/><path d="m337.68 542.4h3.75" fill="none" stroke="#000" stroke-linejoin="round" stroke-linecap="round" stroke-width=".54" stroke-miterlimit="10" id="8"/><path d="m345.18 542.4h3.75" fill="none" stroke="#000" stroke-linejoin="round" stroke-linecap="round" stroke-width=".54" stroke-miterlimit="10" id="9"/><path d="m352.68 542.4h3.75" fill="none" stroke="#000" stroke-linejoin="round" stroke-linecap="round" stroke-width=".54" stroke-miterlimit="10" id="A"/><path d="m360.18 542.4h3.75" fill="none" stroke="#000" stroke-linejoin="round" stroke-linecap="round" stroke-width=".54" stroke-miterlimit="10" id="B"/><path d="m367.68 542.4h3.75" fill="none" stroke="#000" stroke-linejoin="round" stroke-linecap="round" stroke-width=".54" stroke-miterlimit="10" id="C"/><path d="m375.18 542.4h3.75" fill="none" stroke="#000" stroke-linejoin="round" stroke-linecap="round" stroke-width=".54" stroke-miterlimit="10" id="D"/><path d="m382.68 542.4h3.75" fill="none" stroke="#000" stroke-linejoin="round" stroke-linecap="round" stroke-width=".54" stroke-miterlimit="10" id="E"/><path d="m390.18 542.4h3.75" fill="none" stroke="#000" stroke-linejoin="round" stroke-linecap="round" stroke-width=".54" stroke-miterlimit="10" id="F"/><path d="m397.68 542.4h3.75" fill="none" stroke="#000" stroke-linejoin="round" stroke-linecap="round" stroke-width=".54" stroke-miterlimit="10" id="G"/><path d="m405.18 542.4h3.75" fill="none" stroke="#000" stroke-linejoin="round" stroke-linecap="round" stroke-width=".54" stroke-miterlimit="10" id="H"/><path d="m412.68 542.4h3.75" fill="none" stroke="#000" stroke-linejoin="round" stroke-linecap="round" stroke-width=".54" stroke-miterlimit="10" id="I"/><path d="m420.18 542.4h3.75" fill="none" stroke="#000" stroke-linejoin="round" stroke-linecap="round" stroke-width=".54" stroke-miterlimit="10" id="J"/><path d="m427.68 542.4h2.55" fill="none" stroke="#000" stroke-linejoin="round" stroke-linecap="round" stroke-width=".54" stroke-miterlimit="10" id="K"/><use xlink:href="#6"/><use xlink:href="#7"/><use xlink:href="#8"/><use xlink:href="#9"/><use xlink:href="#A"/><use xlink:href="#B"/><use xlink:href="#C"/><use xlink:href="#D"/><use xlink:href="#E"/><use xlink:href="#F"/><use xlink:href="#G"/><use xlink:href="#H"/><use xlink:href="#I"/><use xlink:href="#J"/><use xlink:href="#K"/></g></svg>