<svg xmlns="http://www.w3.org/2000/svg" width="122.79" height="170.64" viewBox="0 0 122.79385 170.64385" xmlns:xlink="http://www.w3.org/1999/xlink"><g transform="translate(-315.66-535.08)"><path d="m323.88 346.35h106.35" fill="none" stroke="#000" stroke-linejoin="round" stroke-linecap="round" stroke-width=".54" stroke-miterlimit="10" id="0"/><path d="m323.88 452.7h106.35" fill="none" stroke="#000" stroke-linejoin="round" stroke-linecap="round" stroke-width=".54" stroke-miterlimit="10" id="1"/><use xlink:href="#1"/><use xlink:href="#0"/><path d="m543.33 346.35h106.35" fill="none" stroke="#000" stroke-linejoin="round" stroke-linecap="round" stroke-width=".54" stroke-miterlimit="10" id="2"/><path d="m543.33 452.7h106.35" fill="none" stroke="#000" stroke-linejoin="round" stroke-linecap="round" stroke-width=".54" stroke-miterlimit="10" id="3"/><use xlink:href="#3"/><use xlink:href="#2"/><path d="m98.73 346.35h106.2" fill="none" stroke="#000" stroke-linejoin="round" stroke-linecap="round" stroke-width=".54" stroke-miterlimit="10" id="4"/><path d="m98.73 452.7h106.2" fill="none" stroke="#000" stroke-linejoin="round" stroke-linecap="round" stroke-width=".54" stroke-miterlimit="10" id="5"/><use xlink:href="#5"/><use xlink:href="#4"/><g fill="none" stroke="#000" stroke-linejoin="round" stroke-linecap="round" stroke-width=".54" stroke-miterlimit="10"><path d="m323.88 648.75v-2.55"/><path d="m323.88 642.45v-3.75"/><path d="m323.88 634.95v-3.75"/><path d="m323.88 627.45v-3.75"/><path d="m323.88 619.95v-3.75"/><path d="m323.88 612.45v-3.75"/><path d="m323.88 604.95v-3.75"/><path d="m323.88 597.45v-3.75"/><path d="m323.88 589.95v-3.75"/><path d="m323.88 582.45v-3.75"/><path d="m323.88 574.95v-3.75"/><path d="m323.88 567.45v-3.75"/><path d="m323.88 559.95v-3.75"/><path d="m323.88 552.45v-3.75"/><path d="m323.88 544.95v-2.55"/><path d="m430.23 542.4v2.55"/><path d="m430.23 548.7v3.75"/><path d="m430.23 556.2v3.75"/><path d="m430.23 563.7v3.75"/><path d="m430.23 571.2v3.75"/><path d="m430.23 578.7v3.75"/><path d="m430.23 586.2v3.75"/><path d="m430.23 593.7v3.75"/><path d="m430.23 601.2v3.75"/><path d="m430.23 608.7v3.75"/><path d="m430.23 616.2v3.75"/><path d="m430.23 623.7v3.75"/><path d="m430.23 631.2v3.75"/><path d="m430.23 638.7v3.75"/><path d="m430.23 646.2v2.55"/></g><path d="m323.88 542.4h2.55" fill="none" stroke="#000" stroke-linejoin="round" stroke-linecap="round" stroke-width=".54" stroke-miterlimit="10" id="6"/><path d="m330.18 542.4h3.75" fill="none" stroke="#000" stroke-linejoin="round" stroke-linecap="round" stroke-width=".54" stroke-miterlimit="10" id="7"/><path d="m337.68 542.4h3.75" fill="none" stroke="#000" stroke-linejoin="round" stroke-linecap="round" stroke-width=".54" stroke-miterlimit="10" id="8"/><path d="m345.18 542.4h3.75" fill="none" stroke="#000" stroke-linejoin="round" stroke-linecap="round" stroke-width=".54" stroke-miterlimit="10" id="9"/><path d="m352.68 542.4h3.75" fill="none" stroke="#000" stroke-linejoin="round" stroke-linecap="round" stroke-width=".54" stroke-miterlimit="10" id="A"/><path d="m360.18 542.4h3.75" fill="none" stroke="#000" stroke-linejoin="round" stroke-linecap="round" stroke-width=".54" stroke-miterlimit="10" id="B"/><path d="m367.68 542.4h3.75" fill="none" stroke="#000" stroke-linejoin="round" stroke-linecap="round" stroke-width=".54" stroke-miterlimit="10" id="C"/><path d="m375.18 542.4h3.75" fill="none" stroke="#000" stroke-linejoin="round" stroke-linecap="round" stroke-width=".54" stroke-miterlimit="10" id="D"/><path d="m382.68 542.4h3.75" fill="none" stroke="#000" stroke-linejoin="round" stroke-linecap="round" stroke-width=".54" stroke-miterlimit="10" id="E"/><path d="m390.18 542.4h3.75" fill="none" stroke="#000" stroke-linejoin="round" stroke-linecap="round" stroke-width=".54" stroke-miterlimit="10" id="F"/><path d="m397.68 542.4h3.75" fill="none" stroke="#000" stroke-linejoin="round" stroke-linecap="round" stroke-width=".54" stroke-miterlimit="10" id="G"/><path d="m405.18 542.4h3.75" fill="none" stroke="#000" stroke-linejoin="round" stroke-linecap="round" stroke-width=".54" stroke-miterlimit="10" id="H"/><path d="m412.68 542.4h3.75" fill="none" stroke="#000" stroke-linejoin="round" stroke-linecap="round" stroke-width=".54" stroke-miterlimit="10" id="I"/><path d="m420.18 542.4h3.75" fill="none" stroke="#000" stroke-linejoin="round" stroke-linecap="round" stroke-width=".54" stroke-miterlimit="10" id="J"/><path d="m427.68 542.4h2.55" fill="none" stroke="#000" stroke-linejoin="round" stroke-linecap="round" stroke-width=".54" stroke-miterlimit="10" id="K"/><use xlink:href="#6"/><use xlink:href="#7"/><use xlink:href="#8"/><use xlink:href="#9"/><use xlink:href="#A"/><use xlink:href="#B"/><use xlink:href="#C"/><use xlink:href="#D"/><use xlink:href="#E"/><use xlink:href="#F"/><use xlink:href="#G"/><use xlink:href="#H"/><use xlink:href="#I"/><use xlink:href="#J"/><use xlink:href="#K"/><g fill="none" stroke="#000" stroke-linejoin="round" stroke-linecap="round" stroke-width=".54" stroke-miterlimit="10"><path d="m323.88 705.45v-3.75"/><path d="m323.88 697.95v-3.75"/><path d="m323.88 690.45v-3.75"/><path d="m323.88 682.95v-3.75"/><path d="m323.88 675.45v-3.75"/><path d="m323.88 667.95v-3.75"/><path d="m323.88 660.45v-3.75"/><path d="m323.88 652.95v-3.75"/><path d="m323.88 649.05v-.3"/><path d="m433.68 701.85h-2.25"/><path d="m427.68 701.85h-3.75"/><path d="m420.18 701.85h-3.75"/><path d="m412.68 701.85h-3.75"/><path d="m405.18 701.85h-3.75"/><path d="m397.68 701.85h-3.75"/><path d="m390.18 701.85h-3.75"/><path d="m382.68 701.85h-3.75"/><path d="m375.18 701.85h-3.75"/><path d="m367.68 701.85h-3.75"/><path d="m360.18 701.85h-3.75"/><path d="m352.68 701.85h-3.75"/><path d="m345.18 701.85h-3.75"/><path d="m337.68 701.85h-3.75"/><path d="m330.18 701.85h-3.75"/><path d="m322.68 701.85h-2.25"/><path d="m430.23 648.75v3.75"/><path d="m430.23 656.25v3.75"/><path d="m430.23 663.75v3.75"/><path d="m430.23 671.25v3.75"/><path d="m430.23 678.75v3.75"/><path d="m430.23 686.25v3.75"/><path d="m430.23 693.75v3.75"/><path d="m430.23 701.25v3.75"/><path d="m430.23 705.15v.3"/><path d="m433.68 675.3h-113.25"/><path d="m323.88 648.75l1.35-1.35"/><path d="m327.93 644.7l2.7-2.7"/><path d="m333.18 639.45l2.7-2.7"/><path d="m338.58 634.05l2.55-2.55"/><path d="m343.83 628.8l2.7-2.7"/><path d="m349.08 623.55l2.7-2.7"/><path d="m354.48 618.15l2.55-2.55"/><path d="m359.73 612.9l2.7-2.7"/><path d="m364.98 607.65l2.7-2.7"/><path d="m370.38 602.25l2.55-2.55"/><path d="m375.63 597l2.7-2.7"/><path d="m380.88 591.75l2.7-2.7"/><path d="m386.28 586.35l2.55-2.55"/><path d="m391.53 581.1l2.7-2.7"/><path d="m396.78 575.85l2.7-2.7"/><path d="m402.18 570.45l2.7-2.7"/><path d="m407.43 565.2l2.7-2.7"/><path d="m412.83 559.8l2.55-2.55"/><path d="m418.08 554.55l2.7-2.7"/><path d="m423.33 549.3l2.7-2.7"/><path d="m428.73 543.9l1.5-1.5"/><path d="m323.88 542.4l1.35 1.35"/><path d="m327.93 546.45l2.7 2.7"/><path d="m333.18 551.7l2.7 2.7"/><path d="m338.58 557.1l2.55 2.55"/><path d="m343.83 562.35l2.7 2.7"/><path d="m349.08 567.6l2.7 2.7"/><path d="m354.48 573l2.55 2.55"/><path d="m359.73 578.25l2.7 2.7"/><path d="m364.98 583.5l2.7 2.7"/><path d="m370.38 588.9l2.55 2.55"/><path d="m375.63 594.15l2.7 2.7"/><path d="m380.88 599.4l2.7 2.7"/><path d="m386.28 604.8l2.55 2.55"/><path d="m391.53 610.05l2.7 2.7"/><path d="m396.78 615.3l2.7 2.7"/><path d="m402.18 620.7l2.7 2.7"/><path d="m407.43 625.95l2.7 2.7"/><path d="m412.83 631.35l2.55 2.55"/><path d="m418.08 636.6l2.7 2.7"/><path d="m423.33 641.85l2.7 2.7"/><path d="m428.73 647.25l1.5 1.5"/><path d="m438.18 648.75v-113.4h-122.25v113.4h122.25"/></g></g></svg>