<svg xmlns="http://www.w3.org/2000/svg" width="149.35" height="168.85" viewBox="0 0 149.34769 168.84768"><g transform="translate(-54.19-353.6)" fill="none" stroke="#000" stroke-linejoin="round" stroke-linecap="round" stroke-width=".54" stroke-miterlimit="10"><path d="m63.31 522.18v-154.05"/><path d="m54.46 368.13h8.85"/><path d="m54.46 362.73v5.4"/><path d="m63.31 362.73h-8.85"/><path d="m54.46 362.73h8.85"/><path d="m54.46 353.88v8.85"/><path d="m63.31 353.88h-8.85"/><path d="m88.06 484.98v-93.9"/><path d="m116.41 484.98v-93.9"/><path d="m88.06 391.08h28.35"/><path d="m63.31 368.13h139.95"/><path d="m63.31 368.13v154.05"/><path d="m63.31 522.18h139.95"/><path d="m133.21 501.78v-127.5"/><path d="m71.26 374.28h124.05"/><path d="m150.01 484.98v-93.9"/><path d="m178.36 484.98v-93.9"/><path d="m150.01 391.08h28.35"/><path d="m203.26 368.13v154.05"/><path d="m144.16 430.98c0 1.409-1.142 2.55-2.55 2.55-1.407 0-2.55-1.142-2.55-2.55 0-1.409 1.143-2.55 2.55-2.55 1.409 0 2.55 1.142 2.55 2.55"/><path d="m71.26 501.78h124.05"/><path d="m88.06 484.98h28.35"/><path d="m150.01 484.98h28.35"/><path d="m195.31 374.28v147.9"/><path d="m71.26 374.28v147.9"/><path d="m127.36 430.98c0 1.409-1.141 2.55-2.55 2.55-1.407 0-2.55-1.142-2.55-2.55 0-1.409 1.143-2.55 2.55-2.55 1.409 0 2.55 1.142 2.55 2.55"/><path d="m115.21 484.98v-93.9"/><path d="m177.16 484.98v-93.9"/><path d="m89.26 484.98v-93.9"/><path d="m151.36 484.98v-93.9"/><path d="m63.31 362.73h139.95"/><path d="m63.31 353.88h139.95"/></g></svg>