<svg xmlns="http://www.w3.org/2000/svg" width="149.5" height="168.85" viewBox="0 0 149.4977 168.84768"><g transform="translate(-527.74-353.6)" fill="none" stroke="#000" stroke-linejoin="round" stroke-linecap="round" stroke-width=".54" stroke-miterlimit="10"><path d="m552.91 484.98v-93.9"/><path d="m581.26 484.98v-93.9"/><path d="m552.91 391.08h28.35"/><path d="m528.01 368.13h140.1"/><path d="m528.01 368.13v154.05"/><path d="m528.01 522.18h140.1"/><path d="m598.06 501.78v-127.5"/><path d="m536.11 374.28h123.9"/><path d="m614.86 484.98v-93.9"/><path d="m643.21 484.98v-93.9"/><path d="m614.86 391.08h28.35"/><path d="m668.11 368.13v154.05"/><path d="m609.01 430.98c0 1.409-1.141 2.55-2.55 2.55-1.407 0-2.55-1.142-2.55-2.55 0-1.409 1.143-2.55 2.55-2.55 1.409 0 2.55 1.142 2.55 2.55"/><path d="m536.11 501.78h123.9"/><path d="m552.91 484.98h28.35"/><path d="m614.86 484.98h28.35"/><path d="m660.01 374.28v147.9"/><path d="m536.11 374.28v147.9"/><path d="m592.21 430.98c0 1.409-1.141 2.55-2.55 2.55-1.407 0-2.55-1.142-2.55-2.55 0-1.409 1.143-2.55 2.55-2.55 1.409 0 2.55 1.142 2.55 2.55"/><path d="m580.06 484.98v-93.9"/><path d="m642.01 484.98v-93.9"/><path d="m554.11 484.98v-93.9"/><path d="m616.06 484.98v-93.9"/><path d="m528.01 362.73h140.1"/><path d="m528.01 353.88h140.1"/><path d="m668.11 522.18v-154.05"/><path d="m676.96 368.13h-8.85"/><path d="m676.96 362.73v5.4"/><path d="m668.11 362.73h8.85"/><path d="m676.96 362.73h-8.85"/><path d="m676.96 353.88v8.85"/><path d="m668.11 353.88h8.85"/></g></svg>