<svg xmlns="http://www.w3.org/2000/svg" width="140.5" height="107.2" viewBox="0 0 140.4977 107.19657"><g transform="translate(-297.04-615.35)" fill="none" stroke-linejoin="round" stroke-linecap="round" stroke-width=".54" stroke-miterlimit="10"><path d="m305.26 675.93l46.35 46.35" stroke="#000"/><g stroke="#888"><path d="m349.21 719.73l.45-.6"/><path d="m349.66 719.13l.6-.45"/><path d="m350.26 718.68l.45-.6"/><path d="m350.71 718.08l.6-.6"/><path d="m351.31 717.48l.45-.45"/><path d="m354.01 714.18l.15-.15"/><path d="m354.16 714.03l.45-.6"/><path d="m354.61 713.43l.45-.6"/><path d="m355.06 712.83l.45-.6"/><path d="m355.51 712.23l.45-.6"/><path d="m355.96 711.63l.3-.45"/><path d="m358.36 708.03l.15-.3"/><path d="m358.51 707.73l.3-.6"/><path d="m358.81 707.13l.45-.75"/><path d="m359.26 706.38l.3-.6"/><path d="m359.56 705.78l.45-.6"/><path d="m360.01 705.18l.15-.45"/><path d="m361.81 701.43l.15-.45"/><path d="m361.96 700.98l.3-.6"/><path d="m362.26 700.38l.3-.75"/><path d="m362.56 699.63l.3-.75"/><path d="m362.86 698.88l.3-.75"/><path d="m363.16 698.13l.15-.15"/><path d="m364.36 694.38l.3-.45"/><path d="m364.66 693.93l.15-.75"/><path d="m364.81 693.18l.3-.75"/><path d="m365.11 692.43l.15-.75"/><path d="m365.26 691.68l.15-.75"/><path d="m365.41 690.93v-.15"/><path d="m366.31 687.18l.15-.75"/><path d="m366.46 686.43v-.75"/><path d="m366.46 685.68l.15-.75"/><path d="m366.61 684.93l.15-.75"/><path d="m366.76 684.18l.15-.75"/><path d="m367.21 679.68v-.75"/><path d="m367.21 678.93v-.75"/><path d="m367.21 678.18l.15-.75"/><path d="m367.36 677.43v-.75"/><path d="m367.36 676.68v-.75"/></g><path d="m429.31 675.93l-46.35 46.35" stroke="#000"/><g stroke="#888"><path d="m367.36 675.93v.75"/><path d="m367.36 676.68v.75"/><path d="m367.36 677.43v.75"/><path d="m367.36 678.18v.75"/><path d="m367.36 678.93v.75"/><path d="m367.66 683.43l.15.75"/><path d="m367.81 684.18l.15.75"/><path d="m367.96 684.93v.75"/><path d="m367.96 685.68l.15.75"/><path d="m368.11 686.43l.15.75"/><path d="m369.01 690.78v.15"/><path d="m369.01 690.93l.15.75"/><path d="m369.16 691.68l.3.75"/><path d="m369.46 692.43l.15.75"/><path d="m369.61 693.18l.3.75"/><path d="m369.91 693.93l.15.45"/><path d="m371.26 697.98v.3"/><path d="m371.26 698.28l.3.75"/><path d="m371.56 699.03l.3.6"/><path d="m371.86 699.63l.3.75"/><path d="m372.16 700.38l.3.75"/><path d="m372.46 701.13l.15.3"/><path d="m374.26 704.73l.3.45"/><path d="m374.56 705.18l.3.6"/><path d="m374.86 705.78l.45.75"/><path d="m375.31 706.53l.3.6"/><path d="m375.61 707.13l.45.75"/><path d="m376.06 707.88v.15"/><path d="m378.16 711.03l.3.6"/><path d="m378.46 711.63l.45.6"/><path d="m378.91 712.23l.6.6"/><path d="m379.51 712.83l.45.6"/><path d="m379.96 713.43l.45.6"/><path d="m382.81 716.88v.15"/><path d="m382.81 717.03l.6.45"/><path d="m383.41 717.48l.45.6"/><path d="m383.86 718.08l.6.6"/><path d="m384.46 718.68l.45.45"/><path d="m384.91 719.13l.45.45"/></g><g stroke="#000"><path d="m297.31 675.93v-60.3"/><path d="m437.26 675.93h-139.95"/><path d="m437.26 615.63v60.3"/><path d="m437.26 615.63h-139.95"/></g></g></svg>