<svg xmlns="http://www.w3.org/2000/svg" width="184.75" height="168.84" viewBox="0 0 184.7477 168.84387"><g transform="translate(-278.43-388.79)" fill="none" stroke="#000" stroke-linejoin="round" stroke-linecap="round" stroke-width=".54" stroke-miterlimit="10"><path d="m364.95 466.16c0 1.409-1.175 2.55-2.625 2.55-1.449 0-2.625-1.142-2.625-2.55 0-1.409 1.176-2.55 2.625-2.55 1.45 0 2.625 1.142 2.625 2.55"/><path d="m286.65 557.36v-147.9"/><path d="m286.65 409.46h85.8"/><path d="m303.45 520.16v-93.9"/><path d="m353.85 520.16v-93.9"/><path d="m303.45 426.26h50.4"/><path d="m278.7 403.31h184.2"/><path d="m278.7 403.31v154.05"/><path d="m454.95 557.36v-147.9"/><path d="m370.8 536.96v-127.5"/><path d="m369 409.46h85.95"/><path d="m387.6 520.16v-93.9"/><path d="m438 520.16v-93.9"/><path d="m387.6 426.26h50.4"/><path d="m462.9 403.31v154.05"/><path d="m278.7 557.36h184.2"/><path d="m286.65 536.96h168.3"/><path d="m387.6 520.16h50.4"/><path d="m303.45 520.16h50.4"/><path d="m381.75 466.16c0 1.409-1.142 2.55-2.55 2.55-1.407 0-2.55-1.142-2.55-2.55 0-1.409 1.143-2.55 2.55-2.55 1.409 0 2.55 1.142 2.55 2.55"/><path d="m352.65 520.16v-93.9"/><path d="m436.8 520.16v-93.9"/><path d="m304.65 520.16v-93.9"/><path d="m388.8 520.16v-93.9"/><path d="m278.7 397.91h184.2"/><path d="m278.7 389.06h184.2"/></g></svg>