<svg xmlns="http://www.w3.org/2000/svg" width="193.75" height="168.85" viewBox="0 0 193.74768 168.84768"><g transform="translate(-5.88-388.79)" fill="none" stroke="#000" stroke-linejoin="round" stroke-linecap="round" stroke-width=".54" stroke-miterlimit="10"><path d="m101.4 466.16c0 1.409-1.174 2.55-2.625 2.55-1.449 0-2.625-1.142-2.625-2.55 0-1.409 1.176-2.55 2.625-2.55 1.451 0 2.625 1.142 2.625 2.55"/><path d="m23.1 557.36v-147.9"/><path d="m23.1 409.46h85.8"/><path d="m39.904 520.16v-93.9"/><path d="m90.3 520.16v-93.9"/><path d="m39.904 426.26h50.4"/><path d="m15 403.31h184.35"/><path d="m15 403.31v154.05"/><path d="m191.4 557.36v-147.9"/><path d="m107.25 536.96v-127.5"/><path d="m105.45 409.46h85.95"/><path d="m124.05 520.16v-93.9"/><path d="m174.45 520.16v-93.9"/><path d="m124.05 426.26h50.4"/><path d="m199.35 403.31v154.05"/><path d="m15 557.36h184.35"/><path d="m23.1 536.96h168.3"/><path d="m124.05 520.16h50.4"/><path d="m39.904 520.16h50.4"/><path d="m118.2 466.16c0 1.409-1.141 2.55-2.55 2.55-1.407 0-2.55-1.142-2.55-2.55 0-1.409 1.143-2.55 2.55-2.55 1.409 0 2.55 1.142 2.55 2.55"/><path d="m89.1 520.16v-93.9"/><path d="m173.25 520.16v-93.9"/><path d="m41.1 520.16v-93.9"/><path d="m125.25 520.16v-93.9"/><path d="m15 397.91h184.35"/><path d="m15 389.06h184.35"/><path d="m15 557.36v-154.05"/><path d="m6.154 403.31h8.85"/><path d="m6.154 397.91v5.4"/><path d="m15 397.91h-8.85"/><path d="m6.154 397.91h8.85"/><path d="m6.154 389.06v8.85"/><path d="m15 389.06h-8.85"/></g></svg>