<svg xmlns="http://www.w3.org/2000/svg" height="175.89" viewBox="0 0 184.73999 175.89273"><g transform="translate(-278.43-598.19)" fill="none" stroke-linejoin="round" stroke-linecap="round" stroke-width=".54" stroke-miterlimit="10"><g stroke="#000"><path d="m278.7 598.46v113.4h184.2v-113.4h-184.2z"/><path d="m286.65 711.86l61.95 61.95"/></g><g stroke="#888"><path d="m346.05 771.41l.45-.45"/><path d="m346.5 770.96l.3-.3"/><path d="m346.8 770.66l.45-.45"/><path d="m347.25 770.21l.3-.3"/><path d="m347.55 769.91l.3-.45"/><path d="m347.85 769.46l.45-.3"/><path d="m348.3 769.16l.3-.45"/><path d="m351 765.86l.3-.3"/><path d="m351.3 765.56l.3-.3"/><path d="m351.6 765.26l.45-.45"/><path d="m352.05 764.81l.3-.45"/><path d="m352.35 764.36l.3-.3"/><path d="m352.65 764.06l.3-.45"/><path d="m352.95 763.61l.3-.45"/><path d="m353.25 763.16l.15-.15"/><path d="m355.65 760.01v-.15"/><path d="m355.65 759.86l.3-.45"/><path d="m355.95 759.41l.3-.45"/><path d="m356.25 758.96l.3-.3"/><path d="m356.55 758.66l.3-.45"/><path d="m356.85 758.21l.3-.45"/><path d="m357.15 757.76l.3-.45"/><path d="m357.45 757.31l.3-.45"/><path d="m359.55 753.56l.3-.3"/><path d="m359.85 753.26l.15-.45"/><path d="m360 752.81l.3-.45"/><path d="m360.3 752.36l.3-.45"/><path d="m360.6 751.91l.15-.45"/><path d="m360.75 751.46l.3-.45"/><path d="m361.05 751.01l.3-.45"/><path d="m361.35 750.56v-.15"/><path d="m363 747.11l.15-.3"/><path d="m363.15 746.81l.15-.45"/><path d="m363.3 746.36l.3-.45"/><path d="m363.6 745.91l.15-.45"/><path d="m363.75 745.46l.15-.45"/><path d="m363.9 745.01l.3-.45"/><path d="m364.2 744.56l.15-.45"/><path d="m364.35 744.11l.15-.45"/><path d="m365.85 740.21l.15-.45"/><path d="m366 739.76l.15-.6"/><path d="m366.15 739.16l.15-.45"/><path d="m366.3 738.71l.15-.45"/><path d="m366.45 738.26l.15-.45"/><path d="m366.6 737.81l.15-.6"/><path d="m366.75 737.21l.3-.45"/><path d="m367.95 733.16l.15-.45"/><path d="m368.1 732.71l.15-.45"/><path d="m368.25 732.26l.15-.45"/><path d="m368.4 731.81v-.6"/><path d="m368.4 731.21l.15-.45"/><path d="m368.55 730.76l.15-.45"/><path d="m368.7 730.31l.15-.6"/><path d="m368.85 729.71v-.15"/><path d="m369.6 725.96v-.3"/><path d="m369.6 725.66l.15-.45"/><path d="m369.75 725.21v-.45"/><path d="m369.75 724.76l.15-.6"/><path d="m369.9 724.16v-.45"/><path d="m369.9 723.71l.15-.6"/><path d="m370.05 723.11v-.45"/><path d="m370.05 722.66v-.45"/><path d="m370.5 718.46v-.45"/><path d="m370.5 718.01v-.45"/><path d="m370.5 717.56l.15-.6"/><path d="m370.65 716.96v-.45"/><path d="m370.65 716.51v-.6"/><path d="m370.65 715.91v-.45"/><path d="m370.65 715.46v-.6"/><path d="m370.65 714.86v-.15"/></g><path d="m454.95 711.86l-62.1 61.95" stroke="#000"/><g stroke="#888"><path d="m370.8 711.86v.45"/><path d="m370.8 712.31v.6"/><path d="m370.8 712.91v.45"/><path d="m370.8 713.36v.6"/><path d="m370.8 713.96v.45"/><path d="m370.8 714.41v.45"/><path d="m370.8 714.86v.6"/><path d="m370.8 715.46v.15"/><path d="m371.1 719.36v.15"/><path d="m371.1 719.51v.6"/><path d="m371.1 720.11l.15.45"/><path d="m371.25 720.56v.6"/><path d="m371.25 721.16v.45"/><path d="m371.25 721.61l.15.6"/><path d="m371.4 722.21v.45"/><path d="m371.4 722.66l.15.45"/><path d="m372.15 726.71v.6"/><path d="m372.15 727.31l.15.45"/><path d="m372.3 727.76v.45"/><path d="m372.3 728.21l.15.6"/><path d="m372.45 728.81l.15.45"/><path d="m372.6 729.26l.15.45"/><path d="m372.75 729.71v.6"/><path d="m373.65 733.91l.15.3"/><path d="m373.8 734.21l.15.6"/><path d="m373.95 734.81l.15.45"/><path d="m374.1 735.26l.15.45"/><path d="m374.25 735.71l.15.6"/><path d="m374.4 736.31l.15.45"/><path d="m374.55 736.76l.15.45"/><path d="m374.7 737.21v.3"/><path d="m376.05 740.96v.15"/><path d="m376.05 741.11l.15.6"/><path d="m376.2 741.71l.15.45"/><path d="m376.35 742.16l.3.45"/><path d="m376.65 742.61l.15.45"/><path d="m376.8 743.06l.15.45"/><path d="m376.95 743.51l.15.6"/><path d="m377.1 744.11l.15.3"/><path d="m378.9 747.71v.15"/><path d="m378.9 747.86l.15.45"/><path d="m379.05 748.31l.3.45"/><path d="m379.35 748.76l.15.45"/><path d="m379.5 749.21l.3.45"/><path d="m379.8 749.66l.15.45"/><path d="m379.95 750.11l.3.45"/><path d="m380.25 750.56l.15.45"/><path d="m380.4 751.01l.15.15"/><path d="m382.35 754.46l.15.15"/><path d="m382.5 754.61l.15.45"/><path d="m382.65 755.06l.3.45"/><path d="m382.95 755.51l.3.45"/><path d="m383.25 755.96l.3.45"/><path d="m383.55 756.41l.3.45"/><path d="m383.85 756.86l.3.45"/><path d="m384.15 757.31l.15.3"/><path d="m386.4 760.76l.3.3"/><path d="m386.7 761.06l.3.45"/><path d="m387 761.51l.3.45"/><path d="m387.3 761.96l.3.45"/><path d="m387.6 762.41l.3.45"/><path d="m387.9 762.86l.3.3"/><path d="m388.2 763.16l.3.45"/><path d="m388.5 763.61l.15.15"/><path d="m391.05 766.61l.15.15"/><path d="m391.2 766.76l.3.45"/><path d="m391.5 767.21l.3.3"/><path d="m391.8 767.51l.45.45"/><path d="m392.25 767.96l.3.45"/><path d="m392.55 768.41l.3.3"/><path d="m392.85 768.71l.45.45"/><path d="m393.3 769.16l.3.3"/></g></g></svg>