<svg xmlns="http://www.w3.org/2000/svg" width="113.95" height="170.64" viewBox="0 0 113.94768 170.64388"><g transform="translate(-157.28-563.09)" fill="none" stroke="#000" stroke-linejoin="round" stroke-linecap="round" stroke-width=".54" stroke-miterlimit="10"><path d="m161.15 676.76v-3.6"/><path d="m267.35 676.76h-106.2"/><path d="m267.35 673.16v3.6"/><path d="m161.15 673.16v-2.55"/><path d="m161.15 666.86v-3.75"/><path d="m161.15 659.36v-3.75"/><path d="m161.15 651.86v-3.75"/><path d="m161.15 644.36v-3.75"/><path d="m161.15 636.86v-3.75"/><path d="m161.15 629.36v-3.75"/><path d="m161.15 621.86v-3.75"/><path d="m161.15 614.36v-3.75"/><path d="m161.15 606.86v-3.75"/><path d="m161.15 599.36v-3.75"/><path d="m161.15 591.86v-3.75"/><path d="m161.15 584.36v-3.75"/><path d="m161.15 576.86v-3.75"/><path d="m161.15 569.36v-2.55"/><path d="m161.15 566.81h2.4"/><path d="m167.3 566.81h3.75"/><path d="m174.8 566.81h3.75"/><path d="m182.3 566.81h3.75"/><path d="m189.8 566.81h3.75"/><path d="m197.3 566.81h3.75"/><path d="m204.8 566.81h3.75"/><path d="m212.3 566.81h3.75"/><path d="m219.8 566.81h3.75"/><path d="m227.3 566.81h3.75"/><path d="m234.8 566.81h3.75"/><path d="m242.3 566.81h3.75"/><path d="m249.8 566.81h3.75"/><path d="m257.3 566.81h3.75"/><path d="m264.8 566.81h2.55"/><path d="m267.35 566.81v2.55"/><path d="m267.35 573.11v3.75"/><path d="m267.35 580.61v3.75"/><path d="m267.35 588.11v3.75"/><path d="m267.35 595.61v3.75"/><path d="m267.35 603.11v3.75"/><path d="m267.35 610.61v3.75"/><path d="m267.35 618.11v3.75"/><path d="m267.35 625.61v3.75"/><path d="m267.35 633.11v3.75"/><path d="m267.35 640.61v3.75"/><path d="m267.35 648.11v3.75"/><path d="m267.35 655.61v3.75"/><path d="m267.35 663.11v3.75"/><path d="m267.35 670.61v2.55"/><path d="m161.15 566.81l1.35 1.35"/><path d="m165.2 570.86l2.7 2.7"/><path d="m170.45 576.11l2.7 2.7"/><path d="m175.85 581.51l2.55 2.55"/><path d="m181.1 586.76l2.7 2.7"/><path d="m186.35 592.01l2.7 2.7"/><path d="m191.75 597.41l2.55 2.55"/><path d="m197 602.66l2.55 2.7"/><path d="m202.25 608.06l2.7 2.55"/><path d="m207.5 613.31l2.7 2.7"/><path d="m212.9 618.56l2.55 2.7"/><path d="m218.15 623.96l2.7 2.55"/><path d="m223.4 629.21l2.7 2.7"/><path d="m228.8 634.46l2.55 2.7"/><path d="m234.05 639.86l2.7 2.7"/><path d="m239.3 645.11l2.7 2.7"/><path d="m244.7 650.51l2.55 2.55"/><path d="m249.95 655.76l2.7 2.7"/><path d="m255.2 661.01l2.7 2.7"/><path d="m260.6 666.41l2.55 2.55"/><path d="m265.85 671.66l1.5 1.5"/><path d="m267.35 566.81l-1.35 1.35"/><path d="m263.3 570.86l-2.7 2.7"/><path d="m258.05 576.11l-2.7 2.7"/><path d="m252.65 581.51l-2.55 2.55"/><path d="m247.4 586.76l-2.7 2.7"/><path d="m242.15 592.01l-2.7 2.7"/><path d="m236.75 597.41l-2.55 2.55"/><path d="m231.5 602.66l-2.55 2.7"/><path d="m226.25 608.06l-2.7 2.55"/><path d="m221 613.31l-2.7 2.7"/><path d="m215.6 618.56l-2.55 2.7"/><path d="m210.35 623.96l-2.7 2.55"/><path d="m205.1 629.21l-2.7 2.7"/><path d="m199.7 634.46l-2.55 2.7"/><path d="m194.45 639.86l-2.7 2.7"/><path d="m189.2 645.11l-2.7 2.7"/><path d="m183.8 650.51l-2.55 2.55"/><path d="m178.55 655.76l-2.7 2.7"/><path d="m173.3 661.01l-2.7 2.7"/><path d="m167.9 666.41l-2.55 2.55"/><path d="m162.65 671.66l-1.5 1.5"/><path d="m161.15 733.46v-3.75"/><path d="m161.15 725.96v-3.75"/><path d="m161.15 718.46v-3.75"/><path d="m161.15 710.96v-3.75"/><path d="m161.15 703.46v-3.75"/><path d="m161.15 695.96v-3.75"/><path d="m161.15 688.46v-3.75"/><path d="m161.15 680.96v-3.75"/><path d="m161.15 677.06v-.3"/><path d="m270.95 730.01h-2.25"/><path d="m264.95 730.01h-3.75"/><path d="m257.45 730.01h-3.75"/><path d="m249.95 730.01h-3.75"/><path d="m242.45 730.01h-3.75"/><path d="m234.95 730.01h-3.75"/><path d="m227.45 730.01h-3.75"/><path d="m219.95 730.01h-3.75"/><path d="m212.45 730.01h-3.75"/><path d="m204.95 730.01h-3.75"/><path d="m197.45 730.01h-3.75"/><path d="m189.95 730.01h-3.75"/><path d="m182.45 730.01h-3.75"/><path d="m174.95 730.01h-3.75"/><path d="m167.45 730.01h-3.75"/><path d="m159.95 730.01h-2.4"/><path d="m267.35 676.76v3.75"/><path d="m267.35 684.26v3.75"/><path d="m267.35 691.76v3.75"/><path d="m267.35 699.26v3.75"/><path d="m267.35 706.76v3.75"/><path d="m267.35 714.26v3.75"/><path d="m267.35 721.76v3.75"/><path d="m267.35 729.26v3.75"/><path d="m267.35 733.16v.3"/><path d="m267.35 563.36h-106.2"/></g></svg>