<svg xmlns="http://www.w3.org/2000/svg" height="89.94" viewBox="0 0 78.540001 89.941934" xmlns:xlink="http://www.w3.org/1999/xlink"><g transform="matrix(0 1.25 1.25 0-502.46-386.17)"><g fill="none" stroke="#888" stroke-linejoin="round" stroke-linecap="round" stroke-width=".432" stroke-miterlimit="10"><path d="m309.15 402.18h45.36v62.4h-45.36v-62.4z"/><path d="m354.51 408.54l26.16 45.48"/><path d="m379.35 451.5l-.36.24"/><path d="m378.99 451.74l-.36.24"/><path d="m378.63 451.98l-.36.12"/><path d="m378.27 452.1l-.36.24"/><path d="m377.91 452.34l-.36.12"/><path d="m377.55 452.46l-.36.24"/><path d="m377.19 452.7l-.36.12"/><path d="m376.83 452.82l-.12.12"/><path d="m373.95 454.14l-.12.12"/><path d="m373.83 454.26l-.36.12"/><path d="m373.47 454.38l-.36.12"/><path d="m373.11 454.5l-.36.24"/><path d="m372.75 454.74l-.36.12"/><path d="m372.39 454.86l-.48.12"/><path d="m371.91 454.98l-.36.12"/><path d="m371.55 455.1l-.36.12"/><path d="m368.43 456.18l-.36.12"/><path d="m368.07 456.3l-.36.12"/><path d="m367.71 456.42h-.36"/><path d="m367.35 456.42l-.36.12"/><path d="m366.99 456.54l-.48.12"/><path d="m366.51 456.66l-.36.12"/><path d="m366.15 456.78l-.36.12"/><path d="m365.79 456.9l-.24.12"/><path d="m362.67 457.5h-.12"/><path d="m362.55 457.5l-.36.12"/><path d="m362.19 457.62h-.48"/><path d="m361.71 457.62l-.36.12"/><path d="m361.35 457.74h-.36"/><path d="m360.99 457.74h-.48"/><path d="m360.51 457.74l-.36.12"/><path d="m360.15 457.86h-.36"/><path d="m359.79 457.86h-.12"/><path d="m356.67 458.1h-.12"/><path d="m356.55 458.1h-.48"/><path d="m356.07 458.1h-.36"/><path d="m355.71 458.1l-.36.12"/><path d="m355.35 458.22h-.48"/><path d="m354.87 458.22h-.36"/></g><path d="m223.35 448.98v-31.2" fill="none" stroke="#000" stroke-linejoin="round" stroke-linecap="round" stroke-width=".432" stroke-miterlimit="10" id="0"/><use xlink:href="#0"/></g></svg>