<svg xmlns="http://www.w3.org/2000/svg" width="78.55" height="133.45" viewBox="0 0 78.547691 133.4477" xmlns:xlink="http://www.w3.org/1999/xlink"><g transform="translate(-129.22-423)"><g fill="none" stroke="#000" stroke-linejoin="round" stroke-linecap="round" stroke-width=".54" stroke-miterlimit="10"><path d="m207.49 556.17h-78"/><path d="m207.49 423.27h-78"/><path d="m207.49 556.17v-132.9"/><path d="m137.44 544.62v-113.25"/><path d="m199.54 544.62v-113.25"/><path d="m199.54 431.37h-62.1"/><path d="m199.54 544.62h-62.1"/><path d="m186.04 445.47h-36.45"/><path d="m129.49 556.17v-132.9"/></g><path d="m187.99 530.52h-39" fill="none" stroke="#000" stroke-linejoin="round" stroke-linecap="round" stroke-width=".54" stroke-miterlimit="10" id="0"/><g fill="none" stroke="#000" stroke-linejoin="round" stroke-linecap="round" stroke-width=".54" stroke-miterlimit="10"><path d="m187.99 445.47h-39"/><path d="m187.99 530.52v-85.05"/><path d="m148.99 530.52v-85.05"/><path d="m186.79 530.52v-85.05"/><path d="m150.19 530.52v-85.05"/></g><use xlink:href="#0"/><path d="m196.24 494.3c0 1.449-1.142 2.625-2.55 2.625-1.407 0-2.55-1.176-2.55-2.625 0-1.45 1.143-2.625 2.55-2.625 1.409 0 2.55 1.175 2.55 2.625" fill="none" stroke="#000" stroke-linejoin="round" stroke-linecap="round" stroke-width=".54" stroke-miterlimit="10"/></g></svg>