<svg xmlns="http://www.w3.org/2000/svg" height="101.04" viewBox="0 0 100.59 101.04193"><g transform="translate(-214.21-524.64)" fill="none" stroke="#888" stroke-linejoin="round" stroke-linecap="round" stroke-width=".54" stroke-miterlimit="10"><path d="m222.43 581.61l75.9 43.8"/><path d="m295.33 623.61l.15-.3"/><path d="m295.48 623.31l.15-.3"/><path d="m295.63 623.01l.15-.3"/><path d="m295.78 622.71l.15-.3"/><path d="m295.93 622.41l.15-.3"/><path d="m296.08 622.11l.3-.3"/><path d="m296.38 621.81l.15-.3"/><path d="m296.53 621.51l.15-.3"/><path d="m296.68 621.21l.15-.3"/><path d="m296.83 620.91l.15-.3"/><path d="m296.98 620.61l.15-.3"/><path d="m298.78 617.01l.15-.45"/><path d="m298.93 616.56l.15-.3"/><path d="m299.08 616.26l.15-.3"/><path d="m299.23 615.96l.15-.3"/><path d="m299.38 615.66l.15-.3"/><path d="m299.53 615.36l.15-.3"/><path d="m299.68 615.06l.15-.3"/><path d="m299.83 614.76v-.3"/><path d="m299.83 614.46l.15-.3"/><path d="m299.98 614.16l.15-.3"/><path d="m300.13 613.86l.15-.3"/><path d="m301.63 610.11v-.15"/><path d="m301.63 609.96l.15-.3"/><path d="m301.78 609.66l.15-.3"/><path d="m301.93 609.36v-.45"/><path d="m301.93 608.91l.15-.3"/><path d="m302.08 608.61l.15-.3"/><path d="m302.23 608.31l.15-.3"/><path d="m302.38 608.01v-.3"/><path d="m302.38 607.71l.15-.45"/><path d="m302.53 607.26l.15-.3"/><path d="m302.68 606.96v-.3"/><path d="m303.73 603.21v-.15"/><path d="m303.73 603.06l.15-.3"/><path d="m303.88 602.76l.15-.45"/><path d="m304.03 602.31v-.3"/><path d="m304.03 602.01l.15-.3"/><path d="m304.18 601.71v-.3"/><path d="m304.18 601.41l.15-.45"/><path d="m304.33 600.96v-.3"/><path d="m304.33 600.66l.15-.3"/><path d="m304.48 600.36v-.3"/><path d="m304.48 600.06l.15-.3"/><path d="m304.63 599.76v-.15"/><path d="m305.38 596.01v-.45"/><path d="m305.38 595.56v-.3"/><path d="m305.38 595.26l.15-.3"/><path d="m305.53 594.96v-.3"/><path d="m305.53 594.66l.15-.45"/><path d="m305.68 594.21v-.3"/><path d="m305.68 593.91v-.3"/><path d="m305.68 593.61l.15-.3"/><path d="m305.83 593.31v-.45"/><path d="m305.83 592.86v-.3"/><path d="m305.83 592.56v-.15"/><path d="m306.28 588.81v-.3"/><path d="m306.28 588.51v-.45"/><path d="m306.28 588.06v-.3"/><path d="m306.28 587.76l.15-.3"/><path d="m306.43 587.46v-.3"/><path d="m306.43 587.16v-.45"/><path d="m306.43 586.71v-.3"/><path d="m306.43 586.41v-.3"/><path d="m306.43 586.11v-.45"/><path d="m306.43 585.66v-.3"/><path d="m306.43 585.36v-.3"/><path d="m214.48 524.91v56.7h100.05v-56.7h-100.05z"/></g></svg>