<svg xmlns="http://www.w3.org/2000/svg" width="100.6" height="133.45" viewBox="0 0 100.59769 133.44769"><g transform="translate(-214.2-310.13)" fill="none" stroke-linejoin="round" stroke-linecap="round" stroke-width=".54" stroke-miterlimit="10"><g stroke="#000"><path d="m214.48 443.31h100.05"/><path d="m214.48 310.41h100.05"/><path d="m214.48 443.31v-132.9"/><path d="m306.58 431.76v-113.25"/><path d="m222.43 431.76v-113.25"/><path d="m222.43 318.51h84.15"/><path d="m222.43 431.76h84.15"/><path d="m233.98 332.61h61.05"/><path d="m314.53 443.31v-132.9"/><path d="m233.98 417.66h61.05"/><path d="m233.98 417.66v-85.05"/><path d="m295.03 417.66v-85.05"/><path d="m303.43 381.43c0 1.449-1.175 2.625-2.625 2.625-1.449 0-2.625-1.176-2.625-2.625 0-1.45 1.176-2.625 2.625-2.625 1.45 0 2.625 1.175 2.625 2.625"/></g><g stroke="#888"><path d="m244.63 380.61l20.85 20.85"/><path d="m252.58 355.86l24 24.15"/><path d="m241.18 340.11l42.15 42.3"/><path d="m233.98 392.91h17.4"/><path d="m255.13 392.91h18.75"/><path d="m277.63 392.91h17.4"/><path d="m233.98 396.21h17.4"/><path d="m255.13 396.21h18.75"/><path d="m277.63 396.21h17.4"/><path d="m233.98 354.06h17.4"/><path d="m255.13 354.06h18.75"/><path d="m277.63 354.06h17.4"/><path d="m233.98 357.36h17.4"/><path d="m255.13 357.36h18.75"/><path d="m277.63 357.36h17.4"/></g></g></svg>