<svg xmlns="http://www.w3.org/2000/svg" width="87.25" height="170.64" viewBox="0 0 87.247688 170.64388">
  <g transform="translate(-163.22-604.91)" fill="none" stroke="#000" stroke-linejoin="round" stroke-linecap="round" stroke-width=".54" stroke-miterlimit="10">
    <rect width="87" height="170" style="fill:rgb(0,0,255);stroke-width:3;stroke:rgb(0,0,0)" />

    <path d="m166.94 718.58v-3.75"/>
    <path d="m246.74 718.58h-79.8"/>
    <path d="m246.74 714.83v3.75"/>
    <path d="m166.94 714.83v-2.55"/>
    <path d="m166.94 708.53v-3.75"/>
    <path d="m166.94 701.03v-3.75"/>
    <path d="m166.94 693.53v-3.75"/>
    <path d="m166.94 686.03v-3.75"/>
    <path d="m166.94 678.53v-3.75"/>
    <path d="m166.94 671.03v-3.75"/>
    <path d="m166.94 663.53v-3.75"/>
    <path d="m166.94 656.03v-3.75"/>
    <path d="m166.94 648.53v-3.75"/>
    <path d="m166.94 641.03v-3.75"/>
    <path d="m166.94 633.53v-3.75"/>
    <path d="m166.94 626.03v-3.75"/>
    <path d="m166.94 618.53v-3.75"/>
    <path d="m166.94 611.03v-2.55"/>
    <path d="m246.74 608.48v2.55"/>
    <path d="m246.74 614.78v3.75"/>
    <path d="m246.74 622.28v3.75"/>
    <path d="m246.74 629.78v3.75"/>
    <path d="m246.74 637.28v3.75"/>
    <path d="m246.74 644.78v3.75"/>
    <path d="m246.74 652.28v3.75"/>
    <path d="m246.74 659.78v3.75"/>
    <path d="m246.74 667.28v3.75"/>
    <path d="m246.74 674.78v3.75"/>
    <path d="m246.74 682.28v3.75"/>
    <path d="m246.74 689.78v3.75"/>
    <path d="m246.74 697.28v3.75"/>
    <path d="m246.74 704.78v3.75"/>
    <path d="m246.74 712.28v2.55"/>
    <path d="m166.94 608.48h3.75"/>
    <path d="m174.44 608.48h3.75"/>
    <path d="m181.94 608.48h3.75"/>
    <path d="m189.44 608.48h3.75"/>
    <path d="m196.94 608.48h3.75"/>
    <path d="m204.44 608.48h3.75"/>
    <path d="m211.94 608.48h3.75"/>
    <path d="m219.44 608.48h3.75"/>
    <path d="m226.94 608.48h3.75"/>
    <path d="m234.44 608.48h3.75"/>
    <path d="m241.94 608.48h3.75"/>
    <path d="m246.44 608.48h.3"/>
    <path d="m166.94 608.48l2.25 3"/>
    <path d="m171.44 614.48l2.25 3"/>
    <path d="m175.94 620.48l2.25 3"/>
    <path d="m180.44 626.48l2.25 3"/>
    <path d="m184.94 632.48l2.25 3"/>
    <path d="m189.44 638.48l2.25 3"/>
    <path d="m193.94 644.48l2.25 3"/>
    <path d="m198.44 650.48l2.25 3"/>
    <path d="m202.94 656.48l2.25 3"/>
    <path d="m207.44 662.48l2.25 3"/>
    <path d="m211.94 668.48l2.25 3"/>
    <path d="m216.44 674.48l2.25 3"/>
    <path d="m220.94 680.48l2.25 3"/>
    <path d="m225.44 686.48l2.25 3"/>
    <path d="m229.94 692.48l2.25 3"/>
    <path d="m234.44 698.48l2.25 3"/>
    <path d="m238.94 704.48l2.25 3"/>
    <path d="m243.44 710.48l2.25 3"/>
    <path d="m246.59 714.53l.15.3"/>
    <path d="m246.74 608.48l-2.25 3"/>
    <path d="m242.24 614.48l-2.25 3"/>
    <path d="m237.74 620.48l-2.25 3"/>
    <path d="m233.24 626.48l-2.25 3"/>
    <path d="m228.74 632.48l-2.25 3"/>
    <path d="m224.24 638.48l-2.25 3"/>
    <path d="m219.74 644.48l-2.25 3"/>
    <path d="m215.24 650.48l-2.25 3"/>
    <path d="m210.74 656.48l-2.25 3"/>
    <path d="m206.24 662.48l-2.25 3"/>
    <path d="m201.74 668.48l-2.25 3"/>
    <path d="m197.24 674.48l-2.25 3"/>
    <path d="m192.74 680.48l-2.25 3"/>
    <path d="m188.24 686.48l-2.25 3"/>
    <path d="m183.74 692.48l-2.25 3"/>
    <path d="m179.24 698.48l-2.25 3"/>
    <path d="m174.74 704.48l-2.25 3"/>
    <path d="m170.24 710.48l-2.25 3"/>
    <path d="m167.09 714.53l-.15.3"/>
    <path d="m166.94 775.28v-3.75"/>
    <path d="m166.94 767.78v-3.75"/>
    <path d="m166.94 760.28v-3.75"/>
    <path d="m166.94 752.78v-3.75"/>
    <path d="m166.94 745.28v-3.75"/>
    <path d="m166.94 737.78v-3.75"/>
    <path d="m166.94 730.28v-3.75"/>
    <path d="m166.94 722.78v-3.75"/>
    <path d="m166.94 718.88v-.3"/>
    <path d="m250.19 771.68h-3.75"/>
    <path d="m242.69 771.68h-3.75"/>
    <path d="m235.19 771.68h-3.75"/>
    <path d="m227.69 771.68h-3.75"/>
    <path d="m220.19 771.68h-3.75"/>
    <path d="m212.69 771.68h-3.75"/>
    <path d="m205.19 771.68h-3.75"/>
    <path d="m197.69 771.68h-3.75"/>
    <path d="m190.19 771.68h-3.75"/>
    <path d="m182.69 771.68h-3.75"/>
    <path d="m175.19 771.68h-3.75"/>
    <path d="m167.69 771.68h-3.75"/>
    <path d="m163.79 771.68h-.3"/>
    <path d="m246.74 718.58v3.75"/>
    <path d="m246.74 726.08v3.75"/>
    <path d="m246.74 733.58v3.75"/>
    <path d="m246.74 741.08v3.75"/>
    <path d="m246.74 748.58v3.75"/>
    <path d="m246.74 756.08v3.75"/>
    <path d="m246.74 763.58v3.75"/>
    <path d="m246.74 771.08v3.75"/>
    <path d="m246.74 774.98v.3"/>
    <path d="m166.94 605.18h79.8"/>
  </g>
</svg>
