<svg xmlns="http://www.w3.org/2000/svg" height="200.64" viewBox="0 0 128.03999 200.64273"><g transform="translate(-68.29-610.7)" fill="none" stroke-linejoin="round" stroke-linecap="round" stroke-width=".54" stroke-miterlimit="10"><g stroke="#888"><path d="m76.51 729.62v.75"/><path d="m76.51 730.37v.6"/><path d="m76.51 730.97v.75"/><path d="m76.51 731.72v.6"/><path d="m76.51 732.32v.75"/><path d="m76.51 733.07v.3"/><path d="m76.81 737.12v.75"/><path d="m76.81 737.87v.6"/><path d="m76.81 738.47l.15.75"/><path d="m76.957 739.22v.6"/><path d="m76.957 739.82v.75"/><path d="m76.957 740.57v.3"/><path d="m77.56 744.62v.75"/><path d="m77.56 745.37l.15.6"/><path d="m77.71 745.97l.15.75"/><path d="m77.857 746.72v.6"/><path d="m77.857 747.32l.15.75"/><path d="m78.01 748.07v.3"/><path d="m78.76 751.97v.15"/><path d="m78.76 752.12l.15.6"/><path d="m78.907 752.72l.15.75"/><path d="m79.06 753.47l.15.6"/><path d="m79.21 754.07l.15.75"/><path d="m79.36 754.82l.15.6"/><path d="m79.51 755.42v.15"/><path d="m80.56 759.17v.3"/><path d="m80.56 759.47l.15.6"/><path d="m80.71 760.07l.15.6"/><path d="m80.86 760.67l.3.75"/><path d="m81.16 761.42l.15.6"/><path d="m81.31 762.02l.15.6"/><path d="m81.46 762.62v.15"/><path d="m82.66 766.22l.15.3"/><path d="m82.81 766.52l.15.75"/><path d="m82.957 767.27l.3.6"/><path d="m83.26 767.87l.15.6"/><path d="m83.41 768.47l.3.75"/><path d="m83.71 769.22l.3.45"/><path d="m85.36 773.12l.15.45"/><path d="m85.51 773.57l.3.6"/><path d="m85.81 774.17l.3.75"/><path d="m86.11 774.92l.3.6"/><path d="m86.41 775.52l.15.6"/><path d="m86.56 776.12l.3.45"/><path d="m88.36 780.02l.3.45"/><path d="m88.66 780.47l.3.6"/><path d="m88.96 781.07l.45.6"/><path d="m89.41 781.67l.3.6"/><path d="m89.71 782.27l.3.6"/><path d="m90.01 782.87l.15.45"/><path d="m91.96 786.62l.45.45"/><path d="m92.41 787.07l.3.6"/><path d="m92.71 787.67l.3.45"/><path d="m93.01 788.12l.45.6"/><path d="m93.46 788.72l.3.6"/><path d="m93.76 789.32l.3.45"/><path d="m96.16 792.92l.3.45"/><path d="m96.46 793.37l.45.6"/><path d="m96.91 793.97l.3.45"/><path d="m97.21 794.42l.45.6"/><path d="m97.66 795.02l.45.6"/><path d="m98.11 795.62l.3.3"/><path d="m100.66 798.92l.3.45"/><path d="m100.96 799.37l.45.6"/><path d="m101.41 799.97l.45.45"/><path d="m101.86 800.42l.45.6"/><path d="m102.31 801.02l.45.45"/><path d="m102.76 801.47l.3.3"/><path d="m105.46 804.62l.45.45"/><path d="m105.91 805.07l.45.6"/><path d="m106.36 805.67l.45.45"/><path d="m106.81 806.12l.45.45"/><path d="m107.26 806.57l.45.45"/><path d="m107.71 807.02l.3.3"/></g><g stroke="#000"><path d="m68.56 610.97v118.65h127.5v-118.65h-127.5z"/><path d="m188.11 729.62l-81.45 81.45"/></g></g></svg>