<svg xmlns="http://www.w3.org/2000/svg" width="128.05" height="381.4" viewBox="0 0 128.0477 381.39828"><g transform="translate(-68.28-201.95)" fill="none" stroke="#000" stroke-linejoin="round" stroke-linecap="round" stroke-width=".54" stroke-miterlimit="10"><path d="m68.56 583.07v-380.85"/><path d="m196.06 583.07v-380.85"/><path d="m76.51 428.87h111.6"/><path d="m188.11 562.67h-111.6"/><path d="m93.31 545.87h78"/><path d="m93.31 451.97h78"/><path d="m171.31 412.07h-78"/><path d="m93.31 226.97v185.1"/><path d="m93.31 451.97v93.9"/><path d="m171.31 545.87v-93.9"/><path d="m171.31 412.07v-185.1"/><path d="m196.06 202.22h-127.5"/><path d="m188.11 210.17h-111.6"/><path d="m171.31 226.97h-78"/><path d="m76.51 435.17h111.6"/><path d="m188.11 431.72v-221.55"/><path d="m188.11 583.07v-154.2"/><path d="m76.51 431.42v-221.25"/><path d="m76.51 583.07v-154.2"/><path d="m94.36 226.97v185.1"/><path d="m94.36 451.97v93.9"/><path d="m170.26 545.87v-93.9"/><path d="m170.26 412.07v-185.1"/><path d="m196.06 583.07h-127.5"/><path d="m87.46 331.67c0 1.409-1.141 2.55-2.55 2.55-1.407 0-2.55-1.142-2.55-2.55 0-1.409 1.143-2.55 2.55-2.55 1.409 0 2.55 1.142 2.55 2.55"/><path d="m87.46 491.87c0 1.409-1.141 2.55-2.55 2.55-1.407 0-2.55-1.142-2.55-2.55 0-1.409 1.143-2.55 2.55-2.55 1.409 0 2.55 1.142 2.55 2.55"/></g></svg>