<svg xmlns="http://www.w3.org/2000/svg" width="137.05" height="168.85" viewBox="0 0 137.04768 168.84769"><g transform="translate(-633.26-459.42)" fill="none" stroke="#000" stroke-linejoin="round" stroke-linecap="round" stroke-width=".54" stroke-miterlimit="10"><path d="m633.54 628h127.65"/><path d="m747.39 536.8c0 1.409-1.174 2.55-2.625 2.55-1.449 0-2.625-1.141-2.625-2.55 0-1.409 1.176-2.55 2.625-2.55 1.451 0 2.625 1.141 2.625 2.55"/><path d="m753.24 628v-147.9"/><path d="m641.64 628v-147.9"/><path d="m641.64 480.1h111.6"/><path d="m658.44 590.8v-93.9"/><path d="m736.29 590.8v-93.9"/><path d="m658.44 496.9h77.85"/><path d="m633.54 473.95h127.65"/><path d="m633.54 473.95v154.05"/><path d="m761.19 473.95v154.05"/><path d="m658.44 590.8h77.85"/><path d="m641.64 607.6h111.6"/><path d="m659.64 590.8v-93.9"/><path d="m735.09 590.8v-93.9"/><path d="m633.54 468.55h127.65"/><path d="m633.54 459.7h127.65"/><path d="m761.19 628v-154.05"/><path d="m770.04 473.95h-8.85"/><path d="m770.04 468.55v5.4"/><path d="m761.19 468.55h8.85"/><path d="m770.04 468.55h-8.85"/><path d="m770.04 459.7v8.85"/><path d="m761.19 459.7h8.85"/></g></svg>