<svg xmlns="http://www.w3.org/2000/svg" width="137.05" height="168.85" viewBox="0 0 137.04768 168.84769"><g transform="translate(-177.71-459.42)" fill="none" stroke="#000" stroke-linejoin="round" stroke-linecap="round" stroke-width=".54" stroke-miterlimit="10"><path d="m186.84 628h127.65"/><path d="m300.69 536.8c0 1.409-1.175 2.55-2.625 2.55-1.449 0-2.625-1.141-2.625-2.55 0-1.409 1.176-2.55 2.625-2.55 1.45 0 2.625 1.141 2.625 2.55"/><path d="m306.54 628v-147.9"/><path d="m194.94 628v-147.9"/><path d="m194.94 480.1h111.6"/><path d="m211.74 590.8v-93.9"/><path d="m289.59 590.8v-93.9"/><path d="m211.74 496.9h77.85"/><path d="m186.84 473.95h127.65"/><path d="m186.84 473.95v154.05"/><path d="m314.49 473.95v154.05"/><path d="m211.74 590.8h77.85"/><path d="m194.94 607.6h111.6"/><path d="m212.94 590.8v-93.9"/><path d="m288.39 590.8v-93.9"/><path d="m186.84 468.55h127.65"/><path d="m186.84 459.7h127.65"/><path d="m186.84 628v-154.05"/><path d="m177.99 473.95h8.85"/><path d="m177.99 468.55v5.4"/><path d="m186.84 468.55h-8.85"/><path d="m177.99 468.55h8.85"/><path d="m177.99 459.7v8.85"/><path d="m186.84 459.7h-8.85"/></g></svg>