<svg xmlns="http://www.w3.org/2000/svg" height="200.79" viewBox="0 0 128.19 200.79273"><g transform="translate(-417.12-663.43)" fill="none" stroke-linejoin="round" stroke-linecap="round" stroke-width=".54" stroke-miterlimit="10"><g stroke="#000"><path d="m417.39 663.7v118.8h127.65v-118.8h-127.65z"/><path d="m425.34 782.5l81.45 81.45"/></g><g stroke="#888"><path d="m504.39 861.4l.45-.45"/><path d="m504.84 860.95l.45-.6"/><path d="m505.29 860.35l.45-.45"/><path d="m505.74 859.9l.45-.45"/><path d="m506.19 859.45l.45-.45"/><path d="m506.64 859l.3-.3"/><path d="m509.49 855.85l.45-.45"/><path d="m509.94 855.4l.45-.6"/><path d="m510.39 854.8l.45-.45"/><path d="m510.84 854.35l.45-.6"/><path d="m511.29 853.75l.45-.45"/><path d="m511.74 853.3l.15-.3"/><path d="m514.29 850.15v-.15"/><path d="m514.29 850l.3-.45"/><path d="m514.59 849.55l.45-.6"/><path d="m515.04 848.95l.45-.6"/><path d="m515.49 848.35l.3-.45"/><path d="m515.79 847.9l.45-.6"/><path d="m516.24 847.3l.15-.15"/><path d="m518.49 844l.15-.15"/><path d="m518.64 843.85l.3-.45"/><path d="m518.94 843.4l.45-.6"/><path d="m519.39 842.8l.3-.6"/><path d="m519.69 842.2l.3-.6"/><path d="m519.99 841.6l.45-.6"/><path d="m520.44 841v-.15"/><path d="m522.39 837.7l.15-.15"/><path d="m522.54 837.55l.3-.6"/><path d="m522.84 836.95l.3-.6"/><path d="m523.14 836.35l.3-.6"/><path d="m523.44 835.75l.45-.6"/><path d="m523.89 835.15l.3-.6"/><path d="m524.19 834.55v-.15"/><path d="m525.84 831.1l.15-.3"/><path d="m525.99 830.8l.3-.6"/><path d="m526.29 830.2l.3-.6"/><path d="m526.59 829.6l.3-.6"/><path d="m526.89 829l.3-.6"/><path d="m527.19 828.4l.3-.75"/><path d="m528.99 824.2v-.3"/><path d="m528.99 823.9l.3-.6"/><path d="m529.29 823.3l.3-.6"/><path d="m529.59 822.7l.15-.75"/><path d="m529.74 821.95l.3-.6"/><path d="m530.04 821.35l.15-.6"/><path d="m531.39 817.3l.15-.45"/><path d="m531.54 816.85l.3-.6"/><path d="m531.84 816.25l.15-.75"/><path d="m531.99 815.5l.15-.6"/><path d="m532.14 814.9l.3-.75"/><path d="m532.44 814.15l.15-.45"/><path d="m533.49 810.1l.15-.45"/><path d="m533.64 809.65l.15-.75"/><path d="m533.79 808.9l.15-.6"/><path d="m533.94 808.3l.15-.75"/><path d="m534.09 807.55l.15-.6"/><path d="m534.24 806.95l.15-.45"/><path d="m535.14 802.9l.15-.6"/><path d="m535.29 802.3l.15-.75"/><path d="m535.44 801.55v-.6"/><path d="m535.44 800.95l.15-.75"/><path d="m535.59 800.2l.15-.6"/><path d="m535.74 799.6v-.45"/><path d="m536.19 795.4l.15-.6"/><path d="m536.34 794.8v-.75"/><path d="m536.34 794.05l.15-.6"/><path d="m536.49 793.45v-.75"/><path d="m536.49 792.7l.15-.6"/><path d="m536.64 792.1v-.45"/><path d="m536.94 787.9v-.6"/><path d="m536.94 787.3v-.75"/><path d="m536.94 786.55v-.6"/><path d="m536.94 785.95v-.75"/><path d="m536.94 785.2v-.6"/><path d="m536.94 784.6v-.45"/></g></g></svg>