<svg xmlns="http://www.w3.org/2000/svg" width="128.2" height="168.84" viewBox="0 0 128.19769 168.84388"><g transform="translate(-417.11-459.43)" fill="none" stroke="#000" stroke-linejoin="round" stroke-linecap="round" stroke-width=".54" stroke-miterlimit="10"><path d="m417.39 628h127.65"/><path d="m531.24 536.8c0 1.409-1.174 2.55-2.625 2.55-1.449 0-2.625-1.141-2.625-2.55 0-1.409 1.176-2.55 2.625-2.55 1.451 0 2.625 1.141 2.625 2.55"/><path d="m536.94 628v-147.9"/><path d="m425.34 628v-147.9"/><path d="m425.34 480.1h111.6"/><path d="m442.29 590.8v-93.9"/><path d="m520.14 590.8v-93.9"/><path d="m442.29 496.9h77.85"/><path d="m417.39 473.95h127.65"/><path d="m417.39 473.95v154.05"/><path d="m545.04 473.95v154.05"/><path d="m442.29 590.8h77.85"/><path d="m425.34 607.6h111.6"/><path d="m443.49 590.8v-93.9"/><path d="m518.94 590.8v-93.9"/><path d="m417.39 468.55h127.65"/><path d="m417.39 459.7h127.65"/></g></svg>