<svg xmlns="http://www.w3.org/2000/svg" width="128.05" height="381.4" viewBox="0 0 128.0477 381.39828"><g transform="translate(-59.712-236.24)" fill="none" stroke-linejoin="round" stroke-linecap="round" stroke-miterlimit="10"><g stroke="#000" stroke-width=".54"><path d="m59.986 617.36v-380.85"/><path d="m187.49 617.36v-380.85"/><path d="m179.54 596.96h-111.6"/><path d="m84.74 580.16h78"/><path d="m84.74 486.26h78"/><path d="m162.74 446.36h-78"/><path d="m84.74 261.26v185.1"/><path d="m84.74 486.26v93.9"/><path d="m162.74 580.16v-93.9"/><path d="m162.74 446.36v-185.1"/><path d="m187.49 236.51h-127.5"/><path d="m179.54 244.46h-111.6"/><path d="m162.74 261.26h-78"/><path d="m179.54 466.01v-221.55"/><path d="m179.54 596.96v-133.8"/><path d="m67.936 465.71v-221.25"/><path d="m67.936 596.96v-133.8"/><path d="m85.79 261.26v185.1"/><path d="m85.79 486.26v93.9"/><path d="m161.69 580.16v-93.9"/><path d="m161.69 446.36v-185.1"/><path d="m187.49 617.36h-127.5"/><path d="m78.886 401.21c0 1.409-1.141 2.55-2.55 2.55-1.407 0-2.55-1.142-2.55-2.55 0-1.409 1.143-2.55 2.55-2.55 1.409 0 2.55 1.142 2.55 2.55"/></g><g stroke="#aaa" stroke-width=".09"><path d="m179.54 596.96v20.4"/><path d="m67.936 596.96v20.4"/></g></g></svg>