<svg xmlns="http://www.w3.org/2000/svg" height="200.64" viewBox="0 0 128.03999 200.64273"><g transform="translate(-59.716-644.99)" fill="none" stroke-linejoin="round" stroke-linecap="round" stroke-width=".54" stroke-miterlimit="10"><g stroke="#888"><path d="m67.936 763.91v.75"/><path d="m67.936 764.66v.6"/><path d="m67.936 765.26v.75"/><path d="m67.936 766.01v.6"/><path d="m67.936 766.61v.75"/><path d="m67.936 767.36v.3"/><path d="m68.24 771.41v.75"/><path d="m68.24 772.16v.6"/><path d="m68.24 772.76l.15.75"/><path d="m68.39 773.51v.6"/><path d="m68.39 774.11v.75"/><path d="m68.39 774.86v.3"/><path d="m68.986 778.91v.75"/><path d="m68.986 779.66l.15.6"/><path d="m69.14 780.26l.15.75"/><path d="m69.29 781.01v.6"/><path d="m69.29 781.61l.15.75"/><path d="m69.44 782.36v.3"/><path d="m70.19 786.26v.15"/><path d="m70.19 786.41l.15.6"/><path d="m70.34 787.01l.15.75"/><path d="m70.49 787.76l.15.6"/><path d="m70.64 788.36l.15.75"/><path d="m70.786 789.11l.15.6"/><path d="m70.936 789.71v.15"/><path d="m71.986 793.46v.3"/><path d="m71.986 793.76l.15.6"/><path d="m72.14 794.36l.15.6"/><path d="m72.29 794.96l.3.75"/><path d="m72.59 795.71l.15.6"/><path d="m72.74 796.31l.15.6"/><path d="m72.886 796.91v.15"/><path d="m74.09 800.51l.15.3"/><path d="m74.24 800.81l.15.75"/><path d="m74.39 801.56l.3.6"/><path d="m74.69 802.16l.15.6"/><path d="m74.836 802.76l.3.75"/><path d="m75.14 803.51l.3.45"/><path d="m76.79 807.41l.15.45"/><path d="m76.936 807.86l.3.6"/><path d="m77.24 808.46l.3.75"/><path d="m77.54 809.21l.3.6"/><path d="m77.84 809.81l.15.6"/><path d="m77.986 810.41l.3.45"/><path d="m79.79 814.31l.3.45"/><path d="m80.09 814.76l.3.6"/><path d="m80.39 815.36l.45.6"/><path d="m80.84 815.96l.3.6"/><path d="m81.14 816.56l.3.6"/><path d="m81.44 817.16l.15.45"/><path d="m83.39 820.91l.45.45"/><path d="m83.84 821.36l.3.6"/><path d="m84.14 821.96l.3.45"/><path d="m84.44 822.41l.45.6"/><path d="m84.89 823.01l.3.6"/><path d="m85.19 823.61l.3.45"/><path d="m87.59 827.21l.3.45"/><path d="m87.89 827.66l.45.6"/><path d="m88.34 828.26l.3.45"/><path d="m88.64 828.71l.45.6"/><path d="m89.09 829.31l.45.6"/><path d="m89.54 829.91l.3.3"/><path d="m92.09 833.21l.3.45"/><path d="m92.39 833.66l.45.6"/><path d="m92.84 834.26l.45.45"/><path d="m93.29 834.71l.45.6"/><path d="m93.74 835.31l.45.45"/><path d="m94.19 835.76l.3.3"/><path d="m96.89 838.91l.45.45"/><path d="m97.34 839.36l.45.6"/><path d="m97.79 839.96l.45.45"/><path d="m98.24 840.41l.45.45"/><path d="m98.69 840.86l.45.45"/><path d="m99.14 841.31l.3.3"/></g><g stroke="#000"><path d="m59.986 645.26v118.65h127.5v-118.65h-127.5z"/><path d="m179.54 763.91l-81.45 81.45"/></g></g></svg>