<svg xmlns="http://www.w3.org/2000/svg" width="180.25" height="175.89" viewBox="0 0 180.24768 175.89275"><g transform="translate(-426.51-686.99)" fill="none" stroke-linejoin="round" stroke-linecap="round" stroke-width=".54" stroke-miterlimit="10"><g stroke="#000"><path d="m426.78 687.26v113.4h179.7v-113.4h-179.7z"/><path d="m518.88 800.66l-62.1 61.95"/></g><g stroke="#888"><path d="m434.73 800.66v.45"/><path d="m434.73 801.11v.6"/><path d="m434.73 801.71v.45"/><path d="m434.73 802.16v.6"/><path d="m434.73 802.76v.45"/><path d="m434.73 803.21v.45"/><path d="m434.73 803.66v.6"/><path d="m434.73 804.26v.15"/><path d="m435.03 808.16v.15"/><path d="m435.03 808.31l.15.6"/><path d="m435.18 808.91v.45"/><path d="m435.18 809.36v.6"/><path d="m435.18 809.96l.15.45"/><path d="m435.33 810.41v.6"/><path d="m435.33 811.01v.45"/><path d="m435.33 811.46l.15.45"/><path d="m436.08 815.51v.6"/><path d="m436.08 816.11l.15.45"/><path d="m436.23 816.56l.15.45"/><path d="m436.38 817.01v.6"/><path d="m436.38 817.61l.15.45"/><path d="m436.53 818.06l.15.45"/><path d="m436.68 818.51v.6"/><path d="m437.58 822.71l.15.3"/><path d="m437.73 823.01l.15.6"/><path d="m437.88 823.61l.15.45"/><path d="m438.03 824.06l.15.45"/><path d="m438.18 824.51l.15.6"/><path d="m438.33 825.11l.15.45"/><path d="m438.48 825.56l.15.45"/><path d="m438.63 826.01v.3"/><path d="m439.98 829.76v.15"/><path d="m439.98 829.91l.15.6"/><path d="m440.13 830.51l.15.45"/><path d="m440.28 830.96l.3.45"/><path d="m440.58 831.41l.15.45"/><path d="m440.73 831.86l.15.45"/><path d="m440.88 832.31l.3.6"/><path d="m441.18 832.91l.15.3"/><path d="m442.83 836.66l.15.45"/><path d="m442.98 837.11l.3.45"/><path d="m443.28 837.56l.15.45"/><path d="m443.43 838.01l.3.45"/><path d="m443.73 838.46l.15.45"/><path d="m443.88 838.91l.3.45"/><path d="m444.18 839.36l.15.45"/><path d="m444.33 839.81l.15.15"/><path d="m446.28 843.26l.15.15"/><path d="m446.43 843.41l.3.45"/><path d="m446.73 843.86l.15.45"/><path d="m446.88 844.31l.3.45"/><path d="m447.18 844.76l.3.45"/><path d="m447.48 845.21l.3.45"/><path d="m447.78 845.66l.3.45"/><path d="m448.08 846.11l.15.3"/><path d="m450.33 849.56l.3.3"/><path d="m450.63 849.86l.3.45"/><path d="m450.93 850.31l.3.45"/><path d="m451.23 850.76l.3.45"/><path d="m451.53 851.21l.3.45"/><path d="m451.83 851.66l.3.3"/><path d="m452.13 851.96l.45.45"/><path d="m454.98 855.41l.15.15"/><path d="m455.13 855.56l.3.45"/><path d="m455.43 856.01l.45.3"/><path d="m455.88 856.31l.3.45"/><path d="m456.18 856.76l.3.45"/><path d="m456.48 857.21l.3.3"/><path d="m456.78 857.51l.45.45"/><path d="m457.23 857.96l.15.15"/></g><path d="m606.48 687.26h-179.7" stroke="#000"/></g></svg>