<svg xmlns="http://www.w3.org/2000/svg" width="140.5" height="168.84" viewBox="0 0 140.4977 168.84386"><g transform="translate(-301.97-293.09)" fill="none" stroke="#000" stroke-linejoin="round" stroke-linecap="round" stroke-width=".54" stroke-miterlimit="10"><path d="m327.14 424.46v-93.9"/><path d="m355.49 424.46v-93.9"/><path d="m327.14 330.56h28.35"/><path d="m302.24 307.61h139.95"/><path d="m302.24 307.61v154.05"/><path d="m302.24 461.66h139.95"/><path d="m372.29 441.26v-127.5"/><path d="m310.19 313.76h124.05"/><path d="m389.09 424.46v-93.9"/><path d="m417.44 424.46v-93.9"/><path d="m389.09 330.56h28.35"/><path d="m442.19 307.61v154.05"/><path d="m383.24 370.46c0 1.409-1.142 2.55-2.55 2.55-1.409 0-2.55-1.142-2.55-2.55 0-1.409 1.142-2.55 2.55-2.55 1.409 0 2.55 1.142 2.55 2.55"/><path d="m310.19 441.26h124.05"/><path d="m327.14 424.46h28.35"/><path d="m389.09 424.46h28.35"/><path d="m434.24 313.76v147.9"/><path d="m310.19 313.76v147.9"/><path d="m366.44 370.46c0 1.409-1.142 2.55-2.55 2.55-1.409 0-2.55-1.142-2.55-2.55 0-1.409 1.142-2.55 2.55-2.55 1.409 0 2.55 1.142 2.55 2.55"/><path d="m354.14 424.46v-93.9"/><path d="m416.24 424.46v-93.9"/><path d="m328.34 424.46v-93.9"/><path d="m390.29 424.46v-93.9"/><path d="m302.24 302.21h139.95"/><path d="m302.24 293.36h139.95"/></g></svg>