<svg xmlns="http://www.w3.org/2000/svg" width="149.35" height="168.85" viewBox="0 0 149.34769 168.84767"><g transform="translate(-81.77-293.08)" fill="none" stroke="#000" stroke-linejoin="round" stroke-linecap="round" stroke-width=".54" stroke-miterlimit="10"><path d="m82.04 307.61h8.85"/><path d="m82.04 302.21v5.4"/><path d="m90.89 302.21h-8.85"/><path d="m82.04 302.21h8.85"/><path d="m82.04 293.36v8.85"/><path d="m90.89 293.36h-8.85"/><path d="m115.64 424.46v-93.9"/><path d="m143.99 424.46v-93.9"/><path d="m115.64 330.56h28.35"/><path d="m90.89 307.61h139.95"/><path d="m90.89 307.61v154.05"/><path d="m90.89 461.66h139.95"/><path d="m160.94 441.26v-127.5"/><path d="m98.84 313.76h124.05"/><path d="m177.74 424.46v-93.9"/><path d="m206.09 424.46v-93.9"/><path d="m177.74 330.56h28.35"/><path d="m230.84 307.61v154.05"/><path d="m171.89 370.46c0 1.409-1.142 2.55-2.55 2.55-1.409 0-2.55-1.142-2.55-2.55 0-1.409 1.142-2.55 2.55-2.55 1.409 0 2.55 1.142 2.55 2.55"/><path d="m98.84 441.26h124.05"/><path d="m115.64 424.46h28.35"/><path d="m177.74 424.46h28.35"/><path d="m222.89 313.76v147.9"/><path d="m98.84 313.76v147.9"/><path d="m155.09 370.46c0 1.409-1.174 2.55-2.625 2.55-1.449 0-2.625-1.142-2.625-2.55 0-1.409 1.176-2.55 2.625-2.55 1.451 0 2.625 1.142 2.625 2.55"/><path d="m142.79 424.46v-93.9"/><path d="m204.74 424.46v-93.9"/><path d="m116.99 424.46v-93.9"/><path d="m178.94 424.46v-93.9"/><path d="m90.89 302.21h139.95"/><path d="m90.89 293.36h139.95"/></g></svg>