<svg xmlns="http://www.w3.org/2000/svg" width="78.55" height="133.45" viewBox="0 0 78.547691 133.44769" xmlns:xlink="http://www.w3.org/1999/xlink"><g transform="translate(-258.1-434.43)"><g fill="none" stroke="#000" stroke-linejoin="round" stroke-linecap="round" stroke-width=".54" stroke-miterlimit="10"><path d="m258.37 567.6h78"/><path d="m258.37 434.7h78"/><path d="m258.37 567.6v-132.9"/><path d="m328.42 556.05v-113.25"/><path d="m266.47 556.05v-113.25"/><path d="m266.47 442.8h61.95"/><path d="m266.47 556.05h61.95"/><path d="m279.82 456.9h36.45"/><path d="m336.37 567.6v-132.9"/></g><path d="m277.87 541.95h39" fill="none" stroke="#000" stroke-linejoin="round" stroke-linecap="round" stroke-width=".54" stroke-miterlimit="10" id="0"/><g fill="none" stroke="#000" stroke-linejoin="round" stroke-linecap="round" stroke-width=".54" stroke-miterlimit="10"><path d="m277.87 456.9h39"/><path d="m277.87 541.95v-85.05"/><path d="m316.87 541.95v-85.05"/><path d="m279.22 541.95v-85.05"/><path d="m315.67 541.95v-85.05"/></g><use xlink:href="#0"/><path d="m274.72 505.72c0 1.449-1.142 2.625-2.55 2.625-1.407 0-2.55-1.176-2.55-2.625 0-1.45 1.143-2.625 2.55-2.625 1.409 0 2.55 1.175 2.55 2.625" fill="none" stroke="#000" stroke-linejoin="round" stroke-linecap="round" stroke-width=".54" stroke-miterlimit="10"/></g></svg>