<svg xmlns="http://www.w3.org/2000/svg" height="89.94" viewBox="0 0 78.540001 89.941934" xmlns:xlink="http://www.w3.org/1999/xlink"><g transform="translate(-258.1-648.93)"><g fill="none" stroke="#888" stroke-linejoin="round" stroke-linecap="round" stroke-width=".54" stroke-miterlimit="10"><path d="m258.37 649.2v56.7h78v-56.7h-78z"/><path d="m328.42 705.9l-56.85 32.7"/><path d="m266.47 705.9v.45"/><path d="m266.47 706.35v.6"/><path d="m266.47 706.95v.45"/><path d="m266.47 707.4v.45"/><path d="m266.47 707.85v.6"/><path d="m266.47 708.45v.45"/><path d="m266.47 708.9v.45"/><path d="m266.47 709.35v.3"/><path d="m266.92 713.4v.6"/><path d="m266.92 714v.45"/><path d="m266.92 714.45l.15.45"/><path d="m267.07 714.9v.6"/><path d="m267.07 715.5l.15.45"/><path d="m267.22 715.95l.15.6"/><path d="m267.37 716.55v.45"/><path d="m267.37 717v.15"/><path d="m268.27 720.75v.15"/><path d="m268.27 720.9l.15.6"/><path d="m268.42 721.5l.15.45"/><path d="m268.57 721.95v.45"/><path d="m268.57 722.4l.15.45"/><path d="m268.72 722.85l.15.6"/><path d="m268.87 723.45l.15.45"/><path d="m269.02 723.9l.15.45"/><path d="m270.37 727.8l.15.45"/><path d="m270.52 728.25l.15.45"/><path d="m270.67 728.7l.3.45"/><path d="m270.97 729.15l.15.45"/><path d="m271.12 729.6l.15.45"/><path d="m271.27 730.05l.3.45"/><path d="m271.57 730.5l.15.45"/><path d="m271.72 730.95l.15.3"/><path d="m273.52 734.55v.15"/><path d="m273.52 734.7l.15.45"/><path d="m273.67 735.15l.3.45"/><path d="m273.97 735.6l.3.45"/><path d="m274.27 736.05l.15.45"/><path d="m274.42 736.5l.3.45"/></g><path d="m277.87 541.95h39" fill="none" stroke="#000" stroke-linejoin="round" stroke-linecap="round" stroke-width=".54" stroke-miterlimit="10" id="0"/><use xlink:href="#0"/></g></svg>