<svg xmlns="http://www.w3.org/2000/svg" width="122.8" height="221.95" viewBox="0 0 122.79769 221.94829"><g transform="translate(-153.77-281.93)" fill="none" stroke="#000" stroke-linejoin="round" stroke-linecap="round" stroke-width=".54" stroke-miterlimit="10"><path d="m154.05 503.61h122.25"/><path d="m262.5 412.41c0 1.409-1.142 2.55-2.55 2.55-1.407 0-2.55-1.142-2.55-2.55 0-1.409 1.143-2.55 2.55-2.55 1.409 0 2.55 1.142 2.55 2.55"/><path d="m268.35 492.06v-201.9"/><path d="m162 492.06v-201.9"/><path d="m162 290.16h106.35"/><path d="m154.05 282.21h122.25"/><path d="m154.05 282.21v221.4"/><path d="m276.3 282.21v221.4"/><path d="m162 492.06h106.35"/><path d="m176.25 477.96v-173.55"/><path d="m254.25 477.96v-173.55"/><path d="m176.25 304.41h78"/><path d="m176.25 477.96h78"/><path d="m177.45 477.96v-173.55"/><path d="m252.9 477.96v-173.55"/></g></svg>