<svg xmlns="http://www.w3.org/2000/svg" height="112.14" viewBox="0 0 122.79 112.14193"><g transform="translate(-153.78-584.94)" fill="none" stroke="#888" stroke-linejoin="round" stroke-linecap="round" stroke-width=".54" stroke-miterlimit="10"><path d="m154.05 585.21v56.7h122.25v-56.7h-122.25z"/><path d="m162 641.91l95.25 54.9"/><path d="m254.1 695.01l.3-.3"/><path d="m254.4 694.71l.15-.45"/><path d="m254.55 694.26l.15-.3"/><path d="m254.7 693.96l.3-.45"/><path d="m255 693.51l.15-.3"/><path d="m255.15 693.21l.3-.45"/><path d="m255.45 692.76l.15-.45"/><path d="m255.6 692.31l.15-.3"/><path d="m255.75 692.01l.15-.3"/><path d="m257.55 688.41l.3-.3"/><path d="m257.85 688.11l.15-.45"/><path d="m258 687.66l.15-.3"/><path d="m258.15 687.36l.15-.45"/><path d="m258.3 686.91l.15-.3"/><path d="m258.45 686.61l.3-.45"/><path d="m258.75 686.16l.15-.45"/><path d="m258.9 685.71l.15-.3"/><path d="m259.05 685.41l.15-.3"/><path d="m260.55 681.66l.15-.3"/><path d="m260.7 681.36l.15-.45"/><path d="m260.85 680.91l.3-.3"/><path d="m261.15 680.61l.15-.45"/><path d="m261.3 680.16l.15-.45"/><path d="m261.45 679.71l.15-.45"/><path d="m261.6 679.26l.15-.3"/><path d="m261.75 678.96l.15-.45"/><path d="m261.9 678.51l.15-.3"/><path d="m263.1 674.61l.15-.15"/><path d="m263.25 674.46l.15-.45"/><path d="m263.4 674.01l.15-.45"/><path d="m263.55 673.56l.15-.45"/><path d="m263.7 673.11l.15-.3"/><path d="m263.85 672.81v-.45"/><path d="m263.85 672.36l.15-.45"/><path d="m264 671.91l.15-.45"/><path d="m264.15 671.46l.15-.3"/><path d="m265.2 667.56l.15-.3"/><path d="m265.35 667.26v-.45"/><path d="m265.35 666.81l.15-.3"/><path d="m265.5 666.51l.15-.45"/><path d="m265.65 666.06v-.45"/><path d="m265.65 665.61l.15-.45"/><path d="m265.8 665.16v-.45"/><path d="m265.8 664.71l.15-.45"/><path d="m265.95 664.26l.15-.3"/><path d="m266.7 660.36l.15-.3"/><path d="m266.85 660.06v-.45"/><path d="m266.85 659.61l.15-.45"/><path d="m267 659.16v-.45"/><path d="m267 658.71v-.3"/><path d="m267 658.41l.15-.45"/><path d="m267.15 657.96v-.45"/><path d="m267.15 657.51l.15-.45"/><path d="m267.3 657.06v-.3"/><path d="m267.75 653.16v-.45"/><path d="m267.75 652.71l.15-.45"/><path d="m267.9 652.26v-.45"/><path d="m267.9 651.81v-.3"/><path d="m267.9 651.51v-.45"/><path d="m267.9 651.06l.15-.45"/><path d="m268.05 650.61v-.45"/><path d="m268.05 650.16v-.45"/><path d="m268.05 649.71v-.3"/><path d="m268.35 645.66v-.3"/><path d="m268.35 645.36v-.45"/><path d="m268.35 644.91v-.45"/><path d="m268.35 644.46v-.45"/><path d="m268.35 644.01v-.45"/><path d="m268.35 643.56v-.3"/><path d="m268.35 643.26v-.45"/><path d="m268.35 642.81v-.45"/><path d="m268.35 642.36v-.45"/></g></svg>