<svg xmlns="http://www.w3.org/2000/svg" width="201.7" height="168.85" viewBox="0 0 201.6977 168.84769"><g transform="translate(-702.63-479.71)" fill="none" stroke="#000" stroke-linejoin="round" stroke-linecap="round" stroke-width=".54" stroke-miterlimit="10"><path d="m789.3 572.84c0 1.409-1.174 2.55-2.625 2.55-1.449 0-2.625-1.141-2.625-2.55 0-1.409 1.176-2.55 2.625-2.55 1.451 0 2.625 1.141 2.625 2.55"/><path d="m711 648.29v-147.9"/><path d="m711 528.74h84.15"/><path d="m803.1 528.74h84.15"/><path d="m727.8 611.09v-65.55"/><path d="m778.2 611.09v-65.55"/><path d="m727.8 545.54h50.4"/><path d="m702.9 494.24h192.3"/><path d="m702.9 494.24v154.05"/><path d="m887.25 648.29v-147.9"/><path d="m795.15 648.29v-147.9"/><path d="m711 500.39h84.15"/><path d="m803.1 500.39h84.15"/><path d="m819.9 611.09v-65.55"/><path d="m870.3 611.09v-65.55"/><path d="m819.9 545.54h50.4"/><path d="m895.2 494.24v154.05"/><path d="m702.9 648.29h192.3"/><path d="m711 627.89h84.15"/><path d="m803.1 627.89h84.15"/><path d="m819.9 611.09h50.4"/><path d="m727.8 611.09h50.4"/><path d="m814.05 572.84c0 1.409-1.141 2.55-2.55 2.55-1.407 0-2.55-1.141-2.55-2.55 0-1.409 1.143-2.55 2.55-2.55 1.409 0 2.55 1.141 2.55 2.55"/><path d="m777 611.09v-65.55"/><path d="m869.1 611.09v-65.55"/><path d="m729 611.09v-65.55"/><path d="m821.1 611.09v-65.55"/><path d="m803.1 648.29v-147.9"/><path d="m847.65 514.56c0 1.449-1.141 2.625-2.55 2.625-1.407 0-2.55-1.176-2.55-2.625 0-1.451 1.143-2.625 2.55-2.625 1.409 0 2.55 1.174 2.55 2.625"/><path d="m755.55 514.56c0 1.449-1.141 2.625-2.55 2.625-1.407 0-2.55-1.176-2.55-2.625 0-1.451 1.143-2.625 2.55-2.625 1.409 0 2.55 1.174 2.55 2.625"/><path d="m702.9 488.84h192.3"/><path d="m702.9 479.99h192.3"/><path d="m895.2 648.29v-154.05"/><path d="m904.05 494.24h-8.85"/><path d="m904.05 488.84v5.4"/><path d="m895.2 488.84h8.85"/><path d="m904.05 488.84h-8.85"/><path d="m904.05 479.99v8.85"/><path d="m895.2 479.99h8.85"/></g></svg>