<svg xmlns="http://www.w3.org/2000/svg" width="98.04" viewBox="0 0 98.043871 100.59005"><g transform="translate(-290.63-521.83)" fill="none" stroke="#000" stroke-linejoin="round" stroke-linecap="round" stroke-width=".54" stroke-miterlimit="10"><path d="m293.6 622.15h92.1"/><path d="m347.6 538c0 4.39-3.56 7.95-7.95 7.95-4.39 0-7.95-3.559-7.95-7.95 0-4.39 3.56-7.95 7.95-7.95 4.39 0 7.95 3.559 7.95 7.95"/><path d="m344.45 538h6.3"/><path d="m339.65 533.2v-6.3"/><path d="m334.85 538h-6.3"/><path d="m339.65 542.95v6.15"/><path d="m294.5 522.1h90.3"/><path d="m290.9 525.7v73.5"/><path d="m388.4 525.7v73.5"/><path d="m293.6 601.75h92.1"/><path d="m294.5 522.1c-.96 0-1.878.378-2.55 1.05-.672.672-1.05 1.59-1.05 2.55"/><path d="m388.4 525.7c0-.96-.378-1.878-1.05-2.55-.672-.672-1.59-1.05-2.55-1.05"/><path d="m290.9 599.2c0 .672.27 1.32.75 1.8.48.48 1.182.75 1.95.75"/><path d="m385.7 601.75c.672 0 1.32-.27 1.8-.75.576-.48.9-1.128.9-1.8"/></g></svg>