<svg xmlns="http://www.w3.org/2000/svg" width="133.29" viewBox="0 0 133.29387 100.59005"><g transform="translate(-683.93-521.83)" fill="none" stroke="#000" stroke-linejoin="round" stroke-linecap="round" stroke-width=".54" stroke-miterlimit="10"><path d="m814.4 622.15h-127.65"/><path d="m748.85 596.5v-58.5"/><path d="m687.65 522.1h125.85"/><path d="m816.95 525.7v73.5"/><path d="m814.4 601.75h-127.65"/><path d="m684.2 599.2v-73.5"/><path d="m687.65 522.1c-.96 0-1.824.378-2.4 1.05-.672.672-1.05 1.59-1.05 2.55"/><path d="m816.95 525.7c0-.96-.324-1.878-.9-2.55-.672-.672-1.59-1.05-2.55-1.05"/><path d="m684.2 599.2c0 .672.27 1.32.75 1.8.48.48 1.128.75 1.8.75"/><path d="m814.4 601.75c.672 0 1.32-.27 1.8-.75.48-.48.75-1.128.75-1.8"/><path d="m743.45 601.75c1.44 0 2.79-.54 3.75-1.5 1.056-.96 1.65-2.308 1.65-3.75"/><path d="m752.3 596.5v-58.5"/><path d="m752.3 596.5c0 1.442.594 2.79 1.65 3.75.96.96 2.31 1.5 3.75 1.5"/><path d="m748.85 538c0-4.226-1.673-8.273-4.65-11.25-3.073-2.977-7.174-4.65-11.4-4.65"/><path d="m768.35 522.1c-4.226 0-8.327 1.673-11.4 4.65-2.977 2.977-4.65 7.02-4.65 11.25"/><path d="m738.2 544.23c0 4.433-3.559 8.02-7.95 8.02-4.39 0-7.95-3.592-7.95-8.02 0-4.433 3.559-8.02 7.95-8.02 4.39 0 7.95 3.592 7.95 8.02"/><path d="m735.05 544.3h6.3"/><path d="m730.25 539.5v-6.3"/><path d="m725.45 544.3h-6.3"/><path d="m730.25 549.1v6.15"/><path d="m779 544.23c0 4.433-3.592 8.02-8.02 8.02-4.431 0-8.02-3.592-8.02-8.02 0-4.433 3.594-8.02 8.02-8.02 4.433 0 8.02 3.592 8.02 8.02"/><path d="m775.85 544.3h6.15"/><path d="m770.9 539.5v-6.3"/><path d="m766.1 544.3h-6.15"/><path d="m770.9 549.1v6.15"/></g></svg>