<svg xmlns="http://www.w3.org/2000/svg" width="149.35" height="168.85" viewBox="0 0 149.34769 168.84769"><g transform="translate(-479.18-425.03)" fill="none" stroke="#000" stroke-linejoin="round" stroke-linecap="round" stroke-width=".54" stroke-miterlimit="10"><path d="m504.21 556.41v-93.9"/><path d="m532.56 556.41v-93.9"/><path d="m504.21 462.51h28.35"/><path d="m479.46 439.56h139.95"/><path d="m479.46 439.56v154.05"/><path d="m479.46 593.61h139.95"/><path d="m549.36 573.21v-127.5"/><path d="m487.41 445.71h123.9"/><path d="m566.16 556.41v-93.9"/><path d="m594.51 556.41v-93.9"/><path d="m566.16 462.51h28.35"/><path d="m619.41 439.56v154.05"/><path d="m560.31 502.41c0 1.409-1.141 2.55-2.55 2.55-1.407 0-2.55-1.142-2.55-2.55 0-1.409 1.143-2.55 2.55-2.55 1.409 0 2.55 1.142 2.55 2.55"/><path d="m487.41 573.21h123.9"/><path d="m504.21 556.41h28.35"/><path d="m566.16 556.41h28.35"/><path d="m611.31 445.71v147.9"/><path d="m487.41 445.71v147.9"/><path d="m543.51 502.41c0 1.409-1.141 2.55-2.55 2.55-1.407 0-2.55-1.142-2.55-2.55 0-1.409 1.143-2.55 2.55-2.55 1.409 0 2.55 1.142 2.55 2.55"/><path d="m531.36 556.41v-93.9"/><path d="m593.31 556.41v-93.9"/><path d="m505.41 556.41v-93.9"/><path d="m567.51 556.41v-93.9"/><path d="m479.46 434.16h139.95"/><path d="m479.46 425.31h139.95"/><path d="m619.41 593.61v-154.05"/><path d="m628.26 439.56h-8.85"/><path d="m628.26 434.16v5.4"/><path d="m619.41 434.16h8.85"/><path d="m628.26 434.16h-8.85"/><path d="m628.26 425.31v8.85"/><path d="m619.41 425.31h8.85"/></g></svg>