<svg xmlns="http://www.w3.org/2000/svg" width="140.5" height="168.84" viewBox="0 0 140.49768 168.84388"><g transform="translate(-260.48-425.04)" fill="none" stroke="#000" stroke-linejoin="round" stroke-linecap="round" stroke-width=".54" stroke-miterlimit="10"><path d="m285.66 556.41v-93.9"/><path d="m314.01 556.41v-93.9"/><path d="m285.66 462.51h28.35"/><path d="m260.76 439.56h139.95"/><path d="m260.76 439.56v154.05"/><path d="m260.76 593.61h139.95"/><path d="m330.81 573.21v-127.5"/><path d="m268.71 445.71h124.05"/><path d="m347.61 556.41v-93.9"/><path d="m375.96 556.41v-93.9"/><path d="m347.61 462.51h28.35"/><path d="m400.71 439.56v154.05"/><path d="m341.76 502.41c0 1.409-1.142 2.55-2.55 2.55-1.407 0-2.55-1.142-2.55-2.55 0-1.409 1.143-2.55 2.55-2.55 1.409 0 2.55 1.142 2.55 2.55"/><path d="m268.71 573.21h124.05"/><path d="m285.66 556.41h28.35"/><path d="m347.61 556.41h28.35"/><path d="m392.76 445.71v147.9"/><path d="m268.71 445.71v147.9"/><path d="m324.96 502.41c0 1.409-1.142 2.55-2.55 2.55-1.407 0-2.55-1.142-2.55-2.55 0-1.409 1.143-2.55 2.55-2.55 1.409 0 2.55 1.142 2.55 2.55"/><path d="m312.66 556.41v-93.9"/><path d="m374.76 556.41v-93.9"/><path d="m286.86 556.41v-93.9"/><path d="m348.81 556.41v-93.9"/><path d="m260.76 434.16h139.95"/><path d="m260.76 425.31h139.95"/></g></svg>