<svg xmlns="http://www.w3.org/2000/svg" width="140.5" height="160.29" viewBox="0 0 140.4977 160.29276"><g transform="translate(-260.48-633.69)" fill="none" stroke-linejoin="round" stroke-linecap="round" stroke-width=".54" stroke-miterlimit="10"><g stroke="#000"><path d="m260.76 747.36v-3.75"/><path d="m400.71 747.36h-139.95"/><path d="m400.71 743.61v3.75"/><path d="m260.76 743.61h139.95"/><path d="m268.71 747.36l46.35 46.35"/></g><g stroke="#888"><path d="m312.66 791.16l.45-.6"/><path d="m313.11 790.56l.6-.45"/><path d="m313.71 790.11l.45-.6"/><path d="m314.16 789.51l.6-.6"/><path d="m314.76 788.91l.45-.45"/><path d="m317.46 785.61l.15-.15"/><path d="m317.61 785.46l.45-.6"/><path d="m318.06 784.86l.6-.6"/><path d="m318.66 784.26l.45-.6"/><path d="m319.11 783.66l.3-.6"/><path d="m319.41 783.06l.3-.45"/><path d="m321.81 779.46l.15-.3"/><path d="m321.96 779.16l.45-.6"/><path d="m322.41 778.56l.3-.75"/><path d="m322.71 777.81l.45-.6"/><path d="m323.16 777.21l.3-.6"/><path d="m323.46 776.61l.15-.45"/><path d="m325.26 772.86l.15-.45"/><path d="m325.41 772.41l.3-.6"/><path d="m325.71 771.81l.3-.75"/><path d="m326.01 771.06l.3-.75"/><path d="m326.31 770.31l.3-.75"/><path d="m326.61 769.56l.15-.15"/><path d="m327.96 765.81l.15-.45"/><path d="m328.11 765.36l.15-.75"/><path d="m328.26 764.61l.3-.75"/><path d="m328.56 763.86l.15-.75"/><path d="m328.71 763.11l.15-.75"/><path d="m328.86 762.36v-.15"/><path d="m329.76 758.61l.15-.75"/><path d="m329.91 757.86l.15-.75"/><path d="m330.06 757.11v-.75"/><path d="m330.06 756.36l.15-.75"/><path d="m330.21 755.61l.15-.75"/><path d="m330.66 751.11v-.75"/><path d="m330.66 750.36l.15-.75"/><path d="m330.81 749.61v-.75"/><path d="m330.81 748.86v-.75"/><path d="m330.81 748.11v-.75"/></g><path d="m392.76 747.36l-46.35 46.35" stroke="#000"/><g stroke="#888"><path d="m330.81 747.36v.75"/><path d="m330.81 748.11v.75"/><path d="m330.81 748.86v.75"/><path d="m330.81 749.61v.75"/><path d="m330.81 750.36v.75"/><path d="m331.11 754.86l.15.75"/><path d="m331.26 755.61l.15.75"/><path d="m331.41 756.36v.75"/><path d="m331.41 757.11l.15.75"/><path d="m331.56 757.86l.15.75"/><path d="m332.46 762.21v.15"/><path d="m332.46 762.36l.3.75"/><path d="m332.76 763.11l.15.75"/><path d="m332.91 763.86l.15.75"/><path d="m333.06 764.61l.3.75"/><path d="m333.36 765.36l.15.45"/><path d="m334.71 769.41l.15.3"/><path d="m334.86 769.71l.15.75"/><path d="m335.01 770.46l.3.6"/><path d="m335.31 771.06l.3.75"/><path d="m335.61 771.81l.3.75"/><path d="m335.91 772.56l.15.3"/><path d="m337.71 776.16l.3.45"/><path d="m338.01 776.61l.3.6"/><path d="m338.31 777.21l.45.75"/><path d="m338.76 777.96l.3.6"/><path d="m339.06 778.56l.45.75"/><path d="m339.51 779.31v.15"/><path d="m341.61 782.46l.45.6"/><path d="m342.06 783.06l.45.6"/><path d="m342.51 783.66l.45.6"/><path d="m342.96 784.26l.45.6"/><path d="m343.41 784.86l.45.6"/><path d="m346.26 788.31v.15"/><path d="m346.26 788.46l.6.45"/><path d="m346.86 788.91l.45.6"/><path d="m347.31 789.51l.6.6"/><path d="m347.91 790.11l.45.45"/><path d="m348.36 790.56l.45.45"/></g><g stroke="#000"><path d="m277.71 637.26h2.4"/><path d="m283.86 637.26h3.75"/><path d="m291.36 637.26h3.75"/><path d="m298.86 637.26h3.75"/><path d="m306.36 637.26h3.75"/><path d="m313.86 637.26h3.75"/><path d="m321.36 637.26h3.75"/><path d="m328.86 637.26h3.75"/><path d="m336.36 637.26h3.75"/><path d="m343.86 637.26h3.75"/><path d="m351.36 637.26h3.75"/><path d="m358.86 637.26h3.75"/><path d="m366.36 637.26h3.75"/><path d="m373.86 637.26h3.75"/><path d="m381.36 637.26h2.55"/><path d="m383.91 637.26v2.55"/><path d="m383.91 643.56v3.75"/><path d="m383.91 651.06v3.75"/><path d="m383.91 658.56v3.75"/><path d="m383.91 666.06v3.75"/><path d="m383.91 673.56v3.75"/><path d="m383.91 681.06v3.75"/><path d="m383.91 688.56v3.75"/><path d="m383.91 696.06v3.75"/><path d="m383.91 703.56v3.75"/><path d="m383.91 711.06v3.75"/><path d="m383.91 718.56v3.75"/><path d="m383.91 726.06v3.75"/><path d="m383.91 733.56v3.75"/><path d="m383.91 741.06v2.55"/><path d="m383.91 743.61h-2.4"/><path d="m377.76 743.61h-3.75"/><path d="m370.26 743.61h-3.75"/><path d="m362.76 743.61h-3.75"/><path d="m355.26 743.61h-3.75"/><path d="m347.76 743.61h-3.75"/><path d="m340.26 743.61h-3.75"/><path d="m332.76 743.61h-3.75"/><path d="m325.26 743.61h-3.75"/><path d="m317.76 743.61h-3.75"/><path d="m310.26 743.61h-3.75"/><path d="m302.76 743.61h-3.75"/><path d="m295.26 743.61h-3.75"/><path d="m287.76 743.61h-3.75"/><path d="m280.26 743.61h-2.55"/><path d="m277.71 743.61v-2.55"/><path d="m277.71 737.31v-3.75"/><path d="m277.71 729.81v-3.75"/><path d="m277.71 722.31v-3.75"/><path d="m277.71 714.81v-3.75"/><path d="m277.71 707.31v-3.75"/><path d="m277.71 699.81v-3.75"/><path d="m277.71 692.31v-3.75"/><path d="m277.71 684.81v-3.75"/><path d="m277.71 677.31v-3.75"/><path d="m277.71 669.81v-3.75"/><path d="m277.71 662.31v-3.75"/><path d="m277.71 654.81v-3.75"/><path d="m277.71 647.31v-3.75"/><path d="m277.71 639.81v-2.55"/><path d="m277.71 637.26l1.35 1.35"/><path d="m281.76 641.31l2.7 2.7"/><path d="m287.01 646.56l2.7 2.7"/><path d="m292.41 651.96l2.55 2.55"/><path d="m297.66 657.21l2.7 2.7"/><path d="m302.91 662.46l2.7 2.7"/><path d="m308.31 667.86l2.55 2.55"/><path d="m313.56 673.11l2.55 2.7"/><path d="m318.81 678.51l2.7 2.55"/><path d="m324.06 683.76l2.7 2.7"/><path d="m329.46 689.01l2.55 2.7"/><path d="m334.71 694.41l2.7 2.55"/><path d="m339.96 699.66l2.7 2.7"/><path d="m345.36 704.91l2.55 2.7"/><path d="m350.61 710.31l2.7 2.7"/><path d="m355.86 715.56l2.7 2.7"/><path d="m361.26 720.96l2.55 2.55"/><path d="m366.51 726.21l2.7 2.7"/><path d="m371.76 731.46l2.7 2.7"/><path d="m377.16 736.86l2.55 2.55"/><path d="m382.41 742.11l1.5 1.5"/><path d="m383.91 637.26l-1.35 1.35"/><path d="m379.86 641.31l-2.7 2.7"/><path d="m374.61 646.56l-2.7 2.7"/><path d="m369.21 651.96l-2.55 2.55"/><path d="m363.96 657.21l-2.7 2.7"/><path d="m358.71 662.46l-2.7 2.7"/><path d="m353.31 667.86l-2.55 2.55"/><path d="m348.06 673.11l-2.55 2.7"/><path d="m342.81 678.51l-2.7 2.55"/><path d="m337.56 683.76l-2.7 2.7"/><path d="m332.16 689.01l-2.55 2.7"/><path d="m326.91 694.41l-2.7 2.55"/><path d="m321.66 699.66l-2.7 2.7"/><path d="m316.26 704.91l-2.55 2.7"/><path d="m311.01 710.31l-2.7 2.7"/><path d="m305.76 715.56l-2.7 2.7"/><path d="m300.36 720.96l-2.55 2.55"/><path d="m295.11 726.21l-2.7 2.7"/><path d="m289.86 731.46l-2.7 2.7"/><path d="m284.46 736.86l-2.55 2.55"/><path d="m279.21 742.11l-1.5 1.5"/><path d="m277.71 633.96h106.2"/></g></g></svg>