<svg xmlns="http://www.w3.org/2000/svg" width="192.69" height="57.24" viewBox="0 0 192.69385 57.243844"><g transform="translate(-107.77-626.67)" fill="none" stroke="#888" stroke-linejoin="round" stroke-linecap="round" stroke-width=".54" stroke-miterlimit="10"><path d="m300.19 683.64v-56.7h-192.15v56.7h192.15"/><path d="m115.99 683.64v-.9"/><path d="m115.99 678.99v-3.75"/><path d="m115.99 671.49v-3.75"/><path d="m115.99 663.99v-3.75"/><path d="m115.99 656.49v-3.75"/><path d="m115.99 648.99v-3.75"/><path d="m115.99 641.49v-3.75"/><path d="m115.99 633.99v-.9"/><path d="m115.99 633.09h3.75"/><path d="m123.49 633.09h3.75"/><path d="m130.99 633.09h3.75"/><path d="m138.49 633.09h3.75"/><path d="m145.99 633.09h3.75"/><path d="m153.49 633.09h3.75"/><path d="m160.99 633.09h3.75"/><path d="m168.49 633.09h3.75"/><path d="m175.99 633.09h3.75"/><path d="m183.49 633.09h3.75"/><path d="m190.99 633.09h3.75"/><path d="m198.49 633.09h3.75"/><path d="m205.99 633.09h3.75"/><path d="m213.49 633.09h3.75"/><path d="m220.99 633.09h3.75"/><path d="m228.49 633.09h3.75"/><path d="m235.99 633.09h3.75"/><path d="m243.49 633.09h3.75"/><path d="m250.99 633.09h3.75"/><path d="m258.49 633.09h3.75"/><path d="m265.99 633.09h3.75"/><path d="m273.49 633.09h3.75"/><path d="m280.99 633.09h3.75"/><path d="m288.49 633.09h3.75"/><path d="m292.24 683.64v-.9"/><path d="m292.24 678.99v-3.75"/><path d="m292.24 671.49v-3.75"/><path d="m292.24 663.99v-3.75"/><path d="m292.24 656.49v-3.75"/><path d="m292.24 648.99v-3.75"/><path d="m292.24 641.49v-3.75"/><path d="m292.24 633.99v-.9"/></g></svg>