<svg xmlns="http://www.w3.org/2000/svg" width="192.7" height="221.95" viewBox="0 0 192.6977 221.9477"><g transform="translate(-107.77-323.67)" fill="none" stroke-linejoin="round" stroke-linecap="round" stroke-width=".54" stroke-miterlimit="10"><g stroke="#000"><path d="m292.24 545.34h7.95"/><path d="m108.04 323.94h192.15"/><path d="m108.04 323.94v221.4"/><path d="m300.19 323.94v221.4"/></g><g stroke="#aaa"><path d="m135.94 380.94v-49.05"/><path d="m135.94 434.19v-49.5"/><path d="m135.94 487.29v-49.5"/><path d="m135.94 545.34v-54.3"/><path d="m155.44 380.94v-49.05"/><path d="m155.44 434.19v-49.5"/><path d="m155.44 487.29v-49.5"/><path d="m155.44 545.34v-54.3"/><path d="m174.94 380.94v-49.05"/><path d="m174.94 434.19v-49.5"/><path d="m174.94 487.29v-49.5"/><path d="m174.94 545.34v-54.3"/><path d="m194.29 380.94v-49.05"/><path d="m194.29 434.19v-49.5"/><path d="m194.29 487.29v-49.5"/><path d="m194.29 545.34v-54.3"/><path d="m213.79 380.94v-49.05"/><path d="m213.79 434.19v-49.5"/><path d="m213.79 487.29v-49.5"/><path d="m213.79 545.34v-54.3"/><path d="m233.29 380.94v-49.05"/><path d="m233.29 434.19v-49.5"/><path d="m233.29 487.29v-49.5"/><path d="m233.29 545.34v-54.3"/><path d="m252.79 380.94v-49.05"/><path d="m252.79 434.19v-49.5"/><path d="m252.79 487.29v-49.5"/><path d="m252.79 545.34v-54.3"/><path d="m272.29 380.94v-49.05"/><path d="m272.29 434.19v-49.5"/><path d="m272.29 487.29v-49.5"/><path d="m272.29 545.34v-54.3"/><path d="m291.79 380.94v-49.05"/><path d="m291.79 434.19v-49.5"/><path d="m291.79 487.29v-49.5"/><path d="m291.79 545.34v-54.3"/><path d="m116.44 380.94v-49.05"/><path d="m116.44 434.19v-49.5"/><path d="m116.44 487.29v-49.5"/><path d="m116.44 545.34v-54.3"/></g><path d="m108.04 545.34h7.95" stroke="#000"/><g stroke="#aaa"><path d="m204.94 438.62c0 .456-.369.825-.825.825-.456 0-.825-.369-.825-.825 0-.456.369-.825.825-.825.456 0 .825.369.825.825"/><path d="m204.94 429.77c0 .456-.369.825-.825.825-.456 0-.825-.369-.825-.825 0-.456.369-.825.825-.825.456 0 .825.369.825.825"/><path d="m204.94 420.92c0 .456-.369.825-.825.825-.456 0-.825-.369-.825-.825 0-.456.369-.825.825-.825.456 0 .825.369.825.825"/><path d="m204.94 412.07c0 .456-.369.825-.825.825-.456 0-.825-.369-.825-.825 0-.456.369-.825.825-.825.456 0 .825.369.825.825"/><path d="m204.94 403.22c0 .456-.369.825-.825.825-.456 0-.825-.369-.825-.825 0-.456.369-.825.825-.825.456 0 .825.369.825.825"/><path d="m204.94 385.52c0 .456-.369.825-.825.825-.456 0-.825-.369-.825-.825 0-.456.369-.825.825-.825.456 0 .825.369.825.825"/><path d="m204.94 474.09c0 .414-.369.75-.825.75-.456 0-.825-.336-.825-.75 0-.414.369-.75.825-.75.456 0 .825.336.825.75"/><path d="m204.94 491.79c0 .414-.369.75-.825.75-.456 0-.825-.336-.825-.75 0-.414.369-.75.825-.75.456 0 .825.336.825.75"/></g><g stroke="#000"><path d="m115.99 487.29h176.25"/><path d="m115.99 491.04h176.25"/><path d="m115.99 434.19h176.25"/><path d="m115.99 437.79h176.25"/><path d="m115.99 380.94h176.25"/><path d="m115.99 384.69h176.25"/></g><g stroke="#aaa"><path d="m204.94 447.47c0 .456-.369.825-.825.825-.456 0-.825-.369-.825-.825 0-.456.369-.825.825-.825.456 0 .825.369.825.825"/><path d="m204.94 394.37c0 .456-.369.825-.825.825-.456 0-.825-.369-.825-.825 0-.456.369-.825.825-.825.456 0 .825.369.825.825"/><path d="m204.94 456.32c0 .456-.369.825-.825.825-.456 0-.825-.369-.825-.825 0-.456.369-.825.825-.825.456 0 .825.369.825.825"/><path d="m204.94 465.17c0 .456-.369.825-.825.825-.456 0-.825-.369-.825-.825 0-.456.369-.825.825-.825.456 0 .825.369.825.825"/><path d="m204.94 482.94c0 .414-.369.75-.825.75-.456 0-.825-.336-.825-.75 0-.414.369-.75.825-.75.456 0 .825.336.825.75"/></g><g stroke="#000"><path d="m292.24 545.34v-213.45"/><path d="m115.99 331.89h176.25"/><path d="m115.99 545.34v-213.45"/><path d="m108.04 545.34h192.15"/></g></g></svg>