<svg xmlns="http://www.w3.org/2000/svg" width="122.8" height="191.64" viewBox="0 0 122.79769 191.64276"><g transform="translate(-766.61-515.18)" fill="none" stroke-linejoin="round" stroke-linecap="round" stroke-width=".54" stroke-miterlimit="10"><g stroke="#000"><path d="m766.89 515.45h122.25"/><path d="m774.84 628.85l1.35-1.35"/><path d="m778.89 624.8l2.7-2.7"/><path d="m784.14 619.55l2.7-2.7"/><path d="m789.54 614.15l2.55-2.55"/><path d="m794.79 608.9l2.7-2.7"/><path d="m800.04 603.65l2.7-2.7"/><path d="m805.44 598.25l2.55-2.55"/><path d="m810.69 593l2.7-2.55"/><path d="m816.09 587.75l2.55-2.7"/><path d="m821.34 582.5l2.7-2.7"/><path d="m826.59 577.1l2.7-2.55"/><path d="m831.99 571.85l2.55-2.7"/><path d="m837.24 566.6l2.7-2.7"/><path d="m842.49 561.2l2.7-2.55"/><path d="m847.89 555.95l2.7-2.7"/><path d="m853.14 550.7l2.7-2.7"/><path d="m858.54 545.3l2.55-2.55"/><path d="m863.79 540.05l2.7-2.7"/><path d="m869.04 534.8l2.7-2.7"/><path d="m874.44 529.4l2.55-2.55"/><path d="m879.69 524.15l1.5-1.5"/><path d="m774.84 522.65l1.35 1.35"/><path d="m778.89 526.7l2.7 2.7"/><path d="m784.14 531.95l2.7 2.7"/><path d="m789.54 537.35l2.55 2.55"/><path d="m794.79 542.6l2.7 2.7"/><path d="m800.04 547.85l2.7 2.7"/><path d="m805.44 553.25l2.55 2.55"/><path d="m810.69 558.5l2.7 2.55"/><path d="m816.09 563.75l2.55 2.7"/><path d="m821.34 569l2.7 2.7"/><path d="m826.59 574.4l2.7 2.55"/><path d="m831.99 579.65l2.55 2.7"/><path d="m837.24 584.9l2.7 2.7"/><path d="m842.49 590.3l2.7 2.55"/><path d="m847.89 595.55l2.7 2.7"/><path d="m853.14 600.8l2.7 2.7"/><path d="m858.54 606.2l2.55 2.55"/><path d="m863.79 611.45l2.7 2.7"/><path d="m869.04 616.7l2.7 2.7"/><path d="m874.44 622.1l2.55 2.55"/><path d="m879.69 627.35l1.5 1.5"/><path d="m881.19 628.85l-77.7 77.7"/></g><g stroke="#888"><path d="m774.84 628.85v.75"/><path d="m774.84 629.6v.6"/><path d="m774.84 630.2l.15.6"/><path d="m774.99 630.8v.75"/><path d="m774.99 631.55v.6"/><path d="m774.99 632.15v.45"/><path d="m775.14 636.35v.3"/><path d="m775.14 636.65l.15.75"/><path d="m775.29 637.4v.6"/><path d="m775.29 638v.6"/><path d="m775.29 638.6l.15.75"/><path d="m775.44 639.35v.6"/><path d="m775.44 639.95v.15"/><path d="m775.89 643.85l.15.6"/><path d="m776.04 644.45l.15.75"/><path d="m776.19 645.2v.6"/><path d="m776.19 645.8l.15.6"/><path d="m776.34 646.4l.15.6"/><path d="m776.49 647l.15.45"/><path d="m777.24 651.05l.15.45"/><path d="m777.39 651.5l.15.6"/><path d="m777.54 652.1l.15.75"/><path d="m777.69 652.85l.15.6"/><path d="m777.84 653.45l.15.6"/><path d="m777.99 654.05l.15.6"/><path d="m779.04 658.25v.3"/><path d="m779.04 658.55l.3.6"/><path d="m779.34 659.15l.15.6"/><path d="m779.49 659.75l.15.6"/><path d="m779.64 660.35l.3.6"/><path d="m779.94 660.95l.15.6"/><path d="m780.09 661.55v.3"/><path d="m781.29 665.45l.3.45"/><path d="m781.59 665.9l.15.6"/><path d="m781.74 666.5l.3.6"/><path d="m782.04 667.1l.15.6"/><path d="m782.19 667.7l.3.6"/><path d="m782.49 668.3l.3.6"/><path d="m784.14 672.35l.15.15"/><path d="m784.29 672.5l.3.6"/><path d="m784.59 673.1l.3.6"/><path d="m784.89 673.7l.15.6"/><path d="m785.04 674.3l.3.6"/><path d="m785.34 674.9l.3.6"/><path d="m785.64 675.5l.15.15"/><path d="m787.44 678.95l.3.6"/><path d="m787.74 679.55l.3.6"/><path d="m788.04 680.15l.3.6"/><path d="m788.34 680.75l.3.6"/><path d="m788.64 681.35l.45.45"/><path d="m789.09 681.8l.15.45"/><path d="m791.19 685.4l.15.3"/><path d="m791.34 685.7l.45.6"/><path d="m791.79 686.3l.3.6"/><path d="m792.09 686.9l.3.45"/><path d="m792.39 687.35l.45.6"/><path d="m792.84 687.95l.3.6"/><path d="m795.24 691.55l.15.15"/><path d="m795.39 691.7l.45.45"/><path d="m795.84 692.15l.3.6"/><path d="m796.14 692.75l.45.45"/><path d="m796.59 693.2l.45.6"/><path d="m797.04 693.8l.3.45"/><path d="m797.34 694.25l.15.3"/><path d="m799.89 697.4l.45.45"/><path d="m800.34 697.85l.3.45"/><path d="m800.64 698.3l.45.45"/><path d="m801.09 698.75l.45.6"/><path d="m801.54 699.35l.45.45"/><path d="m801.99 699.8l.45.45"/><path d="m804.99 702.95l.15.15"/><path d="m805.14 703.1l.45.45"/><path d="m805.59 703.55l.45.45"/></g><g stroke="#000"><path d="m774.84 628.85v-2.4"/><path d="m774.84 622.7v-3.75"/><path d="m774.84 615.2v-3.75"/><path d="m774.84 607.7v-3.75"/><path d="m774.84 600.2v-3.75"/><path d="m774.84 592.7v-3.75"/><path d="m774.84 585.2v-3.75"/><path d="m774.84 577.7v-3.75"/><path d="m774.84 570.2v-3.75"/><path d="m774.84 562.7v-3.75"/><path d="m774.84 555.2v-3.75"/><path d="m774.84 547.7v-3.75"/><path d="m774.84 540.2v-3.75"/><path d="m774.84 532.7v-3.75"/><path d="m774.84 525.2v-2.55"/><path d="m881.19 522.65v2.4"/><path d="m881.19 528.8v3.75"/><path d="m881.19 536.3v3.75"/><path d="m881.19 543.8v3.75"/><path d="m881.19 551.3v3.75"/><path d="m881.19 558.8v3.75"/><path d="m881.19 566.3v3.75"/><path d="m881.19 573.8v3.75"/><path d="m881.19 581.3v3.75"/><path d="m881.19 588.8v3.75"/><path d="m881.19 596.3v3.75"/><path d="m881.19 603.8v3.75"/><path d="m881.19 611.3v3.75"/><path d="m881.19 618.8v3.75"/><path d="m881.19 626.3v2.55"/><path d="m774.84 522.65h2.55"/><path d="m781.14 522.65h3.75"/><path d="m788.64 522.65h3.75"/><path d="m796.14 522.65h3.75"/><path d="m803.64 522.65h3.75"/><path d="m811.14 522.65h3.75"/><path d="m818.64 522.65h3.75"/><path d="m826.14 522.65h3.75"/><path d="m833.64 522.65h3.75"/><path d="m841.14 522.65h3.75"/><path d="m848.64 522.65h3.75"/><path d="m856.14 522.65h3.75"/><path d="m863.64 522.65h3.75"/><path d="m871.14 522.65h3.75"/><path d="m878.64 522.65h2.55"/><path d="m889.14 628.85v-113.4h-122.25v113.4h122.25"/></g></g></svg>