<svg xmlns="http://www.w3.org/2000/svg" width="131.65" height="168.85" viewBox="0 0 131.64769 168.84768"><g transform="translate(-616.16-651.07)" fill="none" stroke="#000" stroke-linejoin="round" stroke-linecap="round" stroke-width=".54" stroke-miterlimit="10"><path d="m616.44 819.65h122.25"/><path d="m680.04 680.15c0 1.409-1.141 2.55-2.55 2.55-1.409 0-2.55-1.141-2.55-2.55 0-1.409 1.141-2.55 2.55-2.55 1.409 0 2.55 1.141 2.55 2.55"/><path d="m730.74 819.65v-147.9"/><path d="m624.39 819.65v-147.9"/><path d="m624.39 671.75h106.35"/><path d="m641.19 782.45v-93.9"/><path d="m713.79 782.45v-93.9"/><path d="m641.19 688.55h72.6"/><path d="m616.44 665.6h122.25"/><path d="m616.44 665.6v154.05"/><path d="m738.69 665.6v154.05"/><path d="m641.19 782.45h72.6"/><path d="m624.39 799.25h106.35"/><path d="m642.39 782.45v-93.9"/><path d="m712.59 782.45v-93.9"/><path d="m616.44 660.2h122.25"/><path d="m616.44 651.35h122.25"/><path d="m747.54 665.6h-8.85"/><path d="m747.54 660.2v5.4"/><path d="m738.69 660.2h8.85"/><path d="m747.54 660.2h-8.85"/><path d="m747.54 651.35v8.85"/><path d="m738.69 651.35h8.85"/></g></svg>