<svg xmlns="http://www.w3.org/2000/svg" width="131.65" height="168.85" viewBox="0 0 131.64769 168.84768"><g transform="translate(-18.262-318.82)" fill="none" stroke="#000" stroke-linejoin="round" stroke-linecap="round" stroke-width=".54" stroke-miterlimit="10"><path d="m27.386 487.4h122.25"/><path d="m141.69 487.4v-147.9"/><path d="m35.34 487.4v-147.9"/><path d="m35.34 339.5h106.35"/><path d="m52.14 450.2v-93.9"/><path d="m124.89 450.2v-93.9"/><path d="m52.14 356.3h72.75"/><path d="m27.386 333.2h122.25"/><path d="m27.386 333.2v154.2"/><path d="m149.64 333.2v154.2"/><path d="m52.14 450.2h72.75"/><path d="m35.34 467h106.35"/><path d="m135.84 396.12c0 1.45-1.142 2.625-2.55 2.625-1.409 0-2.55-1.175-2.55-2.625 0-1.45 1.141-2.625 2.55-2.625 1.408 0 2.55 1.175 2.55 2.625"/><path d="m53.49 450.2v-93.9"/><path d="m123.54 450.2v-93.9"/><path d="m27.386 327.95h122.25"/><path d="m27.386 319.1h122.25"/><path d="m18.536 333.2h8.85"/><path d="m18.536 327.95v5.25"/><path d="m27.386 327.95h-8.85"/><path d="m18.536 327.95h8.85"/><path d="m18.536 319.1v8.85"/><path d="m27.386 319.1h-8.85"/></g></svg>