<svg xmlns="http://www.w3.org/2000/svg" width="122.8" height="168.84" viewBox="0 0 122.79769 168.84387"><g transform="translate(-470.06-651.08)" fill="none" stroke="#000" stroke-linejoin="round" stroke-linecap="round" stroke-width=".54" stroke-miterlimit="10"><path d="m470.34 819.65h122.25"/><path d="m534.09 680.15c0 1.409-1.141 2.55-2.55 2.55-1.409 0-2.55-1.141-2.55-2.55 0-1.409 1.141-2.55 2.55-2.55 1.409 0 2.55 1.141 2.55 2.55"/><path d="m584.64 819.65v-147.9"/><path d="m478.29 819.65v-147.9"/><path d="m478.29 671.75h106.35"/><path d="m495.24 782.45v-93.9"/><path d="m567.84 782.45v-93.9"/><path d="m495.24 688.55h72.6"/><path d="m470.34 665.6h122.25"/><path d="m470.34 665.6v154.05"/><path d="m592.59 665.6v154.05"/><path d="m495.24 782.45h72.6"/><path d="m478.29 799.25h106.35"/><path d="m496.44 782.45v-93.9"/><path d="m566.64 782.45v-93.9"/><path d="m470.34 660.2h122.25"/><path d="m470.34 651.35h122.25"/></g></svg>