<svg xmlns="http://www.w3.org/2000/svg" width="131.65" height="168.85" viewBox="0 0 131.64769 168.84768"><g transform="translate(-313.76-651.07)" fill="none" stroke="#000" stroke-linejoin="round" stroke-linecap="round" stroke-width=".54" stroke-miterlimit="10"><path d="m322.89 819.65h122.25"/><path d="m386.64 680.15c0 1.409-1.175 2.55-2.625 2.55-1.449 0-2.625-1.141-2.625-2.55 0-1.409 1.176-2.55 2.625-2.55 1.45 0 2.625 1.141 2.625 2.55"/><path d="m437.19 819.65v-147.9"/><path d="m330.84 819.65v-147.9"/><path d="m330.84 671.75h106.35"/><path d="m347.64 782.45v-93.9"/><path d="m420.39 782.45v-93.9"/><path d="m347.64 688.55h72.75"/><path d="m322.89 665.6h122.25"/><path d="m322.89 665.6v154.05"/><path d="m445.14 665.6v154.05"/><path d="m347.64 782.45h72.75"/><path d="m330.84 799.25h106.35"/><path d="m348.99 782.45v-93.9"/><path d="m419.04 782.45v-93.9"/><path d="m322.89 660.2h122.25"/><path d="m322.89 651.35h122.25"/><path d="m314.04 665.6h8.85"/><path d="m314.04 660.2v5.4"/><path d="m322.89 660.2h-8.85"/><path d="m314.04 660.2h8.85"/><path d="m314.04 651.35v8.85"/><path d="m322.89 651.35h-8.85"/></g></svg>