<svg xmlns="http://www.w3.org/2000/svg" width="131.65" height="168.85" viewBox="0 0 131.64772 168.84768"><g transform="translate(-908.66-318.82)" fill="none" stroke="#000" stroke-linejoin="round" stroke-linecap="round" stroke-width=".54" stroke-miterlimit="10"><path d="m908.94 487.4h122.25"/><path d="m1023.24 487.4v-147.9"/><path d="m916.89 487.4v-147.9"/><path d="m916.89 339.5h106.35"/><path d="m933.84 450.2v-93.9"/><path d="m1006.44 450.2v-93.9"/><path d="m933.84 356.3h72.6"/><path d="m908.94 333.2h122.25"/><path d="m908.94 333.2v154.2"/><path d="m1031.19 333.2v154.2"/><path d="m933.84 450.2h72.6"/><path d="m916.89 467h106.35"/><path d="m927.99 396.12c0 1.45-1.174 2.625-2.625 2.625-1.451 0-2.625-1.175-2.625-2.625 0-1.45 1.174-2.625 2.625-2.625 1.451 0 2.625 1.175 2.625 2.625"/><path d="m935.04 450.2v-93.9"/><path d="m1005.24 450.2v-93.9"/><path d="m908.94 327.95h122.25"/><path d="m908.94 319.1h122.25"/><path d="m1040.04 333.2h-8.85"/><path d="m1040.04 327.95v5.25"/><path d="m1031.19 327.95h8.85"/><path d="m1040.04 327.95h-8.85"/><path d="m1040.04 319.1v8.85"/><path d="m1031.19 319.1h8.85"/></g></svg>