<svg xmlns="http://www.w3.org/2000/svg" width="78.55" height="168.84" viewBox="0 0 78.547691 168.84387" xmlns:xlink="http://www.w3.org/1999/xlink"><g transform="translate(-297.49-301.33)"><g fill="none" stroke="#000" stroke-linejoin="round" stroke-linecap="round" stroke-width=".54" stroke-miterlimit="10"><path d="m375.76 469.9h-78"/><path d="m339.31 336.18c0 1.449-1.142 2.625-2.55 2.625-1.407 0-2.55-1.176-2.55-2.625 0-1.45 1.143-2.625 2.55-2.625 1.409 0 2.55 1.175 2.55 2.625"/><path d="m339.31 364.53c0 1.449-1.142 2.625-2.55 2.625-1.407 0-2.55-1.176-2.55-2.625 0-1.45 1.143-2.625 2.55-2.625 1.409 0 2.55 1.175 2.55 2.625"/><path d="m339.31 392.88c0 1.449-1.142 2.625-2.55 2.625-1.407 0-2.55-1.176-2.55-2.625 0-1.45 1.143-2.625 2.55-2.625 1.409 0 2.55 1.175 2.55 2.625"/><path d="m339.31 428.35c0 1.409-1.142 2.55-2.55 2.55-1.407 0-2.55-1.142-2.55-2.55 0-1.409 1.143-2.55 2.55-2.55 1.409 0 2.55 1.142 2.55 2.55"/><path d="m305.71 469.9v-147.9"/></g><path d="m305.71 322h62.1" fill="none" stroke="#000" stroke-linejoin="round" stroke-linecap="round" stroke-width=".54" stroke-miterlimit="10" id="0"/><path d="m367.81 322v147.9" fill="none" stroke="#000" stroke-linejoin="round" stroke-linecap="round" stroke-width=".54" stroke-miterlimit="10"/><use xlink:href="#0"/><g fill="none" stroke="#000" stroke-linejoin="round" stroke-linecap="round" stroke-width=".54" stroke-miterlimit="10"><path d="m375.76 315.85v154.05"/><path d="m297.76 469.9v-154.05"/><path d="m297.76 315.85h78"/><path d="m305.71 350.35h62.1"/><path d="m305.71 378.7h62.1"/><path d="m305.71 407.05h62.1"/><path d="m305.71 449.5h62.1"/><path d="m297.76 310.45h78"/><path d="m297.76 301.6h78"/></g><path d="m137.11 469.9v-154.05" fill="none" stroke="#000" stroke-linejoin="round" stroke-linecap="round" stroke-width=".54" stroke-miterlimit="10" id="1"/><path d="m145.06 322h62.1" fill="none" stroke="#000" stroke-linejoin="round" stroke-linecap="round" stroke-width=".54" stroke-miterlimit="10" id="2"/><use xlink:href="#2"/><use xlink:href="#1"/><path d="m464.86 322h61.95" fill="none" stroke="#000" stroke-linejoin="round" stroke-linecap="round" stroke-width=".54" stroke-miterlimit="10" id="3"/><use xlink:href="#3"/></g></svg>