<svg xmlns="http://www.w3.org/2000/svg" width="122.8" height="381.4" viewBox="0 0 122.79769 381.39828"><g transform="translate(-283.11-175.25)" fill="none" stroke="#000" stroke-linejoin="round" stroke-linecap="round" stroke-width=".54" stroke-miterlimit="10"><path d="m386.14 543.03c1.493 0 2.7-1.141 2.7-2.55v-2.7-1.8h-88.5v4.5c0 1.409 1.143 2.55 2.55 2.55h83.25"/><path d="m405.64 556.38v-380.85"/><path d="m283.39 556.38v-380.85"/><path d="m397.69 402.18h-106.2"/><path d="m291.49 535.98h106.2"/><path d="m380.89 519.18h-72.6"/><path d="m380.89 425.28h-72.6"/><path d="m308.29 385.38h72.6"/><path d="m380.89 200.28v185.1"/><path d="m380.89 425.28v93.9"/><path d="m308.29 519.18v-93.9"/><path d="m308.29 385.38v-185.1"/><path d="m283.39 175.53h122.25"/><path d="m291.49 183.48h106.2"/><path d="m308.29 200.28h72.6"/><path d="m397.69 408.48h-106.2"/><path d="m291.49 405.03v-221.55"/><path d="m291.49 556.38v-154.2"/><path d="m397.69 404.73v-221.25"/><path d="m397.69 556.38v-154.2"/><path d="m379.84 200.28v185.1"/><path d="m379.84 425.28v93.9"/><path d="m309.34 519.18v-93.9"/><path d="m309.34 385.38v-185.1"/><path d="m283.39 556.38h122.25"/><path d="m302.44 465.18c0 1.409-1.175 2.55-2.625 2.55-1.449 0-2.625-1.142-2.625-2.55 0-1.409 1.176-2.55 2.625-2.55 1.45 0 2.625 1.142 2.625 2.55"/><path d="m302.44 304.98c0 1.409-1.175 2.55-2.625 2.55-1.449 0-2.625-1.142-2.625-2.55 0-1.409 1.176-2.55 2.625-2.55 1.45 0 2.625 1.142 2.625 2.55"/></g></svg>