<svg xmlns="http://www.w3.org/2000/svg" height="196.89" viewBox="0 0 122.79 196.89273"><g transform="translate(-54.667-584.01)" fill="none" stroke-linejoin="round" stroke-linecap="round" stroke-width=".54" stroke-miterlimit="10"><g stroke="#000"><path d="m54.937 584.28v118.65h122.25v-118.65h-122.25z"/><path d="m62.887 702.93l77.7 77.7"/><path d="m62.887 702.93l95.1 54.9"/></g><g stroke="#888"><path d="m138.04 778.08l.45-.45"/><path d="m138.49 777.63l.45-.45"/><path d="m138.94 777.18l.45-.45"/><path d="m139.39 776.73l.45-.45"/><path d="m139.84 776.28l.45-.45"/><path d="m140.29 775.83l.3-.45"/><path d="m143.14 772.68l.15-.3"/><path d="m143.29 772.38l.45-.45"/><path d="m143.74 771.93l.45-.6"/><path d="m144.19 771.33l.45-.45"/><path d="m144.64 770.88l.45-.45"/><path d="m145.09 770.43l.3-.6"/><path d="m145.39 769.83l.15-.15"/><path d="m147.79 766.68l.45-.45"/><path d="m148.24 766.23l.45-.45"/><path d="m148.69 765.78l.3-.6"/><path d="m148.99 765.18l.45-.45"/><path d="m149.44 764.73l.3-.6"/><path d="m149.74 764.13l.3-.3"/><path d="m152.14 760.68l.15-.3"/><path d="m152.29 760.38l.45-.6"/><path d="m152.74 759.78l.3-.45"/><path d="m153.04 759.33l.3-.6"/><path d="m153.34 758.73l.3-.6"/><path d="m153.64 758.13l.45-.6"/><path d="m156.04 754.38v-.15"/><path d="m156.04 754.23l.3-.6"/><path d="m156.34 753.63l.3-.6"/><path d="m156.64 753.03l.3-.6"/><path d="m156.94 752.43l.3-.6"/><path d="m157.24 751.83l.3-.45"/><path d="m157.54 751.38l.15-.3"/><path d="m159.19 747.63l.3-.45"/><path d="m159.49 747.18l.3-.6"/><path d="m159.79 746.58l.3-.6"/><path d="m160.09 745.98l.15-.6"/><path d="m160.24 745.38l.3-.6"/><path d="m160.54 744.78l.3-.45"/><path d="m162.19 740.88l.15-.3"/><path d="m162.34 740.58l.15-.6"/><path d="m162.49 739.98l.3-.6"/><path d="m162.79 739.38l.15-.6"/><path d="m162.94 738.78l.3-.6"/><path d="m163.24 738.18l.15-.6"/><path d="m163.39 737.58v-.15"/><path d="m164.59 733.83l.15-.6"/><path d="m164.74 733.23l.3-.75"/><path d="m165.04 732.48l.15-.6"/><path d="m165.19 731.88l.15-.6"/><path d="m165.34 731.28l.15-.6"/><path d="m165.49 730.68l.15-.45"/><path d="m166.39 726.63l.15-.45"/><path d="m166.54 726.18l.15-.6"/><path d="m166.69 725.58l.15-.6"/><path d="m166.84 724.98l.15-.6"/><path d="m166.99 724.38l.15-.75"/><path d="m167.14 723.63l.15-.6"/><path d="m167.89 719.28v-.15"/><path d="m167.89 719.13l.15-.6"/><path d="m168.04 718.53v-.6"/><path d="m168.04 717.93l.15-.75"/><path d="m168.19 717.18l.15-.6"/><path d="m168.34 716.58v-.6"/><path d="m168.34 715.98l.15-.45"/><path d="m168.79 711.78v-.3"/><path d="m168.79 711.48l.15-.75"/><path d="m168.94 710.73v-.6"/><path d="m168.94 710.13v-.6"/><path d="m168.94 709.53v-.75"/><path d="m168.94 708.78l.15-.6"/><path d="m169.09 708.18v-.15"/><path d="m169.09 704.28l.15-.75"/><path d="m169.24 703.53v-.6"/></g></g></svg>