<svg xmlns="http://www.w3.org/2000/svg" height="196.89" viewBox="0 0 122.79 196.89273"><g transform="translate(-283.12-584.01)" fill="none" stroke-linejoin="round" stroke-linecap="round" stroke-width=".54" stroke-miterlimit="10"><g stroke="#000"><path d="m283.39 584.28v118.65h122.25v-118.65h-122.25z"/><path d="m397.69 702.93l-77.7 77.7"/><path d="m397.69 702.93l-95.1 54.9"/></g><g stroke="#888"><path d="m291.49 702.93v.6"/><path d="m291.49 703.53v.75"/><path d="m291.49 704.28v.6"/><path d="m291.49 704.88v.75"/><path d="m291.49 705.63v.6"/><path d="m291.49 706.23v.45"/><path d="m291.64 710.43v.3"/><path d="m291.64 710.73l.15.75"/><path d="m291.79 711.48v.6"/><path d="m291.79 712.08l.15.6"/><path d="m291.94 712.68v.75"/><path d="m291.94 713.43v.6"/><path d="m291.94 714.03v.15"/><path d="m292.54 717.93v.6"/><path d="m292.54 718.53l.15.6"/><path d="m292.69 719.13l.15.75"/><path d="m292.84 719.88v.6"/><path d="m292.84 720.48l.15.6"/><path d="m292.99 721.08l.15.6"/><path d="m293.89 725.28v.3"/><path d="m293.89 725.58l.15.6"/><path d="m294.04 726.18l.15.75"/><path d="m294.19 726.93l.15.6"/><path d="m294.34 727.53l.15.6"/><path d="m294.49 728.13l.15.6"/><path d="m294.64 728.73v.15"/><path d="m295.69 732.48l.15.75"/><path d="m295.84 733.23l.15.6"/><path d="m295.99 733.83l.15.6"/><path d="m296.14 734.43l.3.6"/><path d="m296.44 735.03l.15.6"/><path d="m296.59 735.63l.15.45"/><path d="m297.94 739.68l.15.3"/><path d="m298.09 739.98l.15.6"/><path d="m298.24 740.58l.3.6"/><path d="m298.54 741.18l.3.6"/><path d="m298.84 741.78l.15.6"/><path d="m298.99 742.38l.3.6"/><path d="m299.29 742.98v.15"/><path d="m300.79 746.58l.3.6"/><path d="m301.09 747.18l.3.6"/><path d="m301.39 747.78l.3.6"/><path d="m301.69 748.38l.15.6"/><path d="m301.84 748.98l.3.6"/><path d="m302.14 749.58l.15.45"/><path d="m304.09 753.33l.15.3"/><path d="m304.24 753.63l.3.6"/><path d="m304.54 754.23l.3.6"/><path d="m304.84 754.83l.45.45"/><path d="m305.29 755.28l.3.6"/><path d="m305.59 755.88l.3.6"/><path d="m305.89 756.48v.15"/><path d="m307.84 759.78l.45.6"/><path d="m308.29 760.38l.3.6"/><path d="m308.59 760.98l.45.45"/><path d="m309.04 761.43l.3.6"/><path d="m309.34 762.03l.3.45"/><path d="m309.64 762.48l.3.45"/><path d="m312.04 765.93l.3.3"/><path d="m312.34 766.23l.45.6"/><path d="m312.79 766.83l.3.45"/><path d="m313.09 767.28l.45.6"/><path d="m313.54 767.88l.3.45"/><path d="m313.84 768.33l.45.6"/><path d="m316.69 771.78l.15.15"/><path d="m316.84 771.93l.45.45"/><path d="m317.29 772.38l.3.45"/><path d="m317.59 772.83l.45.6"/><path d="m318.04 773.43l.45.45"/><path d="m318.49 773.88l.45.45"/><path d="m318.94 774.33l.3.3"/><path d="m321.79 777.33l.3.3"/><path d="m322.09 777.63l.45.45"/></g></g></svg>