<svg xmlns="http://www.w3.org/2000/svg" width="122.8" height="381.4" viewBox="0 0 122.79769 381.39828"><g transform="translate(-54.663-175.25)" fill="none" stroke="#000" stroke-linejoin="round" stroke-linecap="round" stroke-width=".54" stroke-miterlimit="10"><path d="m157.69 543.03c1.409 0 2.55-1.141 2.55-2.55v-2.7-1.8h-88.5v4.5c0 1.409 1.21 2.55 2.7 2.55h83.25"/><path d="m177.19 556.38v-380.85"/><path d="m54.937 556.38v-380.85"/><path d="m169.24 402.18h-106.35"/><path d="m62.887 535.98h106.35"/><path d="m152.29 519.18h-72.6"/><path d="m152.29 425.28h-72.6"/><path d="m79.69 385.38h72.6"/><path d="m152.29 200.28v185.1"/><path d="m152.29 425.28v93.9"/><path d="m79.69 519.18v-93.9"/><path d="m79.69 385.38v-185.1"/><path d="m54.937 175.53h122.25"/><path d="m62.887 183.48h106.35"/><path d="m79.69 200.28h72.6"/><path d="m169.24 408.48h-106.35"/><path d="m62.887 405.03v-221.55"/><path d="m62.887 556.38v-154.2"/><path d="m169.24 404.73v-221.25"/><path d="m169.24 556.38v-154.2"/><path d="m151.24 200.28v185.1"/><path d="m151.24 425.28v93.9"/><path d="m80.74 519.18v-93.9"/><path d="m80.74 385.38v-185.1"/><path d="m54.937 556.38h122.25"/><path d="m163.39 304.98c0 1.409-1.174 2.55-2.625 2.55-1.449 0-2.625-1.142-2.625-2.55 0-1.409 1.176-2.55 2.625-2.55 1.451 0 2.625 1.142 2.625 2.55"/><path d="m163.39 465.18c0 1.409-1.174 2.55-2.625 2.55-1.449 0-2.625-1.142-2.625-2.55 0-1.409 1.176-2.55 2.625-2.55 1.451 0 2.625 1.142 2.625 2.55"/></g></svg>