<svg xmlns="http://www.w3.org/2000/svg" width="131.65" height="168.85" viewBox="0 0 131.64769 168.84768"><g transform="translate(-549.9-432.29)" fill="none" stroke-linejoin="round" stroke-linecap="round" stroke-width=".54" stroke-miterlimit="10"><g stroke="#000"><path d="m681.28 600.86h-122.25"/><path d="m578.08 509.66c0 1.409-1.141 2.55-2.55 2.55-1.407 0-2.55-1.142-2.55-2.55 0-1.409 1.143-2.55 2.55-2.55 1.409 0 2.55 1.142 2.55 2.55"/><path d="m567.13 600.86v-147.9"/><path d="m673.33 600.86v-147.9"/><path d="m673.33 452.96h-106.2"/><path d="m656.53 563.66v-93.9"/><path d="m583.93 563.66v-93.9"/><path d="m656.53 469.76h-72.6"/><path d="m681.28 446.81h-122.25"/><path d="m681.28 446.81v154.05"/><path d="m559.03 446.81v154.05"/><path d="m656.53 563.66h-72.6"/><path d="m673.33 580.46h-106.2"/><path d="m655.33 563.66v-93.9"/><path d="m585.13 563.66v-93.9"/><path d="m681.28 441.41h-122.25"/><path d="m681.28 432.56h-122.25"/><path d="m559.03 600.86v-154.05"/><path d="m550.18 446.81h8.85"/><path d="m550.18 441.41v5.4"/><path d="m559.03 441.41h-8.85"/><path d="m550.18 441.41h8.85"/><path d="m550.18 432.56v8.85"/><path d="m559.03 432.56h-8.85"/></g><g stroke="#888"><path d="m673.33 488.36h-2.4"/><path d="m667.18 488.36h-3.75"/><path d="m659.68 488.36h-3.75"/><path d="m652.18 488.36h-3.75"/><path d="m644.68 488.36h-3.75"/><path d="m637.18 488.36h-3.75"/><path d="m629.68 488.36h-3.75"/><path d="m622.18 488.36h-3.75"/><path d="m614.68 488.36h-3.75"/><path d="m607.18 488.36h-3.75"/><path d="m599.68 488.36h-3.75"/><path d="m592.18 488.36h-3.75"/><path d="m584.68 488.36h-3.75"/><path d="m577.18 488.36h-3.75"/><path d="m569.68 488.36h-2.55"/></g></g></svg>