<svg xmlns="http://www.w3.org/2000/svg" width="131.65" height="168.85" viewBox="0 0 131.64772 168.84768"><g transform="translate(-898.35-432.29)" fill="none" stroke-linejoin="round" stroke-linecap="round" stroke-width=".54" stroke-miterlimit="10"><g stroke="#000"><path d="m1020.88 600.86h-122.25"/><path d="m917.53 509.66c0 1.409-1.141 2.55-2.55 2.55-1.407 0-2.55-1.142-2.55-2.55 0-1.409 1.143-2.55 2.55-2.55 1.409 0 2.55 1.142 2.55 2.55"/><path d="m906.58 600.86v-147.9"/><path d="m1012.93 600.86v-147.9"/><path d="m1012.93 452.96h-106.35"/><path d="m996.13 563.66v-93.9"/><path d="m923.38 563.66v-93.9"/><path d="m996.13 469.76h-72.75"/><path d="m1020.88 446.81h-122.25"/><path d="m1020.88 446.81v154.05"/><path d="m898.63 446.81v154.05"/><path d="m996.13 563.66h-72.75"/><path d="m1012.93 580.46h-106.35"/><path d="m994.78 563.66v-93.9"/><path d="m924.73 563.66v-93.9"/><path d="m1020.88 441.41h-122.25"/><path d="m1020.88 432.56h-122.25"/><path d="m1020.88 600.86v-154.05"/><path d="m1029.73 446.81h-8.85"/><path d="m1029.73 441.41v5.4"/><path d="m1020.88 441.41h8.85"/><path d="m1029.73 441.41h-8.85"/><path d="m1029.73 432.56v8.85"/><path d="m1020.88 432.56h8.85"/></g><g stroke="#888"><path d="m1012.93 488.36h-2.55"/><path d="m1006.63 488.36h-3.75"/><path d="m999.13 488.36h-3.75"/><path d="m991.63 488.36h-3.75"/><path d="m984.13 488.36h-3.75"/><path d="m976.63 488.36h-3.75"/><path d="m969.13 488.36h-3.75"/><path d="m961.63 488.36h-3.75"/><path d="m954.13 488.36h-3.75"/><path d="m946.63 488.36h-3.75"/><path d="m939.13 488.36h-3.75"/><path d="m931.63 488.36h-3.75"/><path d="m924.13 488.36h-3.75"/><path d="m916.63 488.36h-3.75"/><path d="m909.13 488.36h-2.55"/></g></g></svg>