<svg xmlns="http://www.w3.org/2000/svg" width="131.65" height="168.85" viewBox="0 0 131.64769 168.84768"><g transform="translate(-370.5-432.29)" fill="none" stroke-linejoin="round" stroke-linecap="round" stroke-width=".54" stroke-miterlimit="10"><g stroke="#888"><path d="m378.73 488.36h2.55"/><path d="m385.03 488.36h3.75"/><path d="m392.53 488.36h3.75"/><path d="m400.03 488.36h3.75"/><path d="m407.53 488.36h3.75"/><path d="m415.03 488.36h3.75"/><path d="m422.53 488.36h3.75"/><path d="m430.03 488.36h3.75"/><path d="m437.53 488.36h3.75"/><path d="m445.03 488.36h3.75"/><path d="m452.53 488.36h3.75"/><path d="m460.03 488.36h3.75"/><path d="m467.53 488.36h3.75"/><path d="m475.03 488.36h3.75"/><path d="m482.53 488.36h2.55"/></g><g stroke="#000"><path d="m370.78 600.86h122.25"/><path d="m479.23 509.66c0 1.409-1.175 2.55-2.625 2.55-1.449 0-2.625-1.142-2.625-2.55 0-1.409 1.176-2.55 2.625-2.55 1.45 0 2.625 1.142 2.625 2.55"/><path d="m485.08 600.86v-147.9"/><path d="m378.73 600.86v-147.9"/><path d="m378.73 452.96h106.35"/><path d="m395.53 563.66v-93.9"/><path d="m468.13 563.66v-93.9"/><path d="m395.53 469.76h72.6"/><path d="m370.78 446.81h122.25"/><path d="m370.78 446.81v154.05"/><path d="m493.03 446.81v154.05"/><path d="m395.53 563.66h72.6"/><path d="m378.73 580.46h106.35"/><path d="m396.73 563.66v-93.9"/><path d="m466.93 563.66v-93.9"/><path d="m370.78 441.41h122.25"/><path d="m370.78 432.56h122.25"/><path d="m493.03 600.86v-154.05"/><path d="m501.88 446.81h-8.85"/><path d="m501.88 441.41v5.4"/><path d="m493.03 441.41h8.85"/><path d="m501.88 441.41h-8.85"/><path d="m501.88 432.56v8.85"/><path d="m493.03 432.56h8.85"/></g></g></svg>