<svg xmlns="http://www.w3.org/2000/svg" width="122.8" height="191.49" viewBox="0 0 122.79769 191.49275"><g transform="translate(-208.65-640.94)" fill="none" stroke-linejoin="round" stroke-linecap="round" stroke-width=".54" stroke-miterlimit="10"><g stroke="#000"><path d="m208.93 641.21v113.4h122.25v-113.4h-122.25z"/><path d="m216.88 754.61l77.7 77.55"/></g><g stroke="#888"><path d="m292.03 829.76l.45-.45"/><path d="m292.48 829.31l.45-.45"/><path d="m292.93 828.86l.45-.6"/><path d="m293.38 828.26l.45-.45"/><path d="m293.83 827.81l.45-.45"/><path d="m294.28 827.36l.3-.3"/><path d="m297.13 824.36l.3-.3"/><path d="m297.43 824.06l.3-.6"/><path d="m297.73 823.46l.45-.45"/><path d="m298.18 823.01l.45-.45"/><path d="m298.63 822.56l.45-.6"/><path d="m299.08 821.96l.45-.45"/><path d="m301.78 818.51l.15-.15"/><path d="m301.93 818.36l.3-.45"/><path d="m302.23 817.91l.45-.6"/><path d="m302.68 817.31l.3-.45"/><path d="m302.98 816.86l.45-.6"/><path d="m303.43 816.26l.3-.45"/><path d="m303.73 815.81l.3-.3"/><path d="m305.98 812.36l.3-.45"/><path d="m306.28 811.91l.45-.45"/><path d="m306.73 811.46l.3-.6"/><path d="m307.03 810.86l.3-.6"/><path d="m307.33 810.26l.45-.45"/><path d="m307.78 809.81l.3-.6"/><path d="m309.88 805.91l.15-.15"/><path d="m310.03 805.76l.3-.45"/><path d="m310.33 805.31l.3-.6"/><path d="m310.63 804.71l.3-.6"/><path d="m310.93 804.11l.3-.6"/><path d="m311.23 803.51l.3-.6"/><path d="m311.53 802.91l.15-.3"/><path d="m313.33 799.31l.15-.45"/><path d="m313.48 798.86l.3-.6"/><path d="m313.78 798.26l.3-.6"/><path d="m314.08 797.66l.3-.6"/><path d="m314.38 797.06l.15-.6"/><path d="m314.53 796.46l.3-.6"/><path d="m316.18 792.41l.15-.15"/><path d="m316.33 792.26l.15-.6"/><path d="m316.48 791.66l.3-.75"/><path d="m316.78 790.91l.15-.6"/><path d="m316.93 790.31l.3-.6"/><path d="m317.23 789.71l.15-.6"/><path d="m317.38 789.11l.15-.15"/><path d="m318.58 785.36l.15-.6"/><path d="m318.73 784.76l.3-.6"/><path d="m319.03 784.16l.15-.6"/><path d="m319.18 783.56l.15-.6"/><path d="m319.33 782.96l.15-.75"/><path d="m319.48 782.21l.15-.45"/><path d="m320.53 778.16v-.3"/><path d="m320.53 777.86l.15-.6"/><path d="m320.68 777.26l.15-.75"/><path d="m320.83 776.51l.15-.6"/><path d="m320.98 775.91l.15-.6"/><path d="m321.13 775.31l.15-.6"/><path d="m321.28 774.71v-.15"/><path d="m321.88 770.81l.15-.6"/><path d="m322.03 770.21l.15-.75"/><path d="m322.18 769.46v-.6"/><path d="m322.18 768.86l.15-.6"/><path d="m322.33 768.26v-.75"/><path d="m322.33 767.51l.15-.45"/><path d="m322.78 763.31v-.3"/><path d="m322.78 763.01l.15-.6"/><path d="m322.93 762.41v-.75"/><path d="m322.93 761.66v-.6"/><path d="m322.93 761.06l.15-.6"/><path d="m323.08 760.46v-.75"/><path d="m323.08 759.71v-.15"/><path d="m323.23 755.81v-.6"/><path d="m323.23 755.21v-.6"/></g><path d="m208.93 641.21h122.25" stroke="#000"/></g></svg>