<svg xmlns="http://www.w3.org/2000/svg" width="122.8" height="191.49" viewBox="0 0 122.79769 191.49275"><g transform="translate(-729.45-640.94)" fill="none" stroke-linejoin="round" stroke-linecap="round" stroke-width=".54" stroke-miterlimit="10"><g stroke="#000"><path d="m729.73 641.21v113.4h122.25v-113.4h-122.25z"/><path d="m844.03 754.61l-77.7 77.55"/></g><g stroke="#888"><path d="m737.68 754.61v.6"/><path d="m737.68 755.21v.6"/><path d="m737.68 755.81v.75"/><path d="m737.68 756.56l.15.6"/><path d="m737.83 757.16v.6"/><path d="m737.83 757.76v.6"/><path d="m737.98 762.11v.3"/><path d="m737.98 762.41l.15.6"/><path d="m738.13 763.01v.6"/><path d="m738.13 763.61v.75"/><path d="m738.13 764.36l.15.6"/><path d="m738.28 764.96v.6"/><path d="m738.28 765.56v.3"/><path d="m738.73 769.61l.15.6"/><path d="m738.88 770.21l.15.6"/><path d="m739.03 770.81v.6"/><path d="m739.03 771.41l.15.75"/><path d="m739.18 772.16l.15.6"/><path d="m739.33 772.76l.15.45"/><path d="m740.08 776.81l.15.45"/><path d="m740.23 777.26l.15.6"/><path d="m740.38 777.86l.15.6"/><path d="m740.53 778.46l.15.6"/><path d="m740.68 779.06l.15.75"/><path d="m740.83 779.81l.15.6"/><path d="m741.88 784.01v.15"/><path d="m741.88 784.16l.3.6"/><path d="m742.18 784.76l.15.6"/><path d="m742.33 785.36l.15.75"/><path d="m742.48 786.11l.15.6"/><path d="m742.63 786.71l.3.6"/><path d="m742.93 787.31v.3"/><path d="m744.28 791.06l.15.6"/><path d="m744.43 791.66l.15.6"/><path d="m744.58 792.26l.3.6"/><path d="m744.88 792.86l.15.6"/><path d="m745.03 793.46l.3.6"/><path d="m745.33 794.06l.3.45"/><path d="m746.98 797.96l.15.3"/><path d="m747.13 798.26l.3.6"/><path d="m747.43 798.86l.3.6"/><path d="m747.73 799.46l.15.6"/><path d="m747.88 800.06l.3.6"/><path d="m748.18 800.66l.3.45"/><path d="m748.48 801.11l.15.15"/><path d="m750.28 804.71l.3.6"/><path d="m750.58 805.31l.3.45"/><path d="m750.88 805.76l.3.6"/><path d="m751.18 806.36l.3.6"/><path d="m751.48 806.96l.45.6"/><path d="m751.93 807.56l.3.3"/><path d="m754.03 811.16l.15.3"/><path d="m754.18 811.46l.45.45"/><path d="m754.63 811.91l.3.6"/><path d="m754.93 812.51l.3.6"/><path d="m755.23 813.11l.45.45"/><path d="m755.68 813.56l.3.6"/><path d="m755.98 814.16l.15.15"/><path d="m758.23 817.31l.45.6"/><path d="m758.68 817.91l.3.45"/><path d="m758.98 818.36l.45.6"/><path d="m759.43 818.96l.45.45"/><path d="m759.88 819.41l.3.6"/><path d="m760.18 820.01l.3.3"/><path d="m762.88 823.16l.3.3"/><path d="m763.18 823.46l.3.6"/><path d="m763.48 824.06l.45.45"/><path d="m763.93 824.51l.45.45"/><path d="m764.38 824.96l.45.45"/><path d="m764.83 825.41l.45.6"/><path d="m767.83 828.71l.15.15"/><path d="m767.98 828.86l.45.45"/><path d="m768.43 829.31l.45.45"/></g><path d="m851.98 641.21h-122.25" stroke="#000"/></g></svg>