<svg xmlns="http://www.w3.org/2000/svg" height="160.29" viewBox="0 0 140.48999 160.29273" xmlns:xlink="http://www.w3.org/1999/xlink"><g transform="translate(-296.55-573.69)"><g fill="none" stroke-linejoin="round" stroke-linecap="round" stroke-width=".54" stroke-miterlimit="10"><path d="m304.77 687.36l46.35 46.35" stroke="#000"/><g stroke="#888"><path d="m348.72 731.16l.45-.6"/><path d="m349.17 730.56l.6-.45"/><path d="m349.77 730.11l.45-.6"/><path d="m350.22 729.51l.6-.6"/><path d="m350.82 728.91l.45-.45"/><path d="m353.52 725.61l.15-.15"/><path d="m353.67 725.46l.45-.6"/><path d="m354.12 724.86l.6-.6"/><path d="m354.72 724.26l.45-.6"/><path d="m355.17 723.66l.3-.6"/><path d="m355.47 723.06l.3-.45"/><path d="m357.87 719.46l.15-.3"/><path d="m358.02 719.16l.45-.6"/><path d="m358.47 718.56l.3-.75"/><path d="m358.77 717.81l.45-.6"/><path d="m359.22 717.21l.3-.6"/><path d="m359.52 716.61l.15-.45"/><path d="m361.32 712.86l.15-.45"/><path d="m361.47 712.41l.3-.6"/><path d="m361.77 711.81l.3-.75"/><path d="m362.07 711.06l.3-.75"/><path d="m362.37 710.31l.3-.75"/><path d="m362.67 709.56l.15-.15"/><path d="m364.02 705.81l.15-.45"/><path d="m364.17 705.36l.15-.75"/><path d="m364.32 704.61l.3-.75"/><path d="m364.62 703.86l.15-.75"/><path d="m364.77 703.11l.15-.75"/><path d="m364.92 702.36v-.15"/><path d="m365.82 698.61l.15-.75"/><path d="m365.97 697.86l.15-.75"/><path d="m366.12 697.11v-.75"/><path d="m366.12 696.36l.15-.75"/><path d="m366.27 695.61l.15-.75"/><path d="m366.72 691.11v-.75"/><path d="m366.72 690.36l.15-.75"/><path d="m366.87 689.61v-.75"/><path d="m366.87 688.86v-.75"/><path d="m366.87 688.11v-.75"/></g><path d="m428.82 687.36l-46.35 46.35" stroke="#000"/><g stroke="#888"><path d="m366.87 687.36v.75"/><path d="m366.87 688.11v.75"/><path d="m366.87 688.86v.75"/><path d="m366.87 689.61v.75"/><path d="m366.87 690.36v.75"/><path d="m367.17 694.86l.15.75"/><path d="m367.32 695.61l.15.75"/><path d="m367.47 696.36v.75"/><path d="m367.47 697.11l.15.75"/><path d="m367.62 697.86l.15.75"/><path d="m368.52 702.21v.15"/><path d="m368.52 702.36l.3.75"/><path d="m368.82 703.11l.15.75"/><path d="m368.97 703.86l.15.75"/><path d="m369.12 704.61l.3.75"/><path d="m369.42 705.36l.15.45"/><path d="m370.77 709.41l.15.3"/><path d="m370.92 709.71l.15.75"/><path d="m371.07 710.46l.3.6"/><path d="m371.37 711.06l.3.75"/><path d="m371.67 711.81l.3.75"/><path d="m371.97 712.56l.15.3"/><path d="m373.77 716.16l.3.45"/><path d="m374.07 716.61l.3.6"/><path d="m374.37 717.21l.45.75"/><path d="m374.82 717.96l.3.6"/><path d="m375.12 718.56l.45.75"/><path d="m375.57 719.31v.15"/><path d="m377.67 722.46l.45.6"/><path d="m378.12 723.06l.45.6"/><path d="m378.57 723.66l.45.6"/><path d="m379.02 724.26l.45.6"/><path d="m379.47 724.86l.45.6"/><path d="m382.32 728.31v.15"/><path d="m382.32 728.46l.6.45"/><path d="m382.92 728.91l.45.6"/><path d="m383.37 729.51l.6.6"/><path d="m383.97 730.11l.45.45"/><path d="m384.42 730.56l.45.45"/></g><path d="m296.82 573.96v113.4h139.95v-113.4h-139.95z" stroke="#000"/></g><path d="m366.87 513.21v-127.5" fill="none" stroke="#000" stroke-linejoin="round" stroke-linecap="round" stroke-width=".54" stroke-miterlimit="10" id="0"/><use xlink:href="#0"/><path d="m573.12 513.21v-127.5" fill="none" stroke="#000" stroke-linejoin="round" stroke-linecap="round" stroke-width=".54" stroke-miterlimit="10" id="1"/><use xlink:href="#1"/><path d="m156.72 513.21v-127.5" fill="none" stroke="#000" stroke-linejoin="round" stroke-linecap="round" stroke-width=".54" stroke-miterlimit="10" id="2"/><use xlink:href="#2"/></g></svg>