<svg xmlns="http://www.w3.org/2000/svg" width="128.05" height="381.4" viewBox="0 0 128.0477 381.39828"><g transform="translate(-94.93-216.24)" fill="none" stroke="#000" stroke-linejoin="round" stroke-linecap="round" stroke-width=".54" stroke-miterlimit="10"><path d="m95.2 597.36v-380.85"/><path d="m222.7 597.36v-380.85"/><path d="m214.75 576.96h-111.6"/><path d="m119.95 560.16h78"/><path d="m119.95 466.26h78"/><path d="m197.95 426.36h-78"/><path d="m119.95 241.26v185.1"/><path d="m119.95 466.26v93.9"/><path d="m197.95 560.16v-93.9"/><path d="m197.95 426.36v-185.1"/><path d="m222.7 216.51h-127.5"/><path d="m214.75 224.46h-111.6"/><path d="m197.95 241.26h-78"/><path d="m214.75 446.01v-221.55"/><path d="m214.75 597.36v-154.2"/><path d="m103.15 445.71v-221.25"/><path d="m103.15 597.36v-154.2"/><path d="m121 241.26v185.1"/><path d="m121 466.26v93.9"/><path d="m196.9 560.16v-93.9"/><path d="m196.9 426.36v-185.1"/><path d="m222.7 597.36h-127.5"/><path d="m114.1 381.06c0 1.409-1.141 2.55-2.55 2.55-1.407 0-2.55-1.142-2.55-2.55 0-1.409 1.143-2.55 2.55-2.55 1.409 0 2.55 1.142 2.55 2.55"/></g></svg>