<svg xmlns="http://www.w3.org/2000/svg" height="200.64" viewBox="0 0 128.03999 200.64273"><g transform="translate(-94.93-624.99)" fill="none" stroke-linejoin="round" stroke-linecap="round" stroke-width=".54" stroke-miterlimit="10"><g stroke="#888"><path d="m103.15 743.91v.75"/><path d="m103.15 744.66v.6"/><path d="m103.15 745.26v.75"/><path d="m103.15 746.01v.6"/><path d="m103.15 746.61v.75"/><path d="m103.15 747.36v.3"/><path d="m103.45 751.41v.75"/><path d="m103.45 752.16v.6"/><path d="m103.45 752.76l.15.75"/><path d="m103.6 753.51v.6"/><path d="m103.6 754.11v.75"/><path d="m103.6 754.86v.3"/><path d="m104.2 758.91v.75"/><path d="m104.2 759.66l.15.6"/><path d="m104.35 760.26l.15.75"/><path d="m104.5 761.01v.6"/><path d="m104.5 761.61l.15.75"/><path d="m104.65 762.36v.3"/><path d="m105.4 766.26v.15"/><path d="m105.4 766.41l.15.6"/><path d="m105.55 767.01l.15.75"/><path d="m105.7 767.76l.15.6"/><path d="m105.85 768.36l.15.75"/><path d="m106 769.11l.15.6"/><path d="m106.15 769.71v.15"/><path d="m107.2 773.46v.3"/><path d="m107.2 773.76l.15.6"/><path d="m107.35 774.36l.15.6"/><path d="m107.5 774.96l.3.75"/><path d="m107.8 775.71l.15.6"/><path d="m107.95 776.31l.15.6"/><path d="m108.1 776.91v.15"/><path d="m109.3 780.51l.15.3"/><path d="m109.45 780.81l.15.75"/><path d="m109.6 781.56l.3.6"/><path d="m109.9 782.16l.15.6"/><path d="m110.05 782.76l.3.75"/><path d="m110.35 783.51l.3.45"/><path d="m112 787.41l.15.45"/><path d="m112.15 787.86l.3.6"/><path d="m112.45 788.46l.3.75"/><path d="m112.75 789.21l.3.6"/><path d="m113.05 789.81l.15.6"/><path d="m113.2 790.41l.3.45"/><path d="m115 794.31l.3.45"/><path d="m115.3 794.76l.3.6"/><path d="m115.6 795.36l.45.6"/><path d="m116.05 795.96l.3.6"/><path d="m116.35 796.56l.3.6"/><path d="m116.65 797.16l.15.45"/><path d="m118.6 800.91l.45.45"/><path d="m119.05 801.36l.3.6"/><path d="m119.35 801.96l.3.45"/><path d="m119.65 802.41l.45.6"/><path d="m120.1 803.01l.3.6"/><path d="m120.4 803.61l.3.45"/><path d="m122.8 807.21l.3.45"/><path d="m123.1 807.66l.45.6"/><path d="m123.55 808.26l.3.45"/><path d="m123.85 808.71l.45.6"/><path d="m124.3 809.31l.45.6"/><path d="m124.75 809.91l.3.3"/><path d="m127.3 813.21l.3.45"/><path d="m127.6 813.66l.45.6"/><path d="m128.05 814.26l.45.45"/><path d="m128.5 814.71l.45.6"/><path d="m128.95 815.31l.45.45"/><path d="m129.4 815.76l.3.3"/><path d="m132.1 818.91l.45.45"/><path d="m132.55 819.36l.45.6"/><path d="m133 819.96l.45.45"/><path d="m133.45 820.41l.45.45"/><path d="m133.9 820.86l.45.45"/><path d="m134.35 821.31l.3.3"/></g><g stroke="#000"><path d="m95.2 625.26v118.65h127.5v-118.65h-127.5z"/><path d="m214.75 743.91l-81.45 81.45"/></g></g></svg>