<svg xmlns="http://www.w3.org/2000/svg" height="196.89" viewBox="0 0 122.79 196.89273"><g transform="translate(-114.73-638.29)" fill="none" stroke-linejoin="round" stroke-linecap="round" stroke-width=".54" stroke-miterlimit="10"><g stroke="#000"><path d="m115 638.56v118.65h122.25v-118.65h-122.25z"/><path d="m229.3 757.21l-77.7 77.7"/><path d="m229.3 757.21l-95.25 54.9"/></g><g stroke="#888"><path d="m122.95 757.21v.6"/><path d="m122.95 757.81v.75"/><path d="m122.95 758.56v.6"/><path d="m122.95 759.16v.75"/><path d="m122.95 759.91v.6"/><path d="m122.95 760.51v.45"/><path d="m123.1 764.71l.15.3"/><path d="m123.25 765.01v.75"/><path d="m123.25 765.76v.6"/><path d="m123.25 766.36l.15.6"/><path d="m123.4 766.96v.75"/><path d="m123.4 767.71l.15.6"/><path d="m123.55 768.31v.15"/><path d="m124 772.21l.15.6"/><path d="m124.15 772.81v.6"/><path d="m124.15 773.41l.15.75"/><path d="m124.3 774.16l.15.6"/><path d="m124.45 774.76v.6"/><path d="m124.45 775.36l.15.6"/><path d="m125.35 779.56v.3"/><path d="m125.35 779.86l.15.6"/><path d="m125.5 780.46l.15.75"/><path d="m125.65 781.21l.15.6"/><path d="m125.8 781.81l.15.6"/><path d="m125.95 782.41l.15.6"/><path d="m126.1 783.01v.15"/><path d="m127.15 786.76l.15.75"/><path d="m127.3 787.51l.15.6"/><path d="m127.45 788.11l.3.6"/><path d="m127.75 788.71l.15.6"/><path d="m127.9 789.31l.15.6"/><path d="m128.05 789.91l.15.45"/><path d="m129.4 793.81l.15.45"/><path d="m129.55 794.26l.3.6"/><path d="m129.85 794.86l.15.6"/><path d="m130 795.46l.3.6"/><path d="m130.3 796.06l.3.6"/><path d="m130.6 796.66l.15.6"/><path d="m132.25 800.71v.15"/><path d="m132.25 800.86l.3.6"/><path d="m132.55 801.46l.3.6"/><path d="m132.85 802.06l.3.6"/><path d="m133.15 802.66l.3.6"/><path d="m133.45 803.26l.3.6"/><path d="m133.75 803.86l.15.15"/><path d="m135.55 807.31l.3.6"/><path d="m135.85 807.91l.3.6"/><path d="m136.15 808.51l.3.6"/><path d="m136.45 809.11l.3.45"/><path d="m136.75 809.56l.3.6"/><path d="m137.05 810.16l.3.45"/><path d="m139.15 813.76l.3.3"/><path d="m139.45 814.06l.3.6"/><path d="m139.75 814.66l.3.6"/><path d="m140.05 815.26l.45.45"/><path d="m140.5 815.71l.3.6"/><path d="m140.8 816.31l.45.45"/><path d="m143.35 819.91l.15.15"/><path d="m143.5 820.06l.3.45"/><path d="m143.8 820.51l.45.6"/><path d="m144.25 821.11l.45.45"/><path d="m144.7 821.56l.3.6"/><path d="m145 822.16l.45.45"/><path d="m145.45 822.61l.15.3"/><path d="m148 825.76l.3.45"/><path d="m148.3 826.21l.45.45"/><path d="m148.75 826.66l.45.45"/><path d="m149.2 827.11l.45.6"/><path d="m149.65 827.71l.45.45"/><path d="m150.1 828.16l.3.45"/><path d="m152.95 831.31l.15.15"/><path d="m153.1 831.46l.45.45"/><path d="m153.55 831.91l.45.45"/></g></g></svg>