<svg xmlns="http://www.w3.org/2000/svg" width="122.8" height="381.4" viewBox="0 0 122.79769 381.39828"><g transform="translate(-114.73-229.54)" fill="none" stroke="#000" stroke-linejoin="round" stroke-linecap="round" stroke-width=".54" stroke-miterlimit="10"><path d="m115 610.66v-380.85"/><path d="m237.25 610.66v-380.85"/><path d="m122.95 456.46h106.35"/><path d="m229.3 590.26h-106.35"/><path d="m139.75 573.46h72.6"/><path d="m139.75 479.56h72.6"/><path d="m212.35 439.66h-72.6"/><path d="m139.75 254.56v185.1"/><path d="m139.75 479.56v93.9"/><path d="m212.35 573.46v-93.9"/><path d="m212.35 439.66v-185.1"/><path d="m237.25 229.81h-122.25"/><path d="m229.3 237.76h-106.35"/><path d="m212.35 254.56h-72.6"/><path d="m122.95 462.76h106.35"/><path d="m229.3 459.31v-221.55"/><path d="m229.3 610.66v-154.2"/><path d="m122.95 459.01v-221.25"/><path d="m122.95 610.66v-154.2"/><path d="m140.8 254.56v185.1"/><path d="m140.8 479.56v93.9"/><path d="m211.3 573.46v-93.9"/><path d="m211.3 439.66v-185.1"/><path d="m237.25 610.66h-122.25"/><path d="m133.9 359.26c0 1.409-1.142 2.55-2.55 2.55-1.407 0-2.55-1.142-2.55-2.55 0-1.409 1.143-2.55 2.55-2.55 1.409 0 2.55 1.142 2.55 2.55"/><path d="m133.9 519.46c0 1.409-1.142 2.55-2.55 2.55-1.407 0-2.55-1.141-2.55-2.55 0-1.409 1.143-2.55 2.55-2.55 1.409 0 2.55 1.141 2.55 2.55"/></g></svg>