<svg xmlns="http://www.w3.org/2000/svg" height="89.94" viewBox="0 0 78.540001 89.941934"><g transform="translate(-177.88-511.79)" fill="none" stroke="#888" stroke-linejoin="round" stroke-linecap="round" stroke-width=".54" stroke-miterlimit="10"><path d="m186.1 568.76l56.85 32.7"/><path d="m239.8 599.81l.3-.45"/><path d="m240.1 599.36l.3-.45"/><path d="m240.4 598.91l.15-.45"/><path d="m240.55 598.46l.3-.45"/><path d="m240.85 598.01l.3-.45"/><path d="m241.15 597.56l.15-.45"/><path d="m241.3 597.11l.3-.45"/><path d="m241.6 596.66v-.15"/><path d="m243.25 593.06v-.15"/><path d="m243.25 592.91l.15-.45"/><path d="m243.4 592.46l.3-.45"/><path d="m243.7 592.01l.15-.45"/><path d="m243.85 591.56l.15-.45"/><path d="m244 591.11l.15-.6"/><path d="m244.15 590.51l.15-.45"/><path d="m244.3 590.06l.3-.45"/><path d="m245.65 586.01l.15-.3"/><path d="m245.8 585.71l.15-.45"/><path d="m245.95 585.26l.15-.45"/><path d="m246.1 584.81l.15-.45"/><path d="m246.25 584.36v-.6"/><path d="m246.25 583.76l.15-.45"/><path d="m246.4 583.31l.15-.45"/><path d="m246.55 582.86l.15-.45"/><path d="m247.3 578.81l.15-.45"/><path d="m247.45 578.36v-.6"/><path d="m247.45 577.76l.15-.45"/><path d="m247.6 577.31v-.45"/><path d="m247.6 576.86l.15-.6"/><path d="m247.75 576.26v-.45"/><path d="m247.75 575.81v-.45"/><path d="m247.75 575.36v-.3"/><path d="m248.05 571.31l.15-.6"/><path d="m248.2 570.71v-.45"/><path d="m248.2 570.26v-.45"/><path d="m248.2 569.81v-.6"/><path d="m248.2 569.21v-.45"/><path d="m178.15 512.06v56.7h78v-56.7h-78z"/></g></svg>