<svg xmlns="http://www.w3.org/2000/svg" width="78.55" height="133.45" viewBox="0 0 78.547691 133.44769"><g transform="translate(-177.87-297.28)" fill="none" stroke-linejoin="round" stroke-linecap="round" stroke-width=".54" stroke-miterlimit="10"><g stroke="#888"><path d="m205.75 369.71l21 21"/><path d="m207.55 336.71l21 20.85"/><path d="m197.65 380.36h6.3"/><path d="m207.7 380.36h18.75"/><path d="m230.2 380.36h6.45"/><path d="m197.65 382.91h6.3"/><path d="m207.7 382.91h18.75"/><path d="m230.2 382.91h6.45"/><path d="m197.65 341.66h6.3"/><path d="m207.7 341.66h18.75"/><path d="m230.2 341.66h6.45"/><path d="m197.65 344.21h6.3"/><path d="m207.7 344.21h18.75"/><path d="m230.2 344.21h6.45"/></g><g stroke="#000"><path d="m197.65 319.76h39"/><path d="m178.15 430.46h78"/><path d="m178.15 297.56h78"/><path d="m178.15 430.46v-132.9"/><path d="m248.2 418.91v-113.25"/><path d="m186.1 418.91v-113.25"/><path d="m186.1 305.66h62.1"/><path d="m186.1 418.91h62.1"/><path d="m256.15 430.46v-132.9"/><path d="m197.65 404.81h39"/><path d="m197.65 404.81v-85.05"/><path d="m236.65 404.81v-85.05"/></g><path d="m203.35 327.11l29.4 29.25" stroke="#888"/><path d="m244.9 368.58c0 1.449-1.142 2.625-2.55 2.625-1.407 0-2.55-1.176-2.55-2.625 0-1.45 1.143-2.625 2.55-2.625 1.409 0 2.55 1.175 2.55 2.625" stroke="#000"/></g></svg>