<svg xmlns="http://www.w3.org/2000/svg" width="142.15" height="168.84" viewBox="0 0 142.14769 168.84388"><g transform="translate(-148.38-414.12)" fill="none" stroke="#000" stroke-linejoin="round" stroke-linecap="round" stroke-width=".54" stroke-miterlimit="10"><path d="m156.61 582.69v-108.9"/><path d="m173.41 545.49v-54.9"/><path d="m202.66 545.49v-54.9"/><path d="m148.66 467.64v115.05"/><path d="m290.26 467.64v115.05"/><path d="m213.61 513.09c0 1.409-1.142 2.55-2.55 2.55-1.407 0-2.55-1.141-2.55-2.55 0-1.409 1.143-2.55 2.55-2.55 1.409 0 2.55 1.142 2.55 2.55"/><path d="m290.26 461.34v-32.7"/><path d="m148.66 461.34v-32.7"/><path d="m148.66 461.34c0 1.099.25 2.149.75 3.15.6.9 1.35 1.65 2.25 2.25 1 .6 2.05.9 3.15.9"/><path d="m284.11 467.64c1.101 0 2.151-.3 3.15-.9.9-.6 1.65-1.35 2.25-2.25.501-1 .75-2.05.75-3.15"/><path d="m156.61 562.29h125.7"/><path d="m173.41 545.49h29.25"/><path d="m290.26 582.69h-141.6"/><path d="m290.26 428.64h-141.6"/><path d="m290.26 467.64h-141.6"/><path d="m282.31 473.79h-125.7"/><path d="m202.66 490.59h-29.25"/><path d="m282.31 473.79v108.9"/><path d="m219.46 562.29v-88.5"/><path d="m236.26 545.49v-54.9"/><path d="m265.51 545.49v-54.9"/><path d="m236.26 545.49h29.25"/><path d="m265.51 490.59h-29.25"/><path d="m230.41 513.09c0 1.409-1.142 2.55-2.55 2.55-1.407 0-2.55-1.141-2.55-2.55 0-1.409 1.143-2.55 2.55-2.55 1.409 0 2.55 1.142 2.55 2.55"/><path d="m201.31 545.49v-54.9"/><path d="m264.31 545.49v-54.9"/><path d="m174.61 545.49v-54.9"/><path d="m237.46 545.49v-54.9"/><path d="m290.26 423.24h-141.6"/><path d="m290.26 414.39h-141.6"/><path d="m153.01 428.64v-5.4"/><path d="m285.91 428.64v-5.4"/></g></svg>