<svg xmlns="http://www.w3.org/2000/svg" width="142.15" height="147.09" viewBox="0 0 142.14769 147.09194"><g transform="translate(-148.38-623.52)" fill="none" stroke-linejoin="round" stroke-linecap="round" stroke-width=".54" stroke-miterlimit="10"><g stroke="#000"><path d="m148.66 623.79v113.4h141.6v-113.4h-141.6z"/><path d="m156.61 737.19l57.45 33.15"/></g><g stroke="#888"><path d="m211.06 768.54l.15-.3"/><path d="m211.21 768.24l.3-.45"/><path d="m211.51 767.79l.3-.45"/><path d="m211.81 767.34l.15-.6"/><path d="m211.96 766.74l.3-.45"/><path d="m212.26 766.29l.3-.45"/><path d="m212.56 765.84l.15-.45"/><path d="m212.71 765.39l.15-.15"/><path d="m214.36 761.79l.15-.15"/><path d="m214.51 761.64l.15-.45"/><path d="m214.66 761.19l.15-.45"/><path d="m214.81 760.74l.3-.45"/><path d="m215.11 760.29l.15-.45"/><path d="m215.26 759.84l.15-.45"/><path d="m215.41 759.39l.15-.6"/><path d="m215.56 758.79l.15-.45"/><path d="m216.91 754.89l.15-.45"/><path d="m217.06 754.44l.15-.45"/><path d="m217.21 753.99l.15-.6"/><path d="m217.36 753.39l.15-.45"/><path d="m217.51 752.94v-.45"/><path d="m217.51 752.49l.15-.6"/><path d="m217.66 751.89l.15-.45"/><path d="m217.81 751.44v-.15"/><path d="m218.56 747.69v-.3"/><path d="m218.56 747.39l.15-.45"/><path d="m218.71 746.94v-.6"/><path d="m218.71 746.34l.15-.45"/><path d="m218.86 745.89v-.45"/><path d="m218.86 745.44l.15-.6"/><path d="m219.01 744.84v-.45"/><path d="m219.01 744.39l.15-.3"/><path d="m219.31 740.34v-.15"/><path d="m219.31 740.19l.15-.45"/><path d="m219.46 739.74v-.45"/><path d="m219.46 739.29v-.6"/><path d="m219.46 738.69v-.45"/><path d="m219.46 738.24v-.6"/><path d="m219.46 737.64v-.45"/></g><path d="m282.31 737.19l-57.45 33.15" stroke="#000"/><g stroke="#888"><path d="m219.46 737.19v.45"/><path d="m219.46 737.64v.6"/><path d="m219.46 738.24v.45"/><path d="m219.46 738.69v.6"/><path d="m219.46 739.29v.45"/><path d="m219.46 739.74v.45"/><path d="m219.46 740.19l.15.6"/><path d="m219.61 740.79v.15"/><path d="m219.91 744.69v.15"/><path d="m219.91 744.84l.15.6"/><path d="m220.06 745.44v.45"/><path d="m220.06 745.89l.15.45"/><path d="m220.21 746.34v.6"/><path d="m220.21 746.94l.15.45"/><path d="m220.36 747.39v.6"/><path d="m220.36 747.99l.15.3"/><path d="m221.26 751.89l.15.6"/><path d="m221.41 752.49v.45"/><path d="m221.41 752.94l.15.45"/><path d="m221.56 753.39l.15.6"/><path d="m221.71 753.99l.15.45"/><path d="m221.86 754.44l.15.45"/><path d="m222.01 754.89l.15.6"/><path d="m223.36 758.94l.15.45"/><path d="m223.51 759.39l.15.45"/><path d="m223.66 759.84l.15.45"/><path d="m223.81 760.29l.3.45"/><path d="m224.11 760.74l.15.45"/><path d="m224.26 761.19l.15.45"/><path d="m224.41 761.64l.3.6"/><path d="m224.71 762.24v.15"/><path d="m226.36 765.69v.15"/><path d="m226.36 765.84l.3.45"/><path d="m226.66 766.29l.15.45"/><path d="m226.81 766.74l.3.6"/><path d="m227.11 767.34l.3.45"/><path d="m227.41 767.79l.15.45"/><path d="m227.56 768.24l.3.3"/></g><g stroke="#000"><path d="m285.91 739.89v-80.7"/><path d="m153.01 739.89v-80.7"/><path d="m286.06 740.64h-133.2"/><path d="m285.91 737.19h-62.85"/><path d="m215.86 737.19h-62.85"/><path d="m285.91 739.89c0 .672.27 1.32.75 1.8.481.48 1.182.75 1.95.75"/><path d="m150.31 742.44c.769 0 1.47-.27 1.95-.75.482-.48.75-1.128.75-1.8"/><path d="m283.21 656.49h-127.5"/><path d="m285.91 659.19c0-.672-.269-1.32-.75-1.8-.48-.576-1.18-.9-1.95-.9"/><path d="m155.71 656.49c-.768 0-1.469.324-1.95.9-.48.48-.75 1.128-.75 1.8"/><path d="m229.36 674.34h21.3"/><path d="m221.26 735.39v-61.05"/><path d="m217.66 735.39v-61.05"/><path d="m221.26 735.39c0 .48.163.912.45 1.2.386.384.87.6 1.35.6"/><path d="m215.86 737.19c.482 0 .968-.216 1.35-.6.29-.288.45-.72.45-1.2"/><path d="m240.31 684.39v-20.25"/><path d="m248.26 674.26c0 4.433-3.558 8.02-7.95 8.02-4.391 0-7.95-3.592-7.95-8.02 0-4.433 3.56-8.02 7.95-8.02 4.392 0 7.95 3.592 7.95 8.02"/><path d="m233.26 656.49c-3.519 1.466-6.549 3.921-8.7 7.05-2.149 3.129-3.3 6.889-3.3 10.8"/><path d="m217.66 674.34c0-3.91-1.149-7.671-3.3-10.8-2.149-3.129-5.179-5.585-8.7-7.05"/><path d="m209.56 674.34h-21.3"/><path d="m198.61 684.39v-20.25"/><path d="m206.56 674.26c0 4.433-3.558 8.02-7.95 8.02-4.391 0-7.95-3.592-7.95-8.02 0-4.433 3.559-8.02 7.95-8.02 4.392 0 7.95 3.592 7.95 8.02"/><path d="m150.31 742.44h-1.65"/><path d="m288.61 742.44h1.65"/></g></g></svg>