<svg xmlns="http://www.w3.org/2000/svg" width="122.8" height="168.84" viewBox="0 0 122.79769 168.84387"><g transform="translate(-173.96-318.83)" fill="none" stroke="#000" stroke-linejoin="round" stroke-linecap="round" stroke-width=".54" stroke-miterlimit="10"><path d="m174.24 487.4h122.25"/><path d="m288.54 487.4v-147.9"/><path d="m182.34 487.4v-147.9"/><path d="m182.34 339.5h106.2"/><path d="m199.14 450.2v-93.9"/><path d="m271.74 450.2v-93.9"/><path d="m199.14 356.3h72.6"/><path d="m174.24 333.2h122.25"/><path d="m174.24 333.2v154.2"/><path d="m296.49 333.2v154.2"/><path d="m199.14 450.2h72.6"/><path d="m182.34 467h106.2"/><path d="m282.69 396.12c0 1.45-1.142 2.625-2.55 2.625-1.409 0-2.55-1.175-2.55-2.625 0-1.45 1.142-2.625 2.55-2.625 1.409 0 2.55 1.175 2.55 2.625"/><path d="m200.34 450.2v-93.9"/><path d="m270.54 450.2v-93.9"/><path d="m174.24 327.95h122.25"/><path d="m174.24 319.1h122.25"/></g></svg>