<svg xmlns="http://www.w3.org/2000/svg" width="131.65" height="168.85" viewBox="0 0 131.64769 168.84768"><g transform="translate(-319.61-318.82)" fill="none" stroke="#000" stroke-linejoin="round" stroke-linecap="round" stroke-width=".54" stroke-miterlimit="10"><path d="m319.89 487.4h122.25"/><path d="m434.19 487.4v-147.9"/><path d="m327.84 487.4v-147.9"/><path d="m327.84 339.5h106.35"/><path d="m344.64 450.2v-93.9"/><path d="m417.39 450.2v-93.9"/><path d="m344.64 356.3h72.75"/><path d="m319.89 333.2h122.25"/><path d="m319.89 333.2v154.2"/><path d="m442.14 333.2v154.2"/><path d="m344.64 450.2h72.75"/><path d="m327.84 467h106.35"/><path d="m428.34 396.12c0 1.45-1.142 2.625-2.55 2.625-1.409 0-2.55-1.175-2.55-2.625 0-1.45 1.142-2.625 2.55-2.625 1.409 0 2.55 1.175 2.55 2.625"/><path d="m345.99 450.2v-93.9"/><path d="m416.04 450.2v-93.9"/><path d="m319.89 327.95h122.25"/><path d="m319.89 319.1h122.25"/><path d="m450.99 333.2h-8.85"/><path d="m450.99 327.95v5.25"/><path d="m442.14 327.95h8.85"/><path d="m450.99 327.95h-8.85"/><path d="m450.99 319.1v8.85"/><path d="m442.14 319.1h8.85"/></g></svg>