<svg xmlns="http://www.w3.org/2000/svg" width="122.8" height="191.64" viewBox="0 0 122.79769 191.64276"><g transform="translate(-173.96-515.18)" fill="none" stroke-linejoin="round" stroke-linecap="round" stroke-width=".54" stroke-miterlimit="10"><g stroke="#000"><path d="m182.34 628.85l1.35-1.35"/><path d="m186.39 624.8l2.7-2.7"/><path d="m191.64 619.55l2.7-2.7"/><path d="m197.04 614.15l2.55-2.55"/><path d="m202.29 608.9l2.7-2.7"/><path d="m207.54 603.65l2.7-2.7"/><path d="m212.94 598.25l2.55-2.55"/><path d="m218.19 593l2.7-2.7"/><path d="m223.44 587.75l2.7-2.7"/><path d="m228.84 582.35l2.55-2.55"/><path d="m234.09 577.1l2.7-2.7"/><path d="m239.34 571.85l2.7-2.7"/><path d="m244.74 566.45l2.55-2.55"/><path d="m249.99 561.2l2.7-2.7"/><path d="m255.24 555.95l2.7-2.7"/><path d="m260.64 550.55l2.7-2.7"/><path d="m265.89 545.3l2.7-2.7"/><path d="m271.29 539.9l2.55-2.55"/><path d="m276.54 534.65l2.7-2.7"/><path d="m281.79 529.4l2.7-2.7"/><path d="m287.19 524l1.35-1.35"/><path d="m182.34 522.65l1.35 1.35"/><path d="m186.39 526.7l2.7 2.7"/><path d="m191.64 531.95l2.7 2.7"/><path d="m197.04 537.35l2.55 2.55"/><path d="m202.29 542.6l2.7 2.7"/><path d="m207.54 547.85l2.7 2.7"/><path d="m212.94 553.25l2.55 2.55"/><path d="m218.19 558.5l2.7 2.7"/><path d="m223.44 563.75l2.7 2.7"/><path d="m228.84 569.15l2.55 2.55"/><path d="m234.09 574.4l2.7 2.7"/><path d="m239.34 579.65l2.7 2.7"/><path d="m244.74 585.05l2.55 2.55"/><path d="m249.99 590.3l2.7 2.7"/><path d="m255.24 595.55l2.7 2.7"/><path d="m260.64 600.95l2.7 2.7"/><path d="m265.89 606.2l2.7 2.7"/><path d="m271.29 611.6l2.55 2.55"/><path d="m276.54 616.85l2.7 2.7"/><path d="m281.79 622.1l2.7 2.7"/><path d="m287.19 627.5l1.35 1.35"/><path d="m174.24 515.45h122.25"/><path d="m182.34 628.85l77.55 77.7"/></g><g stroke="#888"><path d="m257.49 704l.45-.45"/><path d="m257.94 703.55l.45-.45"/><path d="m258.39 703.1l.45-.45"/><path d="m258.84 702.65l.45-.45"/><path d="m259.29 702.2l.45-.45"/><path d="m259.74 701.75l.45-.45"/><path d="m262.59 698.45l.15-.15"/><path d="m262.74 698.3l.45-.45"/><path d="m263.19 697.85l.45-.6"/><path d="m263.64 697.25l.45-.45"/><path d="m264.09 696.8l.3-.45"/><path d="m264.39 696.35l.45-.6"/><path d="m264.84 695.75l.15-.15"/><path d="m267.39 692.6l.3-.45"/><path d="m267.69 692.15l.3-.45"/><path d="m267.99 691.7l.45-.6"/><path d="m268.44 691.1l.3-.45"/><path d="m268.74 690.65l.45-.6"/><path d="m269.19 690.05l.3-.45"/><path d="m271.59 686.6l.15-.3"/><path d="m271.74 686.3l.3-.6"/><path d="m272.04 685.7l.45-.45"/><path d="m272.49 685.25l.3-.6"/><path d="m272.79 684.65l.3-.6"/><path d="m273.09 684.05l.3-.45"/><path d="m273.39 683.6l.15-.15"/><path d="m275.34 680.15l.45-.6"/><path d="m275.79 679.55l.3-.6"/><path d="m276.09 678.95l.3-.6"/><path d="m276.39 678.35l.3-.45"/><path d="m276.69 677.9l.3-.6"/><path d="m276.99 677.3l.15-.45"/><path d="m278.79 673.55l.15-.45"/><path d="m278.94 673.1l.3-.6"/><path d="m279.24 672.5l.15-.6"/><path d="m279.39 671.9l.3-.6"/><path d="m279.69 671.3l.3-.6"/><path d="m279.99 670.7l.3-.6"/><path d="m281.64 666.65v-.15"/><path d="m281.64 666.5l.3-.6"/><path d="m281.94 665.9l.15-.6"/><path d="m282.09 665.3l.3-.6"/><path d="m282.39 664.7l.15-.6"/><path d="m282.54 664.1l.3-.6"/><path d="m282.84 663.5l.15-.3"/><path d="m284.04 659.6l.15-.45"/><path d="m284.19 659.15l.15-.6"/><path d="m284.34 658.55l.15-.75"/><path d="m284.49 657.8l.3-.6"/><path d="m284.79 657.2l.15-.6"/><path d="m284.94 656.6l.15-.6"/><path d="m285.99 652.4v-.3"/><path d="m285.99 652.1l.15-.6"/><path d="m286.14 651.5l.15-.6"/><path d="m286.29 650.9l.15-.6"/><path d="m286.44 650.3l.15-.75"/><path d="m286.59 649.55v-.6"/><path d="m286.59 648.95v-.15"/><path d="m287.34 645.2l.15-.75"/><path d="m287.49 644.45v-.6"/><path d="m287.49 643.85l.15-.6"/><path d="m287.64 643.25v-.75"/><path d="m287.64 642.5l.15-.6"/><path d="m287.79 641.9v-.45"/><path d="m288.24 637.7v-.3"/><path d="m288.24 637.4v-.75"/><path d="m288.24 636.65l.15-.6"/><path d="m288.39 636.05v-.6"/><path d="m288.39 635.45v-.75"/><path d="m288.39 634.7v-.6"/><path d="m288.39 634.1v-.15"/><path d="m288.54 630.2v-.6"/><path d="m288.54 629.6v-.75"/></g><g stroke="#000"><path d="m182.34 628.85v-2.4"/><path d="m182.34 622.7v-3.75"/><path d="m182.34 615.2v-3.75"/><path d="m182.34 607.7v-3.75"/><path d="m182.34 600.2v-3.75"/><path d="m182.34 592.7v-3.75"/><path d="m182.34 585.2v-3.75"/><path d="m182.34 577.7v-3.75"/><path d="m182.34 570.2v-3.75"/><path d="m182.34 562.7v-3.75"/><path d="m182.34 555.2v-3.75"/><path d="m182.34 547.7v-3.75"/><path d="m182.34 540.2v-3.75"/><path d="m182.34 532.7v-3.75"/><path d="m182.34 525.2v-2.55"/><path d="m288.54 522.65v2.4"/><path d="m288.54 528.8v3.75"/><path d="m288.54 536.3v3.75"/><path d="m288.54 543.8v3.75"/><path d="m288.54 551.3v3.75"/><path d="m288.54 558.8v3.75"/><path d="m288.54 566.3v3.75"/><path d="m288.54 573.8v3.75"/><path d="m288.54 581.3v3.75"/><path d="m288.54 588.8v3.75"/><path d="m288.54 596.3v3.75"/><path d="m288.54 603.8v3.75"/><path d="m288.54 611.3v3.75"/><path d="m288.54 618.8v3.75"/><path d="m288.54 626.3v2.55"/><path d="m182.34 522.65h2.4"/><path d="m188.49 522.65h3.75"/><path d="m195.99 522.65h3.75"/><path d="m203.49 522.65h3.75"/><path d="m210.99 522.65h3.75"/><path d="m218.49 522.65h3.75"/><path d="m225.99 522.65h3.75"/><path d="m233.49 522.65h3.75"/><path d="m240.99 522.65h3.75"/><path d="m248.49 522.65h3.75"/><path d="m255.99 522.65h3.75"/><path d="m263.49 522.65h3.75"/><path d="m270.99 522.65h3.75"/><path d="m278.49 522.65h3.75"/><path d="m285.99 522.65h2.55"/><path d="m296.49 628.85v-113.4h-122.25v113.4h122.25"/></g></g></svg>