<svg xmlns="http://www.w3.org/2000/svg" width="122.8" height="168.84" viewBox="0 0 122.79769 168.84387"><g transform="translate(-766.61-318.83)" fill="none" stroke="#000" stroke-linejoin="round" stroke-linecap="round" stroke-width=".54" stroke-miterlimit="10"><path d="m766.89 487.4h122.25"/><path d="m881.19 487.4v-147.9"/><path d="m774.84 487.4v-147.9"/><path d="m774.84 339.5h106.35"/><path d="m791.79 450.2v-93.9"/><path d="m864.39 450.2v-93.9"/><path d="m791.79 356.3h72.6"/><path d="m766.89 333.2h122.25"/><path d="m766.89 333.2v154.2"/><path d="m889.14 333.2v154.2"/><path d="m791.79 450.2h72.6"/><path d="m774.84 467h106.35"/><path d="m785.94 396.12c0 1.45-1.174 2.625-2.625 2.625-1.451 0-2.625-1.175-2.625-2.625 0-1.45 1.174-2.625 2.625-2.625 1.451 0 2.625 1.175 2.625 2.625"/><path d="m792.99 450.2v-93.9"/><path d="m863.19 450.2v-93.9"/><path d="m766.89 327.95h122.25"/><path d="m766.89 319.1h122.25"/></g></svg>