<svg xmlns="http://www.w3.org/2000/svg" width="122.8" height="170.64" viewBox="0 0 122.79769 170.64386"><g transform="translate(-470.06-843.83)" fill="none" stroke="#000" stroke-linejoin="round" stroke-linecap="round" stroke-width=".54" stroke-miterlimit="10"><path d="m478.29 1014.2v-3.75"/><path d="m478.29 1006.7v-3.75"/><path d="m478.29 999.2v-3.75"/><path d="m478.29 991.7v-3.75"/><path d="m478.29 984.2v-3.75"/><path d="m478.29 976.7v-3.75"/><path d="m478.29 969.2v-3.75"/><path d="m478.29 961.7v-3.75"/><path d="m478.29 957.8v-.3"/><path d="m588.24 1010.6h-2.25"/><path d="m582.24 1010.6h-3.75"/><path d="m574.74 1010.6h-3.75"/><path d="m567.24 1010.6h-3.75"/><path d="m559.74 1010.6h-3.75"/><path d="m552.24 1010.6h-3.75"/><path d="m544.74 1010.6h-3.75"/><path d="m537.24 1010.6h-3.75"/><path d="m529.74 1010.6h-3.75"/><path d="m522.24 1010.6h-3.75"/><path d="m514.74 1010.6h-3.75"/><path d="m507.24 1010.6h-3.75"/><path d="m499.74 1010.6h-3.75"/><path d="m492.24 1010.6h-3.75"/><path d="m484.74 1010.6h-3.75"/><path d="m477.24 1010.6h-2.4"/><path d="m584.64 957.5v3.75"/><path d="m584.64 965v3.75"/><path d="m584.64 972.5v3.75"/><path d="m584.64 980v3.75"/><path d="m584.64 987.5v3.75"/><path d="m584.64 995v3.75"/><path d="m584.64 1002.5v3.75"/><path d="m584.64 1010v3.75"/><path d="m584.64 1013.9v.3"/><path d="m470.34 844.1h122.25"/><path d="m478.29 957.5l1.35-1.35"/><path d="m482.34 953.45l2.7-2.7"/><path d="m487.59 948.2l2.7-2.7"/><path d="m492.99 942.8l2.55-2.55"/><path d="m498.24 937.55l2.7-2.7"/><path d="m503.49 932.3l2.7-2.7"/><path d="m508.89 926.9l2.55-2.55"/><path d="m514.14 921.65l2.7-2.7"/><path d="m519.39 916.4l2.7-2.7"/><path d="m524.79 911l2.55-2.55"/><path d="m530.04 905.75l2.7-2.7"/><path d="m535.29 900.5l2.7-2.7"/><path d="m540.69 895.1l2.55-2.55"/><path d="m545.94 889.85l2.7-2.7"/><path d="m551.19 884.6l2.7-2.7"/><path d="m556.59 879.2l2.7-2.7"/><path d="m561.84 873.95l2.7-2.7"/><path d="m567.24 868.55l2.55-2.55"/><path d="m572.49 863.3l2.7-2.7"/><path d="m577.74 858.05l2.7-2.7"/><path d="m583.14 852.65l1.5-1.5"/><path d="m478.29 851.15l1.35 1.35"/><path d="m482.34 855.2l2.7 2.7"/><path d="m487.59 860.45l2.7 2.7"/><path d="m492.99 865.85l2.55 2.55"/><path d="m498.24 871.1l2.7 2.7"/><path d="m503.49 876.35l2.7 2.7"/><path d="m508.89 881.75l2.55 2.55"/><path d="m514.14 887l2.7 2.7"/><path d="m519.39 892.25l2.7 2.7"/><path d="m524.79 897.65l2.55 2.55"/><path d="m530.04 902.9l2.7 2.7"/><path d="m535.29 908.15l2.7 2.7"/><path d="m540.69 913.55l2.55 2.55"/><path d="m545.94 918.8l2.7 2.7"/><path d="m551.19 924.05l2.7 2.7"/><path d="m556.59 929.45l2.7 2.7"/><path d="m561.84 934.7l2.7 2.7"/><path d="m567.24 940.1l2.55 2.55"/><path d="m572.49 945.35l2.7 2.7"/><path d="m577.74 950.6l2.7 2.7"/><path d="m583.14 956l1.5 1.5"/><path d="m478.29 957.5v-2.55"/><path d="m478.29 951.2v-3.75"/><path d="m478.29 943.7v-3.75"/><path d="m478.29 936.2v-3.75"/><path d="m478.29 928.7v-3.75"/><path d="m478.29 921.2v-3.75"/><path d="m478.29 913.7v-3.75"/><path d="m478.29 906.2v-3.75"/><path d="m478.29 898.7v-3.75"/><path d="m478.29 891.2v-3.75"/><path d="m478.29 883.7v-3.75"/><path d="m478.29 876.2v-3.75"/><path d="m478.29 868.7v-3.75"/><path d="m478.29 861.2v-3.75"/><path d="m478.29 853.7v-2.55"/><path d="m584.64 851.15v2.55"/><path d="m584.64 857.45v3.75"/><path d="m584.64 864.95v3.75"/><path d="m584.64 872.45v3.75"/><path d="m584.64 879.95v3.75"/><path d="m584.64 887.45v3.75"/><path d="m584.64 894.95v3.75"/><path d="m584.64 902.45v3.75"/><path d="m584.64 909.95v3.75"/><path d="m584.64 917.45v3.75"/><path d="m584.64 924.95v3.75"/><path d="m584.64 932.45v3.75"/><path d="m584.64 939.95v3.75"/><path d="m584.64 947.45v3.75"/><path d="m584.64 954.95v2.55"/><path d="m478.29 851.15h2.55"/><path d="m484.59 851.15h3.75"/><path d="m492.09 851.15h3.75"/><path d="m499.59 851.15h3.75"/><path d="m507.09 851.15h3.75"/><path d="m514.59 851.15h3.75"/><path d="m522.09 851.15h3.75"/><path d="m529.59 851.15h3.75"/><path d="m537.09 851.15h3.75"/><path d="m544.59 851.15h3.75"/><path d="m552.09 851.15h3.75"/><path d="m559.59 851.15h3.75"/><path d="m567.09 851.15h3.75"/><path d="m574.59 851.15h3.75"/><path d="m582.09 851.15h2.55"/><path d="m592.59 957.5v-113.4h-122.25v113.4h122.25"/></g></svg>