<svg xmlns="http://www.w3.org/2000/svg" width="131.65" height="168.85" viewBox="0 0 131.64769 168.84768"><g transform="translate(-612.71-318.82)" fill="none" stroke="#000" stroke-linejoin="round" stroke-linecap="round" stroke-width=".54" stroke-miterlimit="10"><path d="m621.84 487.4h122.25"/><path d="m736.14 487.4v-147.9"/><path d="m629.79 487.4v-147.9"/><path d="m629.79 339.5h106.35"/><path d="m646.74 450.2v-93.9"/><path d="m719.34 450.2v-93.9"/><path d="m646.74 356.3h72.6"/><path d="m621.84 333.2h122.25"/><path d="m621.84 333.2v154.2"/><path d="m744.09 333.2v154.2"/><path d="m646.74 450.2h72.6"/><path d="m629.79 467h106.35"/><path d="m640.89 396.12c0 1.45-1.174 2.625-2.625 2.625-1.451 0-2.625-1.175-2.625-2.625 0-1.45 1.174-2.625 2.625-2.625 1.451 0 2.625 1.175 2.625 2.625"/><path d="m647.94 450.2v-93.9"/><path d="m718.14 450.2v-93.9"/><path d="m621.84 327.95h122.25"/><path d="m621.84 319.1h122.25"/><path d="m612.99 333.2h8.85"/><path d="m612.99 327.95v5.25"/><path d="m621.84 327.95h-8.85"/><path d="m612.99 327.95h8.85"/><path d="m612.99 319.1v8.85"/><path d="m621.84 319.1h-8.85"/></g></svg>