<svg xmlns="http://www.w3.org/2000/svg" width="87.4" height="168.85" viewBox="0 0 87.397683 168.84768"><g transform="translate(-496.13-250.35)" fill="none" stroke="#000" stroke-linejoin="round" stroke-linecap="round" stroke-width=".54" stroke-miterlimit="10"><path d="m566.46 418.92v-147.9"/><path d="m504.51 418.92v-147.9"/><path d="m504.51 271.02h61.95"/><path d="m521.31 381.72v-93.9"/><path d="m549.66 381.72v-93.9"/><path d="m521.31 287.82h28.35"/><path d="m522.51 381.72v-93.9"/><path d="m496.41 264.87h78"/><path d="m496.41 264.87v154.05"/><path d="m574.41 264.87v154.05"/><path d="m548.31 381.72v-93.9"/><path d="m496.41 418.92h78"/><path d="m537.96 279.42c0 1.409-1.141 2.55-2.55 2.55-1.407 0-2.55-1.142-2.55-2.55 0-1.409 1.143-2.55 2.55-2.55 1.409 0 2.55 1.142 2.55 2.55"/><path d="m521.31 381.72h28.35"/><path d="m504.51 398.52h61.95"/><path d="m496.41 259.47h78"/><path d="m496.41 250.62h78"/><path d="m574.41 418.92v-154.05"/><path d="m583.26 264.87h-8.85"/><path d="m583.26 259.47v5.4"/><path d="m574.41 259.47h8.85"/><path d="m583.26 259.47h-8.85"/><path d="m583.26 250.62v8.85"/><path d="m574.41 250.62h8.85"/></g></svg>