<svg xmlns="http://www.w3.org/2000/svg" width="100.6" height="133.45" viewBox="0 0 100.59769 133.44769"><g transform="translate(-200.81-384.59)" fill="none" stroke="#000" stroke-linejoin="round" stroke-linecap="round" stroke-width=".54" stroke-miterlimit="10"><path d="m201.08 517.76h100.05"/><path d="m201.08 384.86h100.05"/><path d="m201.08 517.76v-132.9"/><path d="m293.18 506.21v-113.25"/><path d="m209.03 506.21v-113.25"/><path d="m209.03 392.96h84.15"/><path d="m209.03 506.21h84.15"/><path d="m220.58 407.06h61.05"/><path d="m301.13 517.76v-132.9"/><path d="m220.58 492.11h61.05"/><path d="m220.58 492.11v-85.05"/><path d="m281.63 492.11v-85.05"/><path d="m290.03 455.89c0 1.449-1.142 2.625-2.55 2.625-1.407 0-2.55-1.176-2.55-2.625 0-1.45 1.143-2.625 2.55-2.625 1.409 0 2.55 1.175 2.55 2.625"/><path d="m221.78 492.11v-85.05"/><path d="m280.43 492.11v-85.05"/></g></svg>