<svg xmlns="http://www.w3.org/2000/svg" height="101.04" viewBox="0 0 100.59 101.04193"><g transform="translate(-200.81-599.09)" fill="none" stroke="#888" stroke-linejoin="round" stroke-linecap="round" stroke-width=".54" stroke-miterlimit="10"><path d="m201.08 599.36v56.7h100.05v-56.7h-100.05z"/><path d="m209.03 656.06l75.9 43.8"/><path d="m281.93 698.06l.15-.3"/><path d="m282.08 697.76l.15-.3"/><path d="m282.23 697.46l.15-.3"/><path d="m282.38 697.16l.3-.3"/><path d="m282.68 696.86l.15-.3"/><path d="m282.83 696.56l.15-.3"/><path d="m282.98 696.26l.15-.3"/><path d="m283.13 695.96l.15-.3"/><path d="m283.28 695.66l.15-.3"/><path d="m283.43 695.36l.15-.3"/><path d="m283.58 695.06l.15-.3"/><path d="m285.38 691.46l.15-.45"/><path d="m285.53 691.01l.15-.3"/><path d="m285.68 690.71l.15-.3"/><path d="m285.83 690.41l.15-.3"/><path d="m285.98 690.11l.15-.3"/><path d="m286.13 689.81l.15-.3"/><path d="m286.28 689.51l.15-.3"/><path d="m286.43 689.21l.15-.3"/><path d="m286.58 688.91l.15-.3"/><path d="m286.73 688.61v-.3"/><path d="m286.73 688.31l.15-.3"/><path d="m288.23 684.56v-.15"/><path d="m288.23 684.41l.15-.3"/><path d="m288.38 684.11l.15-.3"/><path d="m288.53 683.81l.15-.45"/><path d="m288.68 683.36v-.3"/><path d="m288.68 683.06l.15-.3"/><path d="m288.83 682.76l.15-.3"/><path d="m288.98 682.46l.15-.3"/><path d="m289.13 682.16v-.45"/><path d="m289.13 681.71l.15-.3"/><path d="m289.28 681.41l.15-.3"/><path d="m290.48 677.51v-.3"/><path d="m290.48 677.21l.15-.45"/><path d="m290.63 676.76v-.3"/><path d="m290.63 676.46l.15-.3"/><path d="m290.78 676.16v-.3"/><path d="m290.78 675.86l.15-.45"/><path d="m290.93 675.41l.15-.3"/><path d="m291.08 675.11v-.3"/><path d="m291.08 674.81l.15-.3"/><path d="m291.23 674.51v-.3"/><path d="m291.23 674.21l.15-.3"/><path d="m291.98 670.31v-.3"/><path d="m291.98 670.01l.15-.3"/><path d="m292.13 669.71v-.3"/><path d="m292.13 669.41v-.3"/><path d="m292.13 669.11l.15-.45"/><path d="m292.28 668.66v-.3"/><path d="m292.28 668.36v-.3"/><path d="m292.28 668.06l.15-.3"/><path d="m292.43 667.76v-.45"/><path d="m292.43 667.31v-.3"/><path d="m292.43 667.01l.15-.3"/><path d="m292.88 662.96l.15-.45"/><path d="m293.03 662.51v-.3"/><path d="m293.03 662.21v-.3"/><path d="m293.03 661.91v-.3"/><path d="m293.03 661.61v-.45"/><path d="m293.03 661.16v-.3"/><path d="m293.03 660.86v-.3"/><path d="m293.03 660.56l.15-.45"/><path d="m293.18 660.11v-.3"/><path d="m293.18 659.81v-.3"/><path d="m293.18 659.51v-.3"/></g></svg>