<svg xmlns="http://www.w3.org/2000/svg" width="80.2" height="168.84" viewBox="0 0 80.197685 168.84388"><g transform="translate(-166.82-395.51)" fill="none" stroke="#000" stroke-linejoin="round" stroke-linecap="round" stroke-width=".54" stroke-miterlimit="10"><path d="m246.59 564.08v-154.05"/><path d="m167.09 564.08v-154.05"/><path d="m167.09 416.18h79.65"/><path d="m183.89 526.88v-93.9"/><path d="m229.79 526.88v-93.9"/><path d="m183.89 432.98h45.9"/><path d="m167.09 410.03h79.5"/><path d="m167.09 564.08h79.5"/><path d="m183.89 526.88h45.9"/><path d="m167.09 543.68h79.65"/><path d="m209.39 424.58c0 1.409-1.142 2.55-2.55 2.55-1.407 0-2.55-1.142-2.55-2.55 0-1.409 1.143-2.55 2.55-2.55 1.409 0 2.55 1.142 2.55 2.55"/><path d="m185.09 526.88v-93.9"/><path d="m228.59 526.88v-93.9"/><path d="m167.09 404.63h79.5"/><path d="m167.09 395.78h79.5"/></g></svg>