<svg xmlns="http://www.w3.org/2000/svg" height="101.04" viewBox="0 0 100.59 101.04193"><g transform="translate(-168.34-543.38)" fill="none" stroke="#888" stroke-linejoin="round" stroke-linecap="round" stroke-width=".54" stroke-miterlimit="10"><path d="m168.61 543.65v56.7h100.05v-56.7h-100.05z"/><path d="m260.71 600.35l-76.05 43.8"/><path d="m176.56 600.35v.3"/><path d="m176.56 600.65v.3"/><path d="m176.56 600.95v.45"/><path d="m176.56 601.4v.3"/><path d="m176.56 601.7v.3"/><path d="m176.56 602v.45"/><path d="m176.56 602.45v.3"/><path d="m176.56 602.75v.3"/><path d="m176.56 603.05v.3"/><path d="m176.56 603.35v.45"/><path d="m176.56 603.8v.3"/><path d="m176.86 607.85v.45"/><path d="m176.86 608.3v.3"/><path d="m176.86 608.6l.15.3"/><path d="m177.01 608.9v.3"/><path d="m177.01 609.2v.45"/><path d="m177.01 609.65v.3"/><path d="m177.01 609.95l.15.3"/><path d="m177.16 610.25v.45"/><path d="m177.16 610.7v.3"/><path d="m177.16 611v.3"/><path d="m177.16 611.3l.15.15"/><path d="m177.76 615.05l.15.3"/><path d="m177.91 615.35v.45"/><path d="m177.91 615.8l.15.3"/><path d="m178.06 616.1v.3"/><path d="m178.06 616.4v.3"/><path d="m178.06 616.7l.15.45"/><path d="m178.21 617.15v.3"/><path d="m178.21 617.45l.15.3"/><path d="m178.36 617.75v.3"/><path d="m178.36 618.05l.15.45"/><path d="m178.51 618.5v.15"/><path d="m179.41 622.25v.15"/><path d="m179.41 622.4l.15.3"/><path d="m179.56 622.7l.15.45"/><path d="m179.71 623.15v.3"/><path d="m179.71 623.45l.15.3"/><path d="m179.86 623.75l.15.3"/><path d="m180.01 624.05v.3"/><path d="m180.01 624.35l.15.45"/><path d="m180.16 624.8v.3"/><path d="m180.16 625.1l.15.3"/><path d="m180.31 625.4l.15.3"/><path d="m181.66 629.15v.15"/><path d="m181.66 629.3l.15.3"/><path d="m181.81 629.6l.15.3"/><path d="m181.96 629.9v.45"/><path d="m181.96 630.35l.15.3"/><path d="m182.11 630.65l.15.3"/><path d="m182.26 630.95l.15.3"/><path d="m182.41 631.25l.15.3"/><path d="m182.56 631.55l.15.3"/><path d="m182.71 631.85l.15.3"/><path d="m182.86 632.15v.45"/><path d="m184.51 636.05l.15.3"/><path d="m184.66 636.35l.15.3"/><path d="m184.81 636.65l.15.3"/><path d="m184.96 636.95l.15.3"/><path d="m185.11 637.25l.15.3"/><path d="m185.26 637.55l.15.3"/><path d="m185.41 637.85l.15.3"/><path d="m185.56 638.15l.15.3"/><path d="m185.71 638.45l.15.3"/><path d="m185.86 638.75l.15.3"/><path d="m186.01 639.05l.15.3"/></g></svg>