<svg xmlns="http://www.w3.org/2000/svg" width="100.6" height="133.45" viewBox="0 0 100.59769 133.44769"><g transform="translate(-168.34-328.88)" fill="none" stroke="#000" stroke-linejoin="round" stroke-linecap="round" stroke-width=".54" stroke-miterlimit="10"><path d="m268.66 462.05h-100.05"/><path d="m268.66 329.15h-100.05"/><path d="m268.66 462.05v-132.9"/><path d="m176.56 450.5v-113.25"/><path d="m260.71 450.5v-113.25"/><path d="m260.71 337.25h-84.15"/><path d="m260.71 450.5h-84.15"/><path d="m249.16 351.35h-61.2"/><path d="m168.61 462.05v-132.9"/><path d="m249.16 436.4h-61.2"/><path d="m249.16 436.4v-85.05"/><path d="m187.96 436.4v-85.05"/><path d="m184.81 400.17c0 1.449-1.142 2.625-2.55 2.625-1.407 0-2.55-1.176-2.55-2.625 0-1.45 1.143-2.625 2.55-2.625 1.409 0 2.55 1.175 2.55 2.625"/><path d="m247.96 436.4v-85.05"/><path d="m189.31 436.4v-85.05"/></g></svg>