<svg xmlns="http://www.w3.org/2000/svg" width="128.05" height="381.4" viewBox="0 0 128.0477 381.39828"><g transform="translate(-143.45-190.52)" fill="none" stroke="#000" stroke-linejoin="round" stroke-linecap="round" stroke-width=".54" stroke-miterlimit="10"><path d="m143.72 571.65v-380.85"/><path d="m271.22 571.65v-380.85"/><path d="m151.67 417.45h111.6"/><path d="m263.27 551.25h-111.6"/><path d="m168.47 534.45h78"/><path d="m168.47 440.55h78"/><path d="m246.47 400.65h-78"/><path d="m168.47 215.54v185.1"/><path d="m168.47 440.55v93.9"/><path d="m246.47 534.45v-93.9"/><path d="m246.47 400.65v-185.1"/><path d="m271.22 190.79h-127.5"/><path d="m263.27 198.74h-111.6"/><path d="m246.47 215.54h-78"/><path d="m151.67 423.75h111.6"/><path d="m263.27 420.3v-221.55"/><path d="m263.27 571.65v-154.2"/><path d="m151.67 420v-221.25"/><path d="m151.67 571.65v-154.2"/><path d="m169.52 215.54v185.1"/><path d="m169.52 440.55v93.9"/><path d="m245.42 534.45v-93.9"/><path d="m245.42 400.65v-185.1"/><path d="m271.22 571.65h-127.5"/><path d="m162.62 320.25c0 1.409-1.142 2.55-2.55 2.55-1.407 0-2.55-1.142-2.55-2.55 0-1.409 1.143-2.55 2.55-2.55 1.409 0 2.55 1.142 2.55 2.55"/><path d="m162.62 480.45c0 1.409-1.142 2.55-2.55 2.55-1.407 0-2.55-1.142-2.55-2.55 0-1.409 1.143-2.55 2.55-2.55 1.409 0 2.55 1.142 2.55 2.55"/></g></svg>