<svg xmlns="http://www.w3.org/2000/svg" height="200.64" viewBox="0 0 128.03999 200.64273"><g transform="translate(-143.45-599.28)" fill="none" stroke-linejoin="round" stroke-linecap="round" stroke-width=".54" stroke-miterlimit="10"><g stroke="#888"><path d="m151.67 718.2v.75"/><path d="m151.67 718.95v.6"/><path d="m151.67 719.55v.75"/><path d="m151.67 720.3v.6"/><path d="m151.67 720.9v.75"/><path d="m151.67 721.65v.3"/><path d="m151.97 725.7v.75"/><path d="m151.97 726.45v.6"/><path d="m151.97 727.05l.15.75"/><path d="m152.12 727.8v.6"/><path d="m152.12 728.4v.75"/><path d="m152.12 729.15v.3"/><path d="m152.72 733.2v.75"/><path d="m152.72 733.95l.15.6"/><path d="m152.87 734.55l.15.75"/><path d="m153.02 735.3v.6"/><path d="m153.02 735.9l.15.75"/><path d="m153.17 736.65v.3"/><path d="m153.92 740.55v.15"/><path d="m153.92 740.7l.15.6"/><path d="m154.07 741.3l.15.75"/><path d="m154.22 742.05l.15.6"/><path d="m154.37 742.65l.15.75"/><path d="m154.52 743.4l.15.6"/><path d="m154.67 744v.15"/><path d="m155.72 747.75v.3"/><path d="m155.72 748.05l.15.6"/><path d="m155.87 748.65l.15.6"/><path d="m156.02 749.25l.3.75"/><path d="m156.32 750l.15.6"/><path d="m156.47 750.6l.15.6"/><path d="m156.62 751.2v.15"/><path d="m157.82 754.8l.15.3"/><path d="m157.97 755.1l.15.75"/><path d="m158.12 755.85l.3.6"/><path d="m158.42 756.45l.15.6"/><path d="m158.57 757.05l.3.75"/><path d="m158.87 757.8l.3.45"/><path d="m160.52 761.7l.15.45"/><path d="m160.67 762.15l.3.6"/><path d="m160.97 762.75l.3.75"/><path d="m161.27 763.5l.3.6"/><path d="m161.57 764.1l.15.6"/><path d="m161.72 764.7l.3.45"/><path d="m163.52 768.6l.3.45"/><path d="m163.82 769.05l.3.6"/><path d="m164.12 769.65l.45.6"/><path d="m164.57 770.25l.3.6"/><path d="m164.87 770.85l.3.6"/><path d="m165.17 771.45l.15.45"/><path d="m167.12 775.2l.45.45"/><path d="m167.57 775.65l.3.6"/><path d="m167.87 776.25l.3.45"/><path d="m168.17 776.7l.45.6"/><path d="m168.62 777.3l.3.6"/><path d="m168.92 777.9l.3.45"/><path d="m171.32 781.5l.3.45"/><path d="m171.62 781.95l.45.6"/><path d="m172.07 782.55l.3.45"/><path d="m172.37 783l.45.6"/><path d="m172.82 783.6l.45.6"/><path d="m173.27 784.2l.3.3"/><path d="m175.82 787.5l.3.45"/><path d="m176.12 787.95l.45.6"/><path d="m176.57 788.55l.45.45"/><path d="m177.02 789l.45.6"/><path d="m177.47 789.6l.45.45"/><path d="m177.92 790.05l.3.3"/><path d="m180.62 793.2l.45.45"/><path d="m181.07 793.65l.45.6"/><path d="m181.52 794.25l.45.45"/><path d="m181.97 794.7l.45.45"/><path d="m182.42 795.15l.45.45"/><path d="m182.87 795.6l.3.3"/></g><g stroke="#000"><path d="m143.72 599.55v118.65h127.5v-118.65h-127.5z"/><path d="m263.27 718.2l-81.45 81.45"/><path d="m263.27 718.2l-99.75 57.6"/></g></g></svg>