<svg xmlns="http://www.w3.org/2000/svg" width="96.24" height="173.04" viewBox="0 0 96.243843 173.04384"><g transform="translate(-282.73-541.97)" fill="none" stroke="#000" stroke-linejoin="round" stroke-linecap="round" stroke-width=".54" stroke-miterlimit="10"><path d="m378.7 655.64v-113.4h-95.7v113.4h95.7"/><path d="m290.95 714.29v-1.2"/><path d="m290.95 709.34v-3.75"/><path d="m290.95 701.84v-3.75"/><path d="m290.95 694.34v-3.75"/><path d="m290.95 686.84v-3.75"/><path d="m290.95 679.34v-3.75"/><path d="m290.95 671.84v-3.75"/><path d="m290.95 664.34v-3.75"/><path d="m290.95 656.84v-1.2"/><path d="m374.2 708.74h-3.75"/><path d="m366.7 708.74h-3.75"/><path d="m359.2 708.74h-3.75"/><path d="m351.7 708.74h-3.75"/><path d="m344.2 708.74h-3.75"/><path d="m336.7 708.74h-3.75"/><path d="m329.2 708.74h-3.75"/><path d="m321.7 708.74h-3.75"/><path d="m314.2 708.74h-3.75"/><path d="m306.7 708.74h-3.75"/><path d="m299.2 708.74h-3.75"/><path d="m291.7 708.74h-3.75"/><path d="m287.8 708.74h-.3"/><path d="m370.75 655.64v1.35"/><path d="m370.75 660.74v3.75"/><path d="m370.75 668.24v3.75"/><path d="m370.75 675.74v3.75"/><path d="m370.75 683.24v3.75"/><path d="m370.75 690.74v3.75"/><path d="m370.75 698.24v3.75"/><path d="m370.75 705.74v3.75"/><path d="m370.75 713.24v1.5"/><path d="m290.95 655.64l2.25-3"/><path d="m295.45 649.64l2.25-3"/><path d="m299.95 643.64l2.25-3"/><path d="m304.45 637.64l2.25-3"/><path d="m308.95 631.64l2.25-3"/><path d="m313.45 625.64l2.25-3"/><path d="m317.95 619.64l2.25-3"/><path d="m322.45 613.64l2.25-3"/><path d="m326.95 607.64l2.25-3"/><path d="m331.45 601.64l2.25-3"/><path d="m335.95 595.64l2.25-3"/><path d="m340.45 589.64l2.25-3"/><path d="m344.95 583.64l2.25-3"/><path d="m349.45 577.64l2.25-3"/><path d="m353.95 571.64l2.25-3"/><path d="m358.45 565.64l2.25-3"/><path d="m362.95 559.64l2.25-3"/><path d="m367.45 553.64l2.25-3"/><path d="m370.6 549.59l.15-.3"/><path d="m290.95 549.29l2.25 3"/><path d="m295.45 555.29l2.25 3"/><path d="m299.95 561.29l2.25 3"/><path d="m304.45 567.29l2.25 3"/><path d="m308.95 573.29l2.25 3"/><path d="m313.45 579.29l2.25 3"/><path d="m317.95 585.29l2.25 3"/><path d="m322.45 591.29l2.25 3"/><path d="m326.95 597.29l2.25 3"/><path d="m331.45 603.29l2.25 3"/><path d="m335.95 609.29l2.25 3"/><path d="m340.45 615.29l2.25 3"/><path d="m344.95 621.29l2.25 3"/><path d="m349.45 627.29l2.25 3"/><path d="m353.95 633.29l2.25 3"/><path d="m358.45 639.29l2.25 3"/><path d="m362.95 645.29l2.25 3"/><path d="m367.45 651.29l2.25 3"/><path d="m370.6 655.34l.15.3"/><path d="m290.95 655.64v-2.55"/><path d="m290.95 649.34v-3.75"/><path d="m290.95 641.84v-3.75"/><path d="m290.95 634.34v-3.75"/><path d="m290.95 626.84v-3.75"/><path d="m290.95 619.34v-3.75"/><path d="m290.95 611.84v-3.75"/><path d="m290.95 604.34v-3.75"/><path d="m290.95 596.84v-3.75"/><path d="m290.95 589.34v-3.75"/><path d="m290.95 581.84v-3.75"/><path d="m290.95 574.34v-3.75"/><path d="m290.95 566.84v-3.75"/><path d="m290.95 559.34v-3.75"/><path d="m290.95 551.84v-2.55"/><path d="m370.75 549.29v2.55"/><path d="m370.75 555.59v3.75"/><path d="m370.75 563.09v3.75"/><path d="m370.75 570.59v3.75"/><path d="m370.75 578.09v3.75"/><path d="m370.75 585.59v3.75"/><path d="m370.75 593.09v3.75"/><path d="m370.75 600.59v3.75"/><path d="m370.75 608.09v3.75"/><path d="m370.75 615.59v3.75"/><path d="m370.75 623.09v3.75"/><path d="m370.75 630.59v3.75"/><path d="m370.75 638.09v3.75"/><path d="m370.75 645.59v3.75"/><path d="m370.75 653.09v2.55"/><path d="m290.95 549.29h3.75"/><path d="m298.45 549.29h3.75"/><path d="m305.95 549.29h3.75"/><path d="m313.45 549.29h3.75"/><path d="m320.95 549.29h3.75"/><path d="m328.45 549.29h3.75"/><path d="m335.95 549.29h3.75"/><path d="m343.45 549.29h3.75"/><path d="m350.95 549.29h3.75"/><path d="m358.45 549.29h3.75"/><path d="m365.95 549.29h3.75"/><path d="m370.45 549.29h.3"/></g></svg>