<svg xmlns="http://www.w3.org/2000/svg" width="78.55" height="133.45" viewBox="0 0 78.547691 133.4477"><g transform="translate(-230.77-439.97)" fill="none" stroke-linejoin="round" stroke-linecap="round" stroke-width=".54" stroke-miterlimit="10"><g stroke="#888"><path d="m270.04 484.35v-36"/><path d="m250.54 484.35v-36"/><path d="m270.04 523.05v-36.15"/><path d="m250.54 523.05v-36.15"/><path d="m270.04 561.75v-36.15"/><path d="m250.54 561.75v-36.15"/><path d="m289.54 484.35v-36"/><path d="m289.54 523.05v-36.15"/><path d="m289.54 561.75v-36.15"/></g><g stroke="#000"><path d="m231.04 573.15h78"/><path d="m231.04 440.25h78"/><path d="m231.04 573.15v-132.9"/><path d="m301.09 561.6v-113.25"/><path d="m238.99 561.6v-113.25"/><path d="m238.99 448.35h62.1"/><path d="m238.99 561.6h62.1"/><path d="m309.04 573.15v-132.9"/><path d="m301.09 484.35h-62.1"/><path d="m301.09 486.9h-62.1"/><path d="m301.09 523.05h-62.1"/><path d="m301.09 525.6h-62.1"/></g></g></svg>