<svg xmlns="http://www.w3.org/2000/svg" width="78.54" height="57.24" viewBox="0 0 78.543846 57.243844"><g transform="translate(-230.77-654.48)" fill="none" stroke="#888" stroke-linejoin="round" stroke-linecap="round" stroke-width=".54" stroke-miterlimit="10"><path d="m309.04 711.45v-56.7h-78v56.7h78"/><path d="m238.99 711.45v-.9"/><path d="m238.99 706.8v-3.75"/><path d="m238.99 699.3v-3.75"/><path d="m238.99 691.8v-3.75"/><path d="m238.99 684.3v-3.75"/><path d="m238.99 676.8v-3.75"/><path d="m238.99 669.3v-3.75"/><path d="m238.99 661.8v-.9"/><path d="m301.09 711.45v-.9"/><path d="m301.09 706.8v-3.75"/><path d="m301.09 699.3v-3.75"/><path d="m301.09 691.8v-3.75"/><path d="m301.09 684.3v-3.75"/><path d="m301.09 676.8v-3.75"/><path d="m301.09 669.3v-3.75"/><path d="m301.09 661.8v-.9"/><path d="m238.99 660.9h2.85"/><path d="m245.59 660.9h3.75"/><path d="m253.09 660.9h3.75"/><path d="m260.59 660.9h3.75"/><path d="m268.09 660.9h3.75"/><path d="m275.59 660.9h3.75"/><path d="m283.09 660.9h3.75"/><path d="m290.59 660.9h3.75"/><path d="m298.09 660.9h3"/></g></svg>