<svg xmlns="http://www.w3.org/2000/svg" width="184.9" height="133.45" viewBox="0 0 184.89769 133.44769"><g transform="translate(-167.12-351.73)" fill="none" stroke-linejoin="round" stroke-linecap="round" stroke-width=".54" stroke-miterlimit="10"><g stroke="#888"><path d="m283.05 385.91l26.7 26.7"/><path d="m280.95 424.61l20.7 20.7"/><path d="m290.7 395.96l13.65 13.65"/><path d="m203.85 424.61l20.7 20.7"/><path d="m211.65 394.31l15.3 15.15"/><path d="m204.45 384.26l26.7 26.7"/><path d="m186.9 434.81h17.4"/><path d="m208.05 434.81h18.75"/><path d="m230.55 434.81h17.55"/><path d="m271.05 434.81h17.4"/><path d="m292.2 434.81h18.75"/><path d="m314.7 434.81h17.55"/><path d="m186.9 437.36h17.4"/><path d="m208.05 437.36h18.75"/><path d="m230.55 437.36h17.55"/><path d="m271.05 437.36h17.4"/><path d="m292.2 437.36h18.75"/><path d="m314.7 437.36h17.55"/><path d="m186.9 396.11h17.4"/><path d="m208.05 396.11h18.75"/><path d="m230.55 396.11h17.55"/><path d="m271.05 396.11h17.4"/><path d="m292.2 396.11h18.75"/><path d="m314.7 396.11h17.55"/><path d="m186.9 398.66h17.4"/><path d="m208.05 398.66h18.75"/><path d="m230.55 398.66h17.55"/><path d="m271.05 398.66h17.4"/><path d="m292.2 398.66h18.75"/><path d="m314.7 398.66h17.55"/></g><g stroke="#000"><path d="m167.4 484.91v-132.9"/><path d="m259.5 473.36v-113.25"/><path d="m175.35 473.36v-113.25"/><path d="m175.35 360.11h168.3"/><path d="m175.35 473.36h168.3"/><path d="m186.9 374.21h61.2"/><path d="m167.4 484.91h184.35"/><path d="m167.4 352.01h184.35"/><path d="m343.65 473.36v-113.25"/><path d="m351.75 484.91v-132.9"/><path d="m268.05 423.03c0 1.449-1.142 2.625-2.55 2.625-1.407 0-2.55-1.176-2.55-2.625 0-1.45 1.143-2.625 2.55-2.625 1.409 0 2.55 1.175 2.55 2.625"/><path d="m186.9 459.26h61.2"/><path d="m271.05 459.26h61.2"/><path d="m186.9 459.26v-85.05"/><path d="m248.1 459.26v-85.05"/><path d="m271.05 459.26v-85.05"/><path d="m332.25 459.26v-85.05"/><path d="m271.05 374.21h61.2"/><path d="m256.35 423.03c0 1.449-1.142 2.625-2.55 2.625-1.407 0-2.55-1.176-2.55-2.625 0-1.45 1.143-2.625 2.55-2.625 1.409 0 2.55 1.175 2.55 2.625"/></g></g></svg>