<svg xmlns="http://www.w3.org/2000/svg" height="101.04" viewBox="0 0 184.89 101.04193"><g transform="translate(-167.13-566.24)" fill="none" stroke="#888" stroke-linejoin="round" stroke-linecap="round" stroke-width=".54" stroke-miterlimit="10"><path d="m167.4 566.51v56.7h184.35v-56.7h-184.35z"/><path d="m175.35 623.21l76.05 43.8"/><path d="m248.25 665.21l.15-.3"/><path d="m248.4 664.91l.3-.3"/><path d="m248.7 664.61l.15-.3"/><path d="m248.85 664.31l.15-.3"/><path d="m249 664.01l.15-.3"/><path d="m249.15 663.71l.15-.3"/><path d="m249.3 663.41l.15-.3"/><path d="m249.45 663.11l.15-.3"/><path d="m249.6 662.81l.15-.3"/><path d="m249.75 662.51l.15-.3"/><path d="m249.9 662.21l.15-.3"/><path d="m251.7 658.61l.15-.45"/><path d="m251.85 658.16l.15-.3"/><path d="m252 657.86l.15-.3"/><path d="m252.15 657.56l.15-.3"/><path d="m252.3 657.26l.15-.3"/><path d="m252.45 656.96l.15-.3"/><path d="m252.6 656.66l.15-.3"/><path d="m252.75 656.36l.15-.3"/><path d="m252.9 656.06l.15-.3"/><path d="m253.05 655.76l.15-.3"/><path d="m253.2 655.46l.15-.3"/><path d="m254.55 651.71l.15-.15"/><path d="m254.7 651.56v-.3"/><path d="m254.7 651.26l.15-.3"/><path d="m254.85 650.96l.15-.45"/><path d="m255 650.51l.15-.3"/><path d="m255.15 650.21v-.3"/><path d="m255.15 649.91l.15-.3"/><path d="m255.3 649.61l.15-.3"/><path d="m255.45 649.31l.15-.45"/><path d="m255.6 648.86v-.3"/><path d="m255.6 648.56l.15-.3"/><path d="m256.8 644.66v-.3"/><path d="m256.8 644.36l.15-.45"/><path d="m256.95 643.91l.15-.3"/><path d="m257.1 643.61v-.3"/><path d="m257.1 643.31l.15-.3"/><path d="m257.25 643.01v-.45"/><path d="m257.25 642.56l.15-.3"/><path d="m257.4 642.26v-.3"/><path d="m257.4 641.96l.15-.3"/><path d="m257.55 641.66v-.3"/><path d="m257.55 641.36l.15-.3"/><path d="m258.3 637.46l.15-.3"/><path d="m258.45 637.16v-.3"/><path d="m258.45 636.86v-.3"/><path d="m258.45 636.56l.15-.3"/><path d="m258.6 636.26v-.45"/><path d="m258.6 635.81v-.3"/><path d="m258.6 635.51l.15-.3"/><path d="m258.75 635.21v-.3"/><path d="m258.75 634.91v-.45"/><path d="m258.75 634.46l.15-.3"/><path d="m258.9 634.16v-.3"/><path d="m259.35 630.26v-.15"/><path d="m259.35 630.11v-.45"/><path d="m259.35 629.66v-.3"/><path d="m259.35 629.36v-.3"/><path d="m259.35 629.06v-.3"/><path d="m259.35 628.76v-.45"/><path d="m259.35 628.31v-.3"/><path d="m259.35 628.01l.15-.3"/><path d="m259.5 627.71v-.45"/><path d="m259.5 627.26v-.3"/><path d="m259.5 626.96v-.3"/><path d="m259.5 626.66v-.15"/><path d="m343.65 623.21l-75.9 43.8"/><path d="m259.5 623.21v.3"/><path d="m259.5 623.51v.3"/><path d="m259.5 623.81v.45"/><path d="m259.5 624.26v.3"/><path d="m259.5 624.56l.15.3"/><path d="m259.65 624.86v.45"/><path d="m259.65 625.31v.3"/><path d="m259.65 625.61v.3"/><path d="m259.65 625.91v.3"/><path d="m259.65 626.21v.45"/><path d="m259.65 626.66v.3"/><path d="m259.95 630.71v.45"/><path d="m259.95 631.16v.3"/><path d="m259.95 631.46v.3"/><path d="m259.95 631.76l.15.3"/><path d="m260.1 632.06v.45"/><path d="m260.1 632.51v.3"/><path d="m260.1 632.81v.3"/><path d="m260.1 633.11l.15.45"/><path d="m260.25 633.56v.3"/><path d="m260.25 633.86v.3"/><path d="m260.25 634.16l.15.15"/><path d="m260.85 637.91v.3"/><path d="m260.85 638.21l.15.45"/><path d="m261 638.66v.3"/><path d="m261 638.96l.15.3"/><path d="m261.15 639.26v.3"/><path d="m261.15 639.56l.15.45"/><path d="m261.3 640.01v.3"/><path d="m261.3 640.31l.15.3"/><path d="m261.45 640.61v.3"/><path d="m261.45 640.91l.15.45"/><path d="m261.6 641.36v.15"/><path d="m262.5 645.11v.15"/><path d="m262.5 645.26l.15.3"/><path d="m262.65 645.56v.45"/><path d="m262.65 646.01l.15.3"/><path d="m262.8 646.31l.15.3"/><path d="m262.95 646.61v.3"/><path d="m262.95 646.91l.15.3"/><path d="m263.1 647.21l.15.45"/><path d="m263.25 647.66v.3"/><path d="m263.25 647.96l.15.3"/><path d="m263.4 648.26l.15.3"/><path d="m264.75 652.01v.15"/><path d="m264.75 652.16l.15.3"/><path d="m264.9 652.46v.3"/><path d="m264.9 652.76l.15.45"/><path d="m265.05 653.21l.15.3"/><path d="m265.2 653.51l.15.3"/><path d="m265.35 653.81l.15.3"/><path d="m265.5 654.11l.15.3"/><path d="m265.65 654.41v.3"/><path d="m265.65 654.71l.15.3"/><path d="m265.8 655.01l.15.45"/><path d="m267.45 658.91l.15.3"/><path d="m267.6 659.21l.15.3"/><path d="m267.75 659.51l.15.3"/><path d="m267.9 659.81l.15.3"/><path d="m268.05 660.11l.15.3"/><path d="m268.2 660.41l.15.3"/><path d="m268.35 660.71l.15.3"/><path d="m268.5 661.01l.15.3"/><path d="m268.65 661.31l.15.3"/><path d="m268.8 661.61l.15.3"/><path d="m268.95 661.91l.3.3"/></g></svg>