<svg xmlns="http://www.w3.org/2000/svg" width="140.5" height="160.3" viewBox="0 0 140.49768 160.29656"><g transform="translate(-301.97-501.73)" fill="none" stroke-linejoin="round" stroke-linecap="round" stroke-width=".54" stroke-miterlimit="10"><g stroke="#000"><path d="m302.24 615.41v-113.4"/><path d="m442.19 615.41h-139.95"/><path d="m442.19 502.01v113.4"/><path d="m310.19 615.41l46.35 46.35"/></g><g stroke="#888"><path d="m354.14 659.21l.45-.6"/><path d="m354.59 658.61l.6-.45"/><path d="m355.19 658.16l.45-.6"/><path d="m355.64 657.56l.6-.6"/><path d="m356.24 656.96l.45-.45"/><path d="m358.94 653.66l.15-.15"/><path d="m359.09 653.51l.45-.6"/><path d="m359.54 652.91l.6-.6"/><path d="m360.14 652.31l.45-.6"/><path d="m360.59 651.71l.3-.6"/><path d="m360.89 651.11l.3-.45"/><path d="m363.29 647.51l.15-.3"/><path d="m363.44 647.21l.45-.6"/><path d="m363.89 646.61l.3-.75"/><path d="m364.19 645.86l.45-.6"/><path d="m364.64 645.26l.3-.6"/><path d="m364.94 644.66l.15-.45"/><path d="m366.74 640.91l.15-.45"/><path d="m366.89 640.46l.3-.6"/><path d="m367.19 639.86l.3-.75"/><path d="m367.49 639.11l.3-.75"/><path d="m367.79 638.36l.3-.75"/><path d="m368.09 637.61l.15-.15"/><path d="m369.44 633.86l.15-.45"/><path d="m369.59 633.41l.15-.75"/><path d="m369.74 632.66l.3-.75"/><path d="m370.04 631.91l.15-.75"/><path d="m370.19 631.16l.15-.75"/><path d="m370.34 630.41v-.15"/><path d="m371.24 626.66l.15-.75"/><path d="m371.39 625.91l.15-.75"/><path d="m371.54 625.16v-.75"/><path d="m371.54 624.41l.15-.75"/><path d="m371.69 623.66l.15-.75"/><path d="m372.14 619.16v-.75"/><path d="m372.14 618.41l.15-.75"/><path d="m372.29 617.66v-.75"/><path d="m372.29 616.91v-.75"/><path d="m372.29 616.16v-.75"/></g><path d="m434.24 615.41l-46.35 46.35" stroke="#000"/><g stroke="#888"><path d="m372.29 615.41v.75"/><path d="m372.29 616.16v.75"/><path d="m372.29 616.91v.75"/><path d="m372.29 617.66v.75"/><path d="m372.29 618.41v.75"/><path d="m372.59 622.91l.15.75"/><path d="m372.74 623.66l.15.75"/><path d="m372.89 624.41v.75"/><path d="m372.89 625.16l.15.75"/><path d="m373.04 625.91l.15.75"/><path d="m373.94 630.26v.15"/><path d="m373.94 630.41l.3.75"/><path d="m374.24 631.16l.15.75"/><path d="m374.39 631.91l.15.75"/><path d="m374.54 632.66l.3.75"/><path d="m374.84 633.41l.15.45"/><path d="m376.19 637.46l.15.3"/><path d="m376.34 637.76l.15.75"/><path d="m376.49 638.51l.3.6"/><path d="m376.79 639.11l.3.75"/><path d="m377.09 639.86l.3.75"/><path d="m377.39 640.61l.15.3"/><path d="m379.19 644.21l.3.45"/><path d="m379.49 644.66l.3.6"/><path d="m379.79 645.26l.45.75"/><path d="m380.24 646.01l.3.6"/><path d="m380.54 646.61l.45.75"/><path d="m380.99 647.36v.15"/><path d="m383.09 650.51l.45.6"/><path d="m383.54 651.11l.45.6"/><path d="m383.99 651.71l.45.6"/><path d="m384.44 652.31l.45.6"/><path d="m384.89 652.91l.45.6"/><path d="m387.74 656.36v.15"/><path d="m387.74 656.51l.6.45"/><path d="m388.34 656.96l.45.6"/><path d="m388.79 657.56l.6.6"/><path d="m389.39 658.16l.45.45"/><path d="m389.84 658.61l.45.45"/></g><path d="m442.19 502.01h-139.95" stroke="#000"/></g></svg>