<svg xmlns="http://www.w3.org/2000/svg" width="149.35" height="168.85" viewBox="0 0 149.34769 168.84767"><g transform="translate(-505.67-293.08)" fill="none" stroke="#000" stroke-linejoin="round" stroke-linecap="round" stroke-width=".54" stroke-miterlimit="10"><path d="m530.69 424.46v-93.9"/><path d="m559.04 424.46v-93.9"/><path d="m530.69 330.56h28.35"/><path d="m505.94 307.61h139.95"/><path d="m505.94 307.61v154.05"/><path d="m505.94 461.66h139.95"/><path d="m575.84 441.26v-127.5"/><path d="m513.89 313.76h123.9"/><path d="m592.64 424.46v-93.9"/><path d="m620.99 424.46v-93.9"/><path d="m592.64 330.56h28.35"/><path d="m645.89 307.61v154.05"/><path d="m586.79 370.46c0 1.409-1.141 2.55-2.55 2.55-1.409 0-2.55-1.142-2.55-2.55 0-1.409 1.141-2.55 2.55-2.55 1.409 0 2.55 1.142 2.55 2.55"/><path d="m513.89 441.26h123.9"/><path d="m530.69 424.46h28.35"/><path d="m592.64 424.46h28.35"/><path d="m637.79 313.76v147.9"/><path d="m513.89 313.76v147.9"/><path d="m569.99 370.46c0 1.409-1.141 2.55-2.55 2.55-1.409 0-2.55-1.142-2.55-2.55 0-1.409 1.141-2.55 2.55-2.55 1.409 0 2.55 1.142 2.55 2.55"/><path d="m557.84 424.46v-93.9"/><path d="m619.79 424.46v-93.9"/><path d="m531.89 424.46v-93.9"/><path d="m593.99 424.46v-93.9"/><path d="m505.94 302.21h139.95"/><path d="m505.94 293.36h139.95"/><path d="m654.74 307.61h-8.85"/><path d="m654.74 302.21v5.4"/><path d="m645.89 302.21h8.85"/><path d="m654.74 302.21h-8.85"/><path d="m654.74 293.36v8.85"/><path d="m645.89 293.36h8.85"/></g></svg>