<svg xmlns="http://www.w3.org/2000/svg" width="145" height="133.45" viewBox="0 0 144.9977 133.44769"><g transform="translate(-151.11-346.02)" fill="none" stroke="#000" stroke-linejoin="round" stroke-linecap="round" stroke-width=".54" stroke-miterlimit="10"><path d="m151.38 479.19h100.05"/><path d="m151.38 346.29h100.05"/><path d="m151.38 479.19v-132.9"/><path d="m243.48 467.64v-113.25"/><path d="m159.33 467.64v-113.25"/><path d="m159.33 354.39h84.15"/><path d="m159.33 467.64h84.15"/><path d="m170.88 368.49h61.2"/><path d="m259.53 479.19v-3.75"/><path d="m259.53 471.69v-3.75"/><path d="m259.53 464.19v-3.75"/><path d="m259.53 456.69v-3.75"/><path d="m259.53 449.19v-3.75"/><path d="m259.53 441.69v-3.75"/><path d="m259.53 434.19v-3.75"/><path d="m259.53 426.69v-3.75"/><path d="m259.53 419.19v-3.75"/><path d="m259.53 411.69v-3.75"/><path d="m259.53 404.19v-3.75"/><path d="m259.53 396.69v-3.75"/><path d="m259.53 389.19v-3.75"/><path d="m259.53 381.69v-3.75"/><path d="m259.53 374.19v-3.75"/><path d="m259.53 366.69v-3.75"/><path d="m259.53 359.19v-3.75"/><path d="m259.53 351.69v-3.75"/><path d="m259.53 346.59v-.3"/><path d="m170.88 453.54h61.2"/><path d="m232.08 453.54v-85.05"/><path d="m170.88 453.54v-85.05"/><path d="m167.73 417.32c0 1.449-1.142 2.625-2.55 2.625-1.407 0-2.55-1.176-2.55-2.625 0-1.45 1.143-2.625 2.55-2.625 1.409 0 2.55 1.175 2.55 2.625"/><path d="m295.83 479.19v-3.75"/><path d="m295.83 471.69v-3.75"/><path d="m295.83 464.19v-3.75"/><path d="m295.83 456.69v-3.75"/><path d="m295.83 449.19v-3.75"/><path d="m295.83 441.69v-3.75"/><path d="m295.83 434.19v-3.75"/><path d="m295.83 426.69v-3.75"/><path d="m295.83 419.19v-3.75"/><path d="m295.83 411.69v-3.75"/><path d="m295.83 404.19v-3.75"/><path d="m295.83 396.69v-3.75"/><path d="m295.83 389.19v-3.75"/><path d="m295.83 381.69v-3.75"/><path d="m295.83 374.19v-3.75"/><path d="m295.83 366.69v-3.75"/><path d="m295.83 359.19v-3.75"/><path d="m295.83 351.69v-3.75"/><path d="m295.83 346.59v-.3"/><path d="m251.43 479.19h1.5"/><path d="m256.68 479.19h3.75"/><path d="m264.18 479.19h3.75"/><path d="m271.68 479.19h3.75"/><path d="m279.18 479.19h3.75"/><path d="m286.68 479.19h3.75"/><path d="m294.18 479.19h1.65"/><path d="m295.83 346.29h-1.5"/><path d="m290.58 346.29h-3.75"/><path d="m283.08 346.29h-3.75"/><path d="m275.58 346.29h-3.75"/><path d="m268.08 346.29h-3.75"/><path d="m260.58 346.29h-3.75"/><path d="m253.08 346.29h-1.65"/><path d="m251.43 479.19v-132.9"/><path d="m230.73 453.54v-85.05"/><path d="m172.08 453.54v-85.05"/></g></svg>