<svg xmlns="http://www.w3.org/2000/svg" height="101.04" viewBox="0 0 144.98999 101.04193"><g transform="translate(-151.11-560.52)" fill="none" stroke="#888" stroke-linejoin="round" stroke-linecap="round" stroke-width=".54" stroke-miterlimit="10"><path d="m151.38 560.79v56.7h144.45v-56.7h-144.45z"/><path d="m243.48 617.49l-75.9 43.8"/><path d="m159.33 617.49v.3"/><path d="m159.33 617.79v.3"/><path d="m159.33 618.09v.45"/><path d="m159.33 618.54v.3"/><path d="m159.33 618.84v.3"/><path d="m159.33 619.14v.45"/><path d="m159.33 619.59l.15.3"/><path d="m159.48 619.89v.3"/><path d="m159.48 620.19v.3"/><path d="m159.48 620.49v.45"/><path d="m159.48 620.94v.3"/><path d="m159.78 624.99v.45"/><path d="m159.78 625.44v.3"/><path d="m159.78 625.74v.3"/><path d="m159.78 626.04v.3"/><path d="m159.78 626.34l.15.45"/><path d="m159.93 626.79v.3"/><path d="m159.93 627.09v.3"/><path d="m159.93 627.39l.15.45"/><path d="m160.08 627.84v.3"/><path d="m160.08 628.14v.3"/><path d="m160.08 628.44v.3"/><path d="m160.68 632.34v.15"/><path d="m160.68 632.49l.15.45"/><path d="m160.83 632.94v.3"/><path d="m160.83 633.24l.15.3"/><path d="m160.98 633.54v.3"/><path d="m160.98 633.84l.15.45"/><path d="m161.13 634.29v.3"/><path d="m161.13 634.59v.3"/><path d="m161.13 634.89l.15.3"/><path d="m161.28 635.19v.45"/><path d="m161.28 635.64l.15.3"/><path d="m162.33 639.54l.15.3"/><path d="m162.48 639.84v.45"/><path d="m162.48 640.29l.15.3"/><path d="m162.63 640.59v.3"/><path d="m162.63 640.89l.15.3"/><path d="m162.78 641.19l.15.3"/><path d="m162.93 641.49v.45"/><path d="m162.93 641.94l.15.3"/><path d="m163.08 642.24l.15.3"/><path d="m163.23 642.54v.3"/><path d="m163.23 642.84l.15.15"/><path d="m164.58 646.44v.3"/><path d="m164.58 646.74l.15.3"/><path d="m164.73 647.04l.15.45"/><path d="m164.88 647.49l.15.3"/><path d="m165.03 647.79l.15.3"/><path d="m165.18 648.09l.15.3"/><path d="m165.33 648.39v.3"/><path d="m165.33 648.69l.15.3"/><path d="m165.48 648.99l.15.3"/><path d="m165.63 649.29l.15.45"/><path d="m165.78 649.74l.15.15"/><path d="m167.28 653.34l.15.15"/><path d="m167.43 653.49l.15.3"/><path d="m167.58 653.79l.15.3"/><path d="m167.73 654.09l.15.3"/><path d="m167.88 654.39l.15.3"/><path d="m168.03 654.69l.15.3"/><path d="m168.18 654.99l.15.3"/><path d="m168.33 655.29l.15.3"/><path d="m168.48 655.59l.15.3"/><path d="m168.63 655.89l.15.3"/><path d="m168.78 656.19l.15.3"/><path d="m168.93 656.49l.15.15"/></g></svg>