<svg xmlns="http://www.w3.org/2000/svg" width="128.05" height="381.4" viewBox="0 0 128.0477 381.39828"><g transform="translate(-316.05-284.81)" fill="none" stroke="#000" stroke-linejoin="round" stroke-linecap="round" stroke-width=".54" stroke-miterlimit="10"><path d="m443.82 665.93v-380.85"/><path d="m316.32 665.93v-380.85"/><path d="m324.27 645.53h111.6"/><path d="m419.07 628.73h-78"/><path d="m419.07 534.83h-78"/><path d="m341.07 494.93h78"/><path d="m419.07 309.83v185.1"/><path d="m419.07 534.83v93.9"/><path d="m341.07 628.73v-93.9"/><path d="m341.07 494.93v-185.1"/><path d="m316.32 285.08h127.5"/><path d="m324.27 293.03h111.6"/><path d="m341.07 309.83h78"/><path d="m324.27 514.58v-221.55"/><path d="m324.27 665.93v-154.2"/><path d="m435.87 514.28v-221.25"/><path d="m435.87 665.93v-154.2"/><path d="m418.02 309.83v185.1"/><path d="m418.02 534.83v93.9"/><path d="m342.12 628.73v-93.9"/><path d="m342.12 494.93v-185.1"/><path d="m316.32 665.93h127.5"/><path d="m430.02 449.63c0 1.409-1.142 2.55-2.55 2.55-1.407 0-2.55-1.142-2.55-2.55 0-1.409 1.143-2.55 2.55-2.55 1.409 0 2.55 1.142 2.55 2.55"/></g></svg>