<svg xmlns="http://www.w3.org/2000/svg" height="200.64" viewBox="0 0 128.03999 200.64273"><g transform="translate(-316.05-693.56)" fill="none" stroke-linejoin="round" stroke-linecap="round" stroke-width=".54" stroke-miterlimit="10"><g stroke="#888"><path d="m403.17 891.38l.45-.45"/><path d="m403.62 890.93l.45-.45"/><path d="m404.07 890.48l.6-.6"/><path d="m404.67 889.88l.45-.45"/><path d="m405.12 889.43l.45-.45"/><path d="m405.57 888.98l.3-.3"/><path d="m408.42 885.83l.3-.45"/><path d="m408.72 885.38l.45-.45"/><path d="m409.17 884.93l.45-.6"/><path d="m409.62 884.33l.45-.45"/><path d="m410.07 883.88l.45-.6"/><path d="m410.52 883.28l.3-.3"/><path d="m413.07 879.98l.45-.45"/><path d="m413.52 879.53l.45-.6"/><path d="m413.97 878.93l.3-.45"/><path d="m414.27 878.48l.45-.6"/><path d="m414.72 877.88l.45-.6"/><path d="m415.17 877.28l.15-.3"/><path d="m417.42 873.98l.45-.6"/><path d="m417.87 873.38l.3-.6"/><path d="m418.17 872.78l.3-.6"/><path d="m418.47 872.18l.45-.6"/><path d="m418.92 871.58l.3-.6"/><path d="m419.22 870.98l.15-.15"/><path d="m421.32 867.68v-.15"/><path d="m421.32 867.53l.45-.6"/><path d="m421.77 866.93l.3-.6"/><path d="m422.07 866.33l.3-.6"/><path d="m422.37 865.73l.3-.6"/><path d="m422.67 865.13l.3-.6"/><path d="m422.97 864.53v-.15"/><path d="m424.77 861.08l.15-.3"/><path d="m424.92 860.78l.15-.6"/><path d="m425.07 860.18l.3-.6"/><path d="m425.37 859.58l.3-.6"/><path d="m425.67 858.98l.3-.6"/><path d="m425.97 858.38l.3-.6"/><path d="m426.27 857.78v-.15"/><path d="m427.77 854.18l.15-.3"/><path d="m427.92 853.88l.15-.6"/><path d="m428.07 853.28l.3-.6"/><path d="m428.37 852.68l.3-.6"/><path d="m428.67 852.08l.15-.75"/><path d="m428.82 851.33l.3-.6"/><path d="m430.32 847.13l.15-.3"/><path d="m430.47 846.83l.15-.6"/><path d="m430.62 846.23l.3-.75"/><path d="m430.92 845.48l.15-.6"/><path d="m431.07 844.88l.15-.6"/><path d="m431.22 844.28l.15-.75"/><path d="m432.42 839.93l.15-.3"/><path d="m432.57 839.63l.15-.75"/><path d="m432.72 838.88l.15-.6"/><path d="m432.87 838.28l.15-.6"/><path d="m433.02 837.68l.15-.75"/><path d="m433.17 836.93l.15-.6"/><path d="m433.92 832.58l.15-.3"/><path d="m434.07 832.28l.15-.75"/><path d="m434.22 831.53l.15-.6"/><path d="m434.37 830.93v-.75"/><path d="m434.37 830.18l.15-.6"/><path d="m434.52 829.58l.15-.6"/><path d="m435.12 825.23v-.45"/><path d="m435.12 824.78l.15-.6"/><path d="m435.27 824.18v-.75"/><path d="m435.27 823.43l.15-.75"/><path d="m435.42 822.68v-.6"/><path d="m435.42 822.08l.15-.6"/><path d="m435.72 817.73v-.45"/><path d="m435.72 817.28v-.75"/><path d="m435.72 816.53l.15-.6"/><path d="m435.87 815.93v-.75"/><path d="m435.87 815.18v-.6"/><path d="m435.87 814.58v-.6"/></g><g stroke="#000"><path d="m316.32 693.83v118.65h127.5v-118.65h-127.5z"/><path d="m324.27 812.48l81.45 81.45"/></g></g></svg>