<svg xmlns="http://www.w3.org/2000/svg" width="100.75" height="168.84" viewBox="0 0 100.74769 168.84387"><g transform="translate(-317.19-341.33)" fill="none" stroke="#000" stroke-linejoin="round" stroke-linecap="round" stroke-width=".54" stroke-miterlimit="10"><path d="m417.67 509.9h-100.2"/><path d="m370.12 376.18c0 1.449-1.142 2.625-2.55 2.625-1.409 0-2.55-1.176-2.55-2.625 0-1.449 1.142-2.625 2.55-2.625 1.409 0 2.55 1.176 2.55 2.625"/><path d="m370.12 404.53c0 1.449-1.142 2.625-2.55 2.625-1.409 0-2.55-1.176-2.55-2.625 0-1.449 1.142-2.625 2.55-2.625 1.409 0 2.55 1.176 2.55 2.625"/><path d="m370.12 432.88c0 1.449-1.142 2.625-2.55 2.625-1.409 0-2.55-1.176-2.55-2.625 0-1.449 1.142-2.625 2.55-2.625 1.409 0 2.55 1.176 2.55 2.625"/><path d="m370.12 468.35c0 1.409-1.142 2.55-2.55 2.55-1.409 0-2.55-1.142-2.55-2.55 0-1.409 1.142-2.55 2.55-2.55 1.409 0 2.55 1.142 2.55 2.55"/><path d="m325.42 509.9v-147.9"/><path d="m409.57 362v147.9"/><path d="m325.42 362h84.15"/><path d="m417.67 355.85v154.05"/><path d="m317.47 509.9v-154.05"/><path d="m317.47 355.85h100.2"/><path d="m325.42 390.35h84.15"/><path d="m325.42 418.7h84.15"/><path d="m325.42 447.05h84.15"/><path d="m325.42 489.5h84.15"/><path d="m317.47 350.45h100.2"/><path d="m317.47 341.6h100.2"/></g></svg>