<svg xmlns="http://www.w3.org/2000/svg" width="109.45" height="168.85" viewBox="0 0 109.44769 168.8477"><g transform="translate(-121.14-341.33)" fill="none" stroke="#000" stroke-linejoin="round" stroke-linecap="round" stroke-width=".54" stroke-miterlimit="10"><path d="m230.32 509.9h-100.05"/><path d="m182.77 376.18c0 1.449-1.142 2.625-2.55 2.625-1.409 0-2.55-1.176-2.55-2.625 0-1.449 1.142-2.625 2.55-2.625 1.409 0 2.55 1.176 2.55 2.625"/><path d="m182.77 404.53c0 1.449-1.142 2.625-2.55 2.625-1.409 0-2.55-1.176-2.55-2.625 0-1.449 1.142-2.625 2.55-2.625 1.409 0 2.55 1.176 2.55 2.625"/><path d="m182.77 432.88c0 1.449-1.142 2.625-2.55 2.625-1.409 0-2.55-1.176-2.55-2.625 0-1.449 1.142-2.625 2.55-2.625 1.409 0 2.55 1.176 2.55 2.625"/><path d="m182.77 468.35c0 1.409-1.142 2.55-2.55 2.55-1.409 0-2.55-1.142-2.55-2.55 0-1.409 1.142-2.55 2.55-2.55 1.409 0 2.55 1.142 2.55 2.55"/><path d="m138.22 509.9v-147.9"/><path d="m222.37 362v147.9"/><path d="m138.22 362h84.15"/><path d="m230.32 355.85v154.05"/><path d="m130.27 509.9v-154.05"/><path d="m130.27 355.85h100.05"/><path d="m138.22 390.35h84.15"/><path d="m138.22 418.7h84.15"/><path d="m138.22 447.05h84.15"/><path d="m138.22 489.5h84.15"/><path d="m130.27 350.45h100.05"/><path d="m130.27 341.6h100.05"/><path d="m121.42 355.85h8.85"/><path d="m121.42 350.45v5.4"/><path d="m130.27 350.45h-8.85"/><path d="m121.42 350.45h8.85"/><path d="m121.42 341.6v8.85"/><path d="m130.27 341.6h-8.85"/></g></svg>