<svg xmlns="http://www.w3.org/2000/svg" width="109.45" height="168.85" viewBox="0 0 109.44769 168.84768"><g transform="translate(-504.69-341.33)" fill="none" stroke="#000" stroke-linejoin="round" stroke-linecap="round" stroke-width=".54" stroke-miterlimit="10"><path d="m605.02 509.9h-100.05"/><path d="m557.47 376.18c0 1.449-1.141 2.625-2.55 2.625-1.409 0-2.55-1.176-2.55-2.625 0-1.449 1.141-2.625 2.55-2.625 1.409 0 2.55 1.176 2.55 2.625"/><path d="m557.47 404.53c0 1.449-1.141 2.625-2.55 2.625-1.409 0-2.55-1.176-2.55-2.625 0-1.449 1.141-2.625 2.55-2.625 1.409 0 2.55 1.176 2.55 2.625"/><path d="m557.47 432.88c0 1.449-1.141 2.625-2.55 2.625-1.409 0-2.55-1.176-2.55-2.625 0-1.449 1.141-2.625 2.55-2.625 1.409 0 2.55 1.176 2.55 2.625"/><path d="m557.47 468.35c0 1.409-1.141 2.55-2.55 2.55-1.409 0-2.55-1.142-2.55-2.55 0-1.409 1.141-2.55 2.55-2.55 1.409 0 2.55 1.142 2.55 2.55"/><path d="m512.92 509.9v-147.9"/><path d="m597.07 362v147.9"/><path d="m512.92 362h84.15"/><path d="m605.02 355.85v154.05"/><path d="m504.97 509.9v-154.05"/><path d="m504.97 355.85h100.05"/><path d="m512.92 390.35h84.15"/><path d="m512.92 418.7h84.15"/><path d="m512.92 447.05h84.15"/><path d="m512.92 489.5h84.15"/><path d="m504.97 350.45h100.05"/><path d="m504.97 341.6h100.05"/><path d="m613.87 355.85h-8.85"/><path d="m613.87 350.45v5.4"/><path d="m605.02 350.45h8.85"/><path d="m613.87 350.45h-8.85"/><path d="m613.87 341.6v8.85"/><path d="m605.02 341.6h8.85"/></g></svg>