<svg xmlns="http://www.w3.org/2000/svg" width="109.6" height="168.85" viewBox="0 0 109.59769 168.84769"><g transform="translate(-486.33-285.43)" fill="none" stroke="#000" stroke-linejoin="round" stroke-linecap="round" stroke-width=".54" stroke-miterlimit="10"><path d="m494.7 433.6h84.15"/><path d="m578.85 454v-147.9"/><path d="m494.7 454v-147.9"/><path d="m494.7 306.1h84.15"/><path d="m511.5 416.8v-65.55"/><path d="m561.9 416.8v-65.55"/><path d="m511.5 351.25h50.4"/><path d="m486.6 299.95h100.2"/><path d="m486.6 299.95v154.05"/><path d="m586.8 299.95v154.05"/><path d="m486.6 454h100.2"/><path d="m494.7 334.45h84.15"/><path d="m573 378.55c0 1.409-1.174 2.55-2.625 2.55-1.449 0-2.625-1.142-2.625-2.55 0-1.409 1.176-2.55 2.625-2.55 1.451 0 2.625 1.142 2.625 2.55"/><path d="m539.25 320.28c0 1.449-1.141 2.625-2.55 2.625-1.407 0-2.55-1.176-2.55-2.625 0-1.45 1.143-2.625 2.55-2.625 1.409 0 2.55 1.175 2.55 2.625"/><path d="m511.5 416.8h50.4"/><path d="m586.8 433.75h.15"/><path d="m512.7 416.8v-65.55"/><path d="m560.7 416.8v-65.55"/><path d="m486.6 294.55h100.2"/><path d="m486.6 285.7h100.2"/><path d="m586.8 454v-154.05"/><path d="m595.65 299.95h-8.85"/><path d="m595.65 294.55v5.4"/><path d="m586.8 294.55h8.85"/><path d="m595.65 294.55h-8.85"/><path d="m595.65 285.7v8.85"/><path d="m586.8 285.7h8.85"/></g></svg>