<svg xmlns="http://www.w3.org/2000/svg" width="100.9" height="168.84" viewBox="0 0 100.89769 168.84388"><g transform="translate(-281.58-285.43)" fill="none" stroke="#000" stroke-linejoin="round" stroke-linecap="round" stroke-width=".54" stroke-miterlimit="10"><path d="m289.8 433.6h84.15"/><path d="m373.95 454v-147.9"/><path d="m289.8 454v-147.9"/><path d="m289.8 306.1h84.15"/><path d="m306.75 416.8v-65.55"/><path d="m357.15 416.8v-65.55"/><path d="m306.75 351.25h50.4"/><path d="m281.85 299.95h100.05"/><path d="m281.85 299.95v154.05"/><path d="m381.9 299.95v154.05"/><path d="m281.85 454h100.05"/><path d="m289.8 334.45h84.15"/><path d="m368.1 378.55c0 1.409-1.142 2.55-2.55 2.55-1.407 0-2.55-1.142-2.55-2.55 0-1.409 1.143-2.55 2.55-2.55 1.409 0 2.55 1.142 2.55 2.55"/><path d="m334.5 320.28c0 1.449-1.142 2.625-2.55 2.625-1.407 0-2.55-1.176-2.55-2.625 0-1.45 1.143-2.625 2.55-2.625 1.409 0 2.55 1.175 2.55 2.625"/><path d="m306.75 416.8h50.4"/><path d="m381.9 433.75h.3"/><path d="m307.95 416.8v-65.55"/><path d="m355.95 416.8v-65.55"/><path d="m281.85 294.55h100.05"/><path d="m281.85 285.7h100.05"/></g></svg>