<svg xmlns="http://www.w3.org/2000/svg" width="100.6" height="175.89" viewBox="0 0 100.59769 175.89275"><g transform="translate(-281.58-494.83)" fill="none" stroke-linejoin="round" stroke-linecap="round" stroke-width=".54" stroke-miterlimit="10"><g stroke="#000"><path d="m281.85 495.1v113.4h100.05v-113.4h-100.05z"/><path d="m289.8 608.5l62.1 61.95"/></g><g stroke="#888"><path d="m349.35 668.05l.3-.45"/><path d="m349.65 667.6l.45-.3"/><path d="m350.1 667.3l.3-.45"/><path d="m350.4 666.85l.45-.3"/><path d="m350.85 666.55l.3-.45"/><path d="m351.15 666.1l.3-.3"/><path d="m351.45 665.8l.45-.45"/><path d="m354.3 662.5l.3-.3"/><path d="m354.6 662.2l.3-.3"/><path d="m354.9 661.9l.3-.45"/><path d="m355.2 661.45l.3-.45"/><path d="m355.5 661l.3-.3"/><path d="m355.8 660.7l.45-.45"/><path d="m356.25 660.25l.3-.45"/><path d="m356.55 659.8l.15-.15"/><path d="m358.95 656.65v-.15"/><path d="m358.95 656.5l.3-.45"/><path d="m359.25 656.05l.3-.45"/><path d="m359.55 655.6l.3-.3"/><path d="m359.85 655.3l.3-.45"/><path d="m360.15 654.85l.3-.45"/><path d="m360.45 654.4l.15-.45"/><path d="m360.6 653.95l.3-.45"/><path d="m362.85 650.35l.15-.45"/><path d="m363 649.9l.3-.45"/><path d="m363.3 649.45l.3-.45"/><path d="m363.6 649l.15-.45"/><path d="m363.75 648.55l.3-.45"/><path d="m364.05 648.1l.3-.45"/><path d="m364.35 647.65l.15-.45"/><path d="m364.5 647.2l.15-.15"/><path d="m366.3 643.75v-.3"/><path d="m366.3 643.45l.3-.45"/><path d="m366.6 643l.15-.45"/><path d="m366.75 642.55l.3-.45"/><path d="m367.05 642.1l.15-.45"/><path d="m367.2 641.65l.15-.45"/><path d="m367.35 641.2l.3-.45"/><path d="m367.65 640.75l.15-.45"/><path d="m369.15 636.85l.15-.45"/><path d="m369.3 636.4l.15-.6"/><path d="m369.45 635.8l.15-.45"/><path d="m369.6 635.35l.15-.45"/><path d="m369.75 634.9l.15-.45"/><path d="m369.9 634.45l.15-.6"/><path d="m370.05 633.85l.15-.45"/><path d="m370.2 633.4v-.15"/><path d="m371.25 629.65l.15-.3"/><path d="m371.4 629.35l.15-.45"/><path d="m371.55 628.9v-.45"/><path d="m371.55 628.45l.15-.6"/><path d="m371.7 627.85l.15-.45"/><path d="m371.85 627.4l.15-.45"/><path d="m372 626.95v-.6"/><path d="m372 626.35l.15-.3"/><path d="m372.9 622.45v-.15"/><path d="m372.9 622.3v-.45"/><path d="m372.9 621.85l.15-.45"/><path d="m373.05 621.4v-.6"/><path d="m373.05 620.8l.15-.45"/><path d="m373.2 620.35v-.6"/><path d="m373.2 619.75l.15-.45"/><path d="m373.35 619.3v-.45"/><path d="m373.35 618.85v-.15"/><path d="m373.8 614.95v-.3"/><path d="m373.8 614.65v-.45"/><path d="m373.8 614.2v-.6"/><path d="m373.8 613.6v-.45"/><path d="m373.8 613.15l.15-.6"/><path d="m373.95 612.55v-.45"/><path d="m373.95 612.1v-.6"/><path d="m373.95 611.5v-.3"/></g><g stroke="#000"><path d="m289.8 638.65v-1.95"/><path d="m289.8 632.95v-3.75"/><path d="m289.8 625.45v-3.75"/><path d="m289.8 617.95v-3.75"/><path d="m289.8 610.45v-1.95"/><path d="m377.55 635.05h-91.2"/><path d="m373.95 608.5v1.95"/><path d="m373.95 614.2v3.75"/><path d="m373.95 621.7v3.75"/><path d="m373.95 629.2v3.75"/><path d="m373.95 636.7v1.95"/><path d="m281.85 495.1h100.05"/></g></g></svg>