<svg xmlns="http://www.w3.org/2000/svg" width="109.75" height="168.85" viewBox="0 0 109.74769 168.84769"><g transform="translate(-69.18-285.43)" fill="none" stroke="#000" stroke-linejoin="round" stroke-linecap="round" stroke-width=".54" stroke-miterlimit="10"><path d="m86.4 433.6h84.15"/><path d="m170.55 454v-147.9"/><path d="m86.4 454v-147.9"/><path d="m86.4 306.1h84.15"/><path d="m103.2 416.8v-65.55"/><path d="m153.6 416.8v-65.55"/><path d="m103.2 351.25h50.4"/><path d="m78.3 299.95h100.2"/><path d="m78.3 299.95v154.05"/><path d="m178.5 299.95v154.05"/><path d="m78.3 454h100.2"/><path d="m86.4 334.45h84.15"/><path d="m164.7 378.55c0 1.409-1.174 2.55-2.625 2.55-1.449 0-2.625-1.142-2.625-2.55 0-1.409 1.176-2.55 2.625-2.55 1.451 0 2.625 1.142 2.625 2.55"/><path d="m130.95 320.28c0 1.449-1.142 2.625-2.55 2.625-1.407 0-2.55-1.176-2.55-2.625 0-1.45 1.143-2.625 2.55-2.625 1.409 0 2.55 1.175 2.55 2.625"/><path d="m103.2 416.8h50.4"/><path d="m178.5 433.75h.15"/><path d="m104.4 416.8v-65.55"/><path d="m152.4 416.8v-65.55"/><path d="m78.3 294.55h100.2"/><path d="m78.3 285.7h100.2"/><path d="m78.3 454v-154.05"/><path d="m69.45 299.95h8.85"/><path d="m69.45 294.55v5.4"/><path d="m78.3 294.55h-8.85"/><path d="m69.45 294.55h8.85"/><path d="m69.45 285.7v8.85"/><path d="m78.3 285.7h-8.85"/></g></svg>