<svg xmlns="http://www.w3.org/2000/svg" width="78.4" height="168.84" viewBox="0 0 78.397689 168.84388"><g transform="translate(-302.93-265.04)" fill="none" stroke="#000" stroke-linejoin="round" stroke-linecap="round" stroke-width=".54" stroke-miterlimit="10"><path d="m311.15 433.61v-147.9"/><path d="m373.1 433.61v-147.9"/><path d="m373.1 285.71h-61.95"/><path d="m356.3 396.41v-93.9"/><path d="m327.95 396.41v-93.9"/><path d="m356.3 302.51h-28.35"/><path d="m381.05 279.56h-77.85"/><path d="m381.05 279.56v154.05"/><path d="m303.2 279.56v154.05"/><path d="m381.05 433.61h-77.85"/><path d="m356.3 396.41h-28.35"/><path d="m373.1 413.21h-61.95"/><path d="m367.25 342.41c0 1.409-1.142 2.55-2.55 2.55-1.407 0-2.55-1.142-2.55-2.55 0-1.409 1.143-2.55 2.55-2.55 1.409 0 2.55 1.142 2.55 2.55"/><path d="m355.1 396.41v-93.9"/><path d="m329.15 396.41v-93.9"/><path d="m381.05 274.16h-77.85"/><path d="m381.05 265.31h-77.85"/></g></svg>