<svg xmlns="http://www.w3.org/2000/svg" width="140.5" height="168.84" viewBox="0 0 140.49768 168.84388" xmlns:xlink="http://www.w3.org/1999/xlink"><g transform="translate(-296.55-365.04)"><g fill="none" stroke-linejoin="round" stroke-linecap="round" stroke-width=".54" stroke-miterlimit="10"><g stroke="#aaa"><path d="m428.82 421.11h-3.75"/><path d="m421.32 421.11h-3.75"/><path d="m413.82 421.11h-3.75"/><path d="m406.32 421.11h-3.75"/><path d="m398.82 421.11h-3.75"/><path d="m391.32 421.11h-3.75"/><path d="m383.82 421.11h-3.75"/><path d="m376.32 421.11h-3.75"/><path d="m368.82 421.11h-3.75"/><path d="m361.32 421.11h-3.75"/><path d="m353.82 421.11h-3.75"/><path d="m346.32 421.11h-3.75"/><path d="m338.82 421.11h-3.75"/><path d="m331.32 421.11h-3.75"/><path d="m323.82 421.11h-3.75"/><path d="m316.32 421.11h-3.75"/><path d="m308.82 421.11h-3.75"/><path d="m305.07 421.11h-.3"/></g><g stroke="#000"><path d="m321.72 496.41v-93.9"/><path d="m350.07 496.41v-93.9"/><path d="m321.72 402.51h28.35"/><path d="m296.82 379.56h139.95"/><path d="m296.82 379.56v154.05"/><path d="m296.82 533.61h139.95"/></g></g><path d="m366.87 513.21v-127.5" fill="none" stroke="#000" stroke-linejoin="round" stroke-linecap="round" stroke-width=".54" stroke-miterlimit="10" id="0"/><g fill="none" stroke="#000" stroke-linejoin="round" stroke-linecap="round" stroke-width=".54" stroke-miterlimit="10"><path d="m304.77 385.71h124.05"/><path d="m436.77 379.56v154.05"/><path d="m304.77 513.21h62.1"/><path d="m321.72 496.41h28.35"/><path d="m428.82 385.71v147.9"/><path d="m304.77 385.71v147.9"/><path d="m361.02 442.41c0 1.409-1.142 2.55-2.55 2.55-1.407 0-2.55-1.142-2.55-2.55 0-1.409 1.143-2.55 2.55-2.55 1.409 0 2.55 1.142 2.55 2.55"/><path d="m348.72 496.41v-93.9"/><path d="m322.92 496.41v-93.9"/><path d="m412.02 496.41v-93.9"/><path d="m383.67 496.41v-93.9"/><path d="m412.02 402.51h-28.35"/></g><use xlink:href="#0"/><g fill="none" stroke="#000" stroke-linejoin="round" stroke-linecap="round" stroke-width=".54" stroke-miterlimit="10"><path d="m428.82 513.21h-61.95"/><path d="m412.02 496.41h-28.35"/><path d="m377.82 442.41c0 1.409-1.142 2.55-2.55 2.55-1.407 0-2.55-1.142-2.55-2.55 0-1.409 1.143-2.55 2.55-2.55 1.409 0 2.55 1.142 2.55 2.55"/><path d="m384.87 496.41v-93.9"/><path d="m410.82 496.41v-93.9"/><path d="m296.82 374.16h139.95"/><path d="m296.82 365.31h139.95"/></g><path d="m573.12 513.21v-127.5" fill="none" stroke="#000" stroke-linejoin="round" stroke-linecap="round" stroke-width=".54" stroke-miterlimit="10" id="1"/><use xlink:href="#1"/><path d="m156.72 513.21v-127.5" fill="none" stroke="#000" stroke-linejoin="round" stroke-linecap="round" stroke-width=".54" stroke-miterlimit="10" id="2"/><use xlink:href="#2"/></g></svg>