<svg xmlns="http://www.w3.org/2000/svg" width="149.35" height="168.85" viewBox="0 0 149.34769 168.84769" xmlns:xlink="http://www.w3.org/1999/xlink"><g transform="translate(-77.55-365.03)"><path d="m366.87 513.21v-127.5" fill="none" stroke="#000" stroke-linejoin="round" stroke-linecap="round" stroke-width=".54" stroke-miterlimit="10" id="0"/><use xlink:href="#0"/><path d="m573.12 513.21v-127.5" fill="none" stroke="#000" stroke-linejoin="round" stroke-linecap="round" stroke-width=".54" stroke-miterlimit="10" id="1"/><use xlink:href="#1"/><g fill="none" stroke-linejoin="round" stroke-linecap="round" stroke-width=".54" stroke-miterlimit="10"><g stroke="#000"><path d="m86.67 533.61v-154.05"/><path d="m77.82 379.56h8.85"/><path d="m77.82 374.16v5.4"/><path d="m86.67 374.16h-8.85"/><path d="m77.82 374.16h8.85"/><path d="m77.82 365.31v8.85"/><path d="m86.67 365.31h-8.85"/></g><g stroke="#aaa"><path d="m218.67 421.11h-3.75"/><path d="m211.17 421.11h-3.75"/><path d="m203.67 421.11h-3.75"/><path d="m196.17 421.11h-3.75"/><path d="m188.67 421.11h-3.75"/><path d="m181.17 421.11h-3.75"/><path d="m173.67 421.11h-3.75"/><path d="m166.17 421.11h-3.75"/><path d="m158.67 421.11h-3.75"/><path d="m151.17 421.11h-3.75"/><path d="m143.67 421.11h-3.75"/><path d="m136.17 421.11h-3.75"/><path d="m128.67 421.11h-3.75"/><path d="m121.17 421.11h-3.75"/><path d="m113.67 421.11h-3.75"/><path d="m106.17 421.11h-3.75"/><path d="m98.67 421.11h-3.75"/><path d="m94.92 421.11h-.3"/></g><g stroke="#000"><path d="m111.57 496.41v-93.9"/><path d="m139.92 496.41v-93.9"/><path d="m111.57 402.51h28.35"/><path d="m86.67 379.56h139.95"/><path d="m86.67 379.56v154.05"/><path d="m86.67 533.61h139.95"/></g></g><path d="m156.72 513.21v-127.5" fill="none" stroke="#000" stroke-linejoin="round" stroke-linecap="round" stroke-width=".54" stroke-miterlimit="10" id="2"/><g fill="none" stroke="#000" stroke-linejoin="round" stroke-linecap="round" stroke-width=".54" stroke-miterlimit="10"><path d="m94.62 385.71h124.05"/><path d="m226.62 379.56v154.05"/><path d="m94.62 513.21h62.1"/><path d="m111.57 496.41h28.35"/><path d="m218.67 385.71v147.9"/><path d="m94.62 385.71v147.9"/><path d="m150.87 442.41c0 1.409-1.142 2.55-2.55 2.55-1.407 0-2.55-1.142-2.55-2.55 0-1.409 1.143-2.55 2.55-2.55 1.409 0 2.55 1.142 2.55 2.55"/><path d="m138.57 496.41v-93.9"/><path d="m112.77 496.41v-93.9"/><path d="m201.87 496.41v-93.9"/><path d="m173.52 496.41v-93.9"/><path d="m201.87 402.51h-28.35"/></g><use xlink:href="#2"/><g fill="none" stroke="#000" stroke-linejoin="round" stroke-linecap="round" stroke-width=".54" stroke-miterlimit="10"><path d="m218.67 513.21h-61.95"/><path d="m201.87 496.41h-28.35"/><path d="m167.67 442.41c0 1.409-1.142 2.55-2.55 2.55-1.407 0-2.55-1.142-2.55-2.55 0-1.409 1.143-2.55 2.55-2.55 1.409 0 2.55 1.142 2.55 2.55"/><path d="m174.72 496.41v-93.9"/><path d="m200.67 496.41v-93.9"/><path d="m86.67 374.16h139.95"/><path d="m86.67 365.31h139.95"/></g></g></svg>