<svg xmlns="http://www.w3.org/2000/svg" width="149.35" height="168.85" viewBox="0 0 149.34769 168.84769" xmlns:xlink="http://www.w3.org/1999/xlink"><g transform="translate(-502.8-365.03)"><path d="m366.87 513.21v-127.5" fill="none" stroke="#000" stroke-linejoin="round" stroke-linecap="round" stroke-width=".54" stroke-miterlimit="10" id="0"/><use xlink:href="#0"/><g fill="none" stroke-linejoin="round" stroke-linecap="round" stroke-width=".54" stroke-miterlimit="10"><g stroke="#aaa"><path d="m635.07 421.11h-3.75"/><path d="m627.57 421.11h-3.75"/><path d="m620.07 421.11h-3.75"/><path d="m612.57 421.11h-3.75"/><path d="m605.07 421.11h-3.75"/><path d="m597.57 421.11h-3.75"/><path d="m590.07 421.11h-3.75"/><path d="m582.57 421.11h-3.75"/><path d="m575.07 421.11h-3.75"/><path d="m567.57 421.11h-3.75"/><path d="m560.07 421.11h-3.75"/><path d="m552.57 421.11h-3.75"/><path d="m545.07 421.11h-3.75"/><path d="m537.57 421.11h-3.75"/><path d="m530.07 421.11h-3.75"/><path d="m522.57 421.11h-3.75"/><path d="m515.07 421.11h-3.75"/><path d="m511.32 421.11h-.3"/></g><g stroke="#000"><path d="m527.82 496.41v-93.9"/><path d="m556.17 496.41v-93.9"/><path d="m527.82 402.51h28.35"/><path d="m503.07 379.56h139.95"/><path d="m503.07 379.56v154.05"/><path d="m503.07 533.61h139.95"/></g></g><path d="m573.12 513.21v-127.5" fill="none" stroke="#000" stroke-linejoin="round" stroke-linecap="round" stroke-width=".54" stroke-miterlimit="10" id="1"/><g fill="none" stroke="#000" stroke-linejoin="round" stroke-linecap="round" stroke-width=".54" stroke-miterlimit="10"><path d="m511.02 385.71h124.05"/><path d="m643.02 379.56v154.05"/><path d="m511.02 513.21h62.1"/><path d="m527.82 496.41h28.35"/><path d="m635.07 385.71v147.9"/><path d="m511.02 385.71v147.9"/><path d="m567.27 442.41c0 1.409-1.174 2.55-2.625 2.55-1.449 0-2.625-1.142-2.625-2.55 0-1.409 1.176-2.55 2.625-2.55 1.451 0 2.625 1.142 2.625 2.55"/><path d="m554.97 496.41v-93.9"/><path d="m529.17 496.41v-93.9"/><path d="m618.27 496.41v-93.9"/><path d="m589.92 496.41v-93.9"/><path d="m618.27 402.51h-28.35"/></g><use xlink:href="#1"/><g fill="none" stroke="#000" stroke-linejoin="round" stroke-linecap="round" stroke-width=".54" stroke-miterlimit="10"><path d="m635.07 513.21h-61.95"/><path d="m618.27 496.41h-28.35"/><path d="m584.07 442.41c0 1.409-1.141 2.55-2.55 2.55-1.407 0-2.55-1.142-2.55-2.55 0-1.409 1.143-2.55 2.55-2.55 1.409 0 2.55 1.142 2.55 2.55"/><path d="m591.12 496.41v-93.9"/><path d="m616.92 496.41v-93.9"/><path d="m503.07 374.16h139.95"/><path d="m503.07 365.31h139.95"/></g><path d="m156.72 513.21v-127.5" fill="none" stroke="#000" stroke-linejoin="round" stroke-linecap="round" stroke-width=".54" stroke-miterlimit="10" id="2"/><use xlink:href="#2"/><g fill="none" stroke="#000" stroke-linejoin="round" stroke-linecap="round" stroke-width=".54" stroke-miterlimit="10"><path d="m643.02 533.61v-154.05"/><path d="m651.87 379.56h-8.85"/><path d="m651.87 374.16v5.4"/><path d="m643.02 374.16h8.85"/><path d="m651.87 374.16h-8.85"/><path d="m651.87 365.31v8.85"/><path d="m643.02 365.31h8.85"/></g></g></svg>