<svg xmlns="http://www.w3.org/2000/svg" width="193.6" height="168.85" viewBox="0 0 193.59769 168.84768"><g transform="translate(-539.28-388.79)" fill="none" stroke="#000" stroke-linejoin="round" stroke-linecap="round" stroke-width=".54" stroke-miterlimit="10"><path d="m625.8 466.16c0 1.409-1.174 2.55-2.625 2.55-1.449 0-2.625-1.142-2.625-2.55 0-1.409 1.176-2.55 2.625-2.55 1.451 0 2.625 1.142 2.625 2.55"/><path d="m547.5 557.36v-147.9"/><path d="m547.5 409.46h85.8"/><path d="m564.3 520.16v-93.9"/><path d="m614.7 520.16v-93.9"/><path d="m564.3 426.26h50.4"/><path d="m539.55 403.31h184.2"/><path d="m539.55 403.31v154.05"/><path d="m715.8 557.36v-147.9"/><path d="m631.65 536.96v-127.5"/><path d="m629.85 409.46h85.95"/><path d="m648.45 520.16v-93.9"/><path d="m698.85 520.16v-93.9"/><path d="m648.45 426.26h50.4"/><path d="m723.75 403.31v154.05"/><path d="m539.55 557.36h184.2"/><path d="m547.5 536.96h168.3"/><path d="m648.45 520.16h50.4"/><path d="m564.3 520.16h50.4"/><path d="m642.6 466.16c0 1.409-1.141 2.55-2.55 2.55-1.407 0-2.55-1.142-2.55-2.55 0-1.409 1.143-2.55 2.55-2.55 1.409 0 2.55 1.142 2.55 2.55"/><path d="m613.5 520.16v-93.9"/><path d="m697.65 520.16v-93.9"/><path d="m565.5 520.16v-93.9"/><path d="m649.65 520.16v-93.9"/><path d="m539.55 397.91h184.2"/><path d="m539.55 389.06h184.2"/><path d="m723.75 557.36v-154.05"/><path d="m732.6 403.31h-8.85"/><path d="m732.6 397.91v5.4"/><path d="m723.75 397.91h8.85"/><path d="m732.6 397.91h-8.85"/><path d="m732.6 389.06v8.85"/><path d="m723.75 389.06h8.85"/></g></svg>