<svg xmlns="http://www.w3.org/2000/svg" width="106.75" height="168.84" viewBox="0 0 106.74769 168.84387"><g transform="translate(-115.09-310.07)" fill="none" stroke="#000" stroke-linejoin="round" stroke-linecap="round" stroke-width=".54" stroke-miterlimit="10"><path d="m207.76 407.09c0 1.409-1.142 2.55-2.55 2.55-1.407 0-2.55-1.142-2.55-2.55 0-1.409 1.143-2.55 2.55-2.55 1.409 0 2.55 1.142 2.55 2.55"/><path d="m221.56 353.84v-29.25"/><path d="m115.36 353.84v-29.25"/><path d="m213.61 478.64v-112.5"/><path d="m123.31 478.64v-112.5"/><path d="m140.11 441.44v-58.5"/><path d="m196.81 441.44v-58.5"/><path d="m140.11 382.94h56.7"/><path d="m115.36 360.29v118.35"/><path d="m221.56 360.29v118.35"/><path d="m221.56 359.99h-106.2"/><path d="m115.36 353.84c0 1.099.251 2.1.75 3 .6.999 1.35 1.749 2.25 2.25 1 .6 2.05.9 3.15.9"/><path d="m215.41 359.99c1.101 0 2.151-.3 3.15-.9.9-.501 1.65-1.251 2.25-2.25.501-.9.75-1.901.75-3"/><path d="m221.56 478.64h-106.2"/><path d="m123.31 458.24h90.3"/><path d="m140.11 441.44h56.7"/><path d="m213.61 366.14h-90.3"/><path d="m221.56 324.59h-106.2"/><path d="m141.31 441.44v-58.5"/><path d="m195.61 441.44v-58.5"/><path d="m221.56 319.19h-106.2"/><path d="m221.56 310.34h-106.2"/><path d="m119.71 324.59v-5.4"/><path d="m217.21 324.59v-5.4"/></g></svg>