<svg xmlns="http://www.w3.org/2000/svg" width="106.75" height="160.89" viewBox="0 0 106.74769 160.89194"><g transform="translate(-184.46-670.9)" fill="none" stroke-linejoin="round" stroke-linecap="round" stroke-width=".54" stroke-miterlimit="10"><g stroke="#000"><path d="m290.94 784.57v-113.4h-106.2v113.4h106.2"/><path d="m192.69 784.57l81.3 46.95"/></g><g stroke="#888"><path d="m270.99 829.72l.15-.3"/><path d="m271.14 829.42l.15-.3"/><path d="m271.29 829.12l.15-.3"/><path d="m271.44 828.82l.15-.45"/><path d="m271.59 828.37l.3-.3"/><path d="m271.89 828.07l.15-.3"/><path d="m272.04 827.77l.15-.3"/><path d="m272.19 827.47l.15-.3"/><path d="m272.34 827.17l.15-.3"/><path d="m272.49 826.87l.15-.45"/><path d="m274.29 823.12l.15-.3"/><path d="m274.44 822.82l.3-.3"/><path d="m274.74 822.52l.15-.3"/><path d="m274.89 822.22l.15-.45"/><path d="m275.04 821.77l.15-.3"/><path d="m275.19 821.47l.15-.3"/><path d="m275.34 821.17l.15-.3"/><path d="m275.49 820.87l.15-.45"/><path d="m275.64 820.42l.15-.3"/><path d="m275.79 820.12l.15-.3"/><path d="m277.29 816.37l.15-.3"/><path d="m277.44 816.07v-.45"/><path d="m277.44 815.62l.15-.3"/><path d="m277.59 815.32l.15-.3"/><path d="m277.74 815.02l.15-.45"/><path d="m277.89 814.57l.15-.3"/><path d="m278.04 814.27v-.3"/><path d="m278.04 813.97l.15-.45"/><path d="m278.19 813.52l.15-.3"/><path d="m278.34 813.22l.15-.3"/><path d="m279.54 809.32l.15-.3"/><path d="m279.69 809.02v-.45"/><path d="m279.69 808.57l.15-.3"/><path d="m279.84 808.27l.15-.3"/><path d="m279.99 807.97v-.45"/><path d="m279.99 807.52l.15-.3"/><path d="m280.14 807.22l.15-.3"/><path d="m280.29 806.92v-.45"/><path d="m280.29 806.47l.15-.3"/><path d="m280.44 806.17v-.45"/><path d="m281.34 802.12v-.3"/><path d="m281.34 801.82l.15-.3"/><path d="m281.49 801.52v-.45"/><path d="m281.49 801.07l.15-.3"/><path d="m281.64 800.77v-.45"/><path d="m281.64 800.32v-.3"/><path d="m281.64 800.02l.15-.45"/><path d="m281.79 799.57v-.3"/><path d="m281.79 799.27l.15-.3"/><path d="m281.94 798.97v-.45"/><path d="m282.39 794.92l.15-.45"/><path d="m282.54 794.47v-.3"/><path d="m282.54 794.17v-.45"/><path d="m282.54 793.72v-.3"/><path d="m282.54 793.42l.15-.45"/><path d="m282.69 792.97v-.3"/><path d="m282.69 792.67v-.3"/><path d="m282.69 792.37v-.45"/><path d="m282.69 791.92v-.3"/><path d="m282.69 791.62l.15-.45"/><path d="m282.99 787.42v-.3"/><path d="m282.99 787.12v-.3"/><path d="m282.99 786.82v-.45"/><path d="m282.99 786.37v-.3"/><path d="m282.99 786.07v-.45"/><path d="m282.99 785.62v-.3"/><path d="m282.99 785.32v-.45"/><path d="m282.99 784.87v-.3"/></g><g stroke="#000"><path d="m189.09 787.27v-74.85"/><path d="m286.59 787.27v-74.85"/><path d="m188.94 788.02h97.8"/><path d="m184.74 789.82h1.8"/><path d="m289.29 789.82h1.65"/><path d="m186.54 789.82c.672 0 1.32-.27 1.8-.75.48-.48.75-1.128.75-1.8"/><path d="m286.59 787.27c0 .672.27 1.32.75 1.8.48.48 1.182.75 1.95.75"/><path d="m189.09 784.57h97.5"/><path d="m191.79 709.72h92.1"/><path d="m191.79 709.72c-.672 0-1.374.27-1.95.75-.48.48-.75 1.182-.75 1.95"/><path d="m286.59 712.42c0-.768-.27-1.47-.75-1.95-.48-.48-1.182-.75-1.95-.75"/><path d="m237.84 736.72v-21.45"/><path d="m227.19 726.07h20.85"/><path d="m245.79 726.07c0 4.39-3.559 7.95-7.95 7.95-4.391 0-7.95-3.559-7.95-7.95 0-4.39 3.559-7.95 7.95-7.95 4.391 0 7.95 3.559 7.95 7.95"/></g></g></svg>