<svg xmlns="http://www.w3.org/2000/svg" width="193.6" height="168.85" viewBox="0 0 193.59769 168.84768" xmlns:xlink="http://www.w3.org/1999/xlink"><g transform="translate(-175.01-474.82)"><path d="m549.23 622.99v-127.5" fill="none" stroke="#000" stroke-linejoin="round" stroke-linecap="round" stroke-width=".54" stroke-miterlimit="10" id="0"/><use xlink:href="#0"/><path d="m813.08 622.99v-127.5" fill="none" stroke="#000" stroke-linejoin="round" stroke-linecap="round" stroke-width=".54" stroke-miterlimit="10" id="1"/><use xlink:href="#1"/><g fill="none" stroke-linejoin="round" stroke-linecap="round" stroke-miterlimit="10"><g stroke="#aaa" stroke-width=".09"><path d="m192.08 530.89h3.45"/><path d="m199.28 530.89h3.75"/><path d="m206.78 530.89h3.75"/><path d="m214.28 530.89h3.75"/><path d="m221.78 530.89h3.75"/><path d="m229.28 530.89h3.75"/><path d="m236.78 530.89h3.75"/><path d="m244.28 530.89h3.75"/><path d="m251.78 530.89h3.75"/><path d="m259.28 530.89h3.75"/><path d="m266.78 530.89h3.75"/><path d="m274.28 530.89h3.75"/><path d="m281.78 530.89h3.75"/><path d="m289.28 530.89h3.75"/><path d="m296.78 530.89h3.75"/><path d="m304.28 530.89h3.75"/><path d="m311.78 530.89h3.75"/><path d="m319.28 530.89h3.75"/><path d="m326.78 530.89h3.75"/><path d="m334.28 530.89h3.75"/><path d="m341.78 530.89h3.75"/><path d="m349.28 530.89h3.75"/><path d="m356.78 530.89h3.6"/></g><g stroke="#000" stroke-width=".54"><path d="m270.38 552.19c0 1.409-1.141 2.55-2.55 2.55-1.407 0-2.55-1.141-2.55-2.55 0-1.409 1.143-2.55 2.55-2.55 1.409 0 2.55 1.141 2.55 2.55"/><path d="m192.08 643.39v-147.9"/><path d="m192.08 495.49h168.3"/><path d="m208.88 606.19v-93.9"/><path d="m259.43 606.19v-93.9"/><path d="m208.88 512.29h50.55"/><path d="m184.13 489.34h184.2"/><path d="m184.13 489.34v154.05"/><path d="m360.38 643.39v-147.9"/></g></g><path d="m276.23 622.99v-127.5" fill="none" stroke="#000" stroke-linejoin="round" stroke-linecap="round" stroke-width=".54" stroke-miterlimit="10" id="2"/><g fill="none" stroke="#000" stroke-linejoin="round" stroke-linecap="round" stroke-width=".54" stroke-miterlimit="10"><path d="m368.33 489.34v154.05"/><path d="m184.13 643.39h184.2"/><path d="m192.08 622.99h84.15"/><path d="m208.88 606.19h50.55"/><path d="m258.08 606.19v-93.9"/><path d="m210.08 606.19v-93.9"/><path d="m287.18 552.19c0 1.409-1.142 2.55-2.55 2.55-1.407 0-2.55-1.141-2.55-2.55 0-1.409 1.143-2.55 2.55-2.55 1.409 0 2.55 1.141 2.55 2.55"/><path d="m343.58 606.19v-93.9"/><path d="m293.03 606.19v-93.9"/><path d="m343.58 512.29h-50.55"/></g><use xlink:href="#2"/><g fill="none" stroke="#000" stroke-linejoin="round" stroke-linecap="round" stroke-width=".54" stroke-miterlimit="10"><path d="m360.38 622.99h-84.15"/><path d="m343.58 606.19h-50.55"/><path d="m294.23 606.19v-93.9"/><path d="m342.38 606.19v-93.9"/><path d="m184.13 483.94h184.2"/><path d="m184.13 475.09h184.2"/><path d="m184.13 643.39v-154.05"/><path d="m175.28 489.34h8.85"/><path d="m175.28 483.94v5.4"/><path d="m184.13 483.94h-8.85"/><path d="m175.28 483.94h8.85"/><path d="m175.28 475.09v8.85"/><path d="m184.13 475.09h-8.85"/></g></g></svg>