<svg xmlns="http://www.w3.org/2000/svg" width="109.45" height="168.85" viewBox="0 0 109.44769 168.84769"><g transform="translate(-64.53-314)" fill="none" stroke="#000" stroke-linejoin="round" stroke-linecap="round" stroke-width=".54" stroke-miterlimit="10"><path d="m73.66 482.57v-154.05"/><path d="m64.806 328.52h8.85"/><path d="m64.806 323.12v5.4"/><path d="m73.66 323.12h-8.85"/><path d="m64.806 323.12h8.85"/><path d="m64.806 314.27v8.85"/><path d="m73.66 314.27h-8.85"/><path d="m165.76 462.17h-84.15"/><path d="m81.61 482.57v-147.9"/><path d="m165.76 482.57v-147.9"/><path d="m165.76 334.67h-84.15"/><path d="m148.96 445.37v-65.55"/><path d="m98.41 445.37v-65.55"/><path d="m148.96 379.82h-50.55"/><path d="m173.71 328.52h-100.05"/><path d="m173.71 328.52v154.05"/><path d="m73.66 328.52v154.05"/><path d="m173.71 482.57h-100.05"/><path d="m165.76 363.02h-84.15"/><path d="m92.56 407.12c0 1.409-1.141 2.55-2.55 2.55-1.407 0-2.55-1.142-2.55-2.55 0-1.409 1.143-2.55 2.55-2.55 1.409 0 2.55 1.142 2.55 2.55"/><path d="m126.31 348.85c0 1.449-1.141 2.625-2.55 2.625-1.407 0-2.55-1.176-2.55-2.625 0-1.45 1.143-2.625 2.55-2.625 1.409 0 2.55 1.175 2.55 2.625"/><path d="m148.96 445.37h-50.55"/><path d="m73.66 462.32h-.15"/><path d="m147.76 445.37v-65.55"/><path d="m99.76 445.37v-65.55"/><path d="m173.71 323.12h-100.05"/><path d="m173.71 314.27h-100.05"/></g></svg>