<svg xmlns="http://www.w3.org/2000/svg" width="109.6" height="168.85" viewBox="0 0 109.59769 168.84769"><g transform="translate(-489.48-314)" fill="none" stroke="#000" stroke-linejoin="round" stroke-linecap="round" stroke-width=".54" stroke-miterlimit="10"><path d="m589.96 482.57v-154.05"/><path d="m598.81 328.52h-8.85"/><path d="m598.81 323.12v5.4"/><path d="m589.96 323.12h8.85"/><path d="m598.81 323.12h-8.85"/><path d="m598.81 314.27v8.85"/><path d="m589.96 314.27h8.85"/><path d="m582.01 462.17h-84.15"/><path d="m497.86 482.57v-147.9"/><path d="m582.01 482.57v-147.9"/><path d="m582.01 334.67h-84.15"/><path d="m565.21 445.37v-65.55"/><path d="m514.66 445.37v-65.55"/><path d="m565.21 379.82h-50.55"/><path d="m589.96 328.52h-100.05"/><path d="m589.96 328.52v154.05"/><path d="m489.91 328.52v154.05"/><path d="m589.96 482.57h-100.05"/><path d="m582.01 363.02h-84.15"/><path d="m508.81 407.12c0 1.409-1.142 2.55-2.55 2.55-1.407 0-2.55-1.142-2.55-2.55 0-1.409 1.143-2.55 2.55-2.55 1.409 0 2.55 1.142 2.55 2.55"/><path d="m542.56 348.85c0 1.449-1.141 2.625-2.55 2.625-1.407 0-2.55-1.176-2.55-2.625 0-1.45 1.143-2.625 2.55-2.625 1.409 0 2.55 1.175 2.55 2.625"/><path d="m565.21 445.37h-50.55"/><path d="m489.91 462.32h-.15"/><path d="m564.01 445.37v-65.55"/><path d="m516.01 445.37v-65.55"/><path d="m589.96 323.12h-100.05"/><path d="m589.96 314.27h-100.05"/></g></svg>