<svg xmlns="http://www.w3.org/2000/svg" width="100.75" height="175.89" viewBox="0 0 100.74769 175.89275"><g transform="translate(-283.83-523.4)" fill="none" stroke-linejoin="round" stroke-linecap="round" stroke-width=".54" stroke-miterlimit="10"><g stroke="#000"><path d="m284.11 523.67v113.4h100.2v-113.4h-100.2z"/><path d="m376.21 637.07l-61.95 61.95"/></g><g stroke="#888"><path d="m292.06 637.07v.45"/><path d="m292.06 637.52l.15.6"/><path d="m292.21 638.12v.45"/><path d="m292.21 638.57v.6"/><path d="m292.21 639.17v.45"/><path d="m292.21 639.62v.45"/><path d="m292.21 640.07v.6"/><path d="m292.21 640.67v.15"/><path d="m292.51 644.57v.15"/><path d="m292.51 644.72v.6"/><path d="m292.51 645.32l.15.45"/><path d="m292.66 645.77v.6"/><path d="m292.66 646.37v.45"/><path d="m292.66 646.82l.15.6"/><path d="m292.81 647.42v.45"/><path d="m292.81 647.87l.15.45"/><path d="m293.41 652.07l.15.45"/><path d="m293.56 652.52l.15.45"/><path d="m293.71 652.97v.45"/><path d="m293.71 653.42l.15.6"/><path d="m293.86 654.02l.15.45"/><path d="m294.01 654.47v.45"/><path d="m294.01 654.92l.15.6"/><path d="m294.16 655.52v.15"/><path d="m295.21 659.27v.15"/><path d="m295.21 659.42l.15.6"/><path d="m295.36 660.02l.15.45"/><path d="m295.51 660.47l.15.45"/><path d="m295.66 660.92l.15.6"/><path d="m295.81 661.52l.15.45"/><path d="m295.96 661.97l.15.45"/><path d="m296.11 662.42l.15.45"/><path d="m297.46 666.32l.15.6"/><path d="m297.61 666.92l.15.45"/><path d="m297.76 667.37l.15.45"/><path d="m297.91 667.82l.3.45"/><path d="m298.21 668.27l.15.45"/><path d="m298.36 668.72l.15.6"/><path d="m298.51 669.32l.3.45"/><path d="m300.31 673.22l.15.3"/><path d="m300.46 673.52l.15.45"/><path d="m300.61 673.97l.3.45"/><path d="m300.91 674.42l.15.45"/><path d="m301.06 674.87l.3.45"/><path d="m301.36 675.32l.3.45"/><path d="m301.66 675.77l.15.45"/><path d="m301.81 676.22l.15.3"/><path d="m303.91 679.67v.15"/><path d="m303.91 679.82l.15.45"/><path d="m304.06 680.27l.3.45"/><path d="m304.36 680.72l.3.45"/><path d="m304.66 681.17l.3.45"/><path d="m304.96 681.62l.3.45"/><path d="m305.26 682.07l.15.45"/><path d="m305.41 682.52l.3.45"/><path d="m307.81 685.97l.3.3"/><path d="m308.11 686.27l.3.45"/><path d="m308.41 686.72l.3.45"/><path d="m308.71 687.17l.3.45"/><path d="m309.01 687.62l.3.45"/><path d="m309.31 688.07l.3.3"/><path d="m309.61 688.37l.3.45"/><path d="m309.91 688.82l.15.15"/><path d="m312.46 691.82l.15.15"/><path d="m312.61 691.97l.3.45"/><path d="m312.91 692.42l.3.3"/><path d="m313.21 692.72l.45.45"/><path d="m313.66 693.17l.3.45"/><path d="m313.96 693.62l.3.3"/><path d="m314.26 693.92l.3.45"/><path d="m314.56 694.37l.3.3"/></g><g stroke="#000"><path d="m376.21 667.22v-1.95"/><path d="m376.21 661.52v-3.75"/><path d="m376.21 654.02v-3.75"/><path d="m376.21 646.52v-3.75"/><path d="m376.21 639.02v-1.95"/><path d="m288.61 663.62h91.2"/><path d="m292.06 637.07v1.95"/><path d="m292.06 642.77v3.75"/><path d="m292.06 650.27v3.75"/><path d="m292.06 657.77v3.75"/><path d="m292.06 665.27v1.95"/><path d="m284.11 523.67h100.2"/></g></g></svg>