<svg xmlns="http://www.w3.org/2000/svg" width="100.9" height="168.84" viewBox="0 0 100.89769 168.84388"><g transform="translate(-283.68-314)" fill="none" stroke="#000" stroke-linejoin="round" stroke-linecap="round" stroke-width=".54" stroke-miterlimit="10"><path d="m376.21 462.17h-84.15"/><path d="m292.06 482.57v-147.9"/><path d="m376.21 482.57v-147.9"/><path d="m376.21 334.67h-84.15"/><path d="m359.41 445.37v-65.55"/><path d="m309.01 445.37v-65.55"/><path d="m359.41 379.82h-50.4"/><path d="m384.31 328.52h-100.2"/><path d="m384.31 328.52v154.05"/><path d="m284.11 328.52v154.05"/><path d="m384.31 482.57h-100.2"/><path d="m376.21 363.02h-84.15"/><path d="m303.16 407.12c0 1.409-1.175 2.55-2.625 2.55-1.449 0-2.625-1.142-2.625-2.55 0-1.409 1.176-2.55 2.625-2.55 1.45 0 2.625 1.142 2.625 2.55"/><path d="m336.76 348.85c0 1.449-1.142 2.625-2.55 2.625-1.407 0-2.55-1.176-2.55-2.625 0-1.45 1.143-2.625 2.55-2.625 1.409 0 2.55 1.175 2.55 2.625"/><path d="m359.41 445.37h-50.4"/><path d="m284.11 462.32h-.15"/><path d="m358.21 445.37v-65.55"/><path d="m310.21 445.37v-65.55"/><path d="m384.31 323.12h-100.2"/><path d="m384.31 314.27h-100.2"/></g></svg>