<svg xmlns="http://www.w3.org/2000/svg" height="101.04" viewBox="0 0 144.98999 101.04193"><g transform="translate(-108.01-740.52)" fill="none" stroke="#888" stroke-linejoin="round" stroke-linecap="round" stroke-width=".54" stroke-miterlimit="10"><path d="m108.28 740.79v56.7h144.45v-56.7h-144.45z"/><path d="m200.38 797.49l-75.9 43.8"/><path d="m116.23 797.49v.3"/><path d="m116.23 797.79v.3"/><path d="m116.23 798.09v.45"/><path d="m116.23 798.54v.3"/><path d="m116.23 798.84v.3"/><path d="m116.23 799.14v.45"/><path d="m116.23 799.59v.3"/><path d="m116.23 799.89v.3"/><path d="m116.23 800.19v.3"/><path d="m116.23 800.49l.15.45"/><path d="m116.38 800.94v.3"/><path d="m116.53 804.99l.15.45"/><path d="m116.68 805.44v.3"/><path d="m116.68 805.74v.3"/><path d="m116.68 806.04v.3"/><path d="m116.68 806.34l.15.45"/><path d="m116.83 806.79v.3"/><path d="m116.83 807.09v.3"/><path d="m116.83 807.39v.45"/><path d="m116.83 807.84l.15.3"/><path d="m116.98 808.14v.3"/><path d="m116.98 808.44v.15"/><path d="m117.58 812.19v.3"/><path d="m117.58 812.49l.15.45"/><path d="m117.73 812.94v.3"/><path d="m117.73 813.24v.3"/><path d="m117.73 813.54l.15.3"/><path d="m117.88 813.84v.45"/><path d="m117.88 814.29l.15.3"/><path d="m118.03 814.59v.3"/><path d="m118.03 814.89l.15.3"/><path d="m118.18 815.19v.45"/><path d="m118.18 815.64l.15.15"/><path d="m119.08 819.39l.15.15"/><path d="m119.23 819.54v.3"/><path d="m119.23 819.84l.15.45"/><path d="m119.38 820.29l.15.3"/><path d="m119.53 820.59v.3"/><path d="m119.53 820.89l.15.3"/><path d="m119.68 821.19l.15.3"/><path d="m119.83 821.49v.45"/><path d="m119.83 821.94l.15.3"/><path d="m119.98 822.24l.15.3"/><path d="m120.13 822.54v.3"/><path d="m121.33 826.29v.15"/><path d="m121.33 826.44l.15.3"/><path d="m121.48 826.74l.15.3"/><path d="m121.63 827.04l.15.45"/><path d="m121.78 827.49l.15.3"/><path d="m121.93 827.79l.15.3"/><path d="m122.08 828.09v.3"/><path d="m122.08 828.39l.15.3"/><path d="m122.23 828.69l.15.3"/><path d="m122.38 828.99l.15.3"/><path d="m122.53 829.29l.15.45"/><path d="m124.18 833.19l.15.3"/><path d="m124.33 833.49l.15.3"/><path d="m124.48 833.79l.15.3"/><path d="m124.63 834.09l.15.3"/><path d="m124.78 834.39l.15.3"/><path d="m124.93 834.69l.15.3"/><path d="m125.08 834.99l.15.3"/><path d="m125.23 835.29l.15.3"/><path d="m125.38 835.59l.15.3"/><path d="m125.53 835.89l.15.3"/><path d="m125.68 836.19l.15.3"/></g></svg>