<svg xmlns="http://www.w3.org/2000/svg" width="145" height="133.45" viewBox="0 0 144.9977 133.44769"><g transform="translate(-108-526.02)" fill="none" stroke-linejoin="round" stroke-linecap="round" stroke-width=".54" stroke-miterlimit="10"><g stroke="#000"><path d="m216.28 659.19v-3.75"/><path d="m216.28 651.69v-3.75"/><path d="m216.28 644.19v-3.75"/><path d="m216.28 636.69v-3.75"/><path d="m216.28 629.19v-3.75"/><path d="m216.28 621.69v-3.75"/><path d="m216.28 614.19v-3.75"/><path d="m216.28 606.69v-3.75"/><path d="m216.28 599.19v-3.75"/><path d="m216.28 591.69v-3.75"/><path d="m216.28 584.19v-3.75"/><path d="m216.28 576.69v-3.75"/><path d="m216.28 569.19v-3.75"/><path d="m216.28 561.69v-3.75"/><path d="m216.28 554.19v-3.75"/><path d="m216.28 546.69v-3.75"/><path d="m216.28 539.19v-3.75"/><path d="m216.28 531.69v-3.75"/><path d="m216.28 526.59v-.3"/><path d="m252.73 659.19v-3.75"/><path d="m252.73 651.69v-3.75"/><path d="m252.73 644.19v-3.75"/><path d="m252.73 636.69v-3.75"/><path d="m252.73 629.19v-3.75"/><path d="m252.73 621.69v-3.75"/><path d="m252.73 614.19v-3.75"/><path d="m252.73 606.69v-3.75"/><path d="m252.73 599.19v-3.75"/><path d="m252.73 591.69v-3.75"/><path d="m252.73 584.19v-3.75"/><path d="m252.73 576.69v-3.75"/><path d="m252.73 569.19v-3.75"/><path d="m252.73 561.69v-3.75"/><path d="m252.73 554.19v-3.75"/><path d="m252.73 546.69v-3.75"/><path d="m252.73 539.19v-3.75"/><path d="m252.73 531.69v-3.75"/><path d="m252.73 526.59v-.3"/><path d="m208.33 659.19h1.5"/><path d="m213.58 659.19h3.75"/><path d="m221.08 659.19h3.75"/><path d="m228.58 659.19h3.75"/><path d="m236.08 659.19h3.75"/><path d="m243.58 659.19h3.75"/><path d="m251.08 659.19h1.65"/><path d="m252.73 526.29h-1.5"/><path d="m247.48 526.29h-3.75"/><path d="m239.98 526.29h-3.75"/><path d="m232.48 526.29h-3.75"/><path d="m224.98 526.29h-3.75"/><path d="m217.48 526.29h-3.75"/><path d="m209.98 526.29h-1.65"/><path d="m208.33 659.19h-100.05"/><path d="m208.33 526.29h-100.05"/><path d="m208.33 659.19v-132.9"/><path d="m116.23 647.64v-113.25"/><path d="m200.38 647.64v-113.25"/><path d="m200.38 534.39h-84.15"/><path d="m200.38 647.64h-84.15"/><path d="m188.83 548.49h-61.05"/><path d="m108.28 659.19v-132.9"/><path d="m188.83 633.54h-61.05"/><path d="m188.83 633.54v-85.05"/><path d="m127.78 633.54v-85.05"/><path d="m124.63 597.32c0 1.449-1.174 2.625-2.625 2.625-1.449 0-2.625-1.176-2.625-2.625 0-1.451 1.176-2.625 2.625-2.625 1.451 0 2.625 1.174 2.625 2.625"/></g><g stroke="#888"><path d="m178.18 596.49l-20.7 20.85"/><path d="m170.23 571.74l-24 24.15"/><path d="m181.63 555.99l-42.15 42.3"/><path d="m188.83 608.79h-17.4"/><path d="m167.68 608.79h-18.75"/><path d="m145.18 608.79h-17.4"/><path d="m188.83 612.09h-17.4"/><path d="m167.68 612.09h-18.75"/><path d="m145.18 612.09h-17.4"/><path d="m188.83 569.94h-17.4"/><path d="m167.68 569.94h-18.75"/><path d="m145.18 569.94h-17.4"/><path d="m188.83 573.24h-17.4"/><path d="m167.68 573.24h-18.75"/><path d="m145.18 573.24h-17.4"/></g></g></svg>