<svg xmlns="http://www.w3.org/2000/svg" width="184.75" height="168.84" viewBox="0 0 184.7477 168.84387" xmlns:xlink="http://www.w3.org/1999/xlink"><g transform="translate(-456.86-474.82)"><g fill="none" stroke-linejoin="round" stroke-linecap="round" stroke-miterlimit="10"><g stroke="#aaa" stroke-width=".09"><path d="m465.08 530.89h3.45"/><path d="m472.28 530.89h3.75"/><path d="m479.78 530.89h3.75"/><path d="m487.28 530.89h3.75"/><path d="m494.78 530.89h3.75"/><path d="m502.28 530.89h3.75"/><path d="m509.78 530.89h3.75"/><path d="m517.28 530.89h3.75"/><path d="m524.78 530.89h3.75"/><path d="m532.28 530.89h3.75"/><path d="m539.78 530.89h3.75"/><path d="m547.28 530.89h3.75"/><path d="m554.78 530.89h3.75"/><path d="m562.28 530.89h3.75"/><path d="m569.78 530.89h3.75"/><path d="m577.28 530.89h3.75"/><path d="m584.78 530.89h3.75"/><path d="m592.28 530.89h3.75"/><path d="m599.78 530.89h3.75"/><path d="m607.28 530.89h3.75"/><path d="m614.78 530.89h3.75"/><path d="m622.28 530.89h3.75"/><path d="m629.78 530.89h3.6"/></g><g stroke="#000" stroke-width=".54"><path d="m543.38 552.19c0 1.409-1.141 2.55-2.55 2.55-1.407 0-2.55-1.141-2.55-2.55 0-1.409 1.143-2.55 2.55-2.55 1.409 0 2.55 1.141 2.55 2.55"/><path d="m465.08 643.39v-147.9"/><path d="m465.08 495.49h168.3"/><path d="m481.88 606.19v-93.9"/><path d="m532.43 606.19v-93.9"/><path d="m481.88 512.29h50.55"/><path d="m457.13 489.34h184.2"/><path d="m457.13 489.34v154.05"/><path d="m633.38 643.39v-147.9"/></g></g><path d="m549.23 622.99v-127.5" fill="none" stroke="#000" stroke-linejoin="round" stroke-linecap="round" stroke-width=".54" stroke-miterlimit="10" id="0"/><g fill="none" stroke="#000" stroke-linejoin="round" stroke-linecap="round" stroke-width=".54" stroke-miterlimit="10"><path d="m641.33 489.34v154.05"/><path d="m457.13 643.39h184.2"/><path d="m465.08 622.99h84.15"/><path d="m481.88 606.19h50.55"/><path d="m531.23 606.19v-93.9"/><path d="m483.23 606.19v-93.9"/><path d="m560.33 552.19c0 1.409-1.174 2.55-2.625 2.55-1.449 0-2.625-1.141-2.625-2.55 0-1.409 1.176-2.55 2.625-2.55 1.451 0 2.625 1.141 2.625 2.55"/><path d="m616.58 606.19v-93.9"/><path d="m566.03 606.19v-93.9"/><path d="m616.58 512.29h-50.55"/></g><use xlink:href="#0"/><g fill="none" stroke="#000" stroke-linejoin="round" stroke-linecap="round" stroke-width=".54" stroke-miterlimit="10"><path d="m633.38 622.99h-84.15"/><path d="m616.58 606.19h-50.55"/><path d="m567.38 606.19v-93.9"/><path d="m615.38 606.19v-93.9"/><path d="m457.13 483.94h184.2"/><path d="m457.13 475.09h184.2"/></g><path d="m813.08 622.99v-127.5" fill="none" stroke="#000" stroke-linejoin="round" stroke-linecap="round" stroke-width=".54" stroke-miterlimit="10" id="1"/><use xlink:href="#1"/><path d="m276.23 622.99v-127.5" fill="none" stroke="#000" stroke-linejoin="round" stroke-linecap="round" stroke-width=".54" stroke-miterlimit="10" id="2"/><use xlink:href="#2"/></g></svg>