<svg xmlns="http://www.w3.org/2000/svg" height="175.89" viewBox="0 0 184.73999 175.89273" xmlns:xlink="http://www.w3.org/1999/xlink"><g transform="translate(-456.86-683.47)"><path d="m549.23 622.99v-127.5" fill="none" stroke="#000" stroke-linejoin="round" stroke-linecap="round" stroke-width=".54" stroke-miterlimit="10" id="0"/><use xlink:href="#0"/><g fill="none" stroke-linejoin="round" stroke-linecap="round" stroke-width=".54" stroke-miterlimit="10"><g stroke="#000"><path d="m465.08 797.14l62.1 61.95"/><path d="m457.13 683.74v113.4h184.2v-113.4h-184.2z"/></g><g stroke="#888"><path d="m524.63 856.54l.3-.3"/><path d="m524.93 856.24l.45-.45"/><path d="m525.38 855.79l.3-.3"/><path d="m525.68 855.49l.45-.3"/><path d="m526.13 855.19l.3-.45"/><path d="m526.43 854.74l.3-.45"/><path d="m526.73 854.29l.45-.3"/><path d="m527.18 853.99v-.15"/><path d="m529.73 851.14l.15-.3"/><path d="m529.88 850.84l.3-.3"/><path d="m530.18 850.54l.3-.45"/><path d="m530.48 850.09l.3-.45"/><path d="m530.78 849.64l.3-.3"/><path d="m531.08 849.34l.45-.45"/><path d="m531.53 848.89l.3-.45"/><path d="m531.83 848.44l.15-.3"/><path d="m534.23 845.14l.3-.45"/><path d="m534.53 844.69l.3-.45"/><path d="m534.83 844.24l.3-.45"/><path d="m535.13 843.79l.3-.45"/><path d="m535.43 843.34l.3-.3"/><path d="m535.73 843.04l.15-.45"/><path d="m535.88 842.59l.3-.45"/><path d="m536.18 842.14l.15-.15"/><path d="m538.13 838.84l.15-.3"/><path d="m538.28 838.54l.3-.45"/><path d="m538.58 838.09l.3-.45"/><path d="m538.88 837.64l.15-.45"/><path d="m539.03 837.19l.3-.45"/><path d="m539.33 836.74l.3-.45"/><path d="m539.63 836.29l.15-.45"/><path d="m539.78 835.84l.15-.3"/><path d="m541.58 832.24v-.15"/><path d="m541.58 832.09l.3-.45"/><path d="m541.88 831.64l.15-.45"/><path d="m542.03 831.19l.3-.45"/><path d="m542.33 830.74l.15-.45"/><path d="m542.48 830.29l.15-.45"/><path d="m542.63 829.84l.3-.6"/><path d="m542.93 829.24l.15-.45"/><path d="m544.43 825.34l.15-.45"/><path d="m544.58 824.89l.15-.45"/><path d="m544.73 824.44l.15-.45"/><path d="m544.88 823.99l.15-.45"/><path d="m545.03 823.54l.15-.6"/><path d="m545.18 822.94l.15-.45"/><path d="m545.33 822.49l.15-.45"/><path d="m545.48 822.04l.15-.3"/><path d="m546.68 818.14v-.15"/><path d="m546.68 817.99v-.45"/><path d="m546.68 817.54l.15-.45"/><path d="m546.83 817.09l.15-.6"/><path d="m546.98 816.49l.15-.45"/><path d="m547.13 816.04l.15-.45"/><path d="m547.28 815.59v-.6"/><path d="m547.28 814.99l.15-.45"/><path d="m548.18 810.94v-.45"/><path d="m548.18 810.49l.15-.6"/><path d="m548.33 809.89v-.45"/><path d="m548.33 809.44l.15-.45"/><path d="m548.48 808.99v-.6"/><path d="m548.48 808.39l.15-.45"/><path d="m548.63 807.94v-.6"/><path d="m548.63 807.34v-.15"/><path d="m549.08 803.44v-.15"/><path d="m549.08 803.29v-.6"/><path d="m549.08 802.69v-.45"/><path d="m549.08 802.24v-.45"/><path d="m549.08 801.79l.15-.6"/><path d="m549.23 801.19v-.45"/><path d="m549.23 800.74v-.6"/><path d="m549.23 800.14v-.45"/></g><path d="m633.38 797.14l-61.95 61.95" stroke="#000"/><g stroke="#888"><path d="m549.23 797.14v.45"/><path d="m549.23 797.59v.6"/><path d="m549.23 798.19v.45"/><path d="m549.23 798.64v.45"/><path d="m549.23 799.09l.15.6"/><path d="m549.38 799.69v.45"/><path d="m549.38 800.14v.6"/><path d="m549.38 800.74v.15"/><path d="m549.68 804.64v.15"/><path d="m549.68 804.79v.6"/><path d="m549.68 805.39v.45"/><path d="m549.68 805.84l.15.45"/><path d="m549.83 806.29v.6"/><path d="m549.83 806.89l.15.45"/><path d="m549.98 807.34v.6"/><path d="m549.98 807.94v.45"/><path d="m550.58 811.99l.15.45"/><path d="m550.73 812.44v.6"/><path d="m550.73 813.04l.15.45"/><path d="m550.88 813.49l.15.45"/><path d="m551.03 813.94v.6"/><path d="m551.03 814.54l.15.45"/><path d="m551.18 814.99l.15.6"/><path d="m552.23 819.19l.15.3"/><path d="m552.38 819.49l.15.6"/><path d="m552.53 820.09v.45"/><path d="m552.53 820.54l.15.45"/><path d="m552.68 820.99l.15.6"/><path d="m552.83 821.59l.15.45"/><path d="m552.98 822.04l.15.45"/><path d="m553.13 822.49l.15.3"/><path d="m554.48 826.39l.3.45"/><path d="m554.78 826.84l.15.6"/><path d="m554.93 827.44l.15.45"/><path d="m555.08 827.89l.15.45"/><path d="m555.23 828.34l.3.45"/><path d="m555.53 828.79l.15.45"/><path d="m555.68 829.24l.15.6"/><path d="m557.48 833.29l.15.3"/><path d="m557.63 833.59l.15.45"/><path d="m557.78 834.04l.3.45"/><path d="m558.08 834.49l.15.45"/><path d="m558.23 834.94l.3.45"/><path d="m558.53 835.39l.15.45"/><path d="m558.68 835.84l.3.45"/><path d="m558.98 836.29l.15.3"/><path d="m560.93 839.89l.3.45"/><path d="m561.23 840.34l.3.45"/><path d="m561.53 840.79l.3.45"/><path d="m561.83 841.24l.15.45"/><path d="m561.98 841.69l.3.45"/><path d="m562.28 842.14l.3.45"/><path d="m562.58 842.59l.3.45"/><path d="m564.98 846.04l.3.3"/><path d="m565.28 846.34l.3.45"/><path d="m565.58 846.79l.3.45"/><path d="m565.88 847.24l.3.45"/><path d="m566.18 847.69l.3.3"/><path d="m566.48 847.99l.3.45"/><path d="m566.78 848.44l.3.45"/><path d="m567.08 848.89l.15.15"/><path d="m569.63 851.89l.15.15"/><path d="m569.78 852.04l.3.45"/><path d="m570.08 852.49l.3.3"/><path d="m570.38 852.79l.3.45"/><path d="m570.68 853.24l.45.3"/><path d="m571.13 853.54l.3.45"/><path d="m571.43 853.99l.3.3"/><path d="m571.73 854.29l.3.3"/></g></g><path d="m813.08 622.99v-127.5" fill="none" stroke="#000" stroke-linejoin="round" stroke-linecap="round" stroke-width=".54" stroke-miterlimit="10" id="1"/><use xlink:href="#1"/><path d="m276.23 622.99v-127.5" fill="none" stroke="#000" stroke-linejoin="round" stroke-linecap="round" stroke-width=".54" stroke-miterlimit="10" id="2"/><use xlink:href="#2"/></g></svg>