<svg xmlns="http://www.w3.org/2000/svg" width="193.6" height="168.85" viewBox="0 0 193.59769 168.84768" xmlns:xlink="http://www.w3.org/1999/xlink"><g transform="translate(-720.71-474.82)"><path d="m549.23 622.99v-127.5" fill="none" stroke="#000" stroke-linejoin="round" stroke-linecap="round" stroke-width=".54" stroke-miterlimit="10" id="0"/><use xlink:href="#0"/><g fill="none" stroke-linejoin="round" stroke-linecap="round" stroke-miterlimit="10"><g stroke="#aaa" stroke-width=".09"><path d="m728.93 530.89h3.45"/><path d="m736.13 530.89h3.75"/><path d="m743.63 530.89h3.75"/><path d="m751.13 530.89h3.75"/><path d="m758.63 530.89h3.75"/><path d="m766.13 530.89h3.75"/><path d="m773.63 530.89h3.75"/><path d="m781.13 530.89h3.75"/><path d="m788.63 530.89h3.75"/><path d="m796.13 530.89h3.75"/><path d="m803.63 530.89h3.75"/><path d="m811.13 530.89h3.75"/><path d="m818.63 530.89h3.75"/><path d="m826.13 530.89h3.75"/><path d="m833.63 530.89h3.75"/><path d="m841.13 530.89h3.75"/><path d="m848.63 530.89h3.75"/><path d="m856.13 530.89h3.75"/><path d="m863.63 530.89h3.75"/><path d="m871.13 530.89h3.75"/><path d="m878.63 530.89h3.75"/><path d="m886.13 530.89h3.75"/><path d="m893.63 530.89h3.6"/></g><g stroke="#000" stroke-width=".54"><path d="m807.23 552.19c0 1.409-1.174 2.55-2.625 2.55-1.449 0-2.625-1.141-2.625-2.55 0-1.409 1.176-2.55 2.625-2.55 1.451 0 2.625 1.141 2.625 2.55"/><path d="m728.93 643.39v-147.9"/><path d="m728.93 495.49h168.3"/><path d="m745.73 606.19v-93.9"/><path d="m796.28 606.19v-93.9"/><path d="m745.73 512.29h50.55"/><path d="m720.98 489.34h184.2"/><path d="m720.98 489.34v154.05"/><path d="m897.23 643.39v-147.9"/></g></g><path d="m813.08 622.99v-127.5" fill="none" stroke="#000" stroke-linejoin="round" stroke-linecap="round" stroke-width=".54" stroke-miterlimit="10" id="1"/><g fill="none" stroke="#000" stroke-linejoin="round" stroke-linecap="round" stroke-width=".54" stroke-miterlimit="10"><path d="m905.18 489.34v154.05"/><path d="m720.98 643.39h184.2"/><path d="m728.93 622.99h84.15"/><path d="m745.73 606.19h50.55"/><path d="m794.93 606.19v-93.9"/><path d="m746.93 606.19v-93.9"/><path d="m824.03 552.19c0 1.409-1.141 2.55-2.55 2.55-1.407 0-2.55-1.141-2.55-2.55 0-1.409 1.143-2.55 2.55-2.55 1.409 0 2.55 1.141 2.55 2.55"/><path d="m880.43 606.19v-93.9"/><path d="m829.88 606.19v-93.9"/><path d="m880.43 512.29h-50.55"/></g><use xlink:href="#1"/><g fill="none" stroke="#000" stroke-linejoin="round" stroke-linecap="round" stroke-width=".54" stroke-miterlimit="10"><path d="m897.23 622.99h-84.15"/><path d="m880.43 606.19h-50.55"/><path d="m831.08 606.19v-93.9"/><path d="m879.08 606.19v-93.9"/><path d="m720.98 483.94h184.2"/><path d="m720.98 475.09h184.2"/></g><path d="m276.23 622.99v-127.5" fill="none" stroke="#000" stroke-linejoin="round" stroke-linecap="round" stroke-width=".54" stroke-miterlimit="10" id="2"/><use xlink:href="#2"/><g fill="none" stroke="#000" stroke-linejoin="round" stroke-linecap="round" stroke-width=".54" stroke-miterlimit="10"><path d="m905.18 643.39v-154.05"/><path d="m914.03 489.34h-8.85"/><path d="m914.03 483.94v5.4"/><path d="m905.18 483.94h8.85"/><path d="m914.03 483.94h-8.85"/><path d="m914.03 475.09v8.85"/><path d="m905.18 475.09h8.85"/></g></g></svg>