<svg xmlns="http://www.w3.org/2000/svg" height="101.04" viewBox="0 0 184.73999 101.04193"><g transform="translate(-131.11-593.34)" fill="none" stroke="#888" stroke-linejoin="round" stroke-linecap="round" stroke-width=".54" stroke-miterlimit="10"><path d="m131.38 593.61v56.7h184.2v-56.7h-184.2z"/><path d="m139.33 650.31l75.9 43.8"/><path d="m212.23 692.31l.15-.3"/><path d="m212.38 692.01l.15-.3"/><path d="m212.53 691.71l.15-.3"/><path d="m212.68 691.41l.15-.3"/><path d="m212.83 691.11l.3-.3"/><path d="m213.13 690.81l.15-.3"/><path d="m213.28 690.51l.15-.3"/><path d="m213.43 690.21l.15-.3"/><path d="m213.58 689.91l.15-.3"/><path d="m213.73 689.61l.15-.3"/><path d="m213.88 689.31l.15-.3"/><path d="m215.68 685.71l.15-.45"/><path d="m215.83 685.26l.15-.3"/><path d="m215.98 684.96l.15-.3"/><path d="m216.13 684.66l.15-.3"/><path d="m216.28 684.36l.15-.3"/><path d="m216.43 684.06l.15-.3"/><path d="m216.58 683.76l.15-.3"/><path d="m216.73 683.46l.15-.3"/><path d="m216.88 683.16v-.3"/><path d="m216.88 682.86l.15-.3"/><path d="m217.03 682.56l.15-.3"/><path d="m218.53 678.81v-.15"/><path d="m218.53 678.66l.15-.3"/><path d="m218.68 678.36l.15-.3"/><path d="m218.83 678.06l.15-.45"/><path d="m218.98 677.61v-.3"/><path d="m218.98 677.31l.15-.3"/><path d="m219.13 677.01l.15-.3"/><path d="m219.28 676.71v-.3"/><path d="m219.28 676.41l.15-.45"/><path d="m219.43 675.96l.15-.3"/><path d="m219.58 675.66l.15-.3"/><path d="m220.78 671.76v-.3"/><path d="m220.78 671.46l.15-.45"/><path d="m220.93 671.01v-.3"/><path d="m220.93 670.71l.15-.3"/><path d="m221.08 670.41v-.3"/><path d="m221.08 670.11l.15-.45"/><path d="m221.23 669.66v-.3"/><path d="m221.23 669.36l.15-.3"/><path d="m221.38 669.06v-.3"/><path d="m221.38 668.76l.15-.3"/><path d="m221.53 668.46v-.3"/><path d="m222.28 664.56v-.3"/><path d="m222.28 664.26l.15-.3"/><path d="m222.43 663.96v-.3"/><path d="m222.43 663.66v-.3"/><path d="m222.43 663.36l.15-.45"/><path d="m222.58 662.91v-.3"/><path d="m222.58 662.61v-.3"/><path d="m222.58 662.31l.15-.3"/><path d="m222.73 662.01v-.45"/><path d="m222.73 661.56v-.3"/><path d="m222.73 661.26l.15-.3"/><path d="m223.18 657.21v-.45"/><path d="m223.18 656.76l.15-.3"/><path d="m223.33 656.46v-.3"/><path d="m223.33 656.16v-.3"/><path d="m223.33 655.86v-.45"/><path d="m223.33 655.41v-.3"/><path d="m223.33 655.11v-.3"/><path d="m223.33 654.81v-.45"/><path d="m223.33 654.36v-.3"/><path d="m223.33 654.06l.15-.3"/><path d="m223.48 653.76v-.3"/><path d="m307.63 650.31l-75.9 43.8"/><path d="m223.48 650.31v.3"/><path d="m223.48 650.61v.3"/><path d="m223.48 650.91v.45"/><path d="m223.48 651.36v.3"/><path d="m223.48 651.66v.3"/><path d="m223.48 651.96v.45"/><path d="m223.48 652.41v.3"/><path d="m223.48 652.71v.3"/><path d="m223.48 653.01v.3"/><path d="m223.48 653.31l.15.45"/><path d="m223.63 653.76v.3"/><path d="m223.78 657.81l.15.45"/><path d="m223.93 658.26v.3"/><path d="m223.93 658.56v.3"/><path d="m223.93 658.86v.3"/><path d="m223.93 659.16v.45"/><path d="m223.93 659.61l.15.3"/><path d="m224.08 659.91v.3"/><path d="m224.08 660.21v.45"/><path d="m224.08 660.66l.15.3"/><path d="m224.23 660.96v.3"/><path d="m224.23 661.26v.15"/><path d="m224.83 665.01v.3"/><path d="m224.83 665.31l.15.45"/><path d="m224.98 665.76v.3"/><path d="m224.98 666.06v.3"/><path d="m224.98 666.36l.15.3"/><path d="m225.13 666.66v.45"/><path d="m225.13 667.11l.15.3"/><path d="m225.28 667.41v.3"/><path d="m225.28 667.71l.15.3"/><path d="m225.43 668.01v.45"/><path d="m225.43 668.46l.15.15"/><path d="m226.33 672.21l.15.15"/><path d="m226.48 672.36v.3"/><path d="m226.48 672.66l.15.45"/><path d="m226.63 673.11l.15.3"/><path d="m226.78 673.41v.3"/><path d="m226.78 673.71l.15.3"/><path d="m226.93 674.01l.15.3"/><path d="m227.08 674.31v.45"/><path d="m227.08 674.76l.15.3"/><path d="m227.23 675.06l.15.3"/><path d="m227.38 675.36v.3"/><path d="m228.58 679.11v.15"/><path d="m228.58 679.26l.15.3"/><path d="m228.73 679.56l.15.3"/><path d="m228.88 679.86l.15.45"/><path d="m229.03 680.31l.15.3"/><path d="m229.18 680.61v.3"/><path d="m229.18 680.91l.15.3"/><path d="m229.33 681.21l.15.3"/><path d="m229.48 681.51l.15.3"/><path d="m229.63 681.81l.15.3"/><path d="m229.78 682.11l.15.45"/><path d="m231.43 686.01l.15.3"/><path d="m231.58 686.31l.15.3"/><path d="m231.73 686.61l.15.3"/><path d="m231.88 686.91l.15.3"/><path d="m232.03 687.21l.15.3"/><path d="m232.18 687.51l.15.3"/><path d="m232.33 687.81l.15.3"/><path d="m232.48 688.11l.15.3"/><path d="m232.63 688.41l.15.3"/><path d="m232.78 688.71l.15.3"/><path d="m232.93 689.01l.15.3"/></g></svg>