<svg xmlns="http://www.w3.org/2000/svg" width="184.75" height="221.95" viewBox="0 0 184.7477 221.94829"><g transform="translate(-131.11-290.34)" fill="none" stroke="#000" stroke-linejoin="round" stroke-linecap="round" stroke-width=".54" stroke-miterlimit="10"><path d="m131.38 512.01h184.2"/><path d="m217.63 420.81c0 1.409-1.142 2.55-2.55 2.55-1.407 0-2.55-1.142-2.55-2.55 0-1.409 1.143-2.55 2.55-2.55 1.409 0 2.55 1.142 2.55 2.55"/><path d="m223.48 500.46v-201.9"/><path d="m139.33 500.46v-201.9"/><path d="m139.33 298.56h84.15"/><path d="m131.38 290.61h184.2"/><path d="m131.38 290.61v221.4"/><path d="m139.33 500.46h84.15"/><path d="m234.43 420.81c0 1.409-1.142 2.55-2.55 2.55-1.407 0-2.55-1.142-2.55-2.55 0-1.409 1.143-2.55 2.55-2.55 1.409 0 2.55 1.142 2.55 2.55"/><path d="m307.63 500.46v-201.9"/><path d="m307.63 298.56h-84.15"/><path d="m307.63 500.46h-84.15"/><path d="m315.58 290.61v221.4"/><path d="m153.58 486.36v-173.55"/><path d="m209.38 486.36v-173.55"/><path d="m153.58 312.81h55.8"/><path d="m153.58 486.36h55.8"/><path d="m154.78 486.36v-173.55"/><path d="m208.03 486.36v-173.55"/><path d="m237.73 486.36v-173.55"/><path d="m293.53 486.36v-173.55"/><path d="m237.73 312.81h55.8"/><path d="m237.73 486.36h55.8"/><path d="m238.93 486.36v-173.55"/><path d="m292.18 486.36v-173.55"/></g></svg>