<svg xmlns="http://www.w3.org/2000/svg" width="140.5" height="168.84" viewBox="0 0 140.49768 168.84387"><g transform="translate(-297.04-353.61)" fill="none" stroke="#000" stroke-linejoin="round" stroke-linecap="round" stroke-width=".54" stroke-miterlimit="10"><path d="m322.21 484.98v-93.9"/><path d="m350.41 484.98v-93.9"/><path d="m322.21 391.08h28.2"/><path d="m297.31 368.13h139.95"/><path d="m297.31 368.13v154.05"/><path d="m297.31 522.18h139.95"/><path d="m367.36 501.78v-127.5"/><path d="m305.26 374.28h124.05"/><path d="m384.16 484.98v-93.9"/><path d="m412.51 484.98v-93.9"/><path d="m384.16 391.08h28.35"/><path d="m437.26 368.13v154.05"/><path d="m378.31 430.98c0 1.409-1.142 2.55-2.55 2.55-1.407 0-2.55-1.142-2.55-2.55 0-1.409 1.143-2.55 2.55-2.55 1.409 0 2.55 1.142 2.55 2.55"/><path d="m305.26 501.78h124.05"/><path d="m322.21 484.98h28.2"/><path d="m384.16 484.98h28.35"/><path d="m429.31 374.28v147.9"/><path d="m305.26 374.28v147.9"/><path d="m361.51 430.98c0 1.409-1.175 2.55-2.625 2.55-1.449 0-2.625-1.142-2.625-2.55 0-1.409 1.176-2.55 2.625-2.55 1.45 0 2.625 1.142 2.625 2.55"/><path d="m349.21 484.98v-93.9"/><path d="m411.31 484.98v-93.9"/><path d="m323.41 484.98v-93.9"/><path d="m385.36 484.98v-93.9"/><path d="m297.31 362.73h139.95"/><path d="m297.31 353.88h139.95"/></g></svg>