<svg xmlns="http://www.w3.org/2000/svg" height="89.94" viewBox="0 0 122.79 89.941934"><g transform="translate(-162.23-540.36)" fill="none" stroke="#888" stroke-linejoin="round" stroke-linecap="round" stroke-width=".54" stroke-miterlimit="10"><path d="m162.5 540.63v56.7h122.25v-56.7h-122.25z"/><path d="m214.7 597.33l56.85 32.7"/><path d="m268.4 628.38l.3-.45"/><path d="m268.7 627.93l.3-.45"/><path d="m269 627.48l.15-.45"/><path d="m269.15 627.03l.3-.45"/><path d="m269.45 626.58l.3-.45"/><path d="m269.75 626.13l.15-.45"/><path d="m269.9 625.68l.3-.45"/><path d="m270.2 625.23v-.15"/><path d="m271.85 621.63v-.15"/><path d="m271.85 621.48l.15-.45"/><path d="m272 621.03l.3-.45"/><path d="m272.3 620.58l.15-.45"/><path d="m272.45 620.13l.15-.45"/><path d="m272.6 619.68l.15-.6"/><path d="m272.75 619.08l.15-.45"/><path d="m272.9 618.63l.3-.45"/><path d="m274.25 614.58l.15-.3"/><path d="m274.4 614.28l.15-.45"/><path d="m274.55 613.83l.15-.45"/><path d="m274.7 613.38l.15-.45"/><path d="m274.85 612.93v-.6"/><path d="m274.85 612.33l.15-.45"/><path d="m275 611.88l.15-.45"/><path d="m275.15 611.43l.15-.45"/><path d="m275.9 607.38l.15-.45"/><path d="m276.05 606.93v-.6"/><path d="m276.05 606.33l.15-.45"/><path d="m276.2 605.88v-.45"/><path d="m276.2 605.43l.15-.6"/><path d="m276.35 604.83v-.45"/><path d="m276.35 604.38v-.45"/><path d="m276.35 603.93v-.3"/><path d="m276.65 599.88l.15-.6"/><path d="m276.8 599.28v-.45"/><path d="m276.8 598.83v-.45"/><path d="m276.8 598.38v-.6"/><path d="m276.8 597.78v-.45"/></g></svg>