<svg xmlns="http://www.w3.org/2000/svg" width="122.8" height="133.45" viewBox="0 0 122.79769 133.44769"><g transform="translate(-162.23-325.85)" fill="none" stroke="#000" stroke-linejoin="round" stroke-linecap="round" stroke-width=".54" stroke-miterlimit="10"><path d="m284.75 459.03h-78"/><path d="m284.75 326.13h-78"/><path d="m284.75 459.03v-132.9"/><path d="m214.7 447.48v-113.25"/><path d="m276.8 447.48v-113.25"/><path d="m276.8 334.23h-62.1"/><path d="m276.8 447.48h-62.1"/><path d="m265.25 348.33h-39"/><path d="m198.8 459.03v-3.75"/><path d="m198.8 451.53v-3.75"/><path d="m198.8 444.03v-3.75"/><path d="m198.8 436.53v-3.75"/><path d="m198.8 429.03v-3.75"/><path d="m198.8 421.53v-3.75"/><path d="m198.8 414.03v-3.75"/><path d="m198.8 406.53v-3.75"/><path d="m198.8 399.03v-3.75"/><path d="m198.8 391.53v-3.75"/><path d="m198.8 384.03v-3.75"/><path d="m198.8 376.53v-3.75"/><path d="m198.8 369.03v-3.75"/><path d="m198.8 361.53v-3.75"/><path d="m198.8 354.03v-3.75"/><path d="m198.8 346.53v-3.75"/><path d="m198.8 339.03v-3.75"/><path d="m198.8 331.53v-3.75"/><path d="m198.8 326.43v-.3"/><path d="m265.25 433.38h-39"/><path d="m226.25 433.38v-85.05"/><path d="m265.25 433.38v-85.05"/><path d="m273.5 397.15c0 1.449-1.142 2.625-2.55 2.625-1.407 0-2.55-1.176-2.55-2.625 0-1.45 1.143-2.625 2.55-2.625 1.409 0 2.55 1.175 2.55 2.625"/><path d="m162.5 459.03v-3.75"/><path d="m162.5 451.53v-3.75"/><path d="m162.5 444.03v-3.75"/><path d="m162.5 436.53v-3.75"/><path d="m162.5 429.03v-3.75"/><path d="m162.5 421.53v-3.75"/><path d="m162.5 414.03v-3.75"/><path d="m162.5 406.53v-3.75"/><path d="m162.5 399.03v-3.75"/><path d="m162.5 391.53v-3.75"/><path d="m162.5 384.03v-3.75"/><path d="m162.5 376.53v-3.75"/><path d="m162.5 369.03v-3.75"/><path d="m162.5 361.53v-3.75"/><path d="m162.5 354.03v-3.75"/><path d="m162.5 346.53v-3.75"/><path d="m162.5 339.03v-3.75"/><path d="m162.5 331.53v-3.75"/><path d="m162.5 326.43v-.3"/><path d="m206.75 459.03h-1.5"/><path d="m201.5 459.03h-3.75"/><path d="m194 459.03h-3.75"/><path d="m186.5 459.03h-3.75"/><path d="m179 459.03h-3.75"/><path d="m171.5 459.03h-3.75"/><path d="m164 459.03h-1.5"/><path d="m162.5 326.13h1.5"/><path d="m167.75 326.13h3.75"/><path d="m175.25 326.13h3.75"/><path d="m182.75 326.13h3.75"/><path d="m190.25 326.13h3.75"/><path d="m197.75 326.13h3.75"/><path d="m205.25 326.13h1.5"/><path d="m206.75 459.03v-132.9"/><path d="m227.45 433.38v-85.05"/><path d="m264.05 433.38v-85.05"/></g></svg>