<svg xmlns="http://www.w3.org/2000/svg" width="100.59" height="57.24" viewBox="0 0 100.59384 57.243844"><g transform="translate(-254.34-543.85)" fill="none" stroke="#888" stroke-linejoin="round" stroke-linecap="round" stroke-width=".54" stroke-miterlimit="10"><path d="m354.66 600.82v-56.7h-100.05v56.7h100.05"/><path d="m262.56 600.82v-.9"/><path d="m262.56 596.17v-3.75"/><path d="m262.56 588.67v-3.75"/><path d="m262.56 581.17v-3.75"/><path d="m262.56 573.67v-3.75"/><path d="m262.56 566.17v-3.75"/><path d="m262.56 558.67v-3.75"/><path d="m262.56 551.17v-.9"/><path d="m346.71 600.82v-.9"/><path d="m346.71 596.17v-3.75"/><path d="m346.71 588.67v-3.75"/><path d="m346.71 581.17v-3.75"/><path d="m346.71 573.67v-3.75"/><path d="m346.71 566.17v-3.75"/><path d="m346.71 558.67v-3.75"/><path d="m346.71 551.17v-.9"/><path d="m262.56 550.27h2.7"/><path d="m269.01 550.27h3.75"/><path d="m276.51 550.27h3.75"/><path d="m284.01 550.27h3.75"/><path d="m291.51 550.27h3.75"/><path d="m299.01 550.27h3.75"/><path d="m306.51 550.27h3.75"/><path d="m314.01 550.27h3.75"/><path d="m321.51 550.27h3.75"/><path d="m329.01 550.27h3.75"/><path d="m336.51 550.27h3.75"/><path d="m344.01 550.27h2.7"/></g></svg>