<svg xmlns="http://www.w3.org/2000/svg" width="100.6" height="133.45" viewBox="0 0 100.59769 133.4477"><g transform="translate(-254.33-329.35)" fill="none" stroke-linejoin="round" stroke-linecap="round" stroke-width=".54" stroke-miterlimit="10"><g stroke="#888"><path d="m294.96 373.72v-36"/><path d="m275.46 373.72v-36"/><path d="m294.96 412.42v-36.15"/><path d="m275.46 412.42v-36.15"/><path d="m294.96 451.12v-36.15"/><path d="m275.46 451.12v-36.15"/><path d="m314.46 373.72v-36"/><path d="m314.46 412.42v-36.15"/><path d="m314.46 451.12v-36.15"/><path d="m333.96 373.72v-36"/><path d="m333.96 412.42v-36.15"/><path d="m333.96 451.12v-36.15"/></g><g stroke="#000"><path d="m254.61 462.52h100.05"/><path d="m254.61 329.62h100.05"/><path d="m254.61 462.52v-132.9"/><path d="m346.71 450.97v-113.25"/><path d="m262.56 450.97v-113.25"/><path d="m262.56 337.72h84.15"/><path d="m262.56 450.97h84.15"/><path d="m354.66 462.52v-132.9"/><path d="m346.71 376.27h-84.15"/><path d="m346.71 373.72h-84.15"/><path d="m346.71 414.97h-84.15"/><path d="m346.71 412.42h-84.15"/></g></g></svg>