<svg xmlns="http://www.w3.org/2000/svg" width="128.05" height="168.84" viewBox="0 0 128.04768 168.84388"><g transform="translate(-185.5-521.4)" fill="none" stroke="#000" stroke-linejoin="round" stroke-linecap="round" stroke-width=".54" stroke-miterlimit="10"><path d="m185.77 689.97h127.5"/><path d="m299.47 598.77c0 1.409-1.142 2.55-2.55 2.55-1.409 0-2.55-1.141-2.55-2.55 0-1.409 1.142-2.55 2.55-2.55 1.409 0 2.55 1.141 2.55 2.55"/><path d="m305.32 689.97v-147.9"/><path d="m193.72 689.97v-147.9"/><path d="m193.72 542.07h111.6"/><path d="m210.52 652.77v-93.9"/><path d="m288.52 652.77v-93.9"/><path d="m210.52 558.87h78"/><path d="m185.77 535.92h127.5"/><path d="m185.77 535.92v154.05"/><path d="m313.27 535.92v154.05"/><path d="m210.52 652.77h78"/><path d="m193.72 669.57h111.6"/><path d="m211.87 652.77v-93.9"/><path d="m287.32 652.77v-93.9"/><path d="m185.77 530.52h127.5"/><path d="m185.77 521.67h127.5"/></g></svg>