<svg xmlns="http://www.w3.org/2000/svg" width="128.04" height="195.39" viewBox="0 0 128.04384 195.39275"><g transform="translate(-732.85-730.8)" fill="none" stroke-linejoin="round" stroke-linecap="round" stroke-width=".54" stroke-miterlimit="10"><g stroke="#000"><path d="m860.62 844.47v-3.75h-127.5v3.75h127.5"/><path d="m852.67 844.47l-81.45 81.45"/></g><g stroke="#888"><path d="m741.07 844.47v.6"/><path d="m741.07 845.07v.75"/><path d="m741.07 845.82v.75"/><path d="m741.07 846.57v.6"/><path d="m741.07 847.17v.75"/><path d="m741.07 847.92v.3"/><path d="m741.37 851.97v.75"/><path d="m741.37 852.72v.6"/><path d="m741.37 853.32l.15.75"/><path d="m741.52 854.07v.6"/><path d="m741.52 854.67v.75"/><path d="m741.52 855.42v.3"/><path d="m742.12 859.32v.15"/><path d="m742.12 859.47v.75"/><path d="m742.12 860.22l.15.6"/><path d="m742.27 860.82l.15.75"/><path d="m742.42 861.57v.6"/><path d="m742.42 862.17l.15.75"/><path d="m742.57 862.92v.15"/><path d="m743.32 866.67v.15"/><path d="m743.32 866.82l.15.75"/><path d="m743.47 867.57l.15.6"/><path d="m743.62 868.17l.15.75"/><path d="m743.77 868.92l.15.6"/><path d="m743.92 869.52l.15.75"/><path d="m745.12 873.87v.3"/><path d="m745.12 874.17l.15.75"/><path d="m745.27 874.92l.15.6"/><path d="m745.42 875.52l.3.6"/><path d="m745.72 876.12l.15.75"/><path d="m745.87 876.87l.15.6"/><path d="m747.22 881.07l.15.3"/><path d="m747.37 881.37l.15.75"/><path d="m747.52 882.12l.3.6"/><path d="m747.82 882.72l.15.6"/><path d="m747.97 883.32l.3.6"/><path d="m748.27 883.92l.3.6"/><path d="m749.92 887.97l.15.45"/><path d="m750.07 888.42l.3.6"/><path d="m750.37 889.02l.3.6"/><path d="m750.67 889.62l.3.75"/><path d="m750.97 890.37l.15.6"/><path d="m751.12 890.97l.3.45"/><path d="m753.07 894.72l.15.45"/><path d="m753.22 895.17l.3.75"/><path d="m753.52 895.92l.45.6"/><path d="m753.97 896.52l.3.6"/><path d="m754.27 897.12l.3.6"/><path d="m754.57 897.72l.15.3"/><path d="m756.52 901.32l.45.45"/><path d="m756.97 901.77l.3.6"/><path d="m757.27 902.37l.3.6"/><path d="m757.57 902.97l.45.6"/><path d="m758.02 903.57l.3.6"/><path d="m758.32 904.17l.15.3"/><path d="m760.57 907.62l.45.6"/><path d="m761.02 908.22l.45.45"/><path d="m761.47 908.67l.3.6"/><path d="m761.77 909.27l.45.6"/><path d="m762.22 909.87l.45.45"/><path d="m762.67 910.32l.15.3"/><path d="m765.07 913.62l.45.6"/><path d="m765.52 914.22l.45.45"/><path d="m765.97 914.67l.45.6"/><path d="m766.42 915.27l.45.45"/><path d="m766.87 915.72l.45.6"/><path d="m767.32 916.32l.15.15"/><path d="m769.87 919.32l.15.15"/><path d="m770.02 919.47l.45.45"/><path d="m770.47 919.92l.45.45"/><path d="m770.92 920.37l.45.6"/><path d="m771.37 920.97l.45.45"/><path d="m771.82 921.42l.45.45"/><path d="m772.27 921.87l.15.15"/></g><g stroke="#000"><path d="m743.77 840.72v-2.55"/><path d="m743.77 834.42v-3.75"/><path d="m743.77 826.92v-3.75"/><path d="m743.77 819.42v-3.75"/><path d="m743.77 811.92v-3.75"/><path d="m743.77 804.42v-3.75"/><path d="m743.77 796.92v-3.75"/><path d="m743.77 789.42v-3.75"/><path d="m743.77 781.92v-3.75"/><path d="m743.77 774.42v-3.75"/><path d="m743.77 766.92v-3.75"/><path d="m743.77 759.42v-3.75"/><path d="m743.77 751.92v-3.75"/><path d="m743.77 744.42v-3.75"/><path d="m743.77 736.92v-2.55"/><path d="m849.97 734.37v2.55"/><path d="m849.97 740.67v3.75"/><path d="m849.97 748.17v3.75"/><path d="m849.97 755.67v3.75"/><path d="m849.97 763.17v3.75"/><path d="m849.97 770.67v3.75"/><path d="m849.97 778.17v3.75"/><path d="m849.97 785.67v3.75"/><path d="m849.97 793.17v3.75"/><path d="m849.97 800.67v3.75"/><path d="m849.97 808.17v3.75"/><path d="m849.97 815.67v3.75"/><path d="m849.97 823.17v3.75"/><path d="m849.97 830.67v3.75"/><path d="m849.97 838.17v2.55"/><path d="m743.77 734.37h2.4"/><path d="m749.92 734.37h3.75"/><path d="m757.42 734.37h3.75"/><path d="m764.92 734.37h3.75"/><path d="m772.42 734.37h3.75"/><path d="m779.92 734.37h3.75"/><path d="m787.42 734.37h3.75"/><path d="m794.92 734.37h3.75"/><path d="m802.42 734.37h3.75"/><path d="m809.92 734.37h3.75"/><path d="m817.42 734.37h3.75"/><path d="m824.92 734.37h3.75"/><path d="m832.42 734.37h3.75"/><path d="m839.92 734.37h3.75"/><path d="m847.42 734.37h2.55"/><path d="m743.77 734.37l1.35 1.35"/><path d="m747.82 738.42l2.7 2.7"/><path d="m753.07 743.67l2.7 2.7"/><path d="m758.47 749.07l2.55 2.55"/><path d="m763.72 754.32l2.7 2.7"/><path d="m768.97 759.57l2.7 2.7"/><path d="m774.37 764.97l2.55 2.55"/><path d="m779.62 770.22l2.55 2.7"/><path d="m784.87 775.62l2.7 2.55"/><path d="m790.12 780.87l2.7 2.7"/><path d="m795.52 786.12l2.55 2.7"/><path d="m800.77 791.52l2.7 2.55"/><path d="m806.02 796.77l2.7 2.7"/><path d="m811.42 802.02l2.55 2.7"/><path d="m816.67 807.42l2.7 2.7"/><path d="m821.92 812.67l2.7 2.7"/><path d="m827.32 818.07l2.55 2.55"/><path d="m832.57 823.32l2.7 2.7"/><path d="m837.82 828.57l2.7 2.7"/><path d="m843.22 833.97l2.55 2.55"/><path d="m848.47 839.22l1.5 1.5"/><path d="m849.97 734.37l-1.35 1.35"/><path d="m845.92 738.42l-2.7 2.7"/><path d="m840.67 743.67l-2.7 2.7"/><path d="m835.27 749.07l-2.55 2.55"/><path d="m830.02 754.32l-2.7 2.7"/><path d="m824.77 759.57l-2.7 2.7"/><path d="m819.37 764.97l-2.55 2.55"/><path d="m814.12 770.22l-2.55 2.7"/><path d="m808.87 775.62l-2.7 2.55"/><path d="m803.62 780.87l-2.7 2.7"/><path d="m798.22 786.12l-2.55 2.7"/><path d="m792.97 791.52l-2.7 2.55"/><path d="m787.72 796.77l-2.7 2.7"/><path d="m782.32 802.02l-2.55 2.7"/><path d="m777.07 807.42l-2.7 2.7"/><path d="m771.82 812.67l-2.7 2.7"/><path d="m766.42 818.07l-2.55 2.55"/><path d="m761.17 823.32l-2.7 2.7"/><path d="m755.92 828.57l-2.7 2.7"/><path d="m750.52 833.97l-2.55 2.55"/><path d="m745.27 839.22l-1.5 1.5"/><path d="m743.77 731.07h106.2"/></g></g></svg>