<svg xmlns="http://www.w3.org/2000/svg" width="128.04" height="195.39" viewBox="0 0 128.04384 195.39275"><g transform="translate(-185.5-730.8)" fill="none" stroke-linejoin="round" stroke-linecap="round" stroke-width=".54" stroke-miterlimit="10"><g stroke="#000"><path d="m313.27 844.47v-3.75h-127.5v3.75h127.5"/><path d="m193.72 844.47l81.45 81.45"/></g><g stroke="#888"><path d="m272.62 923.37l.6-.45"/><path d="m273.22 922.92l.45-.6"/><path d="m273.67 922.32l.45-.45"/><path d="m274.12 921.87l.45-.45"/><path d="m274.57 921.42l.45-.45"/><path d="m275.02 920.97l.15-.3"/><path d="m277.72 917.97l.15-.15"/><path d="m277.87 917.82l.45-.45"/><path d="m278.32 917.37l.45-.6"/><path d="m278.77 916.77l.3-.45"/><path d="m279.07 916.32l.45-.6"/><path d="m279.52 915.72l.45-.45"/><path d="m279.97 915.27l.15-.15"/><path d="m282.37 912.12l.15-.15"/><path d="m282.52 911.97l.45-.45"/><path d="m282.97 911.52l.45-.6"/><path d="m283.42 910.92l.45-.6"/><path d="m283.87 910.32l.3-.45"/><path d="m284.17 909.87l.45-.6"/><path d="m284.62 909.27v-.15"/><path d="m286.72 906.12l.15-.3"/><path d="m286.87 905.82l.45-.45"/><path d="m287.32 905.37l.3-.6"/><path d="m287.62 904.77l.45-.6"/><path d="m288.07 904.17l.3-.6"/><path d="m288.37 903.57l.45-.6"/><path d="m290.77 899.82l.15-.3"/><path d="m290.92 899.52l.3-.6"/><path d="m291.22 898.92l.3-.6"/><path d="m291.52 898.32l.3-.6"/><path d="m291.82 897.72l.3-.6"/><path d="m292.12 897.12l.45-.6"/><path d="m294.22 893.07l.15-.3"/><path d="m294.37 892.77l.3-.6"/><path d="m294.67 892.17l.3-.6"/><path d="m294.97 891.57l.3-.6"/><path d="m295.27 890.97l.3-.6"/><path d="m295.57 890.37l.15-.75"/><path d="m297.22 886.17l.15-.3"/><path d="m297.37 885.87l.3-.6"/><path d="m297.67 885.27l.15-.6"/><path d="m297.82 884.67l.3-.75"/><path d="m298.12 883.92l.3-.6"/><path d="m298.42 883.32l.15-.6"/><path d="m299.77 879.27l.15-.45"/><path d="m299.92 878.82l.15-.6"/><path d="m300.07 878.22l.3-.75"/><path d="m300.37 877.47l.15-.6"/><path d="m300.52 876.87l.3-.75"/><path d="m300.82 876.12l.15-.45"/><path d="m301.87 872.07l.15-.45"/><path d="m302.02 871.62l.15-.75"/><path d="m302.17 870.87l.15-.6"/><path d="m302.32 870.27l.15-.75"/><path d="m302.47 869.52l.15-.6"/><path d="m302.62 868.92l.15-.45"/><path d="m303.52 864.87v-.6"/><path d="m303.52 864.27l.15-.75"/><path d="m303.67 863.52l.15-.6"/><path d="m303.82 862.92l.15-.75"/><path d="m303.97 862.17v-.6"/><path d="m303.97 861.57l.15-.45"/><path d="m304.57 857.37l.15-.6"/><path d="m304.72 856.77v-.75"/><path d="m304.72 856.02l.15-.6"/><path d="m304.87 855.42v-.75"/><path d="m304.87 854.67v-.6"/><path d="m304.87 854.07l.15-.45"/><path d="m305.17 849.87l.15-.6"/><path d="m305.32 849.27v-.75"/><path d="m305.32 848.52v-.6"/><path d="m305.32 847.92v-.75"/><path d="m305.32 847.17v-.6"/><path d="m305.32 846.57v-.45"/></g><g stroke="#000"><path d="m196.42 840.72v-2.55"/><path d="m196.42 834.42v-3.75"/><path d="m196.42 826.92v-3.75"/><path d="m196.42 819.42v-3.75"/><path d="m196.42 811.92v-3.75"/><path d="m196.42 804.42v-3.75"/><path d="m196.42 796.92v-3.75"/><path d="m196.42 789.42v-3.75"/><path d="m196.42 781.92v-3.75"/><path d="m196.42 774.42v-3.75"/><path d="m196.42 766.92v-3.75"/><path d="m196.42 759.42v-3.75"/><path d="m196.42 751.92v-3.75"/><path d="m196.42 744.42v-3.75"/><path d="m196.42 736.92v-2.55"/><path d="m302.77 734.37v2.55"/><path d="m302.77 740.67v3.75"/><path d="m302.77 748.17v3.75"/><path d="m302.77 755.67v3.75"/><path d="m302.77 763.17v3.75"/><path d="m302.77 770.67v3.75"/><path d="m302.77 778.17v3.75"/><path d="m302.77 785.67v3.75"/><path d="m302.77 793.17v3.75"/><path d="m302.77 800.67v3.75"/><path d="m302.77 808.17v3.75"/><path d="m302.77 815.67v3.75"/><path d="m302.77 823.17v3.75"/><path d="m302.77 830.67v3.75"/><path d="m302.77 838.17v2.55"/><path d="m196.42 734.37h2.55"/><path d="m202.72 734.37h3.75"/><path d="m210.22 734.37h3.75"/><path d="m217.72 734.37h3.75"/><path d="m225.22 734.37h3.75"/><path d="m232.72 734.37h3.75"/><path d="m240.22 734.37h3.75"/><path d="m247.72 734.37h3.75"/><path d="m255.22 734.37h3.75"/><path d="m262.72 734.37h3.75"/><path d="m270.22 734.37h3.75"/><path d="m277.72 734.37h3.75"/><path d="m285.22 734.37h3.75"/><path d="m292.72 734.37h3.75"/><path d="m300.22 734.37h2.55"/><path d="m302.77 734.37l-1.35 1.35"/><path d="m298.72 738.42l-2.7 2.7"/><path d="m293.47 743.67l-2.7 2.7"/><path d="m288.07 749.07l-2.55 2.55"/><path d="m282.82 754.32l-2.7 2.7"/><path d="m277.57 759.57l-2.7 2.7"/><path d="m272.17 764.97l-2.55 2.55"/><path d="m266.92 770.22l-2.7 2.7"/><path d="m261.67 775.47l-2.7 2.7"/><path d="m256.27 780.87l-2.55 2.55"/><path d="m251.02 786.12l-2.7 2.7"/><path d="m245.77 791.37l-2.7 2.7"/><path d="m240.37 796.77l-2.55 2.55"/><path d="m235.12 802.02l-2.7 2.7"/><path d="m229.87 807.27l-2.7 2.7"/><path d="m224.47 812.67l-2.7 2.7"/><path d="m219.22 817.92l-2.7 2.7"/><path d="m213.82 823.32l-2.55 2.55"/><path d="m208.57 828.57l-2.7 2.7"/><path d="m203.32 833.82l-2.7 2.7"/><path d="m197.92 839.22l-1.5 1.5"/><path d="m196.42 734.37l1.35 1.35"/><path d="m200.47 738.42l2.7 2.7"/><path d="m205.72 743.67l2.7 2.7"/><path d="m211.12 749.07l2.55 2.55"/><path d="m216.37 754.32l2.7 2.7"/><path d="m221.62 759.57l2.7 2.7"/><path d="m227.02 764.97l2.55 2.55"/><path d="m232.27 770.22l2.7 2.7"/><path d="m237.52 775.47l2.7 2.7"/><path d="m242.92 780.87l2.55 2.55"/><path d="m248.17 786.12l2.7 2.7"/><path d="m253.42 791.37l2.7 2.7"/><path d="m258.82 796.77l2.55 2.55"/><path d="m264.07 802.02l2.7 2.7"/><path d="m269.32 807.27l2.7 2.7"/><path d="m274.72 812.67l2.7 2.7"/><path d="m279.97 817.92l2.7 2.7"/><path d="m285.37 823.32l2.55 2.55"/><path d="m290.62 828.57l2.7 2.7"/><path d="m295.87 833.82l2.7 2.7"/><path d="m301.27 839.22l1.5 1.5"/><path d="m302.77 731.07h-106.35"/></g></g></svg>