<svg xmlns="http://www.w3.org/2000/svg" height="200.64" viewBox="0 0 128.03999 200.64273"><g transform="translate(-127.43-653.56)" fill="none" stroke-linejoin="round" stroke-linecap="round" stroke-width=".54" stroke-miterlimit="10"><g stroke="#888"><path d="m214.55 851.38l.45-.45"/><path d="m215 850.93l.45-.45"/><path d="m215.45 850.48l.6-.6"/><path d="m216.05 849.88l.45-.45"/><path d="m216.5 849.43l.45-.45"/><path d="m216.95 848.98l.3-.3"/><path d="m219.8 845.83l.3-.45"/><path d="m220.1 845.38l.45-.45"/><path d="m220.55 844.93l.45-.6"/><path d="m221 844.33l.45-.45"/><path d="m221.45 843.88l.45-.6"/><path d="m221.9 843.28l.3-.3"/><path d="m224.45 839.98l.45-.45"/><path d="m224.9 839.53l.45-.6"/><path d="m225.35 838.93l.3-.45"/><path d="m225.65 838.48l.45-.6"/><path d="m226.1 837.88l.45-.6"/><path d="m226.55 837.28l.15-.3"/><path d="m228.8 833.98l.45-.6"/><path d="m229.25 833.38l.3-.6"/><path d="m229.55 832.78l.3-.6"/><path d="m229.85 832.18l.45-.6"/><path d="m230.3 831.58l.3-.6"/><path d="m230.6 830.98l.15-.15"/><path d="m232.7 827.68v-.15"/><path d="m232.7 827.53l.45-.6"/><path d="m233.15 826.93l.3-.6"/><path d="m233.45 826.33l.3-.6"/><path d="m233.75 825.73l.3-.6"/><path d="m234.05 825.13l.3-.6"/><path d="m234.35 824.53v-.15"/><path d="m236.15 821.08l.15-.3"/><path d="m236.3 820.78l.15-.6"/><path d="m236.45 820.18l.3-.6"/><path d="m236.75 819.58l.3-.6"/><path d="m237.05 818.98l.3-.6"/><path d="m237.35 818.38l.3-.6"/><path d="m237.65 817.78v-.15"/><path d="m239.15 814.18l.15-.3"/><path d="m239.3 813.88l.15-.6"/><path d="m239.45 813.28l.3-.6"/><path d="m239.75 812.68l.3-.6"/><path d="m240.05 812.08l.15-.75"/><path d="m240.2 811.33l.3-.6"/><path d="m241.7 807.13l.15-.3"/><path d="m241.85 806.83l.15-.6"/><path d="m242 806.23l.3-.75"/><path d="m242.3 805.48l.15-.6"/><path d="m242.45 804.88l.15-.6"/><path d="m242.6 804.28l.15-.75"/><path d="m243.8 799.93l.15-.3"/><path d="m243.95 799.63l.15-.75"/><path d="m244.1 798.88l.15-.6"/><path d="m244.25 798.28l.15-.6"/><path d="m244.4 797.68l.15-.75"/><path d="m244.55 796.93l.15-.6"/><path d="m245.3 792.58l.15-.3"/><path d="m245.45 792.28l.15-.75"/><path d="m245.6 791.53l.15-.6"/><path d="m245.75 790.93v-.75"/><path d="m245.75 790.18l.15-.6"/><path d="m245.9 789.58l.15-.6"/><path d="m246.5 785.23v-.45"/><path d="m246.5 784.78l.15-.6"/><path d="m246.65 784.18v-.75"/><path d="m246.65 783.43l.15-.75"/><path d="m246.8 782.68v-.6"/><path d="m246.8 782.08l.15-.6"/><path d="m247.1 777.73v-.45"/><path d="m247.1 777.28v-.75"/><path d="m247.1 776.53l.15-.6"/><path d="m247.25 775.93v-.75"/><path d="m247.25 775.18v-.6"/><path d="m247.25 774.58v-.6"/></g><g stroke="#000"><path d="m127.7 653.83v118.65h127.5v-118.65h-127.5z"/><path d="m135.65 772.48l81.45 81.45"/><path d="m135.65 772.48l99.75 57.6"/></g></g></svg>