<svg xmlns="http://www.w3.org/2000/svg" height="124.6" viewBox="0 0 213.24006 124.59769"><g transform="translate(-754.89-660.71)" fill="none" stroke-linejoin="round" stroke-linecap="round" stroke-width=".54" stroke-miterlimit="10"><g stroke="#888"><path d="m872.91 718.73c0 6.295-5.104 11.4-11.4 11.4-6.295 0-11.4-5.105-11.4-11.4 0-6.295 5.105-11.4 11.4-11.4 6.296 0 11.4 5.105 11.4 11.4"/><path d="m775.71 781.13v3.9"/><path d="m848.91 781.13v3.9"/><path d="m802.71 741.68c0 6.05-4.937 10.95-11.02 10.95-6.089 0-11.03-4.902-11.03-10.95 0-6.05 4.937-10.95 11.03-10.95 6.088 0 11.02 4.902 11.02 10.95"/><path d="m803.76 695.85c0 6.669-5.406 12.08-12.07 12.08-6.669 0-12.08-5.406-12.08-12.08 0-6.669 5.406-12.08 12.08-12.08 6.669 0 12.07 5.406 12.07 12.08"/><path d="m947.31 781.13v3.9"/><path d="m874.11 781.13v3.9"/><path d="m941.16 741.68c0 5.467-4.399 9.9-9.825 9.9-5.426 0-9.825-4.433-9.825-9.9 0-5.467 4.399-9.9 9.825-9.9 5.426 0 9.825 4.433 9.825 9.9"/><path d="m943.41 695.85c0 6.669-5.406 12.08-12.08 12.08-6.669 0-12.08-5.406-12.08-12.08 0-6.669 5.406-12.08 12.08-12.08 6.669 0 12.08 5.406 12.08 12.08"/></g><g stroke="#000"><path d="m819.36 762.83v-88.05h-55.35v88.05h55.35"/><path d="m756.06 660.98h210.9v113.1h-210.9v-113.1"/><path d="m756.06 670.88h210.9"/><path d="m848.76 777.23v-3.15h-8.1v3.15h8.1"/><path d="m831.81 777.23v-3.15h-7.95v3.15h7.95"/><path d="m868.56 718.73c0 3.894-3.156 7.05-7.05 7.05-3.894 0-7.05-3.156-7.05-7.05 0-3.894 3.156-7.05 7.05-7.05 3.894 0 7.05 3.156 7.05 7.05"/><path d="m764.01 766.13h195"/><path d="m767.76 785.03v-3.9"/><path d="m857.01 781.13v3.9"/><path d="m767.76 781.13h89.25"/><path d="m767.76 781.13v-7.05"/><path d="m775.71 781.13v-7.05"/><path d="m889.86 718.73c0 15.657-12.693 28.35-28.35 28.35-15.657 0-28.35-12.693-28.35-28.35 0-15.657 12.693-28.35 28.35-28.35 15.657 0 28.35 12.693 28.35 28.35"/><path d="m842.61 714.23h-20.7"/><path d="m842.61 723.23h-20.7"/><path d="m844.71 735.53h-22.8"/><path d="m854.61 725.78l-9.9 9.75"/><path d="m844.71 702.53h-22.8"/><path d="m854.31 712.13l-9.6-9.6"/><path d="m821.91 692.03h27"/><path d="m821.91 681.83h23.25"/><path d="m880.71 714.23h20.25"/><path d="m880.71 723.23h20.25"/><path d="m878.16 735.53h22.8"/><path d="m878.16 702.53h22.8"/><path d="m900.96 692.03h-25.95"/><path d="m900.96 681.83h-22.2"/><path d="m821.91 745.43h26.25"/><path d="m821.91 755.78h22.65"/><path d="m900.96 745.43h-25.95"/><path d="m900.96 755.78h-22.05"/><path d="m815.76 762.83h143.25"/><path d="m819.36 674.78h139.65"/><path d="m868.41 725.78l9.75 9.75"/><path d="m868.71 712.13l9.45-9.6"/><path d="m824.16 674.78v88.05"/><path d="m791.76 747.23v15.6"/><path d="m801.81 741.68h17.55"/><path d="m764.01 741.68h16.65"/><path d="m797.31 741.6c0 3.106-2.519 5.625-5.625 5.625-3.107 0-5.625-2.519-5.625-5.625 0-3.106 2.518-5.625 5.625-5.625 3.106 0 5.625 2.519 5.625 5.625"/><path d="m791.76 735.98v-16.5"/><path d="m803.31 734.78l16.05-15.3"/><path d="m819.36 719.48h-55.35"/><path d="m791.76 689.18v-14.4"/><path d="m802.86 695.93h16.5"/><path d="m764.01 695.93h15.6"/><path d="m798.36 695.85c0 3.687-2.988 6.675-6.675 6.675-3.687 0-6.675-2.988-6.675-6.675 0-3.687 2.988-6.675 6.675-6.675 3.687 0 6.675 2.988 6.675 6.675"/><path d="m791.76 702.53v15.45"/><path d="m803.76 689.03l15.6-14.25"/><path d="m803.61 702.83l15.75 15.15"/><path d="m819.36 717.98h-55.35"/><path d="m778.86 688.88l-14.85-14.1"/><path d="m779.16 702.98l-15.15 15"/><path d="m865.56 777.23v-3.15h-7.95v3.15h7.95"/><path d="m882.36 777.23v-3.15h-7.95v3.15h7.95"/><path d="m929.16 777.23v-3.15h-7.95v3.15h7.95"/><path d="m945.96 777.23v-3.15h-7.95v3.15h7.95"/><path d="m899.16 777.23v-3.15h-7.95v3.15h7.95"/><path d="m857.01 781.13v-7.05"/><path d="m848.91 781.13v-7.05"/><path d="m955.26 785.03v-3.9"/><path d="m866.01 781.13v3.9"/><path d="m955.26 781.13h-89.25"/><path d="m955.26 781.13v-7.05"/><path d="m866.01 781.13v-7.05"/><path d="m874.11 781.13v-7.05"/><path d="m947.31 781.13v-7.05"/><path d="m803.46 748.28l15.9 14.55"/><path d="m779.31 734.63l-15.3-15.15"/><path d="m779.16 748.43l-15.15 14.4"/><path d="m898.86 674.78v88.05"/><path d="m959.01 670.88v103.2"/><path d="m903.66 674.78v88.05"/><path d="m931.26 748.13v14.7"/><path d="m920.31 741.68h-16.65"/><path d="m959.01 741.68h-15.9"/><path d="m936.06 741.6c0 2.61-2.115 4.725-4.725 4.725-2.61 0-4.725-2.115-4.725-4.725 0-2.61 2.115-4.725 4.725-4.725 2.61 0 4.725 2.115 4.725 4.725"/><path d="m931.26 735.23v-15.75"/><path d="m919.71 734.78l-16.05-15.3"/><path d="m903.66 719.48h55.35"/><path d="m931.26 689.18v-14.4"/><path d="m920.16 695.93h-16.5"/><path d="m959.01 695.93h-15.6"/><path d="m938.01 695.85c0 3.687-2.988 6.675-6.675 6.675-3.687 0-6.675-2.988-6.675-6.675 0-3.687 2.988-6.675 6.675-6.675 3.687 0 6.675 2.988 6.675 6.675"/><path d="m931.26 702.53v15.45"/><path d="m919.26 689.03l-15.6-14.25"/><path d="m919.41 702.83l-15.75 15.15"/><path d="m903.66 717.98h55.35"/><path d="m944.01 688.88l15-14.1"/><path d="m943.86 702.98l15.15 15"/><path d="m919.41 748.28l-15.75 14.55"/><path d="m943.71 734.63l15.3-15.15"/><path d="m943.86 748.43l15.15 14.4"/><path d="m816.66 760.13v-82.65h-49.95v82.65h49.95"/><path d="m956.31 760.13v-82.65h-49.95v82.65h49.95"/><path d="m774.21 668.18v-5.25"/><path d="m775.26 663.08v5.1"/><path d="m777.66 668.18v-5.25"/><path d="m778.71 663.08v5.1"/><path d="m781.26 668.18v-5.25"/><path d="m782.31 663.08v5.1"/><path d="m784.86 668.18v-5.25"/><path d="m785.91 663.08v5.1"/><path d="m788.31 668.18v-5.25"/><path d="m789.36 663.08v5.1"/><path d="m791.91 668.18v-5.25"/><path d="m792.96 663.08v5.1"/><path d="m795.36 668.18v-5.25"/><path d="m796.56 663.08v5.1"/><path d="m798.96 668.18v-5.25"/><path d="m800.01 663.08v5.1"/><path d="m802.56 668.18v-5.25"/><path d="m803.61 663.08v5.1"/><path d="m806.01 668.18v-5.25"/><path d="m807.06 663.08v5.1"/><path d="m809.61 668.18v-5.25"/><path d="m810.66 663.08v5.1"/><path d="m813.06 668.18v-5.25"/><path d="m814.26 663.08v5.1"/><path d="m816.66 668.18v-5.25"/><path d="m817.71 663.08v5.1"/><path d="m820.26 668.18v-5.25"/><path d="m821.31 663.08v5.1"/><path d="m823.71 668.18v-5.25"/><path d="m824.76 663.08v5.1"/><path d="m827.31 668.18v-5.25"/><path d="m828.36 663.08v5.1"/><path d="m830.91 668.18v-5.25"/><path d="m831.96 663.08v5.1"/><path d="m834.36 668.18v-5.25"/><path d="m835.41 663.08v5.1"/><path d="m837.96 668.18v-5.25"/><path d="m839.01 663.08v5.1"/><path d="m841.41 668.18v-5.25"/><path d="m842.61 663.08v5.1"/><path d="m845.01 668.18v-5.25"/><path d="m846.06 663.08v5.1"/><path d="m848.61 668.18v-5.25"/><path d="m849.66 663.08v5.1"/><path d="m852.06 668.18v-5.25"/><path d="m853.11 663.08v5.1"/><path d="m855.66 668.18v-5.25"/><path d="m856.71 663.08v5.1"/><path d="m859.26 668.18v-5.25"/><path d="m860.31 663.08v5.1"/><path d="m862.71 668.18v-5.25"/><path d="m863.76 663.08v5.1"/><path d="m866.31 668.18v-5.25"/><path d="m867.36 663.08v5.1"/><path d="m869.76 668.18v-5.25"/><path d="m870.96 663.08v5.1"/><path d="m873.36 668.18v-5.25"/><path d="m874.41 663.08v5.1"/><path d="m876.96 668.18v-5.25"/><path d="m878.01 663.08v5.1"/><path d="m880.41 668.18v-5.25"/><path d="m881.46 663.08v5.1"/><path d="m884.01 668.18v-5.25"/><path d="m885.06 663.08v5.1"/><path d="m887.61 668.18v-5.25"/><path d="m888.66 663.08v5.1"/><path d="m891.06 668.18v-5.25"/><path d="m892.11 663.08v5.1"/><path d="m894.66 668.18v-5.25"/><path d="m895.71 663.08v5.1"/><path d="m898.11 668.18v-5.25"/><path d="m899.31 663.08v5.1"/><path d="m901.71 668.18v-5.25"/><path d="m902.76 663.08v5.1"/><path d="m905.31 668.18v-5.25"/><path d="m906.36 663.08v5.1"/><path d="m908.76 668.18v-5.25"/><path d="m909.81 663.08v5.1"/><path d="m912.36 668.18v-5.25"/><path d="m913.41 663.08v5.1"/><path d="m915.96 668.18v-5.25"/><path d="m917.01 663.08v5.1"/><path d="m919.41 668.18v-5.25"/><path d="m920.46 663.08v5.1"/><path d="m923.01 668.18v-5.25"/><path d="m924.06 663.08v5.1"/><path d="m926.46 668.18v-5.25"/><path d="m927.66 663.08v5.1"/><path d="m930.06 668.18v-5.25"/><path d="m931.11 663.08v5.1"/><path d="m770.61 668.18v-5.25"/><path d="m771.66 663.08v5.1"/><path d="m767.01 668.18v-5.25"/><path d="m768.21 663.08v5.1"/><path d="m933.66 668.18v-5.25"/><path d="m934.71 663.08v5.1"/><path d="m937.11 668.18v-5.25"/><path d="m938.16 663.08v5.1"/><path d="m967.86 660.98v113.1"/><path d="m755.16 774.08v-113.1"/><path d="m763.56 668.18v-5.25"/><path d="m764.61 663.08v5.1"/><path d="m759.96 668.18v-5.25"/><path d="m761.01 663.08v5.1"/><path d="m940.71 668.18v-5.25"/><path d="m941.76 663.08v5.1"/><path d="m944.16 668.18v-5.25"/><path d="m945.36 663.08v5.1"/><path d="m764.01 774.08v-11.25"/><path d="m764.01 674.78v-3.9"/><path d="m785.01 777.23v-3.15h-8.1v3.15h8.1"/><path d="m801.81 777.23v-3.15h-7.95v3.15h7.95"/><path d="m767.76 785.03h89.25"/><path d="m955.26 785.03h-89.25"/><path d="m861.51 674.78v27.75"/><path d="m861.51 762.83v-27.3"/><path d="m947.76 668.18v-5.25"/><path d="m948.81 663.08v5.1"/><path d="m951.36 668.18v-5.25"/><path d="m952.41 663.08v5.1"/><path d="m954.81 668.18v-5.25"/><path d="m956.01 663.08v5.1"/><path d="m958.41 668.18v-5.25"/><path d="m959.46 663.08v5.1"/><path d="m962.01 668.18v-5.25"/><path d="m963.06 663.08v5.1"/></g></g></svg>