<svg xmlns="http://www.w3.org/2000/svg" height="163.6" viewBox="0 0 213.24005 163.59769"><g transform="translate(-754.89-409.16)" fill="none" stroke="#000" stroke-linejoin="round" stroke-linecap="round" stroke-width=".54" stroke-miterlimit="10"><path d="m959.01 572.48v-163.05"/><path d="m756.06 572.48h210.9"/><path d="m764.01 409.43v163.05"/><path d="m966.96 409.43h-210.9"/><path d="m959.01 554.78h-195"/><path d="m959.01 436.88h-195"/><path d="m959.01 438.68h-96.6"/><path d="m860.61 438.68h-96.6"/><path d="m958.86 552.98h-96.45"/><path d="m860.61 552.98h-96.6"/><path d="m862.41 438.68v114.3"/><path d="m860.61 438.68v38.85"/><path d="m860.61 479.18v73.8"/><path d="m955.26 446.33v-4.35"/><path d="m866.01 446.33h89.25"/><path d="m866.01 441.98v4.35"/><path d="m955.26 441.98h-89.25"/><path d="m947.31 441.98v4.35"/><path d="m874.11 441.98v4.35"/><path d="m767.76 446.33v-4.35"/><path d="m857.01 446.33h-89.25"/><path d="m857.01 441.98v4.35"/><path d="m767.76 441.98h89.25"/><path d="m775.71 441.98v4.35"/><path d="m848.91 441.98v4.35"/><path d="m860.61 479.18h-96.6"/><path d="m860.61 477.53h-96.6"/><path d="m865.86 423.3c0 2.361-1.914 4.275-4.275 4.275-2.361 0-4.275-1.914-4.275-4.275 0-2.361 1.914-4.275 4.275-4.275 2.361 0 4.275 1.914 4.275 4.275"/><path d="m867.06 423.23c0 3.065-2.484 5.55-5.55 5.55-3.066 0-5.55-2.486-5.55-5.55 0-3.065 2.484-5.55 5.55-5.55 3.066 0 5.55 2.486 5.55 5.55"/><path d="m861.51 422.48v-4.95"/><path d="m848.91 423.3c0 2.361-1.881 4.275-4.2 4.275-2.319 0-4.2-1.914-4.2-4.275 0-2.361 1.881-4.275 4.2-4.275 2.319 0 4.2 1.914 4.2 4.275"/><path d="m850.26 423.23c0 3.065-2.484 5.55-5.55 5.55-3.066 0-5.55-2.486-5.55-5.55 0-3.065 2.484-5.55 5.55-5.55 3.066 0 5.55 2.486 5.55 5.55"/><path d="m844.71 422.48v-4.95"/><path d="m832.11 423.3c0 2.361-1.914 4.275-4.275 4.275-2.361 0-4.275-1.914-4.275-4.275 0-2.361 1.914-4.275 4.275-4.275 2.361 0 4.275 1.914 4.275 4.275"/><path d="m833.46 423.23c0 3.065-2.484 5.55-5.55 5.55-3.066 0-5.55-2.486-5.55-5.55 0-3.065 2.484-5.55 5.55-5.55 3.066 0 5.55 2.486 5.55 5.55"/><path d="m827.91 422.48v-4.95"/><path d="m882.66 423.3c0 2.361-1.914 4.275-4.275 4.275-2.361 0-4.275-1.914-4.275-4.275 0-2.361 1.914-4.275 4.275-4.275 2.361 0 4.275 1.914 4.275 4.275"/><path d="m884.01 423.23c0 3.065-2.519 5.55-5.625 5.55-3.106 0-5.625-2.486-5.625-5.55 0-3.065 2.519-5.55 5.625-5.55 3.106 0 5.625 2.486 5.625 5.55"/><path d="m878.31 422.48v-4.95"/><path d="m899.46 423.3c0 2.361-1.914 4.275-4.275 4.275-2.361 0-4.275-1.914-4.275-4.275 0-2.361 1.914-4.275 4.275-4.275 2.361 0 4.275 1.914 4.275 4.275"/><path d="m900.81 423.23c0 3.065-2.484 5.55-5.55 5.55-3.066 0-5.55-2.486-5.55-5.55 0-3.065 2.484-5.55 5.55-5.55 3.066 0 5.55 2.486 5.55 5.55"/><path d="m895.26 422.48v-4.95"/><path d="m802.11 423.3c0 2.361-1.914 4.275-4.275 4.275-2.361 0-4.275-1.914-4.275-4.275 0-2.361 1.914-4.275 4.275-4.275 2.361 0 4.275 1.914 4.275 4.275"/><path d="m803.31 423.23c0 3.065-2.484 5.55-5.55 5.55-3.066 0-5.55-2.486-5.55-5.55 0-3.065 2.484-5.55 5.55-5.55 3.066 0 5.55 2.486 5.55 5.55"/><path d="m797.76 422.48v-4.95"/><path d="m785.16 423.3c0 2.361-1.881 4.275-4.2 4.275-2.319 0-4.2-1.914-4.2-4.275 0-2.361 1.881-4.275 4.2-4.275 2.319 0 4.2 1.914 4.2 4.275"/><path d="m786.51 423.23c0 3.065-2.484 5.55-5.55 5.55-3.066 0-5.55-2.486-5.55-5.55 0-3.065 2.484-5.55 5.55-5.55 3.066 0 5.55 2.486 5.55 5.55"/><path d="m780.96 422.48v-4.95"/><path d="m929.46 423.3c0 2.361-1.914 4.275-4.275 4.275-2.361 0-4.275-1.914-4.275-4.275 0-2.361 1.914-4.275 4.275-4.275 2.361 0 4.275 1.914 4.275 4.275"/><path d="m930.81 423.23c0 3.065-2.484 5.55-5.55 5.55-3.066 0-5.55-2.486-5.55-5.55 0-3.065 2.484-5.55 5.55-5.55 3.066 0 5.55 2.486 5.55 5.55"/><path d="m925.26 422.48v-4.95"/><path d="m946.26 423.3c0 2.361-1.881 4.275-4.2 4.275-2.319 0-4.2-1.914-4.2-4.275 0-2.361 1.881-4.275 4.2-4.275 2.319 0 4.2 1.914 4.2 4.275"/><path d="m947.61 423.23c0 3.065-2.484 5.55-5.55 5.55-3.066 0-5.55-2.486-5.55-5.55 0-3.065 2.484-5.55 5.55-5.55 3.066 0 5.55 2.486 5.55 5.55"/><path d="m942.06 422.48v-4.95"/><path d="m896.31 415.73v-2.1h-2.25v2.1h2.25"/><path d="m879.51 415.73v-2.1h-2.25v2.1h2.25"/><path d="m862.56 415.73v-2.1h-2.1v2.1h2.1"/><path d="m845.76 415.73v-2.1h-2.1v2.1h2.1"/><path d="m828.96 415.73v-2.1h-2.1v2.1h2.1"/><path d="m966.96 572.48v-163.05"/><path d="m756.06 409.43v163.05"/><path d="m767.76 486.53v-4.35"/><path d="m857.01 482.18v4.35"/><path d="m767.76 482.18h89.25"/><path d="m775.71 482.18v4.35"/><path d="m848.91 482.18v4.35"/><path d="m767.76 486.53h89.25"/><path d="m798.81 415.73v-2.1h-2.1v2.1h2.1"/><path d="m782.01 415.73v-2.1h-2.1v2.1h2.1"/><path d="m926.31 415.73v-2.1h-2.25v2.1h2.25"/><path d="m943.11 415.73v-2.1h-2.1v2.1h2.1"/><path d="m755.16 409.43v163.05"/><path d="m967.86 572.48v-163.05"/></g></svg>