<svg xmlns="http://www.w3.org/2000/svg" height="163.6" viewBox="0 0 177.68975 163.59769"><g transform="translate(-104.34-409.16)" fill="none" stroke="#000" stroke-linejoin="round" stroke-linecap="round" stroke-width=".54" stroke-miterlimit="10"><path d="m272.91 572.48v-163.05"/><path d="m105.51 572.48h175.35"/><path d="m113.46 409.43v163.05"/><path d="m280.86 409.43h-175.35"/><path d="m272.91 554.78h-159.45"/><path d="m272.91 436.88h-159.45"/><path d="m272.91 438.68h-64.5"/><path d="m206.76 438.68h-93.3"/><path d="m272.91 552.98h-64.5"/><path d="m206.76 552.98h-93.3"/><path d="m208.41 438.68v114.3"/><path d="m206.76 438.68v38.85"/><path d="m206.76 479.18v73.8"/><path d="m269.31 446.33v-4.35"/><path d="m212.16 446.33h57.15"/><path d="m212.16 441.98v4.35"/><path d="m269.31 441.98h-57.15"/><path d="m261.21 441.98v4.35"/><path d="m220.11 441.98v4.35"/><path d="m117.21 446.33v-4.35"/><path d="m203.01 446.33h-85.8"/><path d="m203.01 441.98v4.35"/><path d="m117.21 441.98h85.8"/><path d="m125.16 441.98v4.35"/><path d="m195.06 441.98v4.35"/><path d="m206.76 479.18h-93.3"/><path d="m206.76 477.53h-93.3"/><path d="m197.46 423.3c0 2.361-1.914 4.275-4.275 4.275-2.361 0-4.275-1.914-4.275-4.275 0-2.361 1.914-4.275 4.275-4.275 2.361 0 4.275 1.914 4.275 4.275"/><path d="m198.81 423.23c0 3.065-2.484 5.55-5.55 5.55-3.066 0-5.55-2.486-5.55-5.55 0-3.065 2.484-5.55 5.55-5.55 3.066 0 5.55 2.486 5.55 5.55"/><path d="m193.26 422.48v-4.95"/><path d="m183.36 423.3c0 2.361-1.914 4.275-4.275 4.275-2.361 0-4.275-1.914-4.275-4.275 0-2.361 1.914-4.275 4.275-4.275 2.361 0 4.275 1.914 4.275 4.275"/><path d="m184.56 423.23c0 3.065-2.484 5.55-5.55 5.55-3.066 0-5.55-2.486-5.55-5.55 0-3.065 2.484-5.55 5.55-5.55 3.066 0 5.55 2.486 5.55 5.55"/><path d="m179.01 422.48v-4.95"/><path d="m169.11 423.3c0 2.361-1.914 4.275-4.275 4.275-2.361 0-4.275-1.914-4.275-4.275 0-2.361 1.914-4.275 4.275-4.275 2.361 0 4.275 1.914 4.275 4.275"/><path d="m170.46 423.23c0 3.065-2.484 5.55-5.55 5.55-3.066 0-5.55-2.486-5.55-5.55 0-3.065 2.484-5.55 5.55-5.55 3.066 0 5.55 2.486 5.55 5.55"/><path d="m164.91 422.48v-4.95"/><path d="m211.71 423.3c0 2.361-1.914 4.275-4.275 4.275-2.361 0-4.275-1.914-4.275-4.275 0-2.361 1.914-4.275 4.275-4.275 2.361 0 4.275 1.914 4.275 4.275"/><path d="m212.91 423.23c0 3.065-2.484 5.55-5.55 5.55-3.066 0-5.55-2.486-5.55-5.55 0-3.065 2.484-5.55 5.55-5.55 3.066 0 5.55 2.486 5.55 5.55"/><path d="m207.36 422.48v-4.95"/><path d="m225.81 423.3c0 2.361-1.914 4.275-4.275 4.275-2.361 0-4.275-1.914-4.275-4.275 0-2.361 1.914-4.275 4.275-4.275 2.361 0 4.275 1.914 4.275 4.275"/><path d="m227.16 423.23c0 3.065-2.484 5.55-5.55 5.55-3.066 0-5.55-2.486-5.55-5.55 0-3.065 2.484-5.55 5.55-5.55 3.066 0 5.55 2.486 5.55 5.55"/><path d="m221.61 422.48v-4.95"/><path d="m143.91 423.3c0 2.361-1.914 4.275-4.275 4.275-2.361 0-4.275-1.914-4.275-4.275 0-2.361 1.914-4.275 4.275-4.275 2.361 0 4.275 1.914 4.275 4.275"/><path d="m145.26 423.23c0 3.065-2.518 5.55-5.625 5.55-3.107 0-5.625-2.486-5.625-5.55 0-3.065 2.518-5.55 5.625-5.55 3.107 0 5.625 2.486 5.625 5.55"/><path d="m139.56 422.48v-4.95"/><path d="m129.66 423.3c0 2.361-1.88 4.275-4.2 4.275-2.32 0-4.2-1.914-4.2-4.275 0-2.361 1.88-4.275 4.2-4.275 2.32 0 4.2 1.914 4.2 4.275"/><path d="m131.01 423.23c0 3.065-2.485 5.55-5.55 5.55-3.066 0-5.55-2.486-5.55-5.55 0-3.065 2.484-5.55 5.55-5.55 3.065 0 5.55 2.486 5.55 5.55"/><path d="m125.46 422.48v-4.95"/><path d="m222.66 415.73v-2.1h-2.1v2.1h2.1"/><path d="m208.56 415.73v-2.1h-2.25v2.1h2.25"/><path d="m194.31 415.73v-2.1h-2.1v2.1h2.1"/><path d="m180.21 415.73v-2.1h-2.25v2.1h2.25"/><path d="m165.96 415.73v-2.1h-2.1v2.1h2.1"/><path d="m280.86 572.48v-163.05"/><path d="m105.51 409.43v163.05"/><path d="m251.16 423.3c0 2.361-1.914 4.275-4.275 4.275-2.361 0-4.275-1.914-4.275-4.275 0-2.361 1.914-4.275 4.275-4.275 2.361 0 4.275 1.914 4.275 4.275"/><path d="m252.36 423.23c0 3.065-2.484 5.55-5.55 5.55-3.066 0-5.55-2.486-5.55-5.55 0-3.065 2.484-5.55 5.55-5.55 3.066 0 5.55 2.486 5.55 5.55"/><path d="m246.81 422.48v-4.95"/><path d="m265.26 423.3c0 2.361-1.914 4.275-4.275 4.275-2.361 0-4.275-1.914-4.275-4.275 0-2.361 1.914-4.275 4.275-4.275 2.361 0 4.275 1.914 4.275 4.275"/><path d="m266.61 423.23c0 3.065-2.484 5.55-5.55 5.55-3.066 0-5.55-2.486-5.55-5.55 0-3.065 2.484-5.55 5.55-5.55 3.066 0 5.55 2.486 5.55 5.55"/><path d="m261.06 422.48v-4.95"/><path d="m117.21 486.53v-4.35"/><path d="m203.01 486.53h-85.8"/><path d="m203.01 482.18v4.35"/><path d="m117.21 482.18h85.8"/><path d="m125.16 482.18v4.35"/><path d="m195.06 482.18v4.35"/><path d="m140.76 415.73v-2.1h-2.25v2.1h2.25"/><path d="m126.51 415.73v-2.1h-2.1v2.1h2.1"/><path d="m247.86 415.73v-2.1h-2.1v2.1h2.1"/><path d="m262.11 415.73v-2.1h-2.25v2.1h2.25"/><path d="m104.61 409.43v163.05"/><path d="m281.76 572.48v-163.05"/></g></svg>