<svg xmlns="http://www.w3.org/2000/svg" height="163.6" viewBox="0 0 194.04005 163.59769"><g transform="translate(-421.44-409.16)" fill="none" stroke="#000" stroke-linejoin="round" stroke-linecap="round" stroke-width=".54" stroke-miterlimit="10"><path d="m606.36 572.48v-163.05"/><path d="m422.61 572.48h191.7"/><path d="m430.71 409.43v163.05"/><path d="m614.31 409.43h-191.7"/><path d="m606.36 554.78h-176.25"/><path d="m606.36 436.88h-175.65"/><path d="m606.36 438.68h-78.6"/><path d="m525.96 438.68h-95.25"/><path d="m606.36 552.98h-78.6"/><path d="m525.96 552.98h-95.25"/><path d="m527.76 438.68v114.3"/><path d="m525.96 438.68v38.85"/><path d="m525.96 479.18v73.8"/><path d="m434.31 446.33v-4.35"/><path d="m522.36 446.33h-88.05"/><path d="m522.36 441.98v4.35"/><path d="m434.31 441.98h88.05"/><path d="m442.26 441.98v4.35"/><path d="m514.26 441.98v4.35"/><path d="m525.96 479.18h-95.25"/><path d="m525.96 477.53h-95.25"/><path d="m522.81 423.3c0 2.361-1.914 4.275-4.275 4.275-2.361 0-4.275-1.914-4.275-4.275 0-2.361 1.914-4.275 4.275-4.275 2.361 0 4.275 1.914 4.275 4.275"/><path d="m524.16 423.23c0 3.065-2.484 5.55-5.55 5.55-3.066 0-5.55-2.486-5.55-5.55 0-3.065 2.484-5.55 5.55-5.55 3.066 0 5.55 2.486 5.55 5.55"/><path d="m518.61 422.48v-4.95"/><path d="m506.01 423.3c0 2.361-1.914 4.275-4.275 4.275-2.361 0-4.275-1.914-4.275-4.275 0-2.361 1.914-4.275 4.275-4.275 2.361 0 4.275 1.914 4.275 4.275"/><path d="m507.36 423.23c0 3.065-2.518 5.55-5.625 5.55-3.106 0-5.625-2.486-5.625-5.55 0-3.065 2.519-5.55 5.625-5.55 3.107 0 5.625 2.486 5.625 5.55"/><path d="m501.66 422.48v-4.95"/><path d="m489.21 423.3c0 2.361-1.914 4.275-4.275 4.275-2.361 0-4.275-1.914-4.275-4.275 0-2.361 1.914-4.275 4.275-4.275 2.361 0 4.275 1.914 4.275 4.275"/><path d="m490.41 423.23c0 3.065-2.484 5.55-5.55 5.55-3.066 0-5.55-2.486-5.55-5.55 0-3.065 2.484-5.55 5.55-5.55 3.066 0 5.55 2.486 5.55 5.55"/><path d="m484.86 422.48v-4.95"/><path d="m539.61 423.3c0 2.361-1.914 4.275-4.275 4.275-2.361 0-4.275-1.914-4.275-4.275 0-2.361 1.914-4.275 4.275-4.275 2.361 0 4.275 1.914 4.275 4.275"/><path d="m540.96 423.23c0 3.065-2.484 5.55-5.55 5.55-3.066 0-5.55-2.486-5.55-5.55 0-3.065 2.484-5.55 5.55-5.55 3.066 0 5.55 2.486 5.55 5.55"/><path d="m535.41 422.48v-4.95"/><path d="m556.41 423.3c0 2.361-1.88 4.275-4.2 4.275-2.319 0-4.2-1.914-4.2-4.275 0-2.361 1.881-4.275 4.2-4.275 2.321 0 4.2 1.914 4.2 4.275"/><path d="m557.76 423.23c0 3.065-2.484 5.55-5.55 5.55-3.066 0-5.55-2.486-5.55-5.55 0-3.065 2.484-5.55 5.55-5.55 3.066 0 5.55 2.486 5.55 5.55"/><path d="m552.21 422.48v-4.95"/><path d="m466.11 423.3c0 2.361-1.88 4.275-4.2 4.275-2.319 0-4.2-1.914-4.2-4.275 0-2.361 1.881-4.275 4.2-4.275 2.32 0 4.2 1.914 4.2 4.275"/><path d="m467.46 423.23c0 3.065-2.484 5.55-5.55 5.55-3.066 0-5.55-2.486-5.55-5.55 0-3.065 2.484-5.55 5.55-5.55 3.066 0 5.55 2.486 5.55 5.55"/><path d="m461.91 422.48v-4.95"/><path d="m449.31 423.3c0 2.361-1.914 4.275-4.275 4.275-2.361 0-4.275-1.914-4.275-4.275 0-2.361 1.914-4.275 4.275-4.275 2.361 0 4.275 1.914 4.275 4.275"/><path d="m450.66 423.23c0 3.065-2.484 5.55-5.55 5.55-3.066 0-5.55-2.486-5.55-5.55 0-3.065 2.484-5.55 5.55-5.55 3.066 0 5.55 2.486 5.55 5.55"/><path d="m445.11 422.48v-4.95"/><path d="m579.36 423.3c0 2.361-1.914 4.275-4.275 4.275-2.361 0-4.275-1.914-4.275-4.275 0-2.361 1.914-4.275 4.275-4.275 2.361 0 4.275 1.914 4.275 4.275"/><path d="m580.71 423.23c0 3.065-2.484 5.55-5.55 5.55-3.066 0-5.55-2.486-5.55-5.55 0-3.065 2.484-5.55 5.55-5.55 3.066 0 5.55 2.486 5.55 5.55"/><path d="m575.16 422.48v-4.95"/><path d="m596.16 423.3c0 2.361-1.88 4.275-4.2 4.275-2.319 0-4.2-1.914-4.2-4.275 0-2.361 1.881-4.275 4.2-4.275 2.321 0 4.2 1.914 4.2 4.275"/><path d="m597.51 423.23c0 3.065-2.484 5.55-5.55 5.55-3.066 0-5.55-2.486-5.55-5.55 0-3.065 2.484-5.55 5.55-5.55 3.066 0 5.55 2.486 5.55 5.55"/><path d="m591.96 422.48v-4.95"/><path d="m553.26 415.73v-2.1h-2.1v2.1h2.1"/><path d="m536.46 415.73v-2.1h-2.1v2.1h2.1"/><path d="m519.66 415.73v-2.1h-2.25v2.1h2.25"/><path d="m502.86 415.73v-2.1h-2.25v2.1h2.25"/><path d="m485.91 415.73v-2.1h-2.1v2.1h2.1"/><path d="m614.31 572.48v-163.05"/><path d="m422.61 409.43v163.05"/><path d="m434.31 488.18v-4.2"/><path d="m522.36 488.18h-88.05"/><path d="m522.36 483.98v4.2"/><path d="m434.31 483.98h88.05"/><path d="m442.26 483.98v4.2"/><path d="m514.26 483.98v4.2"/><path d="m531.51 446.33v-4.35"/><path d="m602.76 446.33h-71.25"/><path d="m602.76 441.98v4.35"/><path d="m531.51 441.98h71.25"/><path d="m539.61 441.98v4.35"/><path d="m594.66 441.98v4.35"/><path d="m462.96 415.73v-2.1h-2.1v2.1h2.1"/><path d="m446.16 415.73v-2.1h-2.25v2.1h2.25"/><path d="m576.21 415.73v-2.1h-2.1v2.1h2.1"/><path d="m593.01 415.73v-2.1h-2.1v2.1h2.1"/><path d="m615.21 572.48v-163.05"/><path d="m421.71 409.43v163.05"/></g></svg>