<svg xmlns="http://www.w3.org/2000/svg" height="124.6" viewBox="0 0 194.04006 124.59769"><g transform="translate(-421.44-660.71)" fill="none" stroke-linejoin="round" stroke-linecap="round" stroke-width=".54" stroke-miterlimit="10"><g stroke="#888"><path d="m442.26 781.13v3.9"/><path d="m514.26 781.13v3.9"/><path d="m594.66 781.13v3.9"/><path d="m539.61 781.13v3.9"/><path d="m529.86 718.73c0 6.295-5.105 11.4-11.4 11.4-6.295 0-11.4-5.105-11.4-11.4 0-6.295 5.105-11.4 11.4-11.4 6.295 0 11.4 5.105 11.4 11.4"/><path d="m466.11 741.68c0 6.05-4.935 10.95-11.02 10.95-6.089 0-11.02-4.902-11.02-10.95 0-6.05 4.937-10.95 11.02-10.95 6.09 0 11.02 4.902 11.02 10.95"/><path d="m467.16 695.85c0 6.669-5.406 12.08-12.07 12.08-6.669 0-12.07-5.406-12.07-12.08 0-6.669 5.406-12.08 12.07-12.08 6.669 0 12.07 5.406 12.07 12.08"/><path d="m591.81 741.68c0 5.467-4.433 9.9-9.9 9.9-5.467 0-9.9-4.433-9.9-9.9 0-5.467 4.433-9.9 9.9-9.9 5.467 0 9.9 4.433 9.9 9.9"/><path d="m594.06 695.85c0 6.669-5.439 12.08-12.15 12.08-6.71 0-12.15-5.406-12.15-12.08 0-6.669 5.441-12.08 12.15-12.08 6.711 0 12.15 5.406 12.15 12.08"/></g><g stroke="#000"><path d="m422.61 660.98h191.7v113.1h-191.7v-113.1"/><path d="m422.61 670.88h191.7"/><path d="m505.71 777.23v-3.15h-7.95v3.15h7.95"/><path d="m488.91 777.23v-3.15h-7.95v3.15h7.95"/><path d="m525.51 718.73c0 3.894-3.123 7.05-6.975 7.05-3.852 0-6.975-3.156-6.975-7.05 0-3.894 3.123-7.05 6.975-7.05 3.852 0 6.975 3.156 6.975 7.05"/><path d="m430.71 766.13h175.65"/><path d="m434.31 785.03v-3.9"/><path d="m522.36 781.13v3.9"/><path d="m434.31 781.13h88.05"/><path d="m434.31 781.13v-7.05"/><path d="m442.26 781.13v-3.9"/><path d="m546.81 718.73c0 15.657-12.693 28.35-28.35 28.35-15.657 0-28.35-12.693-28.35-28.35 0-15.657 12.693-28.35 28.35-28.35 15.657 0 28.35 12.693 28.35 28.35"/><path d="m501.06 714.23h-18.9"/><path d="m501.06 723.23h-18.9"/><path d="m501.81 735.53h-19.65"/><path d="m511.56 725.78l-9.75 9.75"/><path d="m501.81 702.53h-19.65"/><path d="m511.26 712.13l-9.45-9.6"/><path d="m482.16 692.03h23.85"/><path d="m482.16 681.83h20.4"/><path d="m536.01 714.23h18.9"/><path d="m536.01 723.23h18.9"/><path d="m535.26 735.53h19.65"/><path d="m535.26 702.53h19.65"/><path d="m554.91 692.03h-23.85"/><path d="m554.91 681.83h-20.55"/><path d="m482.16 745.43h23.85"/><path d="m482.16 755.78h20.4"/><path d="m554.91 745.43h-23.85"/><path d="m554.91 755.78h-20.55"/><path d="m476.01 762.83h130.35"/><path d="m476.01 674.78h130.35"/><path d="m525.51 725.78l9.75 9.75"/><path d="m525.66 712.13l9.6-9.6"/><path d="m484.26 674.78v88.05"/><path d="m455.16 747.23v15.6"/><path d="m462.06 741.68h17.4"/><path d="m430.71 741.68h16.5"/><path d="m460.71 741.6c0 3.106-2.519 5.625-5.625 5.625-3.106 0-5.625-2.519-5.625-5.625 0-3.106 2.519-5.625 5.625-5.625 3.106 0 5.625 2.519 5.625 5.625"/><path d="m455.16 735.98v-16.5"/><path d="m463.56 734.78l15.9-15.3"/><path d="m479.46 719.48h-48.75"/><path d="m455.16 689.18v-14.4"/><path d="m463.11 695.93h16.35"/><path d="m430.71 695.93h15.45"/><path d="m461.76 695.85c0 3.687-2.988 6.675-6.675 6.675-3.687 0-6.675-2.988-6.675-6.675 0-3.687 2.988-6.675 6.675-6.675 3.687 0 6.675 2.988 6.675 6.675"/><path d="m455.16 702.53v15.45"/><path d="m463.86 689.03l15.6-14.25"/><path d="m463.71 702.83l15.75 15.15"/><path d="m479.46 717.98h-48.75"/><path d="m445.56 688.88l-14.85-14.1"/><path d="m445.71 702.98l-15 15"/><path d="m522.51 777.23v-3.15h-7.95v3.15h7.95"/><path d="m539.31 777.23v-3.15h-7.95v3.15h7.95"/><path d="m579.06 777.23v-3.15h-7.95v3.15h7.95"/><path d="m596.01 777.23v-3.15h-8.1v3.15h8.1"/><path d="m556.26 777.23v-3.15h-8.1v3.15h8.1"/><path d="m522.36 781.13v-3.9"/><path d="m514.26 781.13v-7.05"/><path d="m602.76 785.03v-3.9"/><path d="m531.51 781.13v3.9"/><path d="m602.76 781.13h-71.25"/><path d="m602.76 781.13v-7.05"/><path d="m531.51 781.13v-3.9"/><path d="m539.61 781.13v-7.05"/><path d="m594.66 781.13v-3.9"/><path d="m463.71 748.28l15.75 14.55"/><path d="m445.86 734.63l-15.15-15.15"/><path d="m445.71 748.43l-15 14.4"/><path d="m552.66 674.78v88.05"/><path d="m606.36 670.88v103.2"/><path d="m557.46 674.78v88.05"/><path d="m581.91 748.13v14.7"/><path d="m574.11 741.68h-16.65"/><path d="m606.36 741.68h-15.75"/><path d="m586.71 741.6c0 2.61-2.115 4.725-4.725 4.725-2.61 0-4.725-2.115-4.725-4.725 0-2.61 2.115-4.725 4.725-4.725 2.61 0 4.725 2.115 4.725 4.725"/><path d="m581.91 735.23v-15.75"/><path d="m573.51 734.78l-16.05-15.3"/><path d="m557.46 719.48h48.9"/><path d="m581.91 689.18v-14.4"/><path d="m573.96 695.93h-16.5"/><path d="m606.36 695.93h-15.6"/><path d="m588.66 695.85c0 3.687-2.988 6.675-6.675 6.675-3.687 0-6.675-2.988-6.675-6.675 0-3.687 2.988-6.675 6.675-6.675 3.687 0 6.675 2.988 6.675 6.675"/><path d="m581.91 702.53v15.45"/><path d="m573.06 689.03l-15.6-14.25"/><path d="m573.21 702.83l-15.75 15.15"/><path d="m557.46 717.98h48.9"/><path d="m591.51 688.88l14.85-14.1"/><path d="m591.36 702.98l15 15"/><path d="m573.36 748.28l-15.9 14.55"/><path d="m591.21 734.63l15.15-15.15"/><path d="m591.36 748.43l15 14.4"/><path d="m479.46 762.83v-88.05h-48.75v88.05h48.75"/><path d="m476.91 760.13v-82.65h-43.65v82.65h43.65"/><path d="m603.66 760.13v-82.65h-43.5v82.65h43.5"/><path d="m439.71 668.18v-5.25"/><path d="m440.76 663.08v5.1"/><path d="m443.16 668.18v-5.25"/><path d="m444.36 663.08v5.1"/><path d="m446.76 668.18v-5.25"/><path d="m447.81 663.08v5.1"/><path d="m450.36 668.18v-5.25"/><path d="m451.41 663.08v5.1"/><path d="m453.81 668.18v-5.25"/><path d="m454.86 663.08v5.1"/><path d="m457.41 668.18v-5.25"/><path d="m458.46 663.08v5.1"/><path d="m460.86 668.18v-5.25"/><path d="m462.06 663.08v5.1"/><path d="m464.46 668.18v-5.25"/><path d="m465.51 663.08v5.1"/><path d="m468.06 668.18v-5.25"/><path d="m469.11 663.08v5.1"/><path d="m471.51 668.18v-5.25"/><path d="m472.71 663.08v5.1"/><path d="m475.11 668.18v-5.25"/><path d="m476.16 663.08v5.1"/><path d="m478.71 668.18v-5.25"/><path d="m479.76 663.08v5.1"/><path d="m482.16 668.18v-5.25"/><path d="m483.21 663.08v5.1"/><path d="m485.76 668.18v-5.25"/><path d="m486.81 663.08v5.1"/><path d="m489.21 668.18v-5.25"/><path d="m490.41 663.08v5.1"/><path d="m492.81 668.18v-5.25"/><path d="m493.86 663.08v5.1"/><path d="m496.41 668.18v-5.25"/><path d="m497.46 663.08v5.1"/><path d="m499.86 668.18v-5.25"/><path d="m500.91 663.08v5.1"/><path d="m503.46 668.18v-5.25"/><path d="m504.51 663.08v5.1"/><path d="m507.06 668.18v-5.25"/><path d="m508.11 663.08v5.1"/><path d="m510.51 668.18v-5.25"/><path d="m511.56 663.08v5.1"/><path d="m514.11 668.18v-5.25"/><path d="m515.16 663.08v5.1"/><path d="m517.56 668.18v-5.25"/><path d="m518.76 663.08v5.1"/><path d="m521.16 668.18v-5.25"/><path d="m522.21 663.08v5.1"/><path d="m524.76 668.18v-5.25"/><path d="m525.81 663.08v5.1"/><path d="m528.21 668.18v-5.25"/><path d="m529.26 663.08v5.1"/><path d="m531.81 668.18v-5.25"/><path d="m532.86 663.08v5.1"/><path d="m535.41 668.18v-5.25"/><path d="m536.46 663.08v5.1"/><path d="m538.86 668.18v-5.25"/><path d="m539.91 663.08v5.1"/><path d="m542.46 668.18v-5.25"/><path d="m543.51 663.08v5.1"/><path d="m545.91 668.18v-5.25"/><path d="m547.11 663.08v5.1"/><path d="m549.51 668.18v-5.25"/><path d="m550.56 663.08v5.1"/><path d="m553.11 668.18v-5.25"/><path d="m554.16 663.08v5.1"/><path d="m556.56 668.18v-5.25"/><path d="m557.61 663.08v5.1"/><path d="m560.16 668.18v-5.25"/><path d="m561.21 663.08v5.1"/><path d="m563.76 668.18v-5.25"/><path d="m564.81 663.08v5.1"/><path d="m567.21 668.18v-5.25"/><path d="m568.26 663.08v5.1"/><path d="m570.81 668.18v-5.25"/><path d="m571.86 663.08v5.1"/><path d="m574.26 668.18v-5.25"/><path d="m575.46 663.08v5.1"/><path d="m577.86 668.18v-5.25"/><path d="m578.91 663.08v5.1"/><path d="m581.46 668.18v-5.25"/><path d="m582.51 663.08v5.1"/><path d="m584.91 668.18v-5.25"/><path d="m585.96 663.08v5.1"/><path d="m588.51 668.18v-5.25"/><path d="m589.56 663.08v5.1"/><path d="m591.96 668.18v-5.25"/><path d="m593.16 663.08v5.1"/><path d="m595.56 668.18v-5.25"/><path d="m596.61 663.08v5.1"/><path d="m436.11 668.18v-5.25"/><path d="m437.16 663.08v5.1"/><path d="m432.66 668.18v-5.25"/><path d="m433.71 663.08v5.1"/><path d="m599.16 668.18v-5.25"/><path d="m600.21 663.08v5.1"/><path d="m602.61 668.18v-5.25"/><path d="m603.81 663.08v5.1"/><path d="m615.21 660.98v113.1"/><path d="m421.71 774.08v-113.1"/><path d="m429.06 668.18v-5.25"/><path d="m430.11 663.08v5.1"/><path d="m425.46 668.18v-5.25"/><path d="m426.51 663.08v5.1"/><path d="m606.21 668.18v-5.25"/><path d="m607.26 663.08v5.1"/><path d="m609.81 668.18v-5.25"/><path d="m610.86 663.08v5.1"/><path d="m430.71 774.08v-11.25"/><path d="m430.71 674.78v-3.9"/><path d="m449.01 777.23v-3.15h-7.95v3.15h7.95"/><path d="m465.81 777.23v-3.15h-7.95v3.15h7.95"/><path d="m434.31 785.03h88.05"/><path d="m602.76 785.03h-71.25"/><path d="m518.46 674.78v27.75"/><path d="m518.46 762.83v-27.3"/></g></g></svg>