<svg xmlns="http://www.w3.org/2000/svg" height="124.6" viewBox="0 0 177.68976 124.59769"><g transform="translate(-104.34-660.71)" fill="none" stroke-linejoin="round" stroke-linecap="round" stroke-width=".54" stroke-miterlimit="10"><g stroke="#888"><path d="m147.21 741.68c0 6.05-4.936 10.95-11.03 10.95-6.089 0-11.02-4.902-11.02-10.95 0-6.05 4.936-10.95 11.02-10.95 6.089 0 11.03 4.902 11.03 10.95"/><path d="m148.26 695.85c0 6.669-5.406 12.08-12.07 12.08-6.669 0-12.07-5.406-12.07-12.08 0-6.669 5.406-12.08 12.07-12.08 6.669 0 12.07 5.406 12.07 12.08"/><path d="m260.16 741.68c0 5.467-4.432 9.9-9.9 9.9-5.468 0-9.9-4.433-9.9-9.9 0-5.467 4.433-9.9 9.9-9.9 5.468 0 9.9 4.433 9.9 9.9"/><path d="m262.41 695.85c0 6.669-5.439 12.08-12.15 12.08-6.71 0-12.15-5.406-12.15-12.08 0-6.669 5.44-12.08 12.15-12.08 6.711 0 12.15 5.406 12.15 12.08"/><path d="m204.66 718.73c0 6.295-5.104 11.4-11.4 11.4-6.296 0-11.4-5.105-11.4-11.4 0-6.295 5.105-11.4 11.4-11.4 6.296 0 11.4 5.105 11.4 11.4"/><path d="m125.16 781.13v3.9"/><path d="m195.06 781.13v3.9"/><path d="m261.21 781.13v3.9"/><path d="m220.11 781.13v3.9"/></g><g stroke="#000"><path d="m105.51 660.98h175.35v113.1h-175.35v-113.1"/><path d="m105.51 670.88h175.35"/><path d="m183.06 777.23v-3.15h-7.95v3.15h7.95"/><path d="m168.81 777.23v-3.15h-7.95v3.15h7.95"/><path d="m129.51 777.23v-3.15h-8.1v3.15h8.1"/><path d="m143.61 777.23v-3.15h-7.95v3.15h7.95"/><path d="m200.31 718.73c0 3.894-3.156 7.05-7.05 7.05-3.894 0-7.05-3.156-7.05-7.05 0-3.894 3.156-7.05 7.05-7.05 3.894 0 7.05 3.156 7.05 7.05"/><path d="m113.46 766.13h159.45"/><path d="m117.21 785.03v-3.9"/><path d="m203.01 785.03h-85.8"/><path d="m203.01 781.13v3.9"/><path d="m117.21 781.13h85.8"/><path d="m117.21 781.13v-7.05"/><path d="m125.16 781.13v-3.9"/><path d="m221.61 718.73c0 15.657-12.693 28.35-28.35 28.35-15.657 0-28.35-12.693-28.35-28.35 0-15.657 12.693-28.35 28.35-28.35 15.657 0 28.35 12.693 28.35 28.35"/><path d="m175.86 714.23h-14.7"/><path d="m175.86 723.23h-14.7"/><path d="m176.46 735.53h-15.3"/><path d="m186.36 725.78l-9.9 9.75"/><path d="m176.46 702.53h-15.3"/><path d="m186.06 712.13l-9.6-9.6"/><path d="m162.21 692.03h18.45"/><path d="m162.21 681.83h15.15"/><path d="m210.66 714.23h14.7"/><path d="m210.66 723.23h14.7"/><path d="m209.91 735.53h15.45"/><path d="m209.91 702.53h15.45"/><path d="m224.31 692.03h-18.6"/><path d="m224.31 681.83h-15.15"/><path d="m162.21 745.43h18.45"/><path d="m162.21 755.78h15.15"/><path d="m224.31 745.43h-18.6"/><path d="m224.31 755.78h-15.15"/><path d="m158.91 762.83h114"/><path d="m158.91 674.78h114"/><path d="m200.16 725.78l9.75 9.75"/><path d="m200.46 712.13l9.45-9.6"/><path d="m163.56 674.78v88.05"/><path d="m113.46 670.88v103.2"/><path d="m136.26 747.23v15.6"/><path d="m141.36 741.68h17.55"/><path d="m113.46 741.68h16.65"/><path d="m141.81 741.6c0 3.106-2.518 5.625-5.625 5.625-3.107 0-5.625-2.519-5.625-5.625 0-3.106 2.518-5.625 5.625-5.625 3.107 0 5.625 2.519 5.625 5.625"/><path d="m136.26 735.98v-16.5"/><path d="m142.86 734.78l16.05-15.3"/><path d="m158.91 719.48h-45.45"/><path d="m136.26 689.18v-14.4"/><path d="m142.41 695.93h16.5"/><path d="m113.46 695.93h15.6"/><path d="m142.86 695.85c0 3.687-2.988 6.675-6.675 6.675-3.687 0-6.675-2.988-6.675-6.675 0-3.687 2.988-6.675 6.675-6.675 3.687 0 6.675 2.988 6.675 6.675"/><path d="m136.26 702.53v15.45"/><path d="m143.31 689.03l15.6-14.25"/><path d="m143.01 702.83l15.9 15.15"/><path d="m158.91 717.98h-45.45"/><path d="m128.31 688.88l-14.85-14.1"/><path d="m128.61 702.98l-15.15 15"/><path d="m197.16 777.23v-3.15h-7.95v3.15h7.95"/><path d="m211.41 777.23v-3.15h-7.95v3.15h7.95"/><path d="m250.86 777.23v-3.15h-7.95v3.15h7.95"/><path d="m264.96 777.23v-3.15h-7.95v3.15h7.95"/><path d="m225.51 777.23v-3.15h-7.95v3.15h7.95"/><path d="m203.01 781.13v-7.05"/><path d="m195.06 781.13v-3.9"/><path d="m269.31 785.03v-3.9"/><path d="m212.16 785.03h57.15"/><path d="m212.16 781.13v3.9"/><path d="m269.31 781.13h-57.15"/><path d="m269.31 781.13v-7.05"/><path d="m212.16 781.13v-7.05"/><path d="m220.11 781.13v-3.9"/><path d="m261.21 781.13v-3.9"/><path d="m143.01 748.28l15.9 14.55"/><path d="m128.76 734.63l-15.3-15.15"/><path d="m128.61 748.43l-15.15 14.4"/><path d="m222.81 674.78v88.05"/><path d="m272.91 670.88v103.2"/><path d="m227.61 674.78v88.05"/><path d="m250.26 748.13v14.7"/><path d="m244.26 741.68h-16.65"/><path d="m272.91 741.68h-15.75"/><path d="m255.06 741.6c0 2.61-2.115 4.725-4.725 4.725-2.61 0-4.725-2.115-4.725-4.725 0-2.61 2.115-4.725 4.725-4.725 2.61 0 4.725 2.115 4.725 4.725"/><path d="m250.26 735.23v-15.75"/><path d="m243.51 734.78l-15.9-15.3"/><path d="m227.61 719.48h45.3"/><path d="m250.26 689.18v-14.4"/><path d="m244.11 695.93h-16.5"/><path d="m272.91 695.93h-15.45"/><path d="m257.01 695.85c0 3.687-2.988 6.675-6.675 6.675-3.687 0-6.675-2.988-6.675-6.675 0-3.687 2.988-6.675 6.675-6.675 3.687 0 6.675 2.988 6.675 6.675"/><path d="m250.26 702.53v15.45"/><path d="m243.21 689.03l-15.6-14.25"/><path d="m243.36 702.83l-15.75 15.15"/><path d="m227.61 717.98h45.3"/><path d="m258.06 688.88l14.85-14.1"/><path d="m257.91 702.98l15 15"/><path d="m243.36 748.28l-15.75 14.55"/><path d="m257.76 734.63l15.15-15.15"/><path d="m257.91 748.43l15 14.4"/><path d="m158.91 762.83v-88.05h-45.45v88.05h45.45"/><path d="m156.21 760.13v-82.65h-40.05v82.65h40.05"/><path d="m270.36 760.13v-82.65h-40.05v82.65h40.05"/><path d="m114.36 668.18v-5.25"/><path d="m115.41 663.08v5.1"/><path d="m117.96 668.18v-5.25"/><path d="m119.01 663.08v5.1"/><path d="m121.41 668.18v-5.25"/><path d="m122.61 663.08v5.1"/><path d="m125.01 668.18v-5.25"/><path d="m126.06 663.08v5.1"/><path d="m128.61 668.18v-5.25"/><path d="m129.66 663.08v5.1"/><path d="m132.06 668.18v-5.25"/><path d="m133.26 663.08v5.1"/><path d="m135.66 668.18v-5.25"/><path d="m136.71 663.08v5.1"/><path d="m139.26 668.18v-5.25"/><path d="m140.31 663.08v5.1"/><path d="m142.71 668.18v-5.25"/><path d="m143.76 663.08v5.1"/><path d="m146.31 668.18v-5.25"/><path d="m147.36 663.08v5.1"/><path d="m149.76 668.18v-5.25"/><path d="m150.96 663.08v5.1"/><path d="m153.36 668.18v-5.25"/><path d="m154.41 663.08v5.1"/><path d="m156.96 668.18v-5.25"/><path d="m158.01 663.08v5.1"/><path d="m160.41 668.18v-5.25"/><path d="m161.46 663.08v5.1"/><path d="m164.01 668.18v-5.25"/><path d="m165.06 663.08v5.1"/><path d="m167.61 668.18v-5.25"/><path d="m168.66 663.08v5.1"/><path d="m171.06 668.18v-5.25"/><path d="m172.11 663.08v5.1"/><path d="m174.66 668.18v-5.25"/><path d="m175.71 663.08v5.1"/><path d="m178.11 668.18v-5.25"/><path d="m179.31 663.08v5.1"/><path d="m181.71 668.18v-5.25"/><path d="m182.76 663.08v5.1"/><path d="m185.31 668.18v-5.25"/><path d="m186.36 663.08v5.1"/><path d="m188.76 668.18v-5.25"/><path d="m189.81 663.08v5.1"/><path d="m192.36 668.18v-5.25"/><path d="m193.41 663.08v5.1"/><path d="m195.96 668.18v-5.25"/><path d="m197.01 663.08v5.1"/><path d="m199.41 668.18v-5.25"/><path d="m200.46 663.08v5.1"/><path d="m203.01 668.18v-5.25"/><path d="m204.06 663.08v5.1"/><path d="m206.46 668.18v-5.25"/><path d="m207.66 663.08v5.1"/><path d="m210.06 668.18v-5.25"/><path d="m211.11 663.08v5.1"/><path d="m213.66 668.18v-5.25"/><path d="m214.71 663.08v5.1"/><path d="m217.11 668.18v-5.25"/><path d="m218.16 663.08v5.1"/><path d="m220.71 668.18v-5.25"/><path d="m221.76 663.08v5.1"/><path d="m224.31 668.18v-5.25"/><path d="m225.36 663.08v5.1"/><path d="m227.76 668.18v-5.25"/><path d="m228.81 663.08v5.1"/><path d="m231.36 668.18v-5.25"/><path d="m232.41 663.08v5.1"/><path d="m234.81 668.18v-5.25"/><path d="m236.01 663.08v5.1"/><path d="m238.41 668.18v-5.25"/><path d="m239.46 663.08v5.1"/><path d="m242.01 668.18v-5.25"/><path d="m243.06 663.08v5.1"/><path d="m245.46 668.18v-5.25"/><path d="m246.51 663.08v5.1"/><path d="m249.06 668.18v-5.25"/><path d="m250.11 663.08v5.1"/><path d="m252.66 668.18v-5.25"/><path d="m253.71 663.08v5.1"/><path d="m256.11 668.18v-5.25"/><path d="m257.16 663.08v5.1"/><path d="m259.71 668.18v-5.25"/><path d="m260.76 663.08v5.1"/><path d="m263.16 668.18v-5.25"/><path d="m264.36 663.08v5.1"/><path d="m266.76 668.18v-5.25"/><path d="m267.81 663.08v5.1"/><path d="m270.36 668.18v-5.25"/><path d="m271.41 663.08v5.1"/><path d="m110.91 668.18v-5.25"/><path d="m111.96 663.08v5.1"/><path d="m107.31 668.18v-5.25"/><path d="m108.36 663.08v5.1"/><path d="m273.81 668.18v-5.25"/><path d="m274.86 663.08v5.1"/><path d="m277.41 668.18v-5.25"/><path d="m278.46 663.08v5.1"/><path d="m281.76 660.98v113.1"/><path d="m104.61 774.08v-113.1"/><path d="m193.26 674.78v27.75"/><path d="m193.26 762.83v-27.3"/></g></g></svg>