<svg xmlns="http://www.w3.org/2000/svg" width="184.75" height="168.84" viewBox="0 0 184.74767 168.84387"><g transform="translate(-415.32-470.49)" fill="none" stroke="#000" stroke-linejoin="round" stroke-linecap="round" stroke-width=".54" stroke-miterlimit="10"><path d="m501.85 547.86c0 1.409-1.175 2.55-2.625 2.55-1.449 0-2.625-1.141-2.625-2.55 0-1.409 1.176-2.55 2.625-2.55 1.45 0 2.625 1.141 2.625 2.55"/><path d="m423.55 639.06v-147.9"/><path d="m423.55 491.16h85.8"/><path d="m440.35 601.86v-93.9"/><path d="m490.75 601.86v-93.9"/><path d="m440.35 507.96h50.4"/><path d="m415.6 485.01h184.2"/><path d="m415.6 485.01v154.05"/><path d="m591.85 639.06v-147.9"/><path d="m507.7 618.66v-127.5"/><path d="m505.9 491.16h85.95"/><path d="m524.5 601.86v-93.9"/><path d="m574.9 601.86v-93.9"/><path d="m524.5 507.96h50.4"/><path d="m599.8 485.01v154.05"/><path d="m415.6 639.06h184.2"/><path d="m423.55 618.66h168.3"/><path d="m524.5 601.86h50.4"/><path d="m440.35 601.86h50.4"/><path d="m518.65 547.86c0 1.409-1.141 2.55-2.55 2.55-1.407 0-2.55-1.141-2.55-2.55 0-1.409 1.143-2.55 2.55-2.55 1.409 0 2.55 1.141 2.55 2.55"/><path d="m489.55 601.86v-93.9"/><path d="m573.7 601.86v-93.9"/><path d="m441.55 601.86v-93.9"/><path d="m525.7 601.86v-93.9"/><path d="m415.6 479.61h184.2"/><path d="m415.6 470.76h184.2"/></g></svg>