<svg xmlns="http://www.w3.org/2000/svg" width="193.6" height="168.85" viewBox="0 0 193.5977 168.8477"><g transform="translate(-148.02-470.48)" fill="none" stroke="#000" stroke-linejoin="round" stroke-linecap="round" stroke-width=".54" stroke-miterlimit="10"><path d="m243.4 547.86c0 1.409-1.142 2.55-2.55 2.55-1.407 0-2.55-1.141-2.55-2.55 0-1.409 1.143-2.55 2.55-2.55 1.409 0 2.55 1.141 2.55 2.55"/><path d="m165.1 639.06v-147.9"/><path d="m165.1 491.16h85.95"/><path d="m181.9 601.86v-93.9"/><path d="m232.45 601.86v-93.9"/><path d="m181.9 507.96h50.55"/><path d="m157.15 485.01h184.2"/><path d="m157.15 485.01v154.05"/><path d="m333.4 639.06v-147.9"/><path d="m249.25 618.66v-127.5"/><path d="m247.45 491.16h85.95"/><path d="m266.05 601.86v-93.9"/><path d="m316.6 601.86v-93.9"/><path d="m266.05 507.96h50.55"/><path d="m341.35 485.01v154.05"/><path d="m157.15 639.06h184.2"/><path d="m165.1 618.66h168.3"/><path d="m266.05 601.86h50.55"/><path d="m181.9 601.86h50.55"/><path d="m260.2 547.86c0 1.409-1.142 2.55-2.55 2.55-1.407 0-2.55-1.141-2.55-2.55 0-1.409 1.143-2.55 2.55-2.55 1.409 0 2.55 1.141 2.55 2.55"/><path d="m231.25 601.86v-93.9"/><path d="m315.4 601.86v-93.9"/><path d="m183.25 601.86v-93.9"/><path d="m267.4 601.86v-93.9"/><path d="m157.15 479.61h184.2"/><path d="m157.15 470.76h184.2"/><path d="m157.15 639.06v-154.05"/><path d="m148.3 485.01h8.85"/><path d="m148.3 479.61v5.4"/><path d="m157.15 479.61h-8.85"/><path d="m148.3 479.61h8.85"/><path d="m148.3 470.76v8.85"/><path d="m157.15 470.76h-8.85"/></g></svg>