<svg xmlns="http://www.w3.org/2000/svg" width="128.2" height="381.4" viewBox="0 0 128.19769 381.39829"><g transform="translate(-152.44-311.96)" fill="none" stroke="#000" stroke-linejoin="round" stroke-linecap="round" stroke-width=".54" stroke-miterlimit="10"><path d="m152.71 693.08v-380.85"/><path d="m280.36 693.08v-380.85"/><path d="m272.26 672.68h-111.6"/><path d="m177.46 655.88h78"/><path d="m177.46 561.98h78"/><path d="m255.46 522.08h-78"/><path d="m177.46 336.98v185.1"/><path d="m177.46 561.98v93.9"/><path d="m255.46 655.88v-93.9"/><path d="m255.46 522.08v-185.1"/><path d="m280.36 312.23h-127.65"/><path d="m272.26 320.18h-111.6"/><path d="m255.46 336.98h-78"/><path d="m272.26 541.73v-221.55"/><path d="m272.26 693.08v-154.2"/><path d="m160.66 541.43v-221.25"/><path d="m160.66 693.08v-154.2"/><path d="m178.66 336.98v185.1"/><path d="m178.66 561.98v93.9"/><path d="m254.41 655.88v-93.9"/><path d="m254.41 522.08v-185.1"/><path d="m280.36 693.08h-127.65"/><path d="m171.61 476.78c0 1.409-1.142 2.55-2.55 2.55-1.407 0-2.55-1.142-2.55-2.55 0-1.409 1.143-2.55 2.55-2.55 1.409 0 2.55 1.142 2.55 2.55"/></g></svg>