<svg xmlns="http://www.w3.org/2000/svg" height="85.59" viewBox="0 0 128.19 85.592729"><g transform="translate(-152.44-781.46)" fill="none" stroke-linejoin="round" stroke-linecap="round" stroke-width=".54" stroke-miterlimit="10"><g stroke="#000"><path d="m152.71 781.73v3.6h127.65v-3.6h-127.65z"/><path d="m272.26 785.33l-81.45 81.45"/></g><g stroke="#888"><path d="m160.66 785.33v.75"/><path d="m160.66 786.08v.6"/><path d="m160.66 786.68v.75"/><path d="m160.66 787.43v.75"/><path d="m160.66 788.18l.15.6"/><path d="m160.81 788.78v.3"/><path d="m160.96 792.83v.15"/><path d="m160.96 792.98v.6"/><path d="m160.96 793.58l.15.75"/><path d="m161.11 794.33v.6"/><path d="m161.11 794.93v.75"/><path d="m161.11 795.68l.15.6"/><path d="m161.26 796.28v.3"/><path d="m161.71 800.33l.15.75"/><path d="m161.86 801.08v.6"/><path d="m161.86 801.68l.15.75"/><path d="m162.01 802.43l.15.75"/><path d="m162.16 803.18v.6"/><path d="m162.16 803.78v.3"/><path d="m162.91 807.68v.15"/><path d="m162.91 807.83l.15.6"/><path d="m163.06 808.43l.15.75"/><path d="m163.21 809.18l.15.6"/><path d="m163.36 809.78l.15.75"/><path d="m163.51 810.53l.15.6"/><path d="m163.66 811.13v.15"/><path d="m164.71 814.88v.3"/><path d="m164.71 815.18l.15.6"/><path d="m164.86 815.78l.3.75"/><path d="m165.16 816.53l.15.6"/><path d="m165.31 817.13l.15.6"/><path d="m165.46 817.73l.3.75"/><path d="m166.96 822.08v.3"/><path d="m166.96 822.38l.3.6"/><path d="m167.26 822.98l.15.6"/><path d="m167.41 823.58l.3.75"/><path d="m167.71 824.33l.15.6"/><path d="m167.86 824.93l.3.6"/><path d="m169.51 828.98l.15.3"/><path d="m169.66 829.28l.3.75"/><path d="m169.96 830.03l.3.6"/><path d="m170.26 830.63l.3.6"/><path d="m170.56 831.23l.3.6"/><path d="m170.86 831.83l.3.6"/><path d="m172.81 835.88l.15.3"/><path d="m172.96 836.18l.3.6"/><path d="m173.26 836.78l.3.6"/><path d="m173.56 837.38l.3.6"/><path d="m173.86 837.98l.3.6"/><path d="m174.16 838.58l.3.6"/><path d="m176.41 842.33l.15.45"/><path d="m176.56 842.78l.3.6"/><path d="m176.86 843.38l.45.6"/><path d="m177.31 843.98l.3.6"/><path d="m177.61 844.58l.45.45"/><path d="m178.06 845.03l.3.45"/><path d="m180.31 848.63l.3.45"/><path d="m180.61 849.08l.45.6"/><path d="m181.06 849.68l.45.45"/><path d="m181.51 850.13l.3.6"/><path d="m181.81 850.73l.45.6"/><path d="m182.26 851.33l.3.3"/><path d="m184.81 854.63l.3.45"/><path d="m185.11 855.08l.45.6"/><path d="m185.56 855.68l.45.45"/><path d="m186.01 856.13l.45.6"/><path d="m186.46 856.73l.45.45"/><path d="m186.91 857.18l.3.3"/><path d="m189.61 860.33l.45.45"/><path d="m190.06 860.78l.45.6"/><path d="m190.51 861.38l.45.45"/><path d="m190.96 861.83l.45.45"/><path d="m191.41 862.28l.6.6"/><path d="m192.01 862.88l.15.15"/></g></g></svg>