<svg xmlns="http://www.w3.org/2000/svg" height="175.89" viewBox="0 0 180.23999 175.89272"><g transform="translate(-154.53-549.12)" fill="none" stroke-linejoin="round" stroke-linecap="round" stroke-width=".54" stroke-miterlimit="10"><g stroke="#000"><path d="m154.8 549.39v113.4h179.7v-113.4h-179.7z"/><path d="m242.4 662.79l62.1 61.95"/></g><g stroke="#888"><path d="m301.95 722.34l.3-.45"/><path d="m302.25 721.89l.45-.3"/><path d="m302.7 721.59l.3-.45"/><path d="m303 721.14l.45-.3"/><path d="m303.45 720.84l.3-.45"/><path d="m303.75 720.39l.3-.3"/><path d="m304.05 720.09l.45-.45"/><path d="m306.9 716.79l.3-.3"/><path d="m307.2 716.49l.3-.3"/><path d="m307.5 716.19l.3-.45"/><path d="m307.8 715.74l.3-.45"/><path d="m308.1 715.29l.3-.3"/><path d="m308.4 714.99l.45-.45"/><path d="m308.85 714.54l.3-.45"/><path d="m309.15 714.09l.15-.15"/><path d="m311.55 710.94v-.15"/><path d="m311.55 710.79l.3-.45"/><path d="m311.85 710.34l.3-.45"/><path d="m312.15 709.89l.3-.3"/><path d="m312.45 709.59l.3-.45"/><path d="m312.75 709.14l.3-.45"/><path d="m313.05 708.69l.15-.45"/><path d="m313.2 708.24l.3-.45"/><path d="m315.45 704.64l.15-.45"/><path d="m315.6 704.19l.3-.45"/><path d="m315.9 703.74l.3-.45"/><path d="m316.2 703.29l.15-.45"/><path d="m316.35 702.84l.3-.45"/><path d="m316.65 702.39l.3-.45"/><path d="m316.95 701.94l.15-.45"/><path d="m317.1 701.49l.15-.15"/><path d="m318.9 698.04v-.3"/><path d="m318.9 697.74l.3-.45"/><path d="m319.2 697.29l.15-.45"/><path d="m319.35 696.84l.3-.45"/><path d="m319.65 696.39l.15-.45"/><path d="m319.8 695.94l.15-.45"/><path d="m319.95 695.49l.3-.45"/><path d="m320.25 695.04l.15-.45"/><path d="m321.75 691.14l.15-.45"/><path d="m321.9 690.69l.15-.6"/><path d="m322.05 690.09l.15-.45"/><path d="m322.2 689.64l.15-.45"/><path d="m322.35 689.19l.15-.45"/><path d="m322.5 688.74l.15-.6"/><path d="m322.65 688.14l.15-.45"/><path d="m322.8 687.69v-.15"/><path d="m323.85 683.94l.15-.3"/><path d="m324 683.64l.15-.45"/><path d="m324.15 683.19v-.45"/><path d="m324.15 682.74l.15-.6"/><path d="m324.3 682.14l.15-.45"/><path d="m324.45 681.69l.15-.45"/><path d="m324.6 681.24v-.6"/><path d="m324.6 680.64l.15-.3"/><path d="m325.5 676.74v-.15"/><path d="m325.5 676.59v-.45"/><path d="m325.5 676.14l.15-.45"/><path d="m325.65 675.69v-.6"/><path d="m325.65 675.09l.15-.45"/><path d="m325.8 674.64v-.6"/><path d="m325.8 674.04l.15-.45"/><path d="m325.95 673.59v-.45"/><path d="m325.95 673.14v-.15"/><path d="m326.4 669.24v-.3"/><path d="m326.4 668.94v-.45"/><path d="m326.4 668.49v-.6"/><path d="m326.4 667.89v-.45"/><path d="m326.4 667.44l.15-.6"/><path d="m326.55 666.84v-.45"/><path d="m326.55 666.39v-.6"/><path d="m326.55 665.79v-.3"/></g></g></svg>