<svg xmlns="http://www.w3.org/2000/svg" width="189.25" height="168.85" viewBox="0 0 189.24768 168.84769"><g transform="translate(-390.33-339.71)" fill="none" stroke="#000" stroke-linejoin="round" stroke-linecap="round" stroke-width=".54" stroke-miterlimit="10"><path d="m390.6 508.29v-3.75"/><path d="m390.6 500.79v-3.75"/><path d="m390.6 493.29v-3.75"/><path d="m390.6 485.79v-3.75"/><path d="m390.6 478.29v-3.75"/><path d="m390.6 470.79v-3.75"/><path d="m390.6 463.29v-3.75"/><path d="m390.6 455.79v-3.75"/><path d="m390.6 448.29v-3.75"/><path d="m390.6 440.79v-3.75"/><path d="m390.6 433.29v-3.75"/><path d="m390.6 425.79v-3.75"/><path d="m390.6 418.29v-3.75"/><path d="m390.6 410.79v-3.75"/><path d="m390.6 403.29v-3.75"/><path d="m390.6 395.79v-3.75"/><path d="m390.6 388.29v-3.75"/><path d="m390.6 380.79v-3.75"/><path d="m390.6 373.29v-3.75"/><path d="m390.6 365.79v-3.75"/><path d="m390.6 358.29v-3.75"/><path d="m390.6 354.54v-.3"/><path d="m470.4 508.29h-3.75"/><path d="m462.9 508.29h-3.75"/><path d="m455.4 508.29h-3.75"/><path d="m447.9 508.29h-3.75"/><path d="m440.4 508.29h-3.75"/><path d="m432.9 508.29h-3.75"/><path d="m425.4 508.29h-3.75"/><path d="m417.9 508.29h-3.75"/><path d="m410.4 508.29h-3.75"/><path d="m402.9 508.29h-3.75"/><path d="m395.4 508.29h-3.75"/><path d="m390.9 508.29h-.3"/><path d="m470.4 354.24v154.05"/><path d="m390.6 354.24h3.75"/><path d="m398.1 354.24h3.75"/><path d="m405.6 354.24h3.75"/><path d="m413.1 354.24h3.75"/><path d="m420.6 354.24h3.75"/><path d="m428.1 354.24h3.75"/><path d="m435.6 354.24h3.75"/><path d="m443.1 354.24h3.75"/><path d="m450.6 354.24h3.75"/><path d="m458.1 354.24h3.75"/><path d="m465.6 354.24h3.75"/><path d="m470.1 354.24h.3"/><path d="m556.65 417.09c0 1.409-1.141 2.55-2.55 2.55-1.407 0-2.55-1.142-2.55-2.55 0-1.409 1.143-2.55 2.55-2.55 1.409 0 2.55 1.142 2.55 2.55"/><path d="m478.35 508.29v-147.9"/><path d="m562.5 508.29v-147.9"/><path d="m562.5 360.39h-84.15"/><path d="m545.7 471.09v-93.9"/><path d="m495.15 471.09v-93.9"/><path d="m545.7 377.19h-50.55"/><path d="m570.45 354.24v154.05"/><path d="m562.5 487.89h-84.15"/><path d="m545.7 471.09h-50.55"/><path d="m462.3 354.24v3.75"/><path d="m462.3 361.74v3.75"/><path d="m462.3 369.24v3.75"/><path d="m462.3 376.74v3.75"/><path d="m462.3 384.24v3.75"/><path d="m462.3 391.74v3.75"/><path d="m462.3 399.24v3.75"/><path d="m462.3 406.74v3.75"/><path d="m462.3 414.24v3.75"/><path d="m462.3 421.74v3.75"/><path d="m462.3 429.24v3.75"/><path d="m462.3 436.74v3.75"/><path d="m462.3 444.24v3.75"/><path d="m462.3 451.74v3.75"/><path d="m462.3 459.24v3.75"/><path d="m462.3 466.74v3.75"/><path d="m462.3 474.24v3.75"/><path d="m462.3 481.74v3.75"/><path d="m462.3 489.24v3.75"/><path d="m462.3 496.74v3.75"/><path d="m462.3 504.24v3.75"/><path d="m462.3 507.99v.3"/><path d="m544.35 471.09v-93.9"/><path d="m496.35 471.09v-93.9"/><path d="m470.4 508.29h100.05"/><path d="m470.4 354.24h100.05"/><path d="m470.4 348.84h100.05"/><path d="m470.4 339.99h100.05"/><path d="m570.45 508.29v-154.05"/><path d="m579.3 354.24h-8.85"/><path d="m579.3 348.84v5.4"/><path d="m570.45 348.84h8.85"/><path d="m579.3 348.84h-8.85"/><path d="m579.3 339.99v8.85"/><path d="m570.45 339.99h8.85"/></g></svg>