<svg xmlns="http://www.w3.org/2000/svg" width="78.55" height="168.84" viewBox="0 0 78.547684 168.84387"><g transform="translate(-338.48-250.35)" fill="none" stroke="#000" stroke-linejoin="round" stroke-linecap="round" stroke-width=".54" stroke-miterlimit="10"><path d="m408.81 418.92v-147.9"/><path d="m346.86 418.92v-147.9"/><path d="m346.86 271.02h61.95"/><path d="m363.66 381.72v-93.9"/><path d="m392.01 381.72v-93.9"/><path d="m363.66 287.82h28.35"/><path d="m364.86 381.72v-93.9"/><path d="m338.76 264.87h78"/><path d="m338.76 264.87v154.05"/><path d="m416.76 264.87v154.05"/><path d="m390.66 381.72v-93.9"/><path d="m338.76 418.92h78"/><path d="m380.31 279.42c0 1.409-1.142 2.55-2.55 2.55-1.407 0-2.55-1.142-2.55-2.55 0-1.409 1.143-2.55 2.55-2.55 1.409 0 2.55 1.142 2.55 2.55"/><path d="m363.66 381.72h28.35"/><path d="m346.86 398.52h61.95"/><path d="m338.76 259.47h78"/><path d="m338.76 250.62h78"/></g></svg>