<svg xmlns="http://www.w3.org/2000/svg" width="87.4" height="168.85" viewBox="0 0 87.397691 168.8477"><g transform="translate(-171.98-250.35)" fill="none" stroke="#000" stroke-linejoin="round" stroke-linecap="round" stroke-width=".54" stroke-miterlimit="10"><path d="m251.16 418.92v-147.9"/><path d="m189.06 418.92v-147.9"/><path d="m189.06 271.02h62.1"/><path d="m206.01 381.72v-93.9"/><path d="m234.36 381.72v-93.9"/><path d="m206.01 287.82h28.35"/><path d="m207.21 381.72v-93.9"/><path d="m181.11 264.87h78"/><path d="m181.11 264.87v154.05"/><path d="m259.11 264.87v154.05"/><path d="m233.01 381.72v-93.9"/><path d="m181.11 418.92h78"/><path d="m222.66 279.42c0 1.409-1.142 2.55-2.55 2.55-1.407 0-2.55-1.142-2.55-2.55 0-1.409 1.143-2.55 2.55-2.55 1.409 0 2.55 1.142 2.55 2.55"/><path d="m206.01 381.72h28.35"/><path d="m189.06 398.52h62.1"/><path d="m181.11 259.47h78"/><path d="m181.11 250.62h78"/><path d="m181.11 418.92v-154.05"/><path d="m172.26 264.87h8.85"/><path d="m172.26 259.47v5.4"/><path d="m181.11 259.47h-8.85"/><path d="m172.26 259.47h8.85"/><path d="m172.26 250.62v8.85"/><path d="m181.11 250.62h-8.85"/></g></svg>