<svg xmlns="http://www.w3.org/2000/svg" width="109.45" height="168.85" viewBox="0 0 109.44769 168.84768" xmlns:xlink="http://www.w3.org/1999/xlink"><g transform="translate(-508.46-322.12)"><path d="m330.39 490.69h100.05" fill="none" stroke="#000" stroke-linejoin="round" stroke-linecap="round" stroke-width=".54" stroke-miterlimit="10" id="0"/><use xlink:href="#0"/><g fill="none" stroke="#000" stroke-linejoin="round" stroke-linecap="round" stroke-width=".54" stroke-miterlimit="10"><path d="m529.44 465.34v-54.3"/><path d="m529.44 402.49v-59.7"/><path d="m548.94 465.34v-54.3"/><path d="m548.94 402.49v-59.7"/><path d="m568.44 465.34v-54.3"/><path d="m568.44 402.49v-59.7"/><path d="m587.94 465.34v-54.3"/><path d="m587.94 402.49v-59.7"/></g><path d="m508.74 490.69h100.05" fill="none" stroke="#000" stroke-linejoin="round" stroke-linecap="round" stroke-width=".54" stroke-miterlimit="10" id="1"/><g fill="none" stroke="#000" stroke-linejoin="round" stroke-linecap="round" stroke-width=".54" stroke-miterlimit="10"><path d="m600.84 490.69v-147.9"/><path d="m516.69 490.69v-147.9"/><path d="m516.69 342.79h84.15"/><path d="m508.74 336.64h100.05"/><path d="m508.74 336.64v154.05"/><path d="m608.79 336.64v154.05"/><path d="m516.69 468.64h84.15"/><path d="m516.69 465.34h84.15"/><path d="m516.69 405.64h84.15"/><path d="m516.69 402.49h84.15"/><path d="m516.69 411.04h84.15"/></g><use xlink:href="#1"/><g fill="none" stroke="#000" stroke-linejoin="round" stroke-linecap="round" stroke-width=".54" stroke-miterlimit="10"><path d="m508.74 331.24h100.05"/><path d="m508.74 322.39h100.05"/></g><path d="m144.54 490.69h100.2" fill="none" stroke="#000" stroke-linejoin="round" stroke-linecap="round" stroke-width=".54" stroke-miterlimit="10" id="2"/><use xlink:href="#2"/><g fill="none" stroke="#000" stroke-linejoin="round" stroke-linecap="round" stroke-width=".54" stroke-miterlimit="10"><path d="m617.64 336.64h-8.85"/><path d="m617.64 331.24v5.4"/><path d="m608.79 331.24h8.85"/><path d="m617.64 331.24h-8.85"/><path d="m617.64 322.39v8.85"/><path d="m608.79 322.39h8.85"/></g></g></svg>