<svg xmlns="http://www.w3.org/2000/svg" width="109.6" height="168.85" viewBox="0 0 109.59769 168.8477" xmlns:xlink="http://www.w3.org/1999/xlink"><g transform="translate(-135.41-322.12)"><path d="m330.39 490.69h100.05" fill="none" stroke="#000" stroke-linejoin="round" stroke-linecap="round" stroke-width=".54" stroke-miterlimit="10" id="0"/><use xlink:href="#0"/><path d="m508.74 490.69h100.05" fill="none" stroke="#000" stroke-linejoin="round" stroke-linecap="round" stroke-width=".54" stroke-miterlimit="10" id="1"/><use xlink:href="#1"/><g fill="none" stroke="#000" stroke-linejoin="round" stroke-linecap="round" stroke-width=".54" stroke-miterlimit="10"><path d="m165.39 465.34v-54.3"/><path d="m165.39 402.49v-59.7"/><path d="m184.89 465.34v-54.3"/><path d="m184.89 402.49v-59.7"/><path d="m204.39 465.34v-54.3"/><path d="m204.39 402.49v-59.7"/><path d="m223.89 465.34v-54.3"/><path d="m223.89 402.49v-59.7"/></g><path d="m144.54 490.69h100.2" fill="none" stroke="#000" stroke-linejoin="round" stroke-linecap="round" stroke-width=".54" stroke-miterlimit="10" id="2"/><g fill="none" stroke="#000" stroke-linejoin="round" stroke-linecap="round" stroke-width=".54" stroke-miterlimit="10"><path d="m236.79 490.69v-147.9"/><path d="m152.64 490.69v-147.9"/><path d="m152.64 342.79h84.15"/><path d="m144.54 336.64h100.2"/><path d="m144.54 336.64v154.05"/><path d="m244.74 336.64v154.05"/><path d="m152.64 468.64h84.15"/><path d="m152.64 465.34h84.15"/><path d="m152.64 405.64h84.15"/><path d="m152.64 402.49h84.15"/><path d="m152.64 411.04h84.15"/></g><use xlink:href="#2"/><g fill="none" stroke="#000" stroke-linejoin="round" stroke-linecap="round" stroke-width=".54" stroke-miterlimit="10"><path d="m144.54 331.24h100.2"/><path d="m144.54 322.39h100.2"/><path d="m135.69 336.64h8.85"/><path d="m135.69 331.24v5.4"/><path d="m144.54 331.24h-8.85"/><path d="m135.69 331.24h8.85"/><path d="m135.69 322.39v8.85"/><path d="m144.54 322.39h-8.85"/></g></g></svg>