<svg xmlns="http://www.w3.org/2000/svg" width="100.6" height="168.84" viewBox="0 0 100.59769 168.84387" xmlns:xlink="http://www.w3.org/1999/xlink"><g transform="translate(-330.11-322.12)"><g fill="none" stroke="#000" stroke-linejoin="round" stroke-linecap="round" stroke-width=".54" stroke-miterlimit="10"><path d="m351.24 465.34v-54.3"/><path d="m351.24 402.49v-59.7"/><path d="m370.74 465.34v-54.3"/><path d="m370.74 402.49v-59.7"/><path d="m390.24 465.34v-54.3"/><path d="m390.24 402.49v-59.7"/><path d="m409.59 465.34v-54.3"/><path d="m409.59 402.49v-59.7"/></g><path d="m330.39 490.69h100.05" fill="none" stroke="#000" stroke-linejoin="round" stroke-linecap="round" stroke-width=".54" stroke-miterlimit="10" id="0"/><g fill="none" stroke="#000" stroke-linejoin="round" stroke-linecap="round" stroke-width=".54" stroke-miterlimit="10"><path d="m422.49 490.69v-147.9"/><path d="m338.34 490.69v-147.9"/><path d="m338.34 342.79h84.15"/><path d="m330.39 336.64h100.05"/><path d="m330.39 336.64v154.05"/><path d="m430.44 336.64v154.05"/><path d="m338.34 468.64h84.15"/><path d="m338.34 465.34h84.15"/><path d="m338.34 405.64h84.15"/><path d="m338.34 402.49h84.15"/><path d="m338.34 411.04h84.15"/></g><use xlink:href="#0"/><g fill="none" stroke="#000" stroke-linejoin="round" stroke-linecap="round" stroke-width=".54" stroke-miterlimit="10"><path d="m330.39 331.24h100.05"/><path d="m330.39 322.39h100.05"/></g><path d="m508.74 490.69h100.05" fill="none" stroke="#000" stroke-linejoin="round" stroke-linecap="round" stroke-width=".54" stroke-miterlimit="10" id="1"/><use xlink:href="#1"/><path d="m144.54 490.69h100.2" fill="none" stroke="#000" stroke-linejoin="round" stroke-linecap="round" stroke-width=".54" stroke-miterlimit="10" id="2"/><use xlink:href="#2"/></g></svg>