<svg xmlns="http://www.w3.org/2000/svg" width="100.59" height="113.94" viewBox="0 0 100.59384 113.94384" xmlns:xlink="http://www.w3.org/1999/xlink"><g transform="translate(-330.12-531.52)"><g fill="none" stroke-linejoin="round" stroke-linecap="round" stroke-width=".54" stroke-miterlimit="10"><path d="m430.44 645.19v-113.4h-100.05v113.4h100.05" stroke="#000"/><g stroke="#888"><path d="m338.34 645.19v-1.2"/><path d="m338.34 640.24v-3.75"/><path d="m338.34 632.74v-3.75"/><path d="m338.34 625.24v-3.75"/><path d="m338.34 617.74v-3.75"/><path d="m338.34 610.24v-3.75"/><path d="m338.34 602.74v-3.75"/><path d="m338.34 595.24v-3.75"/><path d="m338.34 587.74v-3.75"/><path d="m338.34 580.24v-3.75"/><path d="m338.34 572.74v-3.75"/><path d="m338.34 565.24v-3.75"/><path d="m338.34 557.74v-3.75"/><path d="m338.34 550.24v-3.75"/><path d="m338.34 542.74v-1.2"/><path d="m338.34 541.54h2.7"/><path d="m344.79 541.54h3.75"/><path d="m352.29 541.54h3.75"/><path d="m359.79 541.54h3.75"/><path d="m367.29 541.54h3.75"/><path d="m374.79 541.54h3.75"/><path d="m382.29 541.54h3.75"/><path d="m389.79 541.54h3.75"/><path d="m397.29 541.54h3.75"/><path d="m404.79 541.54h3.75"/><path d="m412.29 541.54h3.75"/><path d="m419.79 541.54h2.7"/><path d="m422.49 541.54v1.2"/><path d="m422.49 546.49v3.75"/><path d="m422.49 553.99v3.75"/><path d="m422.49 561.49v3.75"/><path d="m422.49 568.99v3.75"/><path d="m422.49 576.49v3.75"/><path d="m422.49 583.99v3.75"/><path d="m422.49 591.49v3.75"/><path d="m422.49 598.99v3.75"/><path d="m422.49 606.49v3.75"/><path d="m422.49 613.99v3.75"/><path d="m422.49 621.49v3.75"/><path d="m422.49 628.99v3.75"/><path d="m422.49 636.49v3.75"/><path d="m422.49 643.99v1.2"/><path d="m338.34 553.09h2.7"/><path d="m344.79 553.09h3.75"/><path d="m352.29 553.09h3.75"/><path d="m359.79 553.09h3.75"/><path d="m367.29 553.09h3.75"/><path d="m374.79 553.09h3.75"/><path d="m382.29 553.09h3.75"/><path d="m389.79 553.09h3.75"/><path d="m397.29 553.09h3.75"/><path d="m404.79 553.09h3.75"/><path d="m412.29 553.09h3.75"/><path d="m419.79 553.09h2.7"/><path d="m338.34 556.54h2.7"/><path d="m344.79 556.54h3.75"/><path d="m352.29 556.54h3.75"/><path d="m359.79 556.54h3.75"/><path d="m367.29 556.54h3.75"/><path d="m374.79 556.54h3.75"/><path d="m382.29 556.54h3.75"/><path d="m389.79 556.54h3.75"/><path d="m397.29 556.54h3.75"/><path d="m404.79 556.54h3.75"/><path d="m412.29 556.54h3.75"/><path d="m419.79 556.54h2.7"/><path d="m338.34 568.09h2.7"/><path d="m344.79 568.09h3.75"/><path d="m352.29 568.09h3.75"/><path d="m359.79 568.09h3.75"/><path d="m367.29 568.09h3.75"/><path d="m374.79 568.09h3.75"/><path d="m382.29 568.09h3.75"/><path d="m389.79 568.09h3.75"/><path d="m397.29 568.09h3.75"/><path d="m404.79 568.09h3.75"/><path d="m412.29 568.09h3.75"/><path d="m419.79 568.09h2.7"/><path d="m338.34 571.54h2.7"/><path d="m344.79 571.54h3.75"/><path d="m352.29 571.54h3.75"/><path d="m359.79 571.54h3.75"/><path d="m367.29 571.54h3.75"/><path d="m374.79 571.54h3.75"/><path d="m382.29 571.54h3.75"/><path d="m389.79 571.54h3.75"/><path d="m397.29 571.54h3.75"/><path d="m404.79 571.54h3.75"/><path d="m412.29 571.54h3.75"/><path d="m419.79 571.54h2.7"/><path d="m338.34 583.09h2.7"/><path d="m344.79 583.09h3.75"/><path d="m352.29 583.09h3.75"/><path d="m359.79 583.09h3.75"/><path d="m367.29 583.09h3.75"/><path d="m374.79 583.09h3.75"/><path d="m382.29 583.09h3.75"/><path d="m389.79 583.09h3.75"/><path d="m397.29 583.09h3.75"/><path d="m404.79 583.09h3.75"/><path d="m412.29 583.09h3.75"/><path d="m419.79 583.09h2.7"/><path d="m338.34 586.54h2.7"/><path d="m344.79 586.54h3.75"/><path d="m352.29 586.54h3.75"/><path d="m359.79 586.54h3.75"/><path d="m367.29 586.54h3.75"/><path d="m374.79 586.54h3.75"/><path d="m382.29 586.54h3.75"/><path d="m389.79 586.54h3.75"/><path d="m397.29 586.54h3.75"/><path d="m404.79 586.54h3.75"/><path d="m412.29 586.54h3.75"/><path d="m419.79 586.54h2.7"/><path d="m338.34 598.09h2.7"/><path d="m344.79 598.09h3.75"/><path d="m352.29 598.09h3.75"/><path d="m359.79 598.09h3.75"/><path d="m367.29 598.09h3.75"/><path d="m374.79 598.09h3.75"/><path d="m382.29 598.09h3.75"/><path d="m389.79 598.09h3.75"/><path d="m397.29 598.09h3.75"/><path d="m404.79 598.09h3.75"/><path d="m412.29 598.09h3.75"/><path d="m419.79 598.09h2.7"/><path d="m338.34 601.54h2.7"/><path d="m344.79 601.54h3.75"/><path d="m352.29 601.54h3.75"/><path d="m359.79 601.54h3.75"/><path d="m367.29 601.54h3.75"/><path d="m374.79 601.54h3.75"/><path d="m382.29 601.54h3.75"/><path d="m389.79 601.54h3.75"/><path d="m397.29 601.54h3.75"/><path d="m404.79 601.54h3.75"/><path d="m412.29 601.54h3.75"/><path d="m419.79 601.54h2.7"/><path d="m338.34 613.09h2.7"/><path d="m344.79 613.09h3.75"/><path d="m352.29 613.09h3.75"/><path d="m359.79 613.09h3.75"/><path d="m367.29 613.09h3.75"/><path d="m374.79 613.09h3.75"/><path d="m382.29 613.09h3.75"/><path d="m389.79 613.09h3.75"/><path d="m397.29 613.09h3.75"/><path d="m404.79 613.09h3.75"/><path d="m412.29 613.09h3.75"/><path d="m419.79 613.09h2.7"/><path d="m338.34 616.54h2.7"/><path d="m344.79 616.54h3.75"/><path d="m352.29 616.54h3.75"/><path d="m359.79 616.54h3.75"/><path d="m367.29 616.54h3.75"/><path d="m374.79 616.54h3.75"/><path d="m382.29 616.54h3.75"/><path d="m389.79 616.54h3.75"/><path d="m397.29 616.54h3.75"/><path d="m404.79 616.54h3.75"/><path d="m412.29 616.54h3.75"/><path d="m419.79 616.54h2.7"/><path d="m338.34 628.09h2.7"/><path d="m344.79 628.09h3.75"/><path d="m352.29 628.09h3.75"/><path d="m359.79 628.09h3.75"/><path d="m367.29 628.09h3.75"/><path d="m374.79 628.09h3.75"/><path d="m382.29 628.09h3.75"/><path d="m389.79 628.09h3.75"/><path d="m397.29 628.09h3.75"/><path d="m404.79 628.09h3.75"/><path d="m412.29 628.09h3.75"/><path d="m419.79 628.09h2.7"/><path d="m338.34 631.54h2.7"/><path d="m344.79 631.54h3.75"/><path d="m352.29 631.54h3.75"/><path d="m359.79 631.54h3.75"/><path d="m367.29 631.54h3.75"/><path d="m374.79 631.54h3.75"/><path d="m382.29 631.54h3.75"/><path d="m389.79 631.54h3.75"/><path d="m397.29 631.54h3.75"/><path d="m404.79 631.54h3.75"/><path d="m412.29 631.54h3.75"/><path d="m419.79 631.54h2.7"/><path d="m338.34 643.09h2.7"/><path d="m344.79 643.09h3.75"/><path d="m352.29 643.09h3.75"/><path d="m359.79 643.09h3.75"/><path d="m367.29 643.09h3.75"/><path d="m374.79 643.09h3.75"/><path d="m382.29 643.09h3.75"/><path d="m389.79 643.09h3.75"/><path d="m397.29 643.09h3.75"/><path d="m404.79 643.09h3.75"/><path d="m412.29 643.09h3.75"/><path d="m419.79 643.09h2.7"/></g></g><path d="m330.39 490.69h100.05" fill="none" stroke="#000" stroke-linejoin="round" stroke-linecap="round" stroke-width=".54" stroke-miterlimit="10" id="0"/><use xlink:href="#0"/><path d="m508.74 490.69h100.05" fill="none" stroke="#000" stroke-linejoin="round" stroke-linecap="round" stroke-width=".54" stroke-miterlimit="10" id="1"/><use xlink:href="#1"/><path d="m144.54 490.69h100.2" fill="none" stroke="#000" stroke-linejoin="round" stroke-linecap="round" stroke-width=".54" stroke-miterlimit="10" id="2"/><use xlink:href="#2"/></g></svg>