<svg xmlns="http://www.w3.org/2000/svg" height="175.89" viewBox="0 0 192.69001 175.89273"><g transform="translate(-438.88-674.09)" fill="none" stroke-linejoin="round" stroke-linecap="round" stroke-width=".54" stroke-miterlimit="10"><g stroke="#000"><path d="m439.15 674.36v113.4h192.15v-113.4h-192.15z"/><path d="m447.1 787.76l61.95 61.95"/></g><g stroke="#888"><path d="m506.65 847.31l.3-.45"/><path d="m506.95 846.86l.45-.3"/><path d="m507.4 846.56l.3-.45"/><path d="m507.7 846.11l.3-.3"/><path d="m508 845.81l.45-.45"/><path d="m508.45 845.36l.3-.3"/><path d="m508.75 845.06l.3-.45"/><path d="m509.05 844.61h.15"/><path d="m511.6 841.76l.3-.3"/><path d="m511.9 841.46l.3-.3"/><path d="m512.2 841.16l.3-.45"/><path d="m512.5 840.71l.3-.45"/><path d="m512.8 840.26l.3-.3"/><path d="m513.1 839.96l.3-.45"/><path d="m513.4 839.51l.3-.45"/><path d="m513.7 839.06l.3-.15"/><path d="m516.25 835.91v-.15"/><path d="m516.25 835.76l.3-.45"/><path d="m516.55 835.31l.3-.45"/><path d="m516.85 834.86l.3-.3"/><path d="m517.15 834.56l.15-.45"/><path d="m517.3 834.11l.3-.45"/><path d="m517.6 833.66l.3-.45"/><path d="m517.9 833.21l.3-.45"/><path d="m520.15 829.61l.15-.45"/><path d="m520.3 829.16l.3-.45"/><path d="m520.6 828.71l.3-.45"/><path d="m520.9 828.26l.15-.45"/><path d="m521.05 827.81l.3-.45"/><path d="m521.35 827.36l.15-.45"/><path d="m521.5 826.91l.3-.45"/><path d="m521.8 826.46l.15-.15"/><path d="m523.6 823.01v-.3"/><path d="m523.6 822.71l.3-.45"/><path d="m523.9 822.26l.15-.45"/><path d="m524.05 821.81l.15-.45"/><path d="m524.2 821.36l.3-.45"/><path d="m524.5 820.91l.15-.45"/><path d="m524.65 820.46l.15-.45"/><path d="m524.8 820.01l.15-.45"/><path d="m526.3 816.11l.15-.45"/><path d="m526.45 815.66l.3-.6"/><path d="m526.75 815.06l.15-.45"/><path d="m526.9 814.61l.15-.45"/><path d="m527.05 814.16l.15-.45"/><path d="m527.2 813.71l.15-.6"/><path d="m527.35 813.11l.15-.45"/><path d="m527.5 812.66v-.15"/><path d="m528.55 808.91v-.3"/><path d="m528.55 808.61l.15-.45"/><path d="m528.7 808.16l.15-.45"/><path d="m528.85 807.71l.15-.6"/><path d="m529 807.11l.15-.45"/><path d="m529.15 806.66v-.45"/><path d="m529.15 806.21l.15-.6"/><path d="m529.3 805.61l.15-.3"/><path d="m530.05 801.71v-.15"/><path d="m530.05 801.56l.15-.45"/><path d="m530.2 801.11l.15-.45"/><path d="m530.35 800.66v-.6"/><path d="m530.35 800.06l.15-.45"/><path d="m530.5 799.61v-.6"/><path d="m530.5 799.01v-.45"/><path d="m530.5 798.56l.15-.45"/><path d="m530.95 794.36l.15-.45"/><path d="m531.1 793.91v-.45"/><path d="m531.1 793.46v-.6"/><path d="m531.1 792.86v-.45"/><path d="m531.1 792.41v-.6"/><path d="m531.1 791.81l.15-.45"/><path d="m531.25 791.36v-.6"/><path d="m531.25 790.76v-.15"/></g><path d="m623.35 787.76l-61.95 61.95" stroke="#000"/><g stroke="#888"><path d="m539.2 787.76v.45"/><path d="m539.2 788.21v.6"/><path d="m539.2 788.81v.45"/><path d="m539.2 789.26v.6"/><path d="m539.2 789.86l.15.45"/><path d="m539.35 790.31v.45"/><path d="m539.35 790.76v.6"/><path d="m539.35 791.36v.15"/><path d="m539.65 795.26v.15"/><path d="m539.65 795.41v.6"/><path d="m539.65 796.01v.45"/><path d="m539.65 796.46l.15.6"/><path d="m539.8 797.06v.45"/><path d="m539.8 797.51v.6"/><path d="m539.8 798.11l.15.45"/><path d="m539.95 798.56v.45"/><path d="m540.55 802.61l.15.6"/><path d="m540.7 803.21v.45"/><path d="m540.7 803.66l.15.45"/><path d="m540.85 804.11l.15.6"/><path d="m541 804.71v.45"/><path d="m541 805.16l.15.45"/><path d="m541.15 805.61l.15.6"/><path d="m542.2 809.81l.15.3"/><path d="m542.35 810.11l.15.6"/><path d="m542.5 810.71v.45"/><path d="m542.5 811.16l.15.45"/><path d="m542.65 811.61l.15.6"/><path d="m542.8 812.21l.15.45"/><path d="m542.95 812.66l.15.45"/><path d="m543.1 813.11l.15.3"/><path d="m544.45 817.01l.3.6"/><path d="m544.75 817.61l.15.45"/><path d="m544.9 818.06l.15.45"/><path d="m545.05 818.51l.15.45"/><path d="m545.2 818.96l.3.45"/><path d="m545.5 819.41l.15.6"/><path d="m545.65 820.01l.15.45"/><path d="m547.3 823.91l.3.3"/><path d="m547.6 824.21l.15.45"/><path d="m547.75 824.66l.3.45"/><path d="m548.05 825.11l.15.45"/><path d="m548.2 825.56l.3.45"/><path d="m548.5 826.01l.15.45"/><path d="m548.65 826.46l.3.45"/><path d="m548.95 826.91l.15.3"/><path d="m550.9 830.51l.3.45"/><path d="m551.2 830.96l.3.45"/><path d="m551.5 831.41l.3.45"/><path d="m551.8 831.86l.15.45"/><path d="m551.95 832.31l.3.45"/><path d="m552.25 832.76l.3.45"/><path d="m552.55 833.21l.3.45"/><path d="m554.95 836.66l.3.3"/><path d="m555.25 836.96l.3.45"/><path d="m555.55 837.41l.3.45"/><path d="m555.85 837.86l.3.45"/><path d="m556.15 838.31l.3.45"/><path d="m556.45 838.76l.3.3"/><path d="m556.75 839.06l.3.45"/><path d="m557.05 839.51l.15.15"/><path d="m559.45 842.51l.15.15"/><path d="m559.6 842.66l.45.45"/><path d="m560.05 843.11l.3.3"/><path d="m560.35 843.41l.3.45"/><path d="m560.65 843.86l.45.45"/><path d="m561.1 844.31l.3.3"/><path d="m561.4 844.61l.3.45"/><path d="m561.7 845.06l.3.15"/></g><g stroke="#000"><path d="m531.25 817.91v-1.95"/><path d="m531.25 812.21v-3.75"/><path d="m531.25 804.71v-3.75"/><path d="m531.25 797.21v-3.75"/><path d="m531.25 789.71v-1.95"/><path d="m443.5 814.31h91.35"/><path d="m447.1 787.76v1.95"/><path d="m447.1 793.46v3.75"/><path d="m447.1 800.96v3.75"/><path d="m447.1 808.46v3.75"/><path d="m447.1 815.96v1.95"/><path d="m623.35 817.91v-1.95"/><path d="m623.35 812.21v-3.75"/><path d="m623.35 804.71v-3.75"/><path d="m623.35 797.21v-3.75"/><path d="m623.35 789.71v-1.95"/><path d="m535.75 814.31h91.2"/><path d="m539.2 787.76v1.95"/><path d="m539.2 793.46v3.75"/><path d="m539.2 800.96v3.75"/><path d="m539.2 808.46v3.75"/><path d="m539.2 815.96v1.95"/></g></g></svg>