<svg xmlns="http://www.w3.org/2000/svg" width="201.55" height="168.85" viewBox="0 0 201.54769 168.84769"><g transform="translate(-175.68-479.71)" fill="none" stroke="#000" stroke-linejoin="round" stroke-linecap="round" stroke-width=".54" stroke-miterlimit="10"><path d="m271.05 572.84c0 1.409-1.142 2.55-2.55 2.55-1.407 0-2.55-1.141-2.55-2.55 0-1.409 1.143-2.55 2.55-2.55 1.409 0 2.55 1.141 2.55 2.55"/><path d="m192.75 648.29v-147.9"/><path d="m192.75 528.74h84.15"/><path d="m284.85 528.74h84.15"/><path d="m209.55 611.09v-65.55"/><path d="m260.1 611.09v-65.55"/><path d="m209.55 545.54h50.55"/><path d="m184.8 494.24h192.15"/><path d="m184.8 494.24v154.05"/><path d="m369 648.29v-147.9"/><path d="m276.9 648.29v-147.9"/><path d="m192.75 500.39h84.15"/><path d="m284.85 500.39h84.15"/><path d="m301.65 611.09v-65.55"/><path d="m352.2 611.09v-65.55"/><path d="m301.65 545.54h50.55"/><path d="m376.95 494.24v154.05"/><path d="m184.8 648.29h192.15"/><path d="m192.75 627.89h84.15"/><path d="m284.85 627.89h84.15"/><path d="m301.65 611.09h50.55"/><path d="m209.55 611.09h50.55"/><path d="m295.8 572.84c0 1.409-1.142 2.55-2.55 2.55-1.407 0-2.55-1.141-2.55-2.55 0-1.409 1.143-2.55 2.55-2.55 1.409 0 2.55 1.141 2.55 2.55"/><path d="m258.75 611.09v-65.55"/><path d="m351 611.09v-65.55"/><path d="m210.75 611.09v-65.55"/><path d="m302.85 611.09v-65.55"/><path d="m284.85 648.29v-147.9"/><path d="m329.55 514.56c0 1.449-1.175 2.625-2.625 2.625-1.449 0-2.625-1.176-2.625-2.625 0-1.451 1.176-2.625 2.625-2.625 1.45 0 2.625 1.174 2.625 2.625"/><path d="m237.3 514.56c0 1.449-1.142 2.625-2.55 2.625-1.407 0-2.55-1.176-2.55-2.625 0-1.451 1.143-2.625 2.55-2.625 1.409 0 2.55 1.174 2.55 2.625"/><path d="m184.8 488.84h192.15"/><path d="m184.8 479.99h192.15"/><path d="m184.8 648.29v-154.05"/><path d="m175.95 494.24h8.85"/><path d="m175.95 488.84v5.4"/><path d="m184.8 488.84h-8.85"/><path d="m175.95 488.84h8.85"/><path d="m175.95 479.99v8.85"/><path d="m184.8 479.99h-8.85"/></g></svg>