<svg xmlns="http://www.w3.org/2000/svg" width="192.7" height="168.84" viewBox="0 0 192.69769 168.84387"><g transform="translate(-438.88-464.69)" fill="none" stroke="#000" stroke-linejoin="round" stroke-linecap="round" stroke-width=".54" stroke-miterlimit="10"><path d="m525.4 557.81c0 1.409-1.141 2.55-2.55 2.55-1.407 0-2.55-1.141-2.55-2.55 0-1.409 1.143-2.55 2.55-2.55 1.409 0 2.55 1.141 2.55 2.55"/><path d="m447.1 633.26v-147.9"/><path d="m447.1 513.71h84.15"/><path d="m539.2 513.71h84.15"/><path d="m463.9 596.06v-65.55"/><path d="m514.45 596.06v-65.55"/><path d="m463.9 530.51h50.55"/><path d="m439.15 479.21h192.15"/><path d="m439.15 479.21v154.05"/><path d="m623.35 633.26v-147.9"/><path d="m531.25 633.26v-147.9"/><path d="m447.1 485.36h84.15"/><path d="m539.2 485.36h84.15"/><path d="m556 596.06v-65.55"/><path d="m606.55 596.06v-65.55"/><path d="m556 530.51h50.55"/><path d="m631.3 479.21v154.05"/><path d="m439.15 633.26h192.15"/><path d="m447.1 612.86h84.15"/><path d="m539.2 612.86h84.15"/><path d="m556 596.06h50.55"/><path d="m463.9 596.06h50.55"/><path d="m550.15 557.81c0 1.409-1.141 2.55-2.55 2.55-1.407 0-2.55-1.141-2.55-2.55 0-1.409 1.143-2.55 2.55-2.55 1.409 0 2.55 1.141 2.55 2.55"/><path d="m513.25 596.06v-65.55"/><path d="m605.35 596.06v-65.55"/><path d="m465.25 596.06v-65.55"/><path d="m557.35 596.06v-65.55"/><path d="m539.2 633.26v-147.9"/><path d="m583.9 499.53c0 1.449-1.141 2.625-2.55 2.625-1.407 0-2.55-1.176-2.55-2.625 0-1.45 1.143-2.625 2.55-2.625 1.409 0 2.55 1.175 2.55 2.625"/><path d="m491.8 499.53c0 1.449-1.175 2.625-2.625 2.625-1.449 0-2.625-1.176-2.625-2.625 0-1.45 1.176-2.625 2.625-2.625 1.45 0 2.625 1.175 2.625 2.625"/><path d="m439.15 473.81h192.15"/><path d="m439.15 464.96h192.15"/></g></svg>