<svg xmlns="http://www.w3.org/2000/svg" width="180.25" height="168.84" viewBox="0 0 180.24768 168.84388"><g transform="translate(-154.53-339.72)" fill="none" stroke="#000" stroke-linejoin="round" stroke-linecap="round" stroke-width=".54" stroke-miterlimit="10"><path d="m154.8 508.29v-3.75"/><path d="m154.8 500.79v-3.75"/><path d="m154.8 493.29v-3.75"/><path d="m154.8 485.79v-3.75"/><path d="m154.8 478.29v-3.75"/><path d="m154.8 470.79v-3.75"/><path d="m154.8 463.29v-3.75"/><path d="m154.8 455.79v-3.75"/><path d="m154.8 448.29v-3.75"/><path d="m154.8 440.79v-3.75"/><path d="m154.8 433.29v-3.75"/><path d="m154.8 425.79v-3.75"/><path d="m154.8 418.29v-3.75"/><path d="m154.8 410.79v-3.75"/><path d="m154.8 403.29v-3.75"/><path d="m154.8 395.79v-3.75"/><path d="m154.8 388.29v-3.75"/><path d="m154.8 380.79v-3.75"/><path d="m154.8 373.29v-3.75"/><path d="m154.8 365.79v-3.75"/><path d="m154.8 358.29v-3.75"/><path d="m154.8 354.54v-.3"/><path d="m234.45 508.29h-3.75"/><path d="m226.95 508.29h-3.75"/><path d="m219.45 508.29h-3.75"/><path d="m211.95 508.29h-3.75"/><path d="m204.45 508.29h-3.75"/><path d="m196.95 508.29h-3.75"/><path d="m189.45 508.29h-3.75"/><path d="m181.95 508.29h-3.75"/><path d="m174.45 508.29h-3.75"/><path d="m166.95 508.29h-3.75"/><path d="m159.45 508.29h-3.75"/><path d="m155.1 508.29h-.3"/><path d="m234.45 354.24v154.05"/><path d="m154.8 354.24h3.75"/><path d="m162.3 354.24h3.75"/><path d="m169.8 354.24h3.75"/><path d="m177.3 354.24h3.75"/><path d="m184.8 354.24h3.75"/><path d="m192.3 354.24h3.75"/><path d="m199.8 354.24h3.75"/><path d="m207.3 354.24h3.75"/><path d="m214.8 354.24h3.75"/><path d="m222.3 354.24h3.75"/><path d="m229.8 354.24h3.75"/><path d="m234.15 354.24h.3"/><path d="m320.7 417.09c0 1.409-1.142 2.55-2.55 2.55-1.407 0-2.55-1.142-2.55-2.55 0-1.409 1.143-2.55 2.55-2.55 1.409 0 2.55 1.142 2.55 2.55"/><path d="m242.4 508.29v-147.9"/><path d="m326.55 508.29v-147.9"/><path d="m326.55 360.39h-84.15"/><path d="m309.75 471.09v-93.9"/><path d="m259.35 471.09v-93.9"/><path d="m309.75 377.19h-50.4"/><path d="m334.5 354.24v154.05"/><path d="m326.55 487.89h-84.15"/><path d="m309.75 471.09h-50.4"/><path d="m226.5 354.24v3.75"/><path d="m226.5 361.74v3.75"/><path d="m226.5 369.24v3.75"/><path d="m226.5 376.74v3.75"/><path d="m226.5 384.24v3.75"/><path d="m226.5 391.74v3.75"/><path d="m226.5 399.24v3.75"/><path d="m226.5 406.74v3.75"/><path d="m226.5 414.24v3.75"/><path d="m226.5 421.74v3.75"/><path d="m226.5 429.24v3.75"/><path d="m226.5 436.74v3.75"/><path d="m226.5 444.24v3.75"/><path d="m226.5 451.74v3.75"/><path d="m226.5 459.24v3.75"/><path d="m226.5 466.74v3.75"/><path d="m226.5 474.24v3.75"/><path d="m226.5 481.74v3.75"/><path d="m226.5 489.24v3.75"/><path d="m226.5 496.74v3.75"/><path d="m226.5 504.24v3.75"/><path d="m226.5 507.99v.3"/><path d="m308.55 471.09v-93.9"/><path d="m260.55 471.09v-93.9"/><path d="m234.45 508.29h100.05"/><path d="m234.45 354.24h100.05"/><path d="m234.45 348.84h100.05"/><path d="m234.45 339.99h100.05"/></g></svg>