<svg xmlns="http://www.w3.org/2000/svg" height="122.79" viewBox="0 0 184.73999 122.79273"><g transform="translate(-415.33-732.99)" fill="none" stroke-linejoin="round" stroke-linecap="round" stroke-width=".54" stroke-miterlimit="10"><g stroke="#000"><path d="m415.6 733.26v60.3h184.2v-60.3h-184.2z"/><path d="m423.55 793.56l61.95 61.95"/></g><g stroke="#888"><path d="m482.95 853.11l.45-.45"/><path d="m483.4 852.66l.3-.3"/><path d="m483.7 852.36l.45-.45"/><path d="m484.15 851.91l.3-.3"/><path d="m484.45 851.61l.3-.45"/><path d="m484.75 851.16l.45-.3"/><path d="m485.2 850.86l.3-.45"/><path d="m487.9 847.56l.3-.3"/><path d="m488.2 847.26l.3-.3"/><path d="m488.5 846.96l.45-.45"/><path d="m488.95 846.51l.3-.45"/><path d="m489.25 846.06l.3-.3"/><path d="m489.55 845.76l.3-.45"/><path d="m489.85 845.31l.3-.45"/><path d="m490.15 844.86l.15-.15"/><path d="m492.55 841.71v-.15"/><path d="m492.55 841.56l.3-.45"/><path d="m492.85 841.11l.3-.45"/><path d="m493.15 840.66l.3-.3"/><path d="m493.45 840.36l.3-.45"/><path d="m493.75 839.91l.3-.45"/><path d="m494.05 839.46l.3-.45"/><path d="m494.35 839.01l.3-.45"/><path d="m496.45 835.26l.3-.3"/><path d="m496.75 834.96l.15-.45"/><path d="m496.9 834.51l.3-.45"/><path d="m497.2 834.06l.3-.45"/><path d="m497.5 833.61l.15-.45"/><path d="m497.65 833.16l.3-.45"/><path d="m497.95 832.71l.3-.45"/><path d="m498.25 832.26v-.15"/><path d="m499.9 828.81l.15-.3"/><path d="m500.05 828.51l.15-.45"/><path d="m500.2 828.06l.3-.45"/><path d="m500.5 827.61l.15-.45"/><path d="m500.65 827.16l.15-.45"/><path d="m500.8 826.71l.3-.45"/><path d="m501.1 826.26l.15-.45"/><path d="m501.25 825.81l.15-.45"/><path d="m502.75 821.91l.15-.45"/><path d="m502.9 821.46l.15-.6"/><path d="m503.05 820.86l.15-.45"/><path d="m503.2 820.41l.15-.45"/><path d="m503.35 819.96l.15-.45"/><path d="m503.5 819.51l.15-.6"/><path d="m503.65 818.91l.3-.45"/><path d="m504.85 814.86l.15-.45"/><path d="m505 814.41l.15-.45"/><path d="m505.15 813.96l.15-.45"/><path d="m505.3 813.51v-.6"/><path d="m505.3 812.91l.15-.45"/><path d="m505.45 812.46l.15-.45"/><path d="m505.6 812.01l.15-.6"/><path d="m505.75 811.41v-.15"/><path d="m506.5 807.66v-.3"/><path d="m506.5 807.36l.15-.45"/><path d="m506.65 806.91v-.45"/><path d="m506.65 806.46l.15-.6"/><path d="m506.8 805.86v-.45"/><path d="m506.8 805.41l.15-.6"/><path d="m506.95 804.81v-.45"/><path d="m506.95 804.36v-.45"/><path d="m507.4 800.16v-.45"/><path d="m507.4 799.71v-.45"/><path d="m507.4 799.26l.15-.6"/><path d="m507.55 798.66v-.45"/><path d="m507.55 798.21v-.6"/><path d="m507.55 797.61v-.45"/><path d="m507.55 797.16v-.6"/><path d="m507.55 796.56v-.15"/></g><path d="m591.85 793.56l-62.1 61.95" stroke="#000"/><g stroke="#888"><path d="m507.7 793.56v.45"/><path d="m507.7 794.01v.6"/><path d="m507.7 794.61v.45"/><path d="m507.7 795.06v.6"/><path d="m507.7 795.66v.45"/><path d="m507.7 796.11v.45"/><path d="m507.7 796.56v.6"/><path d="m507.7 797.16v.15"/><path d="m508 801.06v.15"/><path d="m508 801.21v.6"/><path d="m508 801.81l.15.45"/><path d="m508.15 802.26v.6"/><path d="m508.15 802.86v.45"/><path d="m508.15 803.31l.15.6"/><path d="m508.3 803.91v.45"/><path d="m508.3 804.36l.15.45"/><path d="m509.05 808.41v.6"/><path d="m509.05 809.01l.15.45"/><path d="m509.2 809.46v.45"/><path d="m509.2 809.91l.15.6"/><path d="m509.35 810.51l.15.45"/><path d="m509.5 810.96l.15.45"/><path d="m509.65 811.41v.6"/><path d="m510.55 815.61l.15.3"/><path d="m510.7 815.91l.15.6"/><path d="m510.85 816.51l.15.45"/><path d="m511 816.96l.15.45"/><path d="m511.15 817.41l.15.6"/><path d="m511.3 818.01l.15.45"/><path d="m511.45 818.46l.15.45"/><path d="m511.6 818.91v.3"/><path d="m512.95 822.66v.15"/><path d="m512.95 822.81l.15.6"/><path d="m513.1 823.41l.15.45"/><path d="m513.25 823.86l.3.45"/><path d="m513.55 824.31l.15.45"/><path d="m513.7 824.76l.15.45"/><path d="m513.85 825.21l.15.6"/><path d="m514 825.81l.15.3"/><path d="m515.8 829.41v.15"/><path d="m515.8 829.56l.15.45"/><path d="m515.95 830.01l.3.45"/><path d="m516.25 830.46l.15.45"/><path d="m516.4 830.91l.3.45"/><path d="m516.7 831.36l.15.45"/><path d="m516.85 831.81l.3.45"/><path d="m517.15 832.26l.15.45"/><path d="m517.3 832.71l.15.15"/><path d="m519.25 836.16l.15.15"/><path d="m519.4 836.31l.15.45"/><path d="m519.55 836.76l.3.45"/><path d="m519.85 837.21l.3.45"/><path d="m520.15 837.66l.3.45"/><path d="m520.45 838.11l.3.45"/><path d="m520.75 838.56l.3.45"/><path d="m521.05 839.01l.15.3"/><path d="m523.3 842.46l.3.3"/><path d="m523.6 842.76l.3.45"/><path d="m523.9 843.21l.3.45"/><path d="m524.2 843.66l.3.45"/><path d="m524.5 844.11l.3.45"/><path d="m524.8 844.56l.3.3"/><path d="m525.1 844.86l.3.45"/><path d="m525.4 845.31l.15.15"/><path d="m527.95 848.31l.15.15"/><path d="m528.1 848.46l.3.45"/><path d="m528.4 848.91l.3.3"/><path d="m528.7 849.21l.45.45"/><path d="m529.15 849.66l.3.45"/><path d="m529.45 850.11l.3.3"/><path d="m529.75 850.41l.45.45"/><path d="m530.2 850.86l.3.3"/></g></g></svg>