<svg xmlns="http://www.w3.org/2000/svg" width="193.6" height="168.85" viewBox="0 0 193.59768 168.84768"><g transform="translate(-663.87-470.48)" fill="none" stroke="#000" stroke-linejoin="round" stroke-linecap="round" stroke-width=".54" stroke-miterlimit="10"><path d="m750.4 547.86c0 1.409-1.141 2.55-2.55 2.55-1.407 0-2.55-1.141-2.55-2.55 0-1.409 1.143-2.55 2.55-2.55 1.409 0 2.55 1.141 2.55 2.55"/><path d="m672.1 639.06v-147.9"/><path d="m672.1 491.16h85.95"/><path d="m688.9 601.86v-93.9"/><path d="m739.45 601.86v-93.9"/><path d="m688.9 507.96h50.55"/><path d="m664.15 485.01h184.2"/><path d="m664.15 485.01v154.05"/><path d="m840.4 639.06v-147.9"/><path d="m756.25 618.66v-127.5"/><path d="m754.45 491.16h85.95"/><path d="m773.05 601.86v-93.9"/><path d="m823.6 601.86v-93.9"/><path d="m773.05 507.96h50.55"/><path d="m848.35 485.01v154.05"/><path d="m664.15 639.06h184.2"/><path d="m672.1 618.66h168.3"/><path d="m773.05 601.86h50.55"/><path d="m688.9 601.86h50.55"/><path d="m767.2 547.86c0 1.409-1.141 2.55-2.55 2.55-1.407 0-2.55-1.141-2.55-2.55 0-1.409 1.143-2.55 2.55-2.55 1.409 0 2.55 1.141 2.55 2.55"/><path d="m738.1 601.86v-93.9"/><path d="m822.25 601.86v-93.9"/><path d="m690.1 601.86v-93.9"/><path d="m774.25 601.86v-93.9"/><path d="m664.15 479.61h184.2"/><path d="m664.15 470.76h184.2"/><path d="m848.35 639.06v-154.05"/><path d="m857.2 485.01h-8.85"/><path d="m857.2 479.61v5.4"/><path d="m848.35 479.61h8.85"/><path d="m857.2 479.61h-8.85"/><path d="m857.2 470.76v8.85"/><path d="m848.35 470.76h8.85"/></g></svg>