<svg xmlns="http://www.w3.org/2000/svg" width="106.75" height="168.84" viewBox="0 0 106.74769 168.84387"><g transform="translate(-159.84-312.93)" fill="none" stroke="#000" stroke-linejoin="round" stroke-linecap="round" stroke-width=".54" stroke-miterlimit="10"><path d="m179.02 409.95c0 1.409-1.142 2.55-2.55 2.55-1.409 0-2.55-1.142-2.55-2.55 0-1.409 1.142-2.55 2.55-2.55 1.409 0 2.55 1.142 2.55 2.55"/><path d="m160.12 356.7v-29.25"/><path d="m266.32 356.7v-29.25"/><path d="m168.07 481.5v-112.5"/><path d="m258.37 481.5v-112.5"/><path d="m241.57 444.3v-58.5"/><path d="m184.87 444.3v-58.5"/><path d="m241.57 385.8h-56.7"/><path d="m266.32 363.15v118.35"/><path d="m160.12 363.15v118.35"/><path d="m160.12 362.85h106.2"/><path d="m266.32 356.7c0 1.099-.25 2.1-.75 3-.6 1-1.35 1.75-2.25 2.25-1 .6-2.05.9-3.15.9"/><path d="m166.27 362.85c-1.1 0-2.149-.3-3.15-.9-.9-.5-1.65-1.25-2.25-2.25-.5-.9-.75-1.901-.75-3"/><path d="m160.12 481.5h106.2"/><path d="m258.37 461.1h-90.3"/><path d="m241.57 444.3h-56.7"/><path d="m168.07 369h90.3"/><path d="m160.12 327.45h106.2"/><path d="m240.37 444.3v-58.5"/><path d="m186.07 444.3v-58.5"/><path d="m160.12 322.05h106.2"/><path d="m160.12 313.2h106.2"/><path d="m164.47 327.45v-5.4"/><path d="m261.97 327.45v-5.4"/></g></svg>