<svg xmlns="http://www.w3.org/2000/svg" width="131.65" height="168.85" viewBox="0 0 131.64769 168.84769"><g transform="translate(-70.24-323.27)" fill="none" stroke="#000" stroke-linejoin="round" stroke-linecap="round" stroke-width=".54" stroke-miterlimit="10"><path d="m79.36 491.84h122.25"/><path d="m187.81 400.64c0 1.409-1.142 2.55-2.55 2.55-1.407 0-2.55-1.142-2.55-2.55 0-1.409 1.143-2.55 2.55-2.55 1.409 0 2.55 1.142 2.55 2.55"/><path d="m193.66 491.84v-147.9"/><path d="m87.46 491.84v-147.9"/><path d="m87.46 343.94h106.2"/><path d="m104.26 454.64v-93.9"/><path d="m176.86 454.64v-93.9"/><path d="m104.26 360.74h72.6"/><path d="m79.36 337.79h122.25"/><path d="m79.36 337.79v154.05"/><path d="m201.61 337.79v154.05"/><path d="m104.26 454.64h72.6"/><path d="m87.46 471.44h106.2"/><path d="m105.46 454.64v-93.9"/><path d="m175.66 454.64v-93.9"/><path d="m79.36 332.39h122.25"/><path d="m79.36 323.54h122.25"/><path d="m79.36 491.84v-154.05"/><path d="m70.51 337.79h8.85"/><path d="m70.51 332.39v5.4"/><path d="m79.36 332.39h-8.85"/><path d="m70.51 332.39h8.85"/><path d="m70.51 323.54v8.85"/><path d="m79.36 323.54h-8.85"/></g></svg>