<svg xmlns="http://www.w3.org/2000/svg" width="131.65" height="168.85" viewBox="0 0 131.64769 168.84769"><g transform="translate(-514.99-323.27)" fill="none" stroke="#000" stroke-linejoin="round" stroke-linecap="round" stroke-width=".54" stroke-miterlimit="10"><path d="m515.26 491.84h122.25"/><path d="m623.71 400.64c0 1.409-1.141 2.55-2.55 2.55-1.407 0-2.55-1.142-2.55-2.55 0-1.409 1.143-2.55 2.55-2.55 1.409 0 2.55 1.142 2.55 2.55"/><path d="m629.56 491.84v-147.9"/><path d="m523.21 491.84v-147.9"/><path d="m523.21 343.94h106.35"/><path d="m540.01 454.64v-93.9"/><path d="m612.76 454.64v-93.9"/><path d="m540.01 360.74h72.75"/><path d="m515.26 337.79h122.25"/><path d="m515.26 337.79v154.05"/><path d="m637.51 337.79v154.05"/><path d="m540.01 454.64h72.75"/><path d="m523.21 471.44h106.35"/><path d="m541.36 454.64v-93.9"/><path d="m611.41 454.64v-93.9"/><path d="m515.26 332.39h122.25"/><path d="m515.26 323.54h122.25"/><path d="m637.51 491.84v-154.05"/><path d="m646.36 337.79h-8.85"/><path d="m646.36 332.39v5.4"/><path d="m637.51 332.39h8.85"/><path d="m646.36 332.39h-8.85"/><path d="m646.36 323.54v8.85"/><path d="m637.51 323.54h8.85"/></g></svg>