<svg xmlns="http://www.w3.org/2000/svg" width="122.8" height="191.64" viewBox="0 0 122.79769 191.64275"><g transform="translate(-297.34-532.67)" fill="none" stroke-linejoin="round" stroke-linecap="round" stroke-width=".54" stroke-miterlimit="10"><g stroke="#000"><path d="m297.61 532.94v113.4h122.25v-113.4h-122.25z"/><path d="m305.56 646.34l77.7 77.7"/></g><g stroke="#888"><path d="m380.71 721.49l.45-.45"/><path d="m381.16 721.04l.45-.45"/><path d="m381.61 720.59l.45-.45"/><path d="m382.06 720.14l.45-.6"/><path d="m382.51 719.54l.45-.45"/><path d="m382.96 719.09l.3-.3"/><path d="m385.81 715.94l.15-.15"/><path d="m385.96 715.79l.45-.6"/><path d="m386.41 715.19l.45-.45"/><path d="m386.86 714.74l.45-.45"/><path d="m387.31 714.29l.45-.6"/><path d="m387.76 713.69l.3-.45"/><path d="m388.06 713.24l.15-.15"/><path d="m390.46 710.09l.45-.45"/><path d="m390.91 709.64l.45-.6"/><path d="m391.36 709.04l.3-.45"/><path d="m391.66 708.59l.45-.6"/><path d="m392.11 707.99l.3-.45"/><path d="m392.41 707.54l.3-.45"/><path d="m394.81 703.94l.15-.15"/><path d="m394.96 703.79l.3-.6"/><path d="m395.26 703.19l.45-.6"/><path d="m395.71 702.59l.3-.45"/><path d="m396.01 702.14l.3-.6"/><path d="m396.31 701.54l.45-.6"/><path d="m396.76 700.94v-.15"/><path d="m398.71 697.64l.3-.6"/><path d="m399.01 697.04l.3-.6"/><path d="m399.31 696.44l.3-.6"/><path d="m399.61 695.84l.3-.6"/><path d="m399.91 695.24l.3-.6"/><path d="m400.21 694.64l.15-.3"/><path d="m402.01 691.04l.15-.45"/><path d="m402.16 690.59l.3-.6"/><path d="m402.46 689.99l.3-.6"/><path d="m402.76 689.39l.15-.6"/><path d="m402.91 688.79l.3-.6"/><path d="m403.21 688.19l.3-.6"/><path d="m404.86 684.14v-.15"/><path d="m404.86 683.99l.3-.6"/><path d="m405.16 683.39l.3-.6"/><path d="m405.46 682.79l.15-.6"/><path d="m405.61 682.19l.15-.75"/><path d="m405.76 681.44l.3-.6"/><path d="m406.06 680.84v-.15"/><path d="m407.26 677.09l.15-.6"/><path d="m407.41 676.49l.15-.6"/><path d="m407.56 675.89l.3-.6"/><path d="m407.86 675.29l.15-.6"/><path d="m408.01 674.69l.15-.6"/><path d="m408.16 674.09l.15-.6"/><path d="m409.21 669.89v-.3"/><path d="m409.21 669.59l.15-.6"/><path d="m409.36 668.99l.15-.6"/><path d="m409.51 668.39l.15-.75"/><path d="m409.66 667.64l.15-.6"/><path d="m409.81 667.04l.15-.6"/><path d="m409.96 666.44v-.15"/><path d="m410.56 662.54l.15-.6"/><path d="m410.71 661.94v-.6"/><path d="m410.71 661.34l.15-.75"/><path d="m410.86 660.59l.15-.6"/><path d="m411.01 659.99v-.6"/><path d="m411.01 659.39l.15-.6"/><path d="m411.46 655.04v-.3"/><path d="m411.46 654.74v-.6"/><path d="m411.46 654.14l.15-.6"/><path d="m411.61 653.54v-.75"/><path d="m411.61 652.79v-.6"/><path d="m411.61 652.19l.15-.6"/><path d="m411.76 651.59v-.3"/><path d="m411.76 647.54v-.6"/><path d="m411.76 646.94v-.6"/></g><path d="m297.61 532.94h122.25" stroke="#000"/></g></svg>