<svg xmlns="http://www.w3.org/2000/svg" width="122.8" height="168.84" viewBox="0 0 122.79769 168.84388"><g transform="translate(-297.34-323.27)" fill="none" stroke="#000" stroke-linejoin="round" stroke-linecap="round" stroke-width=".54" stroke-miterlimit="10"><path d="m297.61 491.84h122.25"/><path d="m405.91 400.64c0 1.409-1.142 2.55-2.55 2.55-1.407 0-2.55-1.142-2.55-2.55 0-1.409 1.143-2.55 2.55-2.55 1.409 0 2.55 1.142 2.55 2.55"/><path d="m411.76 491.84v-147.9"/><path d="m305.56 491.84v-147.9"/><path d="m305.56 343.94h106.2"/><path d="m322.36 454.64v-93.9"/><path d="m394.96 454.64v-93.9"/><path d="m322.36 360.74h72.6"/><path d="m297.61 337.79h122.25"/><path d="m297.61 337.79v154.05"/><path d="m419.86 337.79v154.05"/><path d="m322.36 454.64h72.6"/><path d="m305.56 471.44h106.2"/><path d="m323.56 454.64v-93.9"/><path d="m393.76 454.64v-93.9"/><path d="m297.61 332.39h122.25"/><path d="m297.61 323.54h122.25"/></g></svg>