<svg xmlns="http://www.w3.org/2000/svg" width="78.55" height="160.29" viewBox="0 0 78.547691 160.29276"><g transform="translate(-303.08-473.69)"><g fill="none" stroke-linejoin="round" stroke-linecap="round" stroke-width=".54" stroke-miterlimit="10"><g stroke="#000"><path d="m311.3 587.36l46.35 46.35"/><path d="m303.35 473.96v113.4h78v-113.4h-78z"/></g><g stroke="#888"><path d="m355.1 631.16l.6-.6"/><path d="m355.7 630.56l.6-.45"/><path d="m356.3 630.11l.45-.6"/><path d="m356.75 629.51l.45-.6"/><path d="m357.2 628.91l.45-.45"/><path d="m360.05 625.61l.15-.15"/><path d="m360.2 625.46l.45-.6"/><path d="m360.65 624.86l.45-.6"/><path d="m361.1 624.26l.45-.6"/><path d="m361.55 623.66l.45-.6"/><path d="m362 623.06l.3-.45"/><path d="m364.4 619.46l.15-.3"/><path d="m364.55 619.16l.3-.6"/><path d="m364.85 618.56l.45-.75"/><path d="m365.3 617.81l.3-.6"/><path d="m365.6 617.21l.45-.6"/><path d="m366.05 616.61l.15-.45"/><path d="m367.85 612.86l.15-.45"/><path d="m368 612.41l.3-.6"/><path d="m368.3 611.81l.3-.75"/><path d="m368.6 611.06l.3-.75"/><path d="m368.9 610.31l.3-.75"/><path d="m369.2 609.56l.15-.15"/><path d="m370.4 605.81l.3-.45"/><path d="m370.7 605.36l.15-.75"/><path d="m370.85 604.61l.3-.75"/><path d="m371.15 603.86l.15-.75"/><path d="m371.3 603.11l.15-.75"/><path d="m371.45 602.36v-.15"/><path d="m372.35 598.61v-.75"/><path d="m372.35 597.86l.15-.75"/><path d="m372.5 597.11l.15-.75"/><path d="m372.65 596.36l.15-.75"/><path d="m372.8 595.61v-.75"/><path d="m373.25 591.11v-.75"/><path d="m373.25 590.36v-.75"/><path d="m373.25 589.61v-.75"/><path d="m373.25 588.86l.15-.75"/><path d="m373.4 588.11v-.75"/></g></g><text transform="matrix(1.25 0 0 1.25 433.55 499.46)" font-family="TT26Dt00" font-size="12"><tspan y="0" x="0">Floor (Small 350mm Door):</tspan><tspan y="16.56" x="0">Single with Hinges on Left (440mm)</tspan><tspan y="33.12" x="0">F/350S/L</tspan></text><path d="m303.35 473.96h78" fill="none" stroke="#000" stroke-linejoin="round" stroke-linecap="round" stroke-width=".54" stroke-miterlimit="10"/></g></svg>