<svg xmlns="http://www.w3.org/2000/svg" height="112.14" viewBox="0 0 122.79 112.14194"><g transform="translate(-126.64-579.22)" fill="none" stroke="#888" stroke-linejoin="round" stroke-linecap="round" stroke-width=".54" stroke-miterlimit="10"><path d="m126.91 579.49v56.7h122.25v-56.7h-122.25z"/><path d="m241.21 636.19l-95.1 54.9"/><path d="m135.01 636.19v.45"/><path d="m135.01 636.64v.45"/><path d="m135.01 637.09v.45"/><path d="m135.01 637.54v.3"/><path d="m135.01 637.84v.45"/><path d="m135.01 638.29v.45"/><path d="m135.01 638.74v.45"/><path d="m135.01 639.19v.45"/><path d="m135.01 639.64v.3"/><path d="m135.16 643.69v.3"/><path d="m135.16 643.99l.15.45"/><path d="m135.31 644.44v.45"/><path d="m135.31 644.89v.45"/><path d="m135.31 645.34v.45"/><path d="m135.31 645.79l.15.3"/><path d="m135.46 646.09v.45"/><path d="m135.46 646.54v.45"/><path d="m135.46 646.99l.15.3"/><path d="m135.91 651.04l.15.3"/><path d="m136.06 651.34v.45"/><path d="m136.06 651.79l.15.45"/><path d="m136.21 652.24v.45"/><path d="m136.21 652.69l.15.3"/><path d="m136.36 652.99v.45"/><path d="m136.36 653.44l.15.45"/><path d="m136.51 653.89v.45"/><path d="m136.51 654.34v.3"/><path d="m137.26 658.24l.15.3"/><path d="m137.41 658.54v.45"/><path d="m137.41 658.99l.15.45"/><path d="m137.56 659.44v.45"/><path d="m137.56 659.89l.15.45"/><path d="m137.71 660.34l.15.45"/><path d="m137.86 660.79v.3"/><path d="m137.86 661.09l.15.45"/><path d="m138.01 661.54l.15.3"/><path d="m139.06 665.44l.15.3"/><path d="m139.21 665.74v.45"/><path d="m139.21 666.19l.15.45"/><path d="m139.36 666.64l.15.45"/><path d="m139.51 667.09l.15.3"/><path d="m139.66 667.39l.15.45"/><path d="m139.81 667.84l.15.45"/><path d="m139.96 668.29l.15.45"/><path d="m140.11 668.74v.3"/><path d="m141.31 672.49l.15.3"/><path d="m141.46 672.79l.15.45"/><path d="m141.61 673.24l.15.3"/><path d="m141.76 673.54l.15.45"/><path d="m141.91 673.99l.15.45"/><path d="m142.06 674.44l.15.45"/><path d="m142.21 674.89l.15.3"/><path d="m142.36 675.19l.15.45"/><path d="m142.51 675.64l.15.3"/><path d="m144.16 679.39l.15.3"/><path d="m144.31 679.69l.15.3"/><path d="m144.46 679.99l.15.45"/><path d="m144.61 680.44l.15.45"/><path d="m144.76 680.89l.15.3"/><path d="m144.91 681.19l.3.45"/><path d="m145.21 681.64l.15.3"/><path d="m145.36 681.94l.15.45"/><path d="m145.51 682.39l.15.45"/><path d="m147.46 686.14v.15"/><path d="m147.46 686.29l.3.3"/><path d="m147.76 686.59l.15.45"/><path d="m147.91 687.04l.15.45"/><path d="m148.06 687.49l.3.3"/><path d="m148.36 687.79l.15.45"/><path d="m148.51 688.24l.3.3"/><path d="m148.81 688.54l.15.45"/><path d="m148.96 688.99l.15.3"/></g></svg>