<svg xmlns="http://www.w3.org/2000/svg" width="122.8" height="221.95" viewBox="0 0 122.79769 221.94829"><g transform="translate(-126.63-276.22)" fill="none" stroke="#000" stroke-linejoin="round" stroke-linecap="round" stroke-width=".54" stroke-miterlimit="10"><path d="m249.16 497.89h-122.25"/><path d="m145.96 406.69c0 1.409-1.142 2.55-2.55 2.55-1.407 0-2.55-1.142-2.55-2.55 0-1.409 1.143-2.55 2.55-2.55 1.409 0 2.55 1.142 2.55 2.55"/><path d="m135.01 486.34v-201.9"/><path d="m241.21 486.34v-201.9"/><path d="m241.21 284.44h-106.2"/><path d="m249.16 276.49h-122.25"/><path d="m249.16 276.49v221.4"/><path d="m126.91 276.49v221.4"/><path d="m241.21 486.34h-106.2"/><path d="m227.11 472.24v-173.55"/><path d="m149.11 472.24v-173.55"/><path d="m227.11 298.69h-78"/><path d="m227.11 472.24h-78"/><path d="m225.76 472.24v-173.55"/><path d="m150.31 472.24v-173.55"/></g></svg>