<svg xmlns="http://www.w3.org/2000/svg" width="78.55" height="133.45" viewBox="0 0 78.547691 133.44769"><g transform="translate(-168.26-337.28)" fill="none" stroke-linejoin="round" stroke-linecap="round" stroke-width=".54" stroke-miterlimit="10"><g stroke="#888"><path d="m218.78 409.71l-20.85 21"/><path d="m216.98 376.71l-20.85 20.85"/><path d="m227.03 420.36h-6.3"/><path d="m216.98 420.36h-18.75"/><path d="m194.48 420.36h-6.45"/><path d="m227.03 422.91h-6.3"/><path d="m216.98 422.91h-18.75"/><path d="m194.48 422.91h-6.45"/><path d="m227.03 381.66h-6.3"/><path d="m216.98 381.66h-18.75"/><path d="m194.48 381.66h-6.45"/><path d="m227.03 384.21h-6.3"/><path d="m216.98 384.21h-18.75"/><path d="m194.48 384.21h-6.45"/></g><g stroke="#000"><path d="m227.03 359.76h-39"/><path d="m246.53 470.46h-78"/><path d="m246.53 337.56h-78"/><path d="m246.53 470.46v-132.9"/><path d="m176.48 458.91v-113.25"/><path d="m238.43 458.91v-113.25"/><path d="m238.43 345.66h-61.95"/><path d="m238.43 458.91h-61.95"/><path d="m168.53 470.46v-132.9"/><path d="m227.03 444.81h-39"/><path d="m227.03 444.81v-85.05"/><path d="m188.03 444.81v-85.05"/></g><path d="m221.18 367.11l-29.25 29.25" stroke="#888"/><path d="m184.73 408.58c0 1.449-1.142 2.625-2.55 2.625-1.407 0-2.55-1.176-2.55-2.625 0-1.45 1.143-2.625 2.55-2.625 1.409 0 2.55 1.175 2.55 2.625" stroke="#000"/></g></svg>