<svg xmlns="http://www.w3.org/2000/svg" height="89.94" viewBox="0 0 78.540001 89.941934"><g transform="translate(-168.26-551.79)" fill="none" stroke="#888" stroke-linejoin="round" stroke-linecap="round" stroke-width=".54" stroke-miterlimit="10"><path d="m238.43 608.76l-56.7 32.7"/><path d="m176.48 608.76v.45"/><path d="m176.48 609.21v.6"/><path d="m176.48 609.81v.45"/><path d="m176.48 610.26v.45"/><path d="m176.48 610.71v.6"/><path d="m176.48 611.31v.45"/><path d="m176.48 611.76l.15.45"/><path d="m176.63 612.21v.3"/><path d="m176.93 616.26l.15.6"/><path d="m177.08 616.86v.45"/><path d="m177.08 617.31v.45"/><path d="m177.08 617.76l.15.6"/><path d="m177.23 618.36l.15.45"/><path d="m177.38 618.81v.6"/><path d="m177.38 619.41l.15.45"/><path d="m178.28 623.46v.3"/><path d="m178.28 623.76l.15.6"/><path d="m178.43 624.36l.15.45"/><path d="m178.58 624.81l.15.45"/><path d="m178.73 625.26l.15.45"/><path d="m178.88 625.71l.15.6"/><path d="m179.03 626.31l.15.45"/><path d="m179.18 626.76l.15.3"/><path d="m180.38 630.66l.3.45"/><path d="m180.68 631.11l.15.45"/><path d="m180.83 631.56l.15.45"/><path d="m180.98 632.01l.15.45"/><path d="m181.13 632.46l.3.45"/><path d="m181.43 632.91l.15.45"/><path d="m181.58 633.36l.15.45"/><path d="m181.73 633.81l.15.3"/><path d="m183.53 637.41v.15"/><path d="m183.53 637.56l.3.45"/><path d="m183.83 638.01l.15.45"/><path d="m183.98 638.46l.3.45"/><path d="m184.28 638.91l.3.45"/><path d="m184.58 639.36l.15.45"/><path d="m168.53 552.06v56.7h78v-56.7h-78z"/></g></svg>