<svg xmlns="http://www.w3.org/2000/svg" width="106.75" height="160.89" viewBox="0 0 106.74769 160.89194"><g transform="translate(-159.84-522.33)" fill="none" stroke-linejoin="round" stroke-linecap="round" stroke-width=".54" stroke-miterlimit="10"><g stroke="#000"><path d="m266.32 636v-113.4h-106.2v113.4h106.2"/><path d="m258.37 636l-81.3 46.95"/></g><g stroke="#888"><path d="m168.07 636v.3"/><path d="m168.07 636.3v.45"/><path d="m168.07 636.75v.3"/><path d="m168.07 637.05v.45"/><path d="m168.07 637.5v.3"/><path d="m168.07 637.8v.45"/><path d="m168.07 638.25v.3"/><path d="m168.07 638.55v.45"/><path d="m168.07 639v.3"/><path d="m168.07 639.3v.3"/><path d="m168.07 639.6v.15"/><path d="m168.37 643.5v.3"/><path d="m168.37 643.8v.3"/><path d="m168.37 644.1l.15.3"/><path d="m168.52 644.4v.45"/><path d="m168.52 644.85v.3"/><path d="m168.52 645.15v.45"/><path d="m168.52 645.6l.15.3"/><path d="m168.67 645.9v.45"/><path d="m168.67 646.35v.3"/><path d="m168.67 646.65v.45"/><path d="m168.67 647.1v.15"/><path d="m169.27 650.85v.15"/><path d="m169.27 651l.15.45"/><path d="m169.42 651.45v.3"/><path d="m169.42 651.75l.15.45"/><path d="m169.57 652.2v.3"/><path d="m169.57 652.5l.15.45"/><path d="m169.72 652.95v.3"/><path d="m169.72 653.25v.3"/><path d="m169.72 653.55l.15.45"/><path d="m169.87 654v.3"/><path d="m169.87 654.3v.15"/><path d="m170.77 658.05l.15.3"/><path d="m170.92 658.35v.3"/><path d="m170.92 658.65l.15.3"/><path d="m171.07 658.95v.45"/><path d="m171.07 659.4l.15.3"/><path d="m171.22 659.7l.15.3"/><path d="m171.37 660v.45"/><path d="m171.37 660.45l.15.3"/><path d="m171.52 660.75l.15.45"/><path d="m171.67 661.2v.3"/><path d="m171.67 661.5v.15"/><path d="m172.87 665.1l.15.3"/><path d="m173.02 665.4v.3"/><path d="m173.02 665.7l.15.3"/><path d="m173.17 666l.15.45"/><path d="m173.32 666.45l.15.3"/><path d="m173.47 666.75l.15.3"/><path d="m173.62 667.05l.15.45"/><path d="m173.77 667.5v.3"/><path d="m173.77 667.8l.15.3"/><path d="m173.92 668.1l.15.45"/><path d="m175.57 672l.15.3"/><path d="m175.72 672.3l.15.3"/><path d="m175.87 672.6l.15.3"/><path d="m176.02 672.9l.15.3"/><path d="m176.17 673.2l.15.45"/><path d="m176.32 673.65l.15.3"/><path d="m176.47 673.95l.15.3"/><path d="m176.62 674.25l.15.3"/><path d="m176.77 674.55l.15.45"/><path d="m176.92 675l.15.3"/><path d="m177.07 675.3v.15"/><path d="m178.72 678.75l.15.15"/><path d="m178.87 678.9l.15.3"/><path d="m179.02 679.2l.3.3"/><path d="m179.32 679.5l.15.3"/><path d="m179.47 679.8l.15.45"/><path d="m179.62 680.25l.15.3"/><path d="m179.77 680.55l.15.3"/><path d="m179.92 680.85l.3.3"/></g><g stroke="#000"><path d="m261.97 638.7v-74.85"/><path d="m164.47 638.7v-74.85"/><path d="m262.12 639.45h-97.8"/><path d="m266.32 641.25h-1.65"/><path d="m161.92 641.25h-1.8"/><path d="m261.97 638.7c0 .672.27 1.32.75 1.8.48.48 1.182.75 1.95.75"/><path d="m161.92 641.25c.672 0 1.32-.27 1.8-.75.48-.48.75-1.128.75-1.8"/><path d="m261.97 636h-97.5"/><path d="m259.27 561.15h-92.1"/><path d="m261.97 563.85c0-.768-.27-1.47-.75-1.95-.576-.48-1.278-.75-1.95-.75"/><path d="m167.17 561.15c-.672 0-1.374.27-1.95.75-.48.48-.75 1.182-.75 1.95"/><path d="m213.22 588.15v-21.45"/><path d="m223.87 577.5h-20.85"/><path d="m221.17 577.5c0 4.39-3.559 7.95-7.95 7.95-4.391 0-7.95-3.559-7.95-7.95 0-4.39 3.559-7.95 7.95-7.95 4.391 0 7.95 3.559 7.95 7.95"/></g></g></svg>