<svg xmlns="http://www.w3.org/2000/svg" width="140.5" height="133.45" viewBox="0 0 140.4977 133.4477"><g transform="translate(-196.85-356.49)" fill="none" stroke-linejoin="round" stroke-linecap="round" stroke-width=".54" stroke-miterlimit="10"><g stroke="#888"><path d="m257.27 478.11v-36"/><path d="m257.27 439.56v-36.15"/><path d="m257.27 400.86v-36"/><path d="m276.77 478.11v-36"/><path d="m276.77 439.56v-36.15"/><path d="m276.77 400.86v-36"/><path d="m296.27 478.11v-36"/><path d="m296.27 439.56v-36.15"/><path d="m296.27 400.86v-36"/><path d="m315.77 478.11v-36"/><path d="m315.77 439.56v-36.15"/><path d="m315.77 400.86v-36"/><path d="m237.77 478.11v-36"/><path d="m237.77 439.56v-36.15"/><path d="m237.77 400.86v-36"/><path d="m218.42 478.11v-36"/><path d="m218.42 439.56v-36.15"/><path d="m218.42 400.86v-36"/></g><g stroke="#000"><path d="m197.12 489.66h139.95"/><path d="m197.12 356.76h139.95"/><path d="m197.12 489.66v-132.9"/><path d="m329.12 478.11v-113.25"/><path d="m205.07 478.11v-113.25"/><path d="m205.07 364.86h124.05"/><path d="m205.07 478.11h124.05"/><path d="m337.07 489.66v-132.9"/><path d="m329.12 400.86h-124.05"/><path d="m329.12 403.41h-124.05"/><path d="m329.12 439.56h-124.05"/><path d="m329.12 442.11h-124.05"/></g></g></svg>