<svg xmlns="http://www.w3.org/2000/svg" width="140.49" height="57.24" viewBox="0 0 140.49385 57.243844"><g transform="translate(-196.85-570.99)" fill="none" stroke="#888" stroke-linejoin="round" stroke-linecap="round" stroke-width=".54" stroke-miterlimit="10"><path d="m337.07 627.96v-56.7h-139.95v56.7h139.95"/><path d="m205.07 627.96v-.9"/><path d="m205.07 623.31v-3.75"/><path d="m205.07 615.81v-3.75"/><path d="m205.07 608.31v-3.75"/><path d="m205.07 600.81v-3.75"/><path d="m205.07 593.31v-3.75"/><path d="m205.07 585.81v-3.75"/><path d="m205.07 578.31v-.9"/><path d="m329.12 627.96v-.9"/><path d="m329.12 623.31v-3.75"/><path d="m329.12 615.81v-3.75"/><path d="m329.12 608.31v-3.75"/><path d="m329.12 600.81v-3.75"/><path d="m329.12 593.31v-3.75"/><path d="m329.12 585.81v-3.75"/><path d="m329.12 578.31v-.9"/><path d="m205.07 577.41h3.75"/><path d="m212.57 577.41h3.75"/><path d="m220.07 577.41h3.75"/><path d="m227.57 577.41h3.75"/><path d="m235.07 577.41h3.75"/><path d="m242.57 577.41h3.75"/><path d="m250.07 577.41h3.75"/><path d="m257.57 577.41h3.75"/><path d="m265.07 577.41h3.75"/><path d="m272.57 577.41h3.75"/><path d="m280.07 577.41h3.75"/><path d="m287.57 577.41h3.75"/><path d="m295.07 577.41h3.75"/><path d="m302.57 577.41h3.75"/><path d="m310.07 577.41h3.75"/><path d="m317.57 577.41h3.75"/><path d="m325.07 577.41h3.75"/><path d="m328.82 577.41h.3"/></g></svg>