<svg xmlns="http://www.w3.org/2000/svg" height="200.64" viewBox="0 0 128.03999 200.64273"><g transform="translate(-128.29-584.99)" fill="none" stroke-linejoin="round" stroke-linecap="round" stroke-width=".54" stroke-miterlimit="10"><g stroke="#888"><path d="m215.41 782.81l.45-.45"/><path d="m215.86 782.36l.45-.45"/><path d="m216.31 781.91l.6-.6"/><path d="m216.91 781.31l.45-.45"/><path d="m217.36 780.86l.45-.45"/><path d="m217.81 780.41l.3-.3"/><path d="m220.66 777.26l.3-.45"/><path d="m220.96 776.81l.45-.45"/><path d="m221.41 776.36l.45-.6"/><path d="m221.86 775.76l.45-.45"/><path d="m222.31 775.31l.45-.6"/><path d="m222.76 774.71l.3-.3"/><path d="m225.31 771.41l.45-.45"/><path d="m225.76 770.96l.45-.6"/><path d="m226.21 770.36l.3-.45"/><path d="m226.51 769.91l.45-.6"/><path d="m226.96 769.31l.45-.6"/><path d="m227.41 768.71l.15-.3"/><path d="m229.66 765.41l.45-.6"/><path d="m230.11 764.81l.3-.6"/><path d="m230.41 764.21l.3-.6"/><path d="m230.71 763.61l.45-.6"/><path d="m231.16 763.01l.3-.6"/><path d="m231.46 762.41l.15-.15"/><path d="m233.56 759.11v-.15"/><path d="m233.56 758.96l.45-.6"/><path d="m234.01 758.36l.3-.6"/><path d="m234.31 757.76l.3-.6"/><path d="m234.61 757.16l.3-.6"/><path d="m234.91 756.56l.3-.6"/><path d="m235.21 755.96v-.15"/><path d="m237.01 752.51l.15-.3"/><path d="m237.16 752.21l.15-.6"/><path d="m237.31 751.61l.3-.6"/><path d="m237.61 751.01l.3-.6"/><path d="m237.91 750.41l.3-.6"/><path d="m238.21 749.81l.3-.6"/><path d="m238.51 749.21v-.15"/><path d="m240.01 745.61l.15-.3"/><path d="m240.16 745.31l.15-.6"/><path d="m240.31 744.71l.3-.6"/><path d="m240.61 744.11l.3-.6"/><path d="m240.91 743.51l.15-.75"/><path d="m241.06 742.76l.3-.6"/><path d="m242.56 738.56l.15-.3"/><path d="m242.71 738.26l.15-.6"/><path d="m242.86 737.66l.3-.75"/><path d="m243.16 736.91l.15-.6"/><path d="m243.31 736.31l.15-.6"/><path d="m243.46 735.71l.15-.75"/><path d="m244.66 731.36l.15-.3"/><path d="m244.81 731.06l.15-.75"/><path d="m244.96 730.31l.15-.6"/><path d="m245.11 729.71l.15-.6"/><path d="m245.26 729.11l.15-.75"/><path d="m245.41 728.36l.15-.6"/><path d="m246.16 724.01l.15-.3"/><path d="m246.31 723.71l.15-.75"/><path d="m246.46 722.96l.15-.6"/><path d="m246.61 722.36v-.75"/><path d="m246.61 721.61l.15-.6"/><path d="m246.76 721.01l.15-.6"/><path d="m247.36 716.66v-.45"/><path d="m247.36 716.21l.15-.6"/><path d="m247.51 715.61v-.75"/><path d="m247.51 714.86l.15-.75"/><path d="m247.66 714.11v-.6"/><path d="m247.66 713.51l.15-.6"/><path d="m247.96 709.16v-.45"/><path d="m247.96 708.71v-.75"/><path d="m247.96 707.96l.15-.6"/><path d="m248.11 707.36v-.75"/><path d="m248.11 706.61v-.6"/><path d="m248.11 706.01v-.6"/></g><g stroke="#000"><path d="m128.56 585.26v118.65h127.5v-118.65h-127.5z"/><path d="m136.51 703.91l81.45 81.45"/></g></g></svg>