<svg xmlns="http://www.w3.org/2000/svg" width="128.05" height="381.4" viewBox="0 0 128.0477 381.39828"><g transform="translate(-128.28-176.24)" fill="none" stroke-linejoin="round" stroke-linecap="round" stroke-miterlimit="10"><g stroke="#000" stroke-width=".54"><path d="m256.06 557.36v-380.85"/><path d="m128.56 557.36v-380.85"/><path d="m136.51 536.96h111.6"/><path d="m231.31 520.16h-78"/><path d="m231.31 426.26h-78"/><path d="m153.31 386.36h78"/><path d="m231.31 201.26v185.1"/><path d="m231.31 426.26v93.9"/><path d="m153.31 520.16v-93.9"/><path d="m153.31 386.36v-185.1"/><path d="m128.56 176.51h127.5"/><path d="m136.51 184.46h111.6"/><path d="m153.31 201.26h78"/><path d="m136.51 406.01v-221.55"/><path d="m136.51 536.96v-133.8"/><path d="m248.11 405.71v-221.25"/><path d="m248.11 536.96v-133.8"/><path d="m230.26 201.26v185.1"/><path d="m230.26 426.26v93.9"/><path d="m154.36 520.16v-93.9"/><path d="m154.36 386.36v-185.1"/><path d="m128.56 557.36h127.5"/><path d="m242.26 341.21c0 1.409-1.142 2.55-2.55 2.55-1.407 0-2.55-1.142-2.55-2.55 0-1.409 1.143-2.55 2.55-2.55 1.409 0 2.55 1.142 2.55 2.55"/></g><g stroke="#aaa" stroke-width=".09"><path d="m136.51 536.96v20.4"/><path d="m248.11 536.96v20.4"/></g></g></svg>