<svg xmlns="http://www.w3.org/2000/svg" width="160" height="89.05" viewBox="0 0 159.99769 89.047692"><g transform="translate(-169.36-369.28)" fill="none" stroke="#000" stroke-linejoin="round" stroke-linecap="round" stroke-width=".54" stroke-miterlimit="10"><path d="m169.64 458.05h159.45"/><path d="m169.64 369.55h159.45"/><path d="m169.64 458.05v-88.5"/><path d="m321.14 446.5v-69"/><path d="m177.74 446.5v-69"/><path d="m177.74 377.5h143.4"/><path d="m177.74 446.5h143.4"/><path d="m191.84 432.4v-40.8"/><path d="m241.94 432.4h-50.1"/><path d="m307.04 391.6v40.8"/><path d="m191.84 391.6h50.1"/><path d="m329.09 458.05v-88.5"/><path d="m241.94 391.6v40.8"/><path d="m256.19 391.6v40.8"/><path d="m256.19 432.4h50.85"/><path d="m307.04 391.6h-50.85"/><path d="m193.04 432.4v-40.8"/><path d="m305.84 391.6v40.8"/><path d="m240.74 391.6v40.8"/><path d="m257.39 391.6v40.8"/></g></svg>