<svg xmlns="http://www.w3.org/2000/svg" width="158.2" height="168.84" viewBox="0 0 158.19769 168.84388"><g transform="translate(-128.81-347.52)" fill="none" stroke="#000" stroke-linejoin="round" stroke-linecap="round" stroke-width=".54" stroke-miterlimit="10"><path d="m129.09 516.09v-3.75"/><path d="m129.09 508.59v-3.75"/><path d="m129.09 501.09v-3.75"/><path d="m129.09 493.59v-3.75"/><path d="m129.09 486.09v-3.75"/><path d="m129.09 478.59v-3.75"/><path d="m129.09 471.09v-3.75"/><path d="m129.09 463.59v-3.75"/><path d="m129.09 456.09v-3.75"/><path d="m129.09 448.59v-3.75"/><path d="m129.09 441.09v-3.75"/><path d="m129.09 433.59v-3.75"/><path d="m129.09 426.09v-3.75"/><path d="m129.09 418.59v-3.75"/><path d="m129.09 411.09v-3.75"/><path d="m129.09 403.59v-3.75"/><path d="m129.09 396.09v-3.75"/><path d="m129.09 388.59v-3.75"/><path d="m129.09 381.09v-3.75"/><path d="m129.09 373.59v-3.75"/><path d="m129.09 366.09v-3.75"/><path d="m129.09 362.34v-.3"/><path d="m208.74 516.09h-3.75"/><path d="m201.24 516.09h-3.75"/><path d="m193.74 516.09h-3.75"/><path d="m186.24 516.09h-3.75"/><path d="m178.74 516.09h-3.75"/><path d="m171.24 516.09h-3.75"/><path d="m163.74 516.09h-3.75"/><path d="m156.24 516.09h-3.75"/><path d="m148.74 516.09h-3.75"/><path d="m141.24 516.09h-3.75"/><path d="m133.74 516.09h-3.75"/><path d="m129.39 516.09h-.3"/><path d="m208.74 362.04v154.05"/><path d="m129.09 362.04h3.75"/><path d="m136.59 362.04h3.75"/><path d="m144.09 362.04h3.75"/><path d="m151.59 362.04h3.75"/><path d="m159.09 362.04h3.75"/><path d="m166.59 362.04h3.75"/><path d="m174.09 362.04h3.75"/><path d="m181.59 362.04h3.75"/><path d="m189.09 362.04h3.75"/><path d="m196.59 362.04h3.75"/><path d="m204.09 362.04h3.75"/><path d="m208.44 362.04h.3"/><path d="m272.94 424.89c0 1.409-1.175 2.55-2.625 2.55-1.449 0-2.625-1.142-2.625-2.55 0-1.409 1.176-2.55 2.625-2.55 1.45 0 2.625 1.142 2.625 2.55"/><path d="m216.69 516.09v-147.9"/><path d="m278.79 516.09v-147.9"/><path d="m278.79 368.19h-62.1"/><path d="m261.84 478.89v-93.9"/><path d="m233.64 478.89v-93.9"/><path d="m261.84 384.99h-28.2"/><path d="m286.74 362.04v154.05"/><path d="m278.79 495.69h-62.1"/><path d="m261.84 478.89h-28.2"/><path d="m200.79 362.04v3.75"/><path d="m200.79 369.54v3.75"/><path d="m200.79 377.04v3.75"/><path d="m200.79 384.54v3.75"/><path d="m200.79 392.04v3.75"/><path d="m200.79 399.54v3.75"/><path d="m200.79 407.04v3.75"/><path d="m200.79 414.54v3.75"/><path d="m200.79 422.04v3.75"/><path d="m200.79 429.54v3.75"/><path d="m200.79 437.04v3.75"/><path d="m200.79 444.54v3.75"/><path d="m200.79 452.04v3.75"/><path d="m200.79 459.54v3.75"/><path d="m200.79 467.04v3.75"/><path d="m200.79 474.54v3.75"/><path d="m200.79 482.04v3.75"/><path d="m200.79 489.54v3.75"/><path d="m200.79 497.04v3.75"/><path d="m200.79 504.54v3.75"/><path d="m200.79 512.04v3.75"/><path d="m200.79 515.79v.3"/><path d="m260.64 478.89v-93.9"/><path d="m234.84 478.89v-93.9"/><path d="m208.74 516.09h78"/><path d="m208.74 362.04h78"/><path d="m208.74 356.64h78"/><path d="m208.74 347.79h78"/></g></svg>