<svg xmlns="http://www.w3.org/2000/svg" width="167.05" height="168.85" viewBox="0 0 167.04768 168.84769"><g transform="translate(-338.96-347.51)" fill="none" stroke="#000" stroke-linejoin="round" stroke-linecap="round" stroke-width=".54" stroke-miterlimit="10"><path d="m339.24 516.09v-3.75"/><path d="m339.24 508.59v-3.75"/><path d="m339.24 501.09v-3.75"/><path d="m339.24 493.59v-3.75"/><path d="m339.24 486.09v-3.75"/><path d="m339.24 478.59v-3.75"/><path d="m339.24 471.09v-3.75"/><path d="m339.24 463.59v-3.75"/><path d="m339.24 456.09v-3.75"/><path d="m339.24 448.59v-3.75"/><path d="m339.24 441.09v-3.75"/><path d="m339.24 433.59v-3.75"/><path d="m339.24 426.09v-3.75"/><path d="m339.24 418.59v-3.75"/><path d="m339.24 411.09v-3.75"/><path d="m339.24 403.59v-3.75"/><path d="m339.24 396.09v-3.75"/><path d="m339.24 388.59v-3.75"/><path d="m339.24 381.09v-3.75"/><path d="m339.24 373.59v-3.75"/><path d="m339.24 366.09v-3.75"/><path d="m339.24 362.34v-.3"/><path d="m418.89 516.09h-3.75"/><path d="m411.39 516.09h-3.75"/><path d="m403.89 516.09h-3.75"/><path d="m396.39 516.09h-3.75"/><path d="m388.89 516.09h-3.75"/><path d="m381.39 516.09h-3.75"/><path d="m373.89 516.09h-3.75"/><path d="m366.39 516.09h-3.75"/><path d="m358.89 516.09h-3.75"/><path d="m351.39 516.09h-3.75"/><path d="m343.89 516.09h-3.75"/><path d="m339.54 516.09h-.3"/><path d="m418.89 362.04v154.05"/><path d="m339.24 362.04h3.75"/><path d="m346.74 362.04h3.75"/><path d="m354.24 362.04h3.75"/><path d="m361.74 362.04h3.75"/><path d="m369.24 362.04h3.75"/><path d="m376.74 362.04h3.75"/><path d="m384.24 362.04h3.75"/><path d="m391.74 362.04h3.75"/><path d="m399.24 362.04h3.75"/><path d="m406.74 362.04h3.75"/><path d="m414.24 362.04h3.75"/><path d="m418.59 362.04h.3"/><path d="m483.09 424.89c0 1.409-1.142 2.55-2.55 2.55-1.407 0-2.55-1.142-2.55-2.55 0-1.409 1.143-2.55 2.55-2.55 1.409 0 2.55 1.142 2.55 2.55"/><path d="m426.84 516.09v-147.9"/><path d="m488.94 516.09v-147.9"/><path d="m488.94 368.19h-62.1"/><path d="m472.14 478.89v-93.9"/><path d="m443.79 478.89v-93.9"/><path d="m472.14 384.99h-28.35"/><path d="m496.89 362.04v154.05"/><path d="m488.94 495.69h-62.1"/><path d="m472.14 478.89h-28.35"/><path d="m410.94 362.04v3.75"/><path d="m410.94 369.54v3.75"/><path d="m410.94 377.04v3.75"/><path d="m410.94 384.54v3.75"/><path d="m410.94 392.04v3.75"/><path d="m410.94 399.54v3.75"/><path d="m410.94 407.04v3.75"/><path d="m410.94 414.54v3.75"/><path d="m410.94 422.04v3.75"/><path d="m410.94 429.54v3.75"/><path d="m410.94 437.04v3.75"/><path d="m410.94 444.54v3.75"/><path d="m410.94 452.04v3.75"/><path d="m410.94 459.54v3.75"/><path d="m410.94 467.04v3.75"/><path d="m410.94 474.54v3.75"/><path d="m410.94 482.04v3.75"/><path d="m410.94 489.54v3.75"/><path d="m410.94 497.04v3.75"/><path d="m410.94 504.54v3.75"/><path d="m410.94 512.04v3.75"/><path d="m410.94 515.79v.3"/><path d="m470.79 478.89v-93.9"/><path d="m444.99 478.89v-93.9"/><path d="m418.89 516.09h78"/><path d="m418.89 362.04h78"/><path d="m418.89 356.64h78"/><path d="m418.89 347.79h78"/><path d="m496.89 516.09v-154.05"/><path d="m505.74 362.04h-8.85"/><path d="m505.74 356.64v5.4"/><path d="m496.89 356.64h8.85"/><path d="m505.74 356.64h-8.85"/><path d="m505.74 347.79v8.85"/><path d="m496.89 347.79h8.85"/></g></svg>