<svg xmlns="http://www.w3.org/2000/svg" height="160.29" viewBox="0 0 158.19 160.29273"><g transform="translate(-128.82-556.92)" fill="none" stroke-linejoin="round" stroke-linecap="round" stroke-width=".54" stroke-miterlimit="10"><g stroke="#000"><path d="m129.09 557.19v113.4h157.65v-113.4h-157.65z"/><path d="m216.69 670.59l46.35 46.35"/></g><g stroke="#888"><path d="m260.64 714.39l.45-.45"/><path d="m261.09 713.94l.6-.6"/><path d="m261.69 713.34l.45-.6"/><path d="m262.14 712.74l.6-.6"/><path d="m262.74 712.14l.45-.45"/><path d="m265.59 708.84v-.15"/><path d="m265.59 708.69l.45-.6"/><path d="m266.04 708.09l.45-.6"/><path d="m266.49 707.49l.45-.6"/><path d="m266.94 706.89l.45-.6"/><path d="m267.39 706.29l.3-.45"/><path d="m269.79 702.69l.15-.3"/><path d="m269.94 702.39l.3-.6"/><path d="m270.24 701.79l.45-.6"/><path d="m270.69 701.19l.3-.75"/><path d="m270.99 700.44l.45-.6"/><path d="m271.44 699.84l.15-.45"/><path d="m273.24 696.09l.15-.45"/><path d="m273.39 695.64l.3-.6"/><path d="m273.69 695.04l.3-.75"/><path d="m273.99 694.29l.3-.75"/><path d="m274.29 693.54l.3-.6"/><path d="m274.59 692.94l.15-.3"/><path d="m275.94 689.04l.15-.45"/><path d="m276.09 688.59l.15-.75"/><path d="m276.24 687.84l.3-.75"/><path d="m276.54 687.09l.15-.75"/><path d="m276.69 686.34l.15-.75"/><path d="m276.84 685.59v-.15"/><path d="m277.74 681.84l.15-.6"/><path d="m277.89 681.24v-.75"/><path d="m277.89 680.49l.15-.9"/><path d="m278.04 679.59l.15-.75"/><path d="m278.19 678.84l.15-.75"/><path d="m278.64 674.34v-.75"/><path d="m278.64 673.59v-.75"/><path d="m278.64 672.84l.15-.75"/><path d="m278.79 672.09v-.75"/><path d="m278.79 671.34v-.75"/></g></g></svg>