<svg xmlns="http://www.w3.org/2000/svg" width="189.25" height="168.85" viewBox="0 0 189.24768 168.84769"><g transform="translate(-162.51-477.58)" fill="none" stroke="#000" stroke-linejoin="round" stroke-linecap="round" stroke-width=".54" stroke-miterlimit="10"><path d="m351.48 646.16v-3.75"/><path d="m351.48 638.66v-3.75"/><path d="m351.48 631.16v-3.75"/><path d="m351.48 623.66v-3.75"/><path d="m351.48 616.16v-3.75"/><path d="m351.48 608.66v-3.75"/><path d="m351.48 601.16v-3.75"/><path d="m351.48 593.66v-3.75"/><path d="m351.48 586.16v-3.75"/><path d="m351.48 578.66v-3.75"/><path d="m351.48 571.16v-3.75"/><path d="m351.48 563.66v-3.75"/><path d="m351.48 556.16v-3.75"/><path d="m351.48 548.66v-3.75"/><path d="m351.48 541.16v-3.75"/><path d="m351.48 533.66v-3.75"/><path d="m351.48 526.16v-3.75"/><path d="m351.48 518.66v-3.75"/><path d="m351.48 511.16v-3.75"/><path d="m351.48 503.66v-3.75"/><path d="m351.48 496.16v-3.75"/><path d="m351.48 492.41v-.3"/><path d="m271.68 646.16h3.75"/><path d="m279.18 646.16h3.75"/><path d="m286.68 646.16h3.75"/><path d="m294.18 646.16h3.75"/><path d="m301.68 646.16h3.75"/><path d="m309.18 646.16h3.75"/><path d="m316.68 646.16h3.75"/><path d="m324.18 646.16h3.75"/><path d="m331.68 646.16h3.75"/><path d="m339.18 646.16h3.75"/><path d="m346.68 646.16h3.75"/><path d="m351.18 646.16h.3"/><path d="m271.68 492.11v154.05"/><path d="m351.48 492.11h-3.75"/><path d="m343.98 492.11h-3.75"/><path d="m336.48 492.11h-3.75"/><path d="m328.98 492.11h-3.75"/><path d="m321.48 492.11h-3.75"/><path d="m313.98 492.11h-3.75"/><path d="m306.48 492.11h-3.75"/><path d="m298.98 492.11h-3.75"/><path d="m291.48 492.11h-3.75"/><path d="m283.98 492.11h-3.75"/><path d="m276.48 492.11h-3.75"/><path d="m271.98 492.11h-.3"/><path d="m190.53 554.96c0 1.409-1.142 2.55-2.55 2.55-1.407 0-2.55-1.141-2.55-2.55 0-1.409 1.143-2.55 2.55-2.55 1.409 0 2.55 1.141 2.55 2.55"/><path d="m263.73 646.16v-147.9"/><path d="m179.58 646.16v-147.9"/><path d="m179.58 498.26h84.15"/><path d="m196.38 608.96v-93.9"/><path d="m246.93 608.96v-93.9"/><path d="m196.38 515.06h50.55"/><path d="m171.63 492.11v154.05"/><path d="m179.58 625.76h84.15"/><path d="m196.38 608.96h50.55"/><path d="m279.63 492.11v3.75"/><path d="m279.63 499.61v3.75"/><path d="m279.63 507.11v3.75"/><path d="m279.63 514.61v3.75"/><path d="m279.63 522.11v3.75"/><path d="m279.63 529.61v3.75"/><path d="m279.63 537.11v3.75"/><path d="m279.63 544.61v3.75"/><path d="m279.63 552.11v3.75"/><path d="m279.63 559.61v3.75"/><path d="m279.63 567.11v3.75"/><path d="m279.63 574.61v3.75"/><path d="m279.63 582.11v3.75"/><path d="m279.63 589.61v3.75"/><path d="m279.63 597.11v3.75"/><path d="m279.63 604.61v3.75"/><path d="m279.63 612.11v3.75"/><path d="m279.63 619.61v3.75"/><path d="m279.63 627.11v3.75"/><path d="m279.63 634.61v3.75"/><path d="m279.63 642.11v3.75"/><path d="m279.63 645.86v.3"/><path d="m197.73 608.96v-93.9"/><path d="m245.73 608.96v-93.9"/><path d="m271.68 646.16h-100.05"/><path d="m271.68 492.11h-100.05"/><path d="m271.68 486.71h-100.05"/><path d="m271.68 477.86h-100.05"/><path d="m171.63 646.16v-154.05"/><path d="m162.78 492.11h8.85"/><path d="m162.78 486.71v5.4"/><path d="m171.63 486.71h-8.85"/><path d="m162.78 486.71h8.85"/><path d="m162.78 477.86v8.85"/><path d="m171.63 477.86h-8.85"/></g></svg>