<svg xmlns="http://www.w3.org/2000/svg" width="180.25" height="168.84" viewBox="0 0 180.24768 168.84388"><g transform="translate(-426.51-477.59)" fill="none" stroke="#000" stroke-linejoin="round" stroke-linecap="round" stroke-width=".54" stroke-miterlimit="10"><path d="m606.48 646.16v-3.75"/><path d="m606.48 638.66v-3.75"/><path d="m606.48 631.16v-3.75"/><path d="m606.48 623.66v-3.75"/><path d="m606.48 616.16v-3.75"/><path d="m606.48 608.66v-3.75"/><path d="m606.48 601.16v-3.75"/><path d="m606.48 593.66v-3.75"/><path d="m606.48 586.16v-3.75"/><path d="m606.48 578.66v-3.75"/><path d="m606.48 571.16v-3.75"/><path d="m606.48 563.66v-3.75"/><path d="m606.48 556.16v-3.75"/><path d="m606.48 548.66v-3.75"/><path d="m606.48 541.16v-3.75"/><path d="m606.48 533.66v-3.75"/><path d="m606.48 526.16v-3.75"/><path d="m606.48 518.66v-3.75"/><path d="m606.48 511.16v-3.75"/><path d="m606.48 503.66v-3.75"/><path d="m606.48 496.16v-3.75"/><path d="m606.48 492.41v-.3"/><path d="m526.83 646.16h3.75"/><path d="m534.33 646.16h3.75"/><path d="m541.83 646.16h3.75"/><path d="m549.33 646.16h3.75"/><path d="m556.83 646.16h3.75"/><path d="m564.33 646.16h3.75"/><path d="m571.83 646.16h3.75"/><path d="m579.33 646.16h3.75"/><path d="m586.83 646.16h3.75"/><path d="m594.33 646.16h3.75"/><path d="m601.83 646.16h3.75"/><path d="m606.18 646.16h.3"/><path d="m526.83 492.11v154.05"/><path d="m606.48 492.11h-3.75"/><path d="m598.98 492.11h-3.75"/><path d="m591.48 492.11h-3.75"/><path d="m583.98 492.11h-3.75"/><path d="m576.48 492.11h-3.75"/><path d="m568.98 492.11h-3.75"/><path d="m561.48 492.11h-3.75"/><path d="m553.98 492.11h-3.75"/><path d="m546.48 492.11h-3.75"/><path d="m538.98 492.11h-3.75"/><path d="m531.48 492.11h-3.75"/><path d="m527.13 492.11h-.3"/><path d="m445.68 554.96c0 1.409-1.142 2.55-2.55 2.55-1.407 0-2.55-1.141-2.55-2.55 0-1.409 1.143-2.55 2.55-2.55 1.409 0 2.55 1.141 2.55 2.55"/><path d="m518.88 646.16v-147.9"/><path d="m434.73 646.16v-147.9"/><path d="m434.73 498.26h84.15"/><path d="m451.53 608.96v-93.9"/><path d="m502.08 608.96v-93.9"/><path d="m451.53 515.06h50.55"/><path d="m426.78 492.11v154.05"/><path d="m434.73 625.76h84.15"/><path d="m451.53 608.96h50.55"/><path d="m534.78 492.11v3.75"/><path d="m534.78 499.61v3.75"/><path d="m534.78 507.11v3.75"/><path d="m534.78 514.61v3.75"/><path d="m534.78 522.11v3.75"/><path d="m534.78 529.61v3.75"/><path d="m534.78 537.11v3.75"/><path d="m534.78 544.61v3.75"/><path d="m534.78 552.11v3.75"/><path d="m534.78 559.61v3.75"/><path d="m534.78 567.11v3.75"/><path d="m534.78 574.61v3.75"/><path d="m534.78 582.11v3.75"/><path d="m534.78 589.61v3.75"/><path d="m534.78 597.11v3.75"/><path d="m534.78 604.61v3.75"/><path d="m534.78 612.11v3.75"/><path d="m534.78 619.61v3.75"/><path d="m534.78 627.11v3.75"/><path d="m534.78 634.61v3.75"/><path d="m534.78 642.11v3.75"/><path d="m534.78 645.86v.3"/><path d="m452.73 608.96v-93.9"/><path d="m500.73 608.96v-93.9"/><path d="m526.83 646.16h-100.05"/><path d="m526.83 492.11h-100.05"/><path d="m526.83 486.71h-100.05"/><path d="m526.83 477.86h-100.05"/></g></svg>