<svg xmlns="http://www.w3.org/2000/svg" width="122.8" height="168.84" viewBox="0 0 122.79769 168.84387"><g transform="translate(-208.65-432.29)" fill="none" stroke-linejoin="round" stroke-linecap="round" stroke-width=".54" stroke-miterlimit="10"><g stroke="#888"><path d="m216.88 488.36h2.55"/><path d="m223.18 488.36h3.75"/><path d="m230.68 488.36h3.75"/><path d="m238.18 488.36h3.75"/><path d="m245.68 488.36h3.75"/><path d="m253.18 488.36h3.75"/><path d="m260.68 488.36h3.75"/><path d="m268.18 488.36h3.75"/><path d="m275.68 488.36h3.75"/><path d="m283.18 488.36h3.75"/><path d="m290.68 488.36h3.75"/><path d="m298.18 488.36h3.75"/><path d="m305.68 488.36h3.75"/><path d="m313.18 488.36h3.75"/><path d="m320.68 488.36h2.55"/></g><g stroke="#000"><path d="m208.93 600.86h122.25"/><path d="m317.38 509.66c0 1.409-1.175 2.55-2.625 2.55-1.449 0-2.625-1.142-2.625-2.55 0-1.409 1.176-2.55 2.625-2.55 1.45 0 2.625 1.142 2.625 2.55"/><path d="m323.23 600.86v-147.9"/><path d="m216.88 600.86v-147.9"/><path d="m216.88 452.96h106.35"/><path d="m233.68 563.66v-93.9"/><path d="m306.28 563.66v-93.9"/><path d="m233.68 469.76h72.6"/><path d="m208.93 446.81h122.25"/><path d="m208.93 446.81v154.05"/><path d="m331.18 446.81v154.05"/><path d="m233.68 563.66h72.6"/><path d="m216.88 580.46h106.35"/><path d="m234.88 563.66v-93.9"/><path d="m305.08 563.66v-93.9"/><path d="m208.93 441.41h122.25"/><path d="m208.93 432.56h122.25"/></g></g></svg>