<svg xmlns="http://www.w3.org/2000/svg" width="131.65" height="168.85" viewBox="0 0 131.64709 168.84768"><g transform="translate(-32.855-432.29)" fill="none" stroke-linejoin="round" stroke-linecap="round" stroke-width=".54" stroke-miterlimit="10"><g stroke="#888"><path d="m49.929 488.36h2.55"/><path d="m56.23 488.36h3.75"/><path d="m63.729 488.36h3.75"/><path d="m71.23 488.36h3.75"/><path d="m78.73 488.36h3.75"/><path d="m86.23 488.36h3.75"/><path d="m93.73 488.36h3.75"/><path d="m101.23 488.36h3.75"/><path d="m108.73 488.36h3.75"/><path d="m116.23 488.36h3.75"/><path d="m123.73 488.36h3.75"/><path d="m131.23 488.36h3.75"/><path d="m138.73 488.36h3.75"/><path d="m146.23 488.36h3.75"/><path d="m153.73 488.36h2.55"/></g><g stroke="#000"><path d="m41.979 600.86h122.25"/><path d="m150.43 509.66c0 1.409-1.141 2.55-2.55 2.55-1.408 0-2.55-1.142-2.55-2.55 0-1.409 1.142-2.55 2.55-2.55 1.409 0 2.55 1.142 2.55 2.55"/><path d="m156.28 600.86v-147.9"/><path d="m49.929 600.86v-147.9"/><path d="m49.929 452.96h106.35"/><path d="m66.729 563.66v-93.9"/><path d="m139.48 563.66v-93.9"/><path d="m66.729 469.76h72.75"/><path d="m41.979 446.81h122.25"/><path d="m41.979 446.81v154.05"/><path d="m164.23 446.81v154.05"/><path d="m66.729 563.66h72.75"/><path d="m49.929 580.46h106.35"/><path d="m68.08 563.66v-93.9"/><path d="m138.13 563.66v-93.9"/><path d="m41.979 441.41h122.25"/><path d="m41.979 432.56h122.25"/><path d="m41.979 600.86v-154.05"/><path d="m33.13 446.81h8.85"/><path d="m33.13 441.41v5.4"/><path d="m41.979 441.41h-8.85"/><path d="m33.13 441.41h8.85"/><path d="m33.13 432.56v8.85"/><path d="m41.979 432.56h-8.85"/></g></g></svg>