<svg xmlns="http://www.w3.org/2000/svg" width="122.8" height="168.84" viewBox="0 0 122.79769 168.84387"><g transform="translate(-729.45-432.29)" fill="none" stroke-linejoin="round" stroke-linecap="round" stroke-width=".54" stroke-miterlimit="10"><g stroke="#888"><path d="m844.03 488.36h-2.55"/><path d="m837.73 488.36h-3.75"/><path d="m830.23 488.36h-3.75"/><path d="m822.73 488.36h-3.75"/><path d="m815.23 488.36h-3.75"/><path d="m807.73 488.36h-3.75"/><path d="m800.23 488.36h-3.75"/><path d="m792.73 488.36h-3.75"/><path d="m785.23 488.36h-3.75"/><path d="m777.73 488.36h-3.75"/><path d="m770.23 488.36h-3.75"/><path d="m762.73 488.36h-3.75"/><path d="m755.23 488.36h-3.75"/><path d="m747.73 488.36h-3.75"/><path d="m740.23 488.36h-2.55"/></g><g stroke="#000"><path d="m851.98 600.86h-122.25"/><path d="m748.78 509.66c0 1.409-1.174 2.55-2.625 2.55-1.449 0-2.625-1.142-2.625-2.55 0-1.409 1.176-2.55 2.625-2.55 1.451 0 2.625 1.142 2.625 2.55"/><path d="m737.68 600.86v-147.9"/><path d="m844.03 600.86v-147.9"/><path d="m844.03 452.96h-106.35"/><path d="m827.23 563.66v-93.9"/><path d="m754.63 563.66v-93.9"/><path d="m827.23 469.76h-72.6"/><path d="m851.98 446.81h-122.25"/><path d="m851.98 446.81v154.05"/><path d="m729.73 446.81v154.05"/><path d="m827.23 563.66h-72.6"/><path d="m844.03 580.46h-106.35"/><path d="m826.03 563.66v-93.9"/><path d="m755.83 563.66v-93.9"/><path d="m851.98 441.41h-122.25"/><path d="m851.98 432.56h-122.25"/></g></g></svg>