<svg xmlns="http://www.w3.org/2000/svg" width="122.8" height="381.4" viewBox="0 0 122.79769 381.39828"><g transform="translate(-147.28-248.11)" fill="none" stroke="#000" stroke-linejoin="round" stroke-linecap="round" stroke-width=".54" stroke-miterlimit="10"><path d="m269.8 629.23v-380.85"/><path d="m147.55 629.23v-380.85"/><path d="m261.85 475.03h-106.35"/><path d="m155.5 608.83h106.35"/><path d="m244.9 592.03h-72.6"/><path d="m244.9 498.13h-72.6"/><path d="m172.3 458.23h72.6"/><path d="m244.9 273.13v185.1"/><path d="m244.9 498.13v93.9"/><path d="m172.3 592.03v-93.9"/><path d="m172.3 458.23v-185.1"/><path d="m147.55 248.38h122.25"/><path d="m155.5 256.33h106.35"/><path d="m172.3 273.13h72.6"/><path d="m261.85 481.33h-106.35"/><path d="m155.5 477.88v-221.55"/><path d="m155.5 629.23v-154.2"/><path d="m261.85 477.58v-221.25"/><path d="m261.85 629.23v-154.2"/><path d="m243.85 273.13v185.1"/><path d="m243.85 498.13v93.9"/><path d="m173.35 592.03v-93.9"/><path d="m173.35 458.23v-185.1"/><path d="m147.55 629.23h122.25"/><path d="m256 377.83c0 1.409-1.174 2.55-2.625 2.55-1.449 0-2.625-1.142-2.625-2.55 0-1.409 1.176-2.55 2.625-2.55 1.451 0 2.625 1.142 2.625 2.55"/><path d="m256 538.03c0 1.409-1.174 2.55-2.625 2.55-1.449 0-2.625-1.141-2.625-2.55 0-1.409 1.176-2.55 2.625-2.55 1.451 0 2.625 1.141 2.625 2.55"/></g></svg>