<svg xmlns="http://www.w3.org/2000/svg" height="196.89" viewBox="0 0 122.79 196.89276"><g transform="translate(-147.28-656.86)" fill="none" stroke-linejoin="round" stroke-linecap="round" stroke-width=".54" stroke-miterlimit="10"><g stroke="#000"><path d="m147.55 657.13v118.65h122.25v-118.65h-122.25z"/><path d="m155.5 775.78l77.7 77.7"/><path d="m155.5 775.78l95.1 54.9"/></g><g stroke="#888"><path d="m230.65 850.93l.45-.45"/><path d="m231.1 850.48l.45-.45"/><path d="m231.55 850.03l.45-.45"/><path d="m232 849.58l.45-.45"/><path d="m232.45 849.13l.45-.45"/><path d="m232.9 848.68l.3-.45"/><path d="m235.75 845.53l.15-.3"/><path d="m235.9 845.23l.45-.45"/><path d="m236.35 844.78l.45-.6"/><path d="m236.8 844.18l.45-.45"/><path d="m237.25 843.73l.45-.45"/><path d="m237.7 843.28l.3-.6"/><path d="m238 842.68l.15-.15"/><path d="m240.4 839.53l.45-.45"/><path d="m240.85 839.08l.45-.45"/><path d="m241.3 838.63l.3-.6"/><path d="m241.6 838.03l.45-.45"/><path d="m242.05 837.58l.3-.6"/><path d="m242.35 836.98l.3-.3"/><path d="m244.75 833.53l.15-.3"/><path d="m244.9 833.23l.45-.6"/><path d="m245.35 832.63l.3-.45"/><path d="m245.65 832.18l.3-.6"/><path d="m245.95 831.58l.3-.6"/><path d="m246.25 830.98l.45-.6"/><path d="m248.65 827.23v-.15"/><path d="m248.65 827.08l.3-.6"/><path d="m248.95 826.48l.3-.6"/><path d="m249.25 825.88l.3-.6"/><path d="m249.55 825.28l.3-.6"/><path d="m249.85 824.68l.3-.45"/><path d="m250.15 824.23l.15-.3"/><path d="m251.8 820.48l.3-.45"/><path d="m252.1 820.03l.3-.6"/><path d="m252.4 819.43l.3-.6"/><path d="m252.7 818.83l.15-.6"/><path d="m252.85 818.23l.3-.6"/><path d="m253.15 817.63l.3-.45"/><path d="m254.8 813.73l.15-.3"/><path d="m254.95 813.43l.15-.6"/><path d="m255.1 812.83l.3-.6"/><path d="m255.4 812.23l.15-.6"/><path d="m255.55 811.63l.3-.6"/><path d="m255.85 811.03l.15-.6"/><path d="m256 810.43v-.15"/><path d="m257.2 806.68l.15-.6"/><path d="m257.35 806.08l.15-.75"/><path d="m257.5 805.33l.3-.6"/><path d="m257.8 804.73l.15-.6"/><path d="m257.95 804.13l.15-.6"/><path d="m258.1 803.53l.15-.45"/><path d="m259 799.48l.15-.45"/><path d="m259.15 799.03l.15-.6"/><path d="m259.3 798.43l.15-.6"/><path d="m259.45 797.83l.15-.6"/><path d="m259.6 797.23l.15-.75"/><path d="m259.75 796.48l.15-.6"/><path d="m260.5 792.13v-.15"/><path d="m260.5 791.98l.15-.6"/><path d="m260.65 791.38v-.6"/><path d="m260.65 790.78l.15-.75"/><path d="m260.8 790.03l.15-.6"/><path d="m260.95 789.43v-.6"/><path d="m260.95 788.83l.15-.45"/><path d="m261.4 784.63v-.3"/><path d="m261.4 784.33l.15-.75"/><path d="m261.55 783.58v-.6"/><path d="m261.55 782.98v-.6"/><path d="m261.55 782.38v-.75"/><path d="m261.55 781.63l.15-.6"/><path d="m261.7 781.03v-.15"/><path d="m261.7 777.13v-.75"/><path d="m261.7 776.38l.15-.6"/></g></g></svg>