<svg xmlns="http://www.w3.org/2000/svg" height="200.64" viewBox="0 0 128.03999 200.64273"><g transform="translate(-77.43-639.28)" fill="none" stroke-linejoin="round" stroke-linecap="round" stroke-width=".54" stroke-miterlimit="10"><g stroke="#888"><path d="m164.55 837.1l.45-.45"/><path d="m165 836.65l.45-.45"/><path d="m165.45 836.2l.6-.6"/><path d="m166.05 835.6l.45-.45"/><path d="m166.5 835.15l.45-.45"/><path d="m166.95 834.7l.3-.3"/><path d="m169.8 831.55l.3-.45"/><path d="m170.1 831.1l.45-.45"/><path d="m170.55 830.65l.45-.6"/><path d="m171 830.05l.45-.45"/><path d="m171.45 829.6l.45-.6"/><path d="m171.9 829l.3-.3"/><path d="m174.45 825.7l.45-.45"/><path d="m174.9 825.25l.3-.6"/><path d="m175.2 824.65l.45-.45"/><path d="m175.65 824.2l.45-.6"/><path d="m176.1 823.6l.3-.6"/><path d="m176.4 823l.3-.3"/><path d="m178.8 819.7l.3-.6"/><path d="m179.1 819.1l.45-.6"/><path d="m179.55 818.5l.3-.6"/><path d="m179.85 817.9l.45-.6"/><path d="m180.3 817.3l.3-.6"/><path d="m180.6 816.7l.15-.15"/><path d="m182.7 813.4v-.15"/><path d="m182.7 813.25l.3-.6"/><path d="m183 812.65l.45-.6"/><path d="m183.45 812.05l.3-.6"/><path d="m183.75 811.45l.3-.6"/><path d="m184.05 810.85l.3-.6"/><path d="m184.35 810.25v-.15"/><path d="m186 806.8l.15-.3"/><path d="m186.15 806.5l.3-.6"/><path d="m186.45 805.9l.3-.6"/><path d="m186.75 805.3l.3-.6"/><path d="m187.05 804.7l.3-.6"/><path d="m187.35 804.1l.3-.6"/><path d="m189.15 800.05l.15-.45"/><path d="m189.3 799.6l.15-.6"/><path d="m189.45 799l.3-.6"/><path d="m189.75 798.4l.3-.6"/><path d="m190.05 797.8l.15-.75"/><path d="m190.2 797.05l.3-.45"/><path d="m191.7 793l.15-.45"/><path d="m191.85 792.55l.15-.6"/><path d="m192 791.95l.15-.75"/><path d="m192.15 791.2l.3-.6"/><path d="m192.45 790.6l.15-.6"/><path d="m192.6 790l.15-.6"/><path d="m193.65 785.8l.3-.45"/><path d="m193.95 785.35l.15-.75"/><path d="m194.1 784.6l.15-.6"/><path d="m194.25 784l.15-.6"/><path d="m194.4 783.4l.15-.75"/><path d="m194.55 782.65l.15-.45"/><path d="m195.3 778.45l.15-.45"/><path d="m195.45 778l.15-.75"/><path d="m195.6 777.25l.15-.6"/><path d="m195.75 776.65v-.75"/><path d="m195.75 775.9l.15-.6"/><path d="m195.9 775.3l.15-.45"/><path d="m196.5 771.1v-.6"/><path d="m196.5 770.5l.15-.6"/><path d="m196.65 769.9v-.75"/><path d="m196.65 769.15l.15-.75"/><path d="m196.8 768.4v-.6"/><path d="m196.8 767.8v-.45"/><path d="m197.1 763.6v-.6"/><path d="m197.1 763v-.75"/><path d="m197.1 762.25l.15-.6"/><path d="m197.25 761.65v-.75"/><path d="m197.25 760.9v-.6"/><path d="m197.25 760.3v-.45"/></g><g stroke="#000"><path d="m77.7 639.55v118.65h127.5v-118.65h-127.5z"/><path d="m85.65 758.2l81.45 81.45"/></g></g></svg>