<svg xmlns="http://www.w3.org/2000/svg" width="128.05" height="381.4" viewBox="0 0 128.0477 381.39828"><g transform="translate(-77.43-230.52)" fill="none" stroke="#000" stroke-linejoin="round" stroke-linecap="round" stroke-width=".54" stroke-miterlimit="10"><path d="m205.2 611.65v-380.85"/><path d="m77.7 611.65v-380.85"/><path d="m85.65 591.25h111.6"/><path d="m180.45 574.45h-78"/><path d="m180.45 480.55h-78"/><path d="m102.45 440.65h78"/><path d="m180.45 255.54v185.1"/><path d="m180.45 480.55v93.9"/><path d="m102.45 574.45v-93.9"/><path d="m102.45 440.65v-185.1"/><path d="m77.7 230.79h127.5"/><path d="m85.65 238.74h111.6"/><path d="m102.45 255.54h78"/><path d="m85.65 460.3v-221.55"/><path d="m85.65 611.65v-154.2"/><path d="m197.25 460v-221.25"/><path d="m197.25 611.65v-154.2"/><path d="m179.4 255.54v185.1"/><path d="m179.4 480.55v93.9"/><path d="m103.5 574.45v-93.9"/><path d="m103.5 440.65v-185.1"/><path d="m77.7 611.65h127.5"/><path d="m191.4 395.35c0 1.409-1.142 2.55-2.55 2.55-1.407 0-2.55-1.142-2.55-2.55 0-1.409 1.143-2.55 2.55-2.55 1.409 0 2.55 1.142 2.55 2.55"/></g></svg>