<svg xmlns="http://www.w3.org/2000/svg" height="85.59" viewBox="0 0 128.19 85.592729"><g transform="translate(-96.42-730.03)" fill="none" stroke-linejoin="round" stroke-linecap="round" stroke-width=".54" stroke-miterlimit="10"><g stroke="#000"><path d="m96.69 730.3v3.6h127.65v-3.6h-127.65z"/><path d="m104.64 733.9l81.45 81.45"/></g><g stroke="#888"><path d="m183.54 812.8l.6-.45"/><path d="m184.14 812.35l.45-.45"/><path d="m184.59 811.9l.45-.45"/><path d="m185.04 811.45l.45-.6"/><path d="m185.49 810.85l.45-.45"/><path d="m185.94 810.4l.3-.3"/><path d="m188.79 807.4l.45-.6"/><path d="m189.24 806.8l.45-.45"/><path d="m189.69 806.35l.45-.6"/><path d="m190.14 805.75l.45-.45"/><path d="m190.59 805.3l.3-.6"/><path d="m190.89 804.7l.15-.15"/><path d="m193.44 801.7v-.15"/><path d="m193.44 801.55l.45-.6"/><path d="m193.89 800.95l.45-.45"/><path d="m194.34 800.5l.45-.6"/><path d="m194.79 799.9l.3-.6"/><path d="m195.09 799.3l.45-.6"/><path d="m197.64 795.7l.15-.3"/><path d="m197.79 795.4l.45-.6"/><path d="m198.24 794.8l.3-.6"/><path d="m198.54 794.2l.45-.6"/><path d="m198.99 793.6l.3-.45"/><path d="m199.29 793.15l.45-.6"/><path d="m201.54 789.25l.3-.3"/><path d="m201.84 788.95l.3-.6"/><path d="m202.14 788.35l.3-.6"/><path d="m202.44 787.75l.3-.6"/><path d="m202.74 787.15l.3-.6"/><path d="m203.04 786.55l.45-.45"/><path d="m205.14 782.8l.15-.45"/><path d="m205.29 782.35l.3-.75"/><path d="m205.59 781.6l.3-.6"/><path d="m205.89 781l.3-.6"/><path d="m206.19 780.4l.3-.6"/><path d="m206.49 779.8l.15-.45"/><path d="m207.99 775.9l.3-.45"/><path d="m208.29 775.45l.3-.75"/><path d="m208.59 774.7l.15-.6"/><path d="m208.74 774.1l.3-.6"/><path d="m209.04 773.5l.3-.6"/><path d="m209.34 772.9l.15-.45"/><path d="m210.69 769l.15-.75"/><path d="m210.84 768.25l.3-.6"/><path d="m211.14 767.65l.15-.6"/><path d="m211.29 767.05l.15-.75"/><path d="m211.44 766.3l.3-.6"/><path d="m211.74 765.7v-.3"/><path d="m212.79 761.8l.15-.75"/><path d="m212.94 761.05l.15-.6"/><path d="m213.09 760.45l.15-.75"/><path d="m213.24 759.7l.15-.6"/><path d="m213.39 759.1l.15-.75"/><path d="m213.54 758.35v-.15"/><path d="m214.44 754.6v-.15"/><path d="m214.44 754.45l.15-.75"/><path d="m214.59 753.7v-.6"/><path d="m214.59 753.1l.15-.75"/><path d="m214.74 752.35l.15-.6"/><path d="m214.89 751.75l.15-.75"/><path d="m215.04 751v-.15"/><path d="m215.49 747.1v-.15"/><path d="m215.49 746.95l.15-.75"/><path d="m215.64 746.2v-.6"/><path d="m215.64 745.6l.15-.75"/><path d="m215.79 744.85v-.6"/><path d="m215.79 744.25l.15-.75"/><path d="m215.94 743.5v-.15"/><path d="m216.09 739.6v-.15"/><path d="m216.09 739.45l.15-.75"/><path d="m216.24 738.7v-.6"/><path d="m216.24 738.1v-.75"/><path d="m216.24 737.35v-.6"/><path d="m216.24 736.75v-.75"/><path d="m216.24 736v-.15"/></g></g></svg>