<svg xmlns="http://www.w3.org/2000/svg" width="128.2" height="381.4" viewBox="0 0 128.19769 381.39829"><g transform="translate(-96.41-260.53)" fill="none" stroke="#000" stroke-linejoin="round" stroke-linecap="round" stroke-width=".54" stroke-miterlimit="10"><path d="m224.34 641.65v-380.85"/><path d="m96.69 641.65v-380.85"/><path d="m104.64 621.25h111.6"/><path d="m199.44 604.45h-78"/><path d="m199.44 510.55h-78"/><path d="m121.44 470.65h78"/><path d="m199.44 285.55v185.1"/><path d="m199.44 510.55v93.9"/><path d="m121.44 604.45v-93.9"/><path d="m121.44 470.65v-185.1"/><path d="m96.69 260.8h127.65"/><path d="m104.64 268.75h111.6"/><path d="m121.44 285.55h78"/><path d="m104.64 490.3v-221.55"/><path d="m104.64 641.65v-154.2"/><path d="m216.24 490v-221.25"/><path d="m216.24 641.65v-154.2"/><path d="m198.39 285.55v185.1"/><path d="m198.39 510.55v93.9"/><path d="m122.64 604.45v-93.9"/><path d="m122.64 470.65v-185.1"/><path d="m96.69 641.65h127.65"/><path d="m210.39 425.35c0 1.409-1.142 2.55-2.55 2.55-1.407 0-2.55-1.142-2.55-2.55 0-1.409 1.143-2.55 2.55-2.55 1.409 0 2.55 1.142 2.55 2.55"/></g></svg>