<svg xmlns="http://www.w3.org/2000/svg" width="105.1" height="168.85" viewBox="0 0 105.09769 168.84768"><g transform="translate(-458.83-332.57)" fill="none" stroke="#000" stroke-linejoin="round" stroke-linecap="round" stroke-width=".54" stroke-miterlimit="10"><path d="m467.05 501.14v-147.9"/><path d="m467.05 353.24h79.8"/><path d="m483.85 463.94v-93.9"/><path d="m529.9 463.94v-93.9"/><path d="m483.85 370.04h46.05"/><path d="m459.1 347.09h95.7"/><path d="m483.85 463.94h46.05"/><path d="m467.05 480.74h79.65"/><path d="m459.1 501.14h95.7"/><path d="m509.5 361.64c0 1.409-1.142 2.55-2.55 2.55-1.409 0-2.55-1.142-2.55-2.55 0-1.409 1.142-2.55 2.55-2.55 1.409 0 2.55 1.142 2.55 2.55"/><path d="m546.85 353.24v147.9"/><path d="m554.8 347.09v154.05"/><path d="m459.1 501.14v-154.05"/><path d="m485.2 463.94v-93.9"/><path d="m528.7 463.94v-93.9"/><path d="m459.1 341.69h95.7"/><path d="m459.1 332.84h95.7"/><path d="m563.65 347.09h-8.85"/><path d="m563.65 341.69v5.4"/><path d="m554.8 341.69h8.85"/><path d="m563.65 341.69h-8.85"/><path d="m563.65 332.84v8.85"/><path d="m554.8 332.84h8.85"/></g></svg>