<svg xmlns="http://www.w3.org/2000/svg" width="96.25" height="168.84" viewBox="0 0 96.247688 168.84387"><g transform="translate(-282.73-332.57)" fill="none" stroke="#000" stroke-linejoin="round" stroke-linecap="round" stroke-width=".54" stroke-miterlimit="10"><path d="m290.95 501.14v-147.9"/><path d="m290.95 353.24h79.8"/><path d="m307.9 463.94v-93.9"/><path d="m353.95 463.94v-93.9"/><path d="m307.9 370.04h46.05"/><path d="m283 347.09h95.7"/><path d="m307.9 463.94h46.05"/><path d="m290.95 480.74h79.65"/><path d="m283 501.14h95.7"/><path d="m333.4 361.64c0 1.409-1.142 2.55-2.55 2.55-1.409 0-2.55-1.142-2.55-2.55 0-1.409 1.142-2.55 2.55-2.55 1.409 0 2.55 1.142 2.55 2.55"/><path d="m370.75 353.24v147.9"/><path d="m378.7 347.09v154.05"/><path d="m283 501.14v-154.05"/><path d="m309.1 463.94v-93.9"/><path d="m352.6 463.94v-93.9"/><path d="m283 341.69h95.7"/><path d="m283 332.84h95.7"/></g></svg>