<svg xmlns="http://www.w3.org/2000/svg" height="191.64" viewBox="0 0 122.79 191.64273"><g transform="translate(-293.88-581.24)" fill="none" stroke-linejoin="round" stroke-linecap="round" stroke-width=".54" stroke-miterlimit="10"><g stroke="#000"><path d="m294.15 581.51v113.4h122.25v-113.4h-122.25z"/><path d="m408.45 694.91l-77.7 77.7"/></g><g stroke="#888"><path d="m302.1 694.91v.6"/><path d="m302.1 695.51v.75"/><path d="m302.1 696.26v.6"/><path d="m302.1 696.86v.6"/><path d="m302.1 697.46v.75"/><path d="m302.1 698.21v.45"/><path d="m302.4 702.41v.3"/><path d="m302.4 702.71v.6"/><path d="m302.4 703.31l.15.75"/><path d="m302.55 704.06v.6"/><path d="m302.55 704.66v.6"/><path d="m302.55 705.26l.15.75"/><path d="m302.7 706.01v.15"/><path d="m303.15 709.91l.15.6"/><path d="m303.3 710.51v.6"/><path d="m303.3 711.11l.15.6"/><path d="m303.45 711.71l.15.75"/><path d="m303.6 712.46v.6"/><path d="m303.6 713.06l.15.6"/><path d="m304.5 717.26v.3"/><path d="m304.5 717.56l.15.6"/><path d="m304.65 718.16l.15.6"/><path d="m304.8 718.76l.15.75"/><path d="m304.95 719.51l.15.6"/><path d="m305.1 720.11l.15.6"/><path d="m305.25 720.71v.15"/><path d="m306.3 724.46l.15.6"/><path d="m306.45 725.06l.15.75"/><path d="m306.6 725.81l.3.6"/><path d="m306.9 726.41l.15.6"/><path d="m307.05 727.01l.15.6"/><path d="m307.2 727.61l.15.45"/><path d="m308.55 731.51l.15.45"/><path d="m308.7 731.96l.3.6"/><path d="m309 732.56l.15.6"/><path d="m309.15 733.16l.3.6"/><path d="m309.45 733.76l.3.6"/><path d="m309.75 734.36l.15.6"/><path d="m311.4 738.41l.15.15"/><path d="m311.55 738.56l.15.6"/><path d="m311.7 739.16l.3.6"/><path d="m312 739.76l.3.6"/><path d="m312.3 740.36l.3.6"/><path d="m312.6 740.96l.3.6"/><path d="m312.9 741.56l.15.15"/><path d="m314.7 745.01l.3.6"/><path d="m315 745.61l.3.6"/><path d="m315.3 746.21l.3.45"/><path d="m315.6 746.66l.3.6"/><path d="m315.9 747.26l.3.6"/><path d="m316.2 747.86l.3.45"/><path d="m318.45 751.46l.15.3"/><path d="m318.6 751.76l.3.6"/><path d="m318.9 752.36l.45.45"/><path d="m319.35 752.81l.3.6"/><path d="m319.65 753.41l.3.6"/><path d="m319.95 754.01l.45.45"/><path d="m320.4 754.46v.15"/><path d="m322.65 757.61l.3.6"/><path d="m322.95 758.21l.45.45"/><path d="m323.4 758.66l.45.6"/><path d="m323.85 759.26l.3.45"/><path d="m324.15 759.71l.45.6"/><path d="m324.6 760.31l.3.3"/><path d="m327.15 763.46l.3.3"/><path d="m327.45 763.76l.45.6"/><path d="m327.9 764.36l.45.45"/><path d="m328.35 764.81l.45.45"/><path d="m328.8 765.26l.45.6"/><path d="m329.25 765.86l.45.45"/><path d="m332.25 769.16l.45.45"/><path d="m332.7 769.61l.6.45"/></g></g></svg>