<svg xmlns="http://www.w3.org/2000/svg" width="122.8" height="168.84" viewBox="0 0 122.79769 168.84387"><g transform="translate(-293.88-371.84)" fill="none" stroke="#000" stroke-linejoin="round" stroke-linecap="round" stroke-width=".54" stroke-miterlimit="10"><path d="m416.4 540.41h-122.25"/><path d="m313.05 449.21c0 1.409-1.142 2.55-2.55 2.55-1.407 0-2.55-1.142-2.55-2.55 0-1.409 1.143-2.55 2.55-2.55 1.409 0 2.55 1.142 2.55 2.55"/><path d="m302.1 540.41v-147.9"/><path d="m408.45 540.41v-147.9"/><path d="m408.45 392.51h-106.35"/><path d="m391.5 503.21v-93.9"/><path d="m318.9 503.21v-93.9"/><path d="m391.5 409.31h-72.6"/><path d="m416.4 386.36h-122.25"/><path d="m416.4 386.36v154.05"/><path d="m294.15 386.36v154.05"/><path d="m391.5 503.21h-72.6"/><path d="m408.45 520.01h-106.35"/><path d="m390.3 503.21v-93.9"/><path d="m320.1 503.21v-93.9"/><path d="m416.4 380.96h-122.25"/><path d="m416.4 372.11h-122.25"/></g></svg>