<svg xmlns="http://www.w3.org/2000/svg" width="131.65" height="168.85" viewBox="0 0 131.64769 168.84768"><g transform="translate(-518.43-371.84)" fill="none" stroke="#000" stroke-linejoin="round" stroke-linecap="round" stroke-width=".54" stroke-miterlimit="10"><path d="m640.95 540.41h-122.25"/><path d="m537.75 449.21c0 1.409-1.174 2.55-2.625 2.55-1.449 0-2.625-1.142-2.625-2.55 0-1.409 1.176-2.55 2.625-2.55 1.451 0 2.625 1.142 2.625 2.55"/><path d="m526.65 540.41v-147.9"/><path d="m633 540.41v-147.9"/><path d="m633 392.51h-106.35"/><path d="m616.2 503.21v-93.9"/><path d="m543.6 503.21v-93.9"/><path d="m616.2 409.31h-72.6"/><path d="m640.95 386.36h-122.25"/><path d="m640.95 386.36v154.05"/><path d="m518.7 386.36v154.05"/><path d="m616.2 503.21h-72.6"/><path d="m633 520.01h-106.35"/><path d="m615 503.21v-93.9"/><path d="m544.8 503.21v-93.9"/><path d="m640.95 380.96h-122.25"/><path d="m640.95 372.11h-122.25"/><path d="m640.95 540.41v-154.05"/><path d="m649.8 386.36h-8.85"/><path d="m649.8 380.96v5.4"/><path d="m640.95 380.96h8.85"/><path d="m649.8 380.96h-8.85"/><path d="m649.8 372.11v8.85"/><path d="m640.95 372.11h8.85"/></g></svg>