<svg xmlns="http://www.w3.org/2000/svg" height="89.94" viewBox="0 0 140.64 89.941934"><g transform="translate(-223.06-514.64)" fill="none" stroke="#888" stroke-linejoin="round" stroke-linecap="round" stroke-width=".54" stroke-miterlimit="10"><path d="m223.33 514.91v56.7h140.1v-56.7h-140.1z"/><path d="m231.43 571.61l56.7 32.7"/><path d="m285.13 602.66l.15-.45"/><path d="m285.28 602.21l.3-.45"/><path d="m285.58 601.76l.3-.45"/><path d="m285.88 601.31l.15-.45"/><path d="m286.03 600.86l.3-.45"/><path d="m286.33 600.41l.15-.45"/><path d="m286.48 599.96l.3-.45"/><path d="m286.78 599.51v-.15"/><path d="m288.28 596.06l.15-.3"/><path d="m288.43 595.76l.3-.45"/><path d="m288.73 595.31l.15-.45"/><path d="m288.88 594.86l.15-.45"/><path d="m289.03 594.41l.15-.45"/><path d="m289.18 593.96l.15-.6"/><path d="m289.33 593.36l.3-.45"/><path d="m289.63 592.91l.15-.3"/><path d="m290.83 589.01l.15-.45"/><path d="m290.98 588.56l.15-.45"/><path d="m291.13 588.11l.15-.45"/><path d="m291.28 587.66l.15-.45"/><path d="m291.43 587.21l.15-.6"/><path d="m291.58 586.61v-.45"/><path d="m291.58 586.16l.15-.45"/><path d="m291.73 585.71l.15-.3"/><path d="m292.48 581.81v-.15"/><path d="m292.48 581.66l.15-.45"/><path d="m292.63 581.21l.15-.6"/><path d="m292.78 580.61v-.45"/><path d="m292.78 580.16v-.45"/><path d="m292.78 579.71l.15-.6"/><path d="m292.93 579.11v-.45"/><path d="m292.93 578.66l.15-.45"/><path d="m293.23 574.46l.15-.3"/><path d="m293.38 574.16v-.6"/><path d="m293.38 573.56v-.45"/><path d="m293.38 573.11v-.45"/><path d="m293.38 572.66v-.6"/><path d="m293.38 572.06v-.45"/><path d="m355.33 571.61l-56.7 32.7"/><path d="m293.38 571.61v.45"/><path d="m293.38 572.06v.6"/><path d="m293.38 572.66v.45"/><path d="m293.38 573.11v.45"/><path d="m293.38 573.56v.6"/><path d="m293.38 574.16v.45"/><path d="m293.38 574.61l.15.45"/><path d="m293.53 575.06v.3"/><path d="m293.83 579.11l.15.6"/><path d="m293.98 579.71v.45"/><path d="m293.98 580.16v.45"/><path d="m293.98 580.61l.15.6"/><path d="m294.13 581.21v.45"/><path d="m294.13 581.66l.15.6"/><path d="m294.28 582.26l.15.45"/><path d="m295.18 586.31v.3"/><path d="m295.18 586.61l.15.6"/><path d="m295.33 587.21l.15.45"/><path d="m295.48 587.66l.15.45"/><path d="m295.63 588.11l.15.45"/><path d="m295.78 588.56l.15.6"/><path d="m295.93 589.16l.15.45"/><path d="m296.08 589.61l.15.3"/><path d="m297.28 593.51l.3.45"/><path d="m297.58 593.96l.15.45"/><path d="m297.73 594.41l.15.45"/><path d="m297.88 594.86l.15.45"/><path d="m298.03 595.31l.3.45"/><path d="m298.33 595.76l.15.45"/><path d="m298.48 596.21l.15.45"/><path d="m298.63 596.66l.15.3"/><path d="m300.43 600.26v.15"/><path d="m300.43 600.41l.3.45"/><path d="m300.73 600.86l.15.45"/><path d="m300.88 601.31l.3.45"/><path d="m301.18 601.76l.3.45"/><path d="m301.48 602.21l.15.45"/></g></svg>