<svg xmlns="http://www.w3.org/2000/svg" width="140.65" height="133.45" viewBox="0 0 140.64769 133.44769"><g transform="translate(-223.06-300.14)" fill="none" stroke="#000" stroke-linejoin="round" stroke-linecap="round" stroke-width=".54" stroke-miterlimit="10"><path d="m223.33 433.31v-132.9"/><path d="m293.38 421.76v-113.25"/><path d="m231.43 421.76v-113.25"/><path d="m231.43 308.51h123.9"/><path d="m231.43 421.76h123.9"/><path d="m242.83 322.61h39"/><path d="m223.33 433.31h140.1"/><path d="m223.33 300.41h140.1"/><path d="m355.33 421.76v-113.25"/><path d="m304.93 322.61h39"/><path d="m363.43 433.31v-132.9"/><path d="m301.63 371.44c0 1.449-1.142 2.625-2.55 2.625-1.407 0-2.55-1.176-2.55-2.625 0-1.45 1.143-2.625 2.55-2.625 1.409 0 2.55 1.175 2.55 2.625"/><path d="m242.83 407.66h39"/><path d="m304.93 407.66h39"/><path d="m242.83 407.66v-85.05"/><path d="m281.83 407.66v-85.05"/><path d="m304.93 407.66v-85.05"/><path d="m343.93 407.66v-85.05"/><path d="m306.13 407.66v-85.05"/><path d="m342.58 407.66v-85.05"/><path d="m244.18 407.66v-85.05"/><path d="m280.63 407.66v-85.05"/><path d="m290.23 371.44c0 1.449-1.175 2.625-2.625 2.625-1.449 0-2.625-1.176-2.625-2.625 0-1.45 1.176-2.625 2.625-2.625 1.45 0 2.625 1.175 2.625 2.625"/></g></svg>