<svg xmlns="http://www.w3.org/2000/svg" width="160" height="89.05" viewBox="0 0 159.99769 89.047693"><g transform="translate(-189.02-435.83)" fill="none" stroke="#000" stroke-linejoin="round" stroke-linecap="round" stroke-width=".54" stroke-miterlimit="10"><path d="m189.3 524.61h159.45"/><path d="m189.3 436.11h159.45"/><path d="m189.3 524.61v-88.5"/><path d="m340.65 513.06v-69"/><path d="m197.25 513.06v-69"/><path d="m197.25 444.06h143.4"/><path d="m197.25 513.06h143.4"/><path d="m211.35 498.96v-40.8"/><path d="m261.45 498.96h-50.1"/><path d="m326.55 458.16v40.8"/><path d="m211.35 458.16h50.1"/><path d="m348.75 524.61v-88.5"/><path d="m261.45 458.16v40.8"/><path d="m275.7 458.16v40.8"/><path d="m275.7 498.96h50.85"/><path d="m326.55 458.16h-50.85"/><path d="m212.55 498.96v-40.8"/><path d="m325.35 458.16v40.8"/><path d="m260.25 458.16v40.8"/><path d="m276.9 458.16v40.8"/></g></svg>