<svg xmlns="http://www.w3.org/2000/svg" width="128.05" height="168.84" viewBox="0 0 128.04769 168.84388"><g transform="translate(-387.21-438.54)" fill="none" stroke="#000" stroke-linejoin="round" stroke-linecap="round" stroke-width=".54" stroke-miterlimit="10"><path d="m514.98 607.11h-127.5"/><path d="m406.38 515.91c0 1.409-1.142 2.55-2.55 2.55-1.409 0-2.55-1.141-2.55-2.55 0-1.409 1.142-2.55 2.55-2.55 1.409 0 2.55 1.141 2.55 2.55"/><path d="m395.43 607.11v-147.9"/><path d="m507.03 607.11v-147.9"/><path d="m507.03 459.21h-111.6"/><path d="m490.23 569.91v-93.9"/><path d="m412.23 569.91v-93.9"/><path d="m490.23 476.01h-78"/><path d="m514.98 453.06h-127.5"/><path d="m514.98 453.06v154.05"/><path d="m387.48 453.06v154.05"/><path d="m490.23 569.91h-78"/><path d="m507.03 586.71h-111.6"/><path d="m489.03 569.91v-93.9"/><path d="m413.58 569.91v-93.9"/><path d="m514.98 447.66h-127.5"/><path d="m514.98 438.81h-127.5"/></g></svg>