<svg xmlns="http://www.w3.org/2000/svg" width="128.04" height="200.79" viewBox="0 0 128.04384 200.79273"><g transform="translate(-387.21-642.54)" fill="none" stroke-linejoin="round" stroke-linecap="round" stroke-width=".54" stroke-miterlimit="10"><g stroke="#000"><path d="m514.98 761.61v-118.8h-127.5v118.8h127.5"/><path d="m507.03 761.61l-81.45 81.45"/></g><g stroke="#888"><path d="m395.43 761.61v.6"/><path d="m395.43 762.21v.75"/><path d="m395.43 762.96v.75"/><path d="m395.43 763.71v.6"/><path d="m395.43 764.31l.15.75"/><path d="m395.58 765.06v.3"/><path d="m395.73 769.11v.75"/><path d="m395.73 769.86l.15.6"/><path d="m395.88 770.46v.75"/><path d="m395.88 771.21v.6"/><path d="m395.88 771.81l.15.75"/><path d="m396.03 772.56v.3"/><path d="m396.48 776.61l.15.75"/><path d="m396.63 777.36v.6"/><path d="m396.63 777.96l.15.75"/><path d="m396.78 778.71l.15.6"/><path d="m396.93 779.31v.75"/><path d="m396.93 780.06v.3"/><path d="m397.68 783.96l.15.75"/><path d="m397.83 784.71l.15.6"/><path d="m397.98 785.31l.15.75"/><path d="m398.13 786.06l.15.6"/><path d="m398.28 786.66l.15.75"/><path d="m398.43 787.41v.15"/><path d="m399.48 791.16v.15"/><path d="m399.48 791.31l.15.75"/><path d="m399.63 792.06l.3.6"/><path d="m399.93 792.66l.15.6"/><path d="m400.08 793.26l.15.75"/><path d="m400.23 794.01l.3.6"/><path d="m400.53 794.61v.15"/><path d="m401.73 798.36v.15"/><path d="m401.73 798.51l.3.75"/><path d="m402.03 799.26l.15.6"/><path d="m402.18 799.86l.3.6"/><path d="m402.48 800.46l.15.6"/><path d="m402.63 801.06l.3.75"/><path d="m404.43 805.26v.3"/><path d="m404.43 805.56l.3.6"/><path d="m404.73 806.16l.3.6"/><path d="m405.03 806.76l.3.75"/><path d="m405.33 807.51l.3.6"/><path d="m405.63 808.11l.3.6"/><path d="m407.58 812.01l.15.3"/><path d="m407.73 812.31l.3.75"/><path d="m408.03 813.06l.3.6"/><path d="m408.33 813.66l.3.6"/><path d="m408.63 814.26l.3.6"/><path d="m408.93 814.86l.3.6"/><path d="m411.18 818.61l.15.3"/><path d="m411.33 818.91l.3.6"/><path d="m411.63 819.51l.45.6"/><path d="m412.08 820.11l.3.6"/><path d="m412.38 820.71l.45.6"/><path d="m412.83 821.31l.3.45"/><path d="m415.08 824.91l.3.45"/><path d="m415.38 825.36l.45.45"/><path d="m415.83 825.81l.45.6"/><path d="m416.28 826.41l.3.6"/><path d="m416.58 827.01l.45.45"/><path d="m417.03 827.46l.3.45"/><path d="m419.58 830.76l.3.6"/><path d="m419.88 831.36l.45.45"/><path d="m420.33 831.81l.45.6"/><path d="m420.78 832.41l.45.45"/><path d="m421.23 832.86l.45.6"/><path d="m421.68 833.46l.15.15"/><path d="m424.23 836.46l.15.15"/><path d="m424.38 836.61l.45.45"/><path d="m424.83 837.06l.45.45"/><path d="m425.28 837.51l.45.6"/><path d="m425.73 838.11l.45.45"/><path d="m426.18 838.56l.6.45"/><path d="m426.78 839.01l.15.15"/></g></g></svg>