<svg xmlns="http://www.w3.org/2000/svg" width="136.9" height="168.85" viewBox="0 0 136.89768 168.84767"><g transform="translate(-179.31-438.54)" fill="none" stroke="#000" stroke-linejoin="round" stroke-linecap="round" stroke-width=".54" stroke-miterlimit="10"><path d="m315.93 607.11h-127.5"/><path d="m207.33 515.91c0 1.409-1.142 2.55-2.55 2.55-1.409 0-2.55-1.141-2.55-2.55 0-1.409 1.142-2.55 2.55-2.55 1.409 0 2.55 1.141 2.55 2.55"/><path d="m196.38 607.11v-147.9"/><path d="m307.98 607.11v-147.9"/><path d="m307.98 459.21h-111.6"/><path d="m291.18 569.91v-93.9"/><path d="m213.18 569.91v-93.9"/><path d="m291.18 476.01h-78"/><path d="m315.93 453.06h-127.5"/><path d="m315.93 453.06v154.05"/><path d="m188.43 453.06v154.05"/><path d="m291.18 569.91h-78"/><path d="m307.98 586.71h-111.6"/><path d="m289.83 569.91v-93.9"/><path d="m214.38 569.91v-93.9"/><path d="m315.93 447.66h-127.5"/><path d="m315.93 438.81h-127.5"/><path d="m188.43 607.11v-154.05"/><path d="m179.58 453.06h8.85"/><path d="m179.58 447.66v5.4"/><path d="m188.43 447.66h-8.85"/><path d="m179.58 447.66h8.85"/><path d="m179.58 438.81v8.85"/><path d="m188.43 438.81h-8.85"/></g></svg>