<svg xmlns="http://www.w3.org/2000/svg" width="122.8" height="133.45" viewBox="0 0 122.79769 133.44769"><g transform="translate(-101.23-318.71)" fill="none" stroke="#000" stroke-linejoin="round" stroke-linecap="round" stroke-width=".54" stroke-miterlimit="10"><path d="m101.5 451.88h78"/><path d="m101.5 318.98h78"/><path d="m101.5 451.88v-132.9"/><path d="m171.4 440.33v-113.25"/><path d="m109.45 440.33v-113.25"/><path d="m109.45 327.08h61.95"/><path d="m109.45 440.33h61.95"/><path d="m121 341.18h39"/><path d="m187.45 451.88v-3.75"/><path d="m187.45 444.38v-3.75"/><path d="m187.45 436.88v-3.75"/><path d="m187.45 429.38v-3.75"/><path d="m187.45 421.88v-3.75"/><path d="m187.45 414.38v-3.75"/><path d="m187.45 406.88v-3.75"/><path d="m187.45 399.38v-3.75"/><path d="m187.45 391.88v-3.75"/><path d="m187.45 384.38v-3.75"/><path d="m187.45 376.88v-3.75"/><path d="m187.45 369.38v-3.75"/><path d="m187.45 361.88v-3.75"/><path d="m187.45 354.38v-3.75"/><path d="m187.45 346.88v-3.75"/><path d="m187.45 339.38v-3.75"/><path d="m187.45 331.88v-3.75"/><path d="m187.45 324.38v-3.75"/><path d="m187.45 319.28v-.3"/><path d="m121 426.23h39"/><path d="m160 426.23v-85.05"/><path d="m121 426.23v-85.05"/><path d="m117.85 390.01c0 1.449-1.174 2.625-2.625 2.625-1.449 0-2.625-1.176-2.625-2.625 0-1.45 1.176-2.625 2.625-2.625 1.451 0 2.625 1.175 2.625 2.625"/><path d="m223.75 451.88v-3.75"/><path d="m223.75 444.38v-3.75"/><path d="m223.75 436.88v-3.75"/><path d="m223.75 429.38v-3.75"/><path d="m223.75 421.88v-3.75"/><path d="m223.75 414.38v-3.75"/><path d="m223.75 406.88v-3.75"/><path d="m223.75 399.38v-3.75"/><path d="m223.75 391.88v-3.75"/><path d="m223.75 384.38v-3.75"/><path d="m223.75 376.88v-3.75"/><path d="m223.75 369.38v-3.75"/><path d="m223.75 361.88v-3.75"/><path d="m223.75 354.38v-3.75"/><path d="m223.75 346.88v-3.75"/><path d="m223.75 339.38v-3.75"/><path d="m223.75 331.88v-3.75"/><path d="m223.75 324.38v-3.75"/><path d="m223.75 319.28v-.3"/><path d="m179.5 451.88h1.5"/><path d="m184.75 451.88h3.75"/><path d="m192.25 451.88h3.75"/><path d="m199.75 451.88h3.75"/><path d="m207.25 451.88h3.75"/><path d="m214.75 451.88h3.75"/><path d="m222.25 451.88h1.5"/><path d="m223.75 318.98h-1.5"/><path d="m218.5 318.98h-3.75"/><path d="m211 318.98h-3.75"/><path d="m203.5 318.98h-3.75"/><path d="m196 318.98h-3.75"/><path d="m188.5 318.98h-3.75"/><path d="m181 318.98h-1.5"/><path d="m179.5 451.88v-132.9"/><path d="m158.65 426.23v-85.05"/><path d="m122.2 426.23v-85.05"/></g></svg>