<svg xmlns="http://www.w3.org/2000/svg" height="89.94" viewBox="0 0 122.79 89.941934"><g transform="translate(-101.23-533.21)" fill="none" stroke="#888" stroke-linejoin="round" stroke-linecap="round" stroke-width=".54" stroke-miterlimit="10"><path d="m101.5 533.48v56.7h122.25v-56.7h-122.25z"/><path d="m171.4 590.18l-56.7 32.7"/><path d="m109.45 590.18v.45"/><path d="m109.45 590.63v.6"/><path d="m109.45 591.23v.45"/><path d="m109.45 591.68v.45"/><path d="m109.45 592.13v.6"/><path d="m109.45 592.73l.15.45"/><path d="m109.6 593.18v.45"/><path d="m109.6 593.63v.3"/><path d="m109.9 597.68l.15.6"/><path d="m110.05 598.28v.45"/><path d="m110.05 598.73l.15.45"/><path d="m110.2 599.18v.6"/><path d="m110.2 599.78l.15.45"/><path d="m110.35 600.23v.6"/><path d="m110.35 600.83l.15.45"/><path d="m111.25 604.88v.3"/><path d="m111.25 605.18l.15.6"/><path d="m111.4 605.78l.15.45"/><path d="m111.55 606.23l.15.45"/><path d="m111.7 606.68l.15.45"/><path d="m111.85 607.13l.15.6"/><path d="m112 607.73l.15.45"/><path d="m112.15 608.18l.15.3"/><path d="m113.5 611.93l.15.6"/><path d="m113.65 612.53l.15.45"/><path d="m113.8 612.98l.15.45"/><path d="m113.95 613.43l.3.45"/><path d="m114.25 613.88l.15.45"/><path d="m114.4 614.33l.15.45"/><path d="m114.55 614.78l.3.45"/><path d="m114.85 615.23v.15"/><path d="m116.35 618.68l.15.3"/><path d="m116.5 618.98l.3.45"/><path d="m116.8 619.43l.3.45"/><path d="m117.1 619.88l.15.45"/><path d="m117.25 620.33l.3.45"/><path d="m117.55 620.78l.15.45"/></g></svg>