<svg xmlns="http://www.w3.org/2000/svg" width="87.4" height="168.85" viewBox="0 0 87.397689 168.84769"><g transform="translate(-153.98-265.03)" fill="none" stroke="#000" stroke-linejoin="round" stroke-linecap="round" stroke-width=".54" stroke-miterlimit="10"><path d="m163.25 433.61v-154.05"/><path d="m154.25 279.56h9"/><path d="m154.25 274.16v5.4"/><path d="m163.25 274.16h-9"/><path d="m154.25 274.16h9"/><path d="m154.25 265.31v8.85"/><path d="m163.25 265.31h-9"/><path d="m171.2 433.61v-147.9"/><path d="m233.15 433.61v-147.9"/><path d="m233.15 285.71h-61.95"/><path d="m216.35 396.41v-93.9"/><path d="m188 396.41v-93.9"/><path d="m216.35 302.51h-28.35"/><path d="m241.1 279.56h-77.85"/><path d="m241.1 279.56v154.05"/><path d="m163.25 279.56v154.05"/><path d="m241.1 433.61h-77.85"/><path d="m216.35 396.41h-28.35"/><path d="m233.15 413.21h-61.95"/><path d="m227.3 342.41c0 1.409-1.142 2.55-2.55 2.55-1.407 0-2.55-1.142-2.55-2.55 0-1.409 1.143-2.55 2.55-2.55 1.409 0 2.55 1.142 2.55 2.55"/><path d="m215.15 396.41v-93.9"/><path d="m189.2 396.41v-93.9"/><path d="m241.1 274.16h-77.85"/><path d="m241.1 265.31h-77.85"/></g></svg>