<svg xmlns="http://www.w3.org/2000/svg" viewBox="0 0 54.69769 108.09003"><g transform="translate(-241.27-444.22)" fill="none" stroke-linejoin="round" stroke-linecap="round" stroke-width=".54" stroke-miterlimit="10"><g stroke="#aaa"><path d="m275.3 504.12c0 3.687-2.988 6.675-6.675 6.675-3.687 0-6.675-2.988-6.675-6.675 0-3.687 2.988-6.675 6.675-6.675 3.687 0 6.675 2.988 6.675 6.675"/><path d="m277.85 466.92c0 5.094-4.13 9.225-9.225 9.225-5.094 0-9.225-4.131-9.225-9.225 0-5.094 4.131-9.225 9.225-9.225 5.096 0 9.225 4.131 9.225 9.225"/><path d="m241.55 452.44h3.3"/><path d="m292.4 452.44h3.3"/></g><path d="m288.95 528.04c0 1.658-1.342 3-3 3-1.656 0-3-1.342-3-3 0-1.658 1.344-3 3-3 1.658 0 3 1.342 3 3" stroke="#000"/><g stroke="#aaa"><path d="m266.45 535.39c0 .581-.437 1.05-.975 1.05-.538 0-.975-.47-.975-1.05 0-.581.437-1.05.975-1.05.538 0 .975.47.975 1.05"/><path d="m272 535.99v-1.35h-5.1v1.35h5.1"/><path d="m290.45 524.74v-1.95h-2.1v1.95h2.1"/></g><g stroke="#000"><path d="m295.7 537.79v-93.3h-54.15v93.3h54.15"/><path d="m292.4 520.39v-71.85h-47.55v71.85h47.55"/><path d="m248.75 485.59v-31.95c0-.497.404-.9.9-.9h37.95c.497 0 .9.404.9.9v31.95 31.8c0 .496-.404.9-.9.9h-37.95c-.496 0-.9-.404-.9-.9v-31.8"/><path d="m276.35 466.99c0 4.308-3.492 7.8-7.8 7.8-4.308 0-7.8-3.492-7.8-7.8 0-4.308 3.492-7.8 7.8-7.8 4.308 0 7.8 3.492 7.8 7.8"/><path d="m273.8 504.12c0 2.858-2.316 5.175-5.175 5.175-2.858 0-5.175-2.317-5.175-5.175 0-2.858 2.317-5.175 5.175-5.175 2.859 0 5.175 2.317 5.175 5.175"/><path d="m268.55 521.59v-9.9"/><path d="m268.55 459.19v-10.65"/><path d="m268.55 474.79v21.9"/><path d="m244.85 457.24h15.45"/><path d="m292.4 457.24h-15.9"/><path d="m292.4 466.69h-15.9"/><path d="m244.85 466.69h14.55"/><path d="m244.85 484.54h47.55"/><path d="m244.85 504.04h16.2"/><path d="m275.75 504.04h16.65"/><path d="m244.85 513.34h16.35"/><path d="m275.75 513.34h16.65"/><path d="m254.3 528.04c0 1.658-1.343 3-3 3-1.656 0-3-1.342-3-3 0-1.658 1.344-3 3-3 1.657 0 3 1.342 3 3"/></g><path d="m255.65 524.74v-1.95h-2.1v1.95h2.1" stroke="#aaa"/><path d="m241.55 552.04h54.15" stroke="#000"/></g></svg>