<svg xmlns="http://www.w3.org/2000/svg" viewBox="0 0 105.09003 106.89003"><g transform="translate(-490.28-445.42)" fill="none" stroke-linejoin="round" stroke-linecap="round" stroke-width=".54" stroke-miterlimit="10"><g stroke="#000"><path d="m490.55 491.74v-44.7c0-.745.672-1.35 1.5-1.35h101.7c.745 0 1.35.604 1.35 1.35v44.7 44.7c0 .745-.605 1.35-1.35 1.35h-101.7c-.828 0-1.5-.605-1.5-1.35v-44.7"/><path d="m543.35 454.54h43.2v32.7"/><path d="m542.3 454.54h-43.05v32.7"/><path d="m586.55 522.79v-32.85"/><path d="m543.35 522.79h43.2"/><path d="m499.25 522.79v-32.85"/><path d="m542.3 522.79h-43.05"/><path d="m531.95 487.24h-32.7"/><path d="m531.95 456.34v30.9"/><path d="m553.7 487.24v-30.9"/><path d="m586.55 487.24h-32.85"/><path d="m531.95 489.94v31.05"/><path d="m499.25 489.94h32.7"/><path d="m553.7 489.94h32.85"/><path d="m553.7 520.99v-31.05"/><path d="m515.6 453.04v10.35"/><path d="m515.6 488.59v-10.2"/><path d="m521.45 470.97c0 3.273-2.654 5.925-5.925 5.925-3.271 0-5.925-2.652-5.925-5.925 0-3.273 2.653-5.925 5.925-5.925 3.271 0 5.925 2.652 5.925 5.925"/><path d="m497.9 470.89h10.2"/><path d="m533.15 470.89h-10.05"/><path d="m497.9 459.64h6.45"/><path d="m497.9 481.69h6.45"/><path d="m526.25 481.69h16.05"/><path d="m542.3 470.89h-19.8"/><path d="m526.4 459.79h15.9"/><path d="m530.15 485.59v-29.25h-29.25v29.25h29.25"/><path d="m570.2 453.04v10.35"/><path d="m570.2 488.59v-10.2"/><path d="m578.75 470.97c0 4.764-3.861 8.625-8.625 8.625-4.764 0-8.625-3.861-8.625-8.625 0-4.764 3.861-8.625 8.625-8.625 4.764 0 8.625 3.861 8.625 8.625"/><path d="m587.75 470.89h-10.05"/><path d="m552.5 470.89h10.2"/><path d="m587.75 459.64h-6.3"/><path d="m587.75 481.69h-6.3"/><path d="m559.4 481.69h-16.05"/><path d="m543.35 470.89h19.95"/><path d="m559.4 459.79h-16.05"/><path d="m584.75 485.59v-29.25h-29.25v29.25h29.25"/><path d="m570.2 488.59v10.35"/><path d="m570.2 523.99v-10.2"/><path d="m574.1 506.37c0 2.112-1.746 3.825-3.9 3.825-2.154 0-3.9-1.713-3.9-3.825 0-2.112 1.746-3.825 3.9-3.825 2.154 0 3.9 1.713 3.9 3.825"/><path d="m587.75 506.29h-10.05"/><path d="m543.35 506.29h19.35"/><path d="m587.75 495.19h-6.3"/><path d="m587.75 517.09h-6.3"/><path d="m584.75 520.99v-29.25h-29.25v29.25h29.25"/><path d="m515.6 488.59v10.35"/><path d="m515.6 523.99v-10.2"/><path d="m521.45 506.37c0 3.273-2.654 5.925-5.925 5.925-3.271 0-5.925-2.652-5.925-5.925 0-3.273 2.653-5.925 5.925-5.925 3.271 0 5.925 2.652 5.925 5.925"/><path d="m497.9 506.29h10.2"/><path d="m542.3 506.29h-19.2"/><path d="m497.9 495.19h6.45"/><path d="m497.9 517.09h6.45"/><path d="m530.15 520.99v-29.25h-29.25v29.25h29.25"/><path d="m542.3 495.49h-15.9"/><path d="m543.35 495.49h16.05"/><path d="m542.3 517.54h-15.75"/><path d="m543.35 517.54h15.9"/><path d="m531.95 456.34h10.35"/><path d="m543.35 456.34h10.35"/><path d="m531.95 520.99h10.35"/><path d="m543.35 520.99h10.35"/><path d="m530.75 529.09c0 1.658-1.342 3-3 3-1.656 0-3-1.342-3-3 0-1.658 1.344-3 3-3 1.658 0 3 1.342 3 3"/><path d="m540.8 529.09c0 1.658-1.342 3-3 3-1.656 0-3-1.342-3-3 0-1.658 1.344-3 3-3 1.658 0 3 1.342 3 3"/><path d="m551 529.09c0 1.658-1.377 3-3.075 3-1.698 0-3.075-1.342-3.075-3 0-1.658 1.377-3 3.075-3 1.698 0 3.075 1.342 3.075 3"/><path d="m561.05 529.09c0 1.658-1.342 3-3 3-1.656 0-3-1.342-3-3 0-1.658 1.344-3 3-3 1.658 0 3 1.342 3 3"/></g><g stroke="#aaa"><path d="m540.95 535.39c0 .581-.47 1.05-1.05 1.05-.581 0-1.05-.47-1.05-1.05 0-.581.47-1.05 1.05-1.05.581 0 1.05.47 1.05 1.05"/><path d="m546.5 535.99v-1.35h-5.1v1.35h5.1"/><path d="m542 525.79v-1.95h-1.95v1.95h1.95"/><path d="m551.9 525.79v-1.95h-1.95v1.95h1.95"/><path d="m561.95 525.79v-1.95h-1.95v1.95h1.95"/><path d="m532.1 525.79v-1.95h-1.95v1.95h1.95"/></g><g stroke="#000"><path d="m542.3 456.34v-1.8"/><path d="m543.35 456.34v-1.8"/><path d="m542.3 520.99v1.8"/><path d="m543.35 520.99v1.8"/><path d="m492.05 552.04h101.7"/></g></g></svg>