<svg xmlns="http://www.w3.org/2000/svg" viewBox="0 0 162.69002 106.89003"><g transform="translate(-789.68-445.42)" fill="none" stroke-linejoin="round" stroke-linecap="round" stroke-width=".54" stroke-miterlimit="10"><g stroke="#aaa"><path d="m935.6 512.97c0 4.929-3.963 8.925-8.85 8.925-4.887 0-8.85-3.996-8.85-8.925 0-4.929 3.963-8.925 8.85-8.925 4.887 0 8.85 3.996 8.85 8.925"/><path d="m935.45 470.59c0 4.805-3.895 8.7-8.7 8.7-4.804 0-8.7-3.896-8.7-8.7 0-4.805 3.895-8.7 8.7-8.7 4.804 0 8.7 3.896 8.7 8.7"/><path d="m892.4 491.82c0 11.723-9.503 21.23-21.23 21.23-11.722 0-21.23-9.502-21.23-21.23 0-11.723 9.503-21.23 21.23-21.23 11.722 0 21.23 9.502 21.23 21.23"/><path d="m894.05 491.82c0 12.633-10.242 22.875-22.875 22.875-12.633 0-22.875-10.242-22.875-22.875 0-12.633 10.242-22.875 22.875-22.875 12.633 0 22.875 10.242 22.875 22.875"/><path d="m825.95 512.97c0 5.841-4.769 10.575-10.65 10.575-5.881 0-10.65-4.734-10.65-10.575 0-5.841 4.769-10.575 10.65-10.575 5.881 0 10.65 4.734 10.65 10.575"/><path d="m822.2 470.52c0 3.687-2.988 6.675-6.675 6.675-3.687 0-6.675-2.988-6.675-6.675 0-3.687 2.988-6.675 6.675-6.675 3.687 0 6.675 2.988 6.675 6.675"/></g><g stroke="#000"><path d="m789.95 491.74v-43.35c0-1.491 1.209-2.7 2.7-2.7h156.75c1.491 0 2.7 1.209 2.7 2.7v43.35 43.35c0 1.491-1.209 2.7-2.7 2.7h-156.75c-1.491 0-2.7-1.209-2.7-2.7v-43.35"/><path d="m792.65 532.54v-82.5"/><path d="m835.55 533.44h-42"/><path d="m842.75 450.04v71.85"/><path d="m793.55 449.14h48.3"/><path d="m836.45 532.54v-8.85"/><path d="m837.35 522.79h4.5"/><path d="m797.15 530.29v-77.55"/><path d="m831.05 531.19h-33"/><path d="m840.65 452.74v67.05"/><path d="m798.05 451.84h41.7"/><path d="m831.95 530.29v-8.85"/><path d="m832.85 520.54h6.9"/><path d="m797.15 530.29c0 .288.054.558.15.75.192.096.462.15.75.15"/><path d="m831.05 531.19c.288 0 .558-.054.75-.15.096-.192.15-.462.15-.75"/><path d="m832.85 520.54c-.192 0-.408.108-.6.3-.192.192-.3.408-.3.6"/><path d="m839.75 520.54c.288 0 .504-.054.6-.15.192-.192.3-.408.3-.6"/><path d="m840.65 452.74c0-.192-.108-.408-.3-.6-.096-.192-.312-.3-.6-.3"/><path d="m798.05 451.84c-.288 0-.558.108-.75.3-.096.192-.15.408-.15.6"/><path d="m815 448.09v15.3"/><path d="m792.65 457.24h15.3"/><path d="m792.65 470.29h15.15"/><path d="m822.2 470.29h20.55"/><path d="m821.9 457.24h20.85"/><path d="m792.65 491.29h50.1"/><path d="m814.85 477.34v26.85"/><path d="m792.65 513.04h13.95"/><path d="m824.15 513.04h18.6"/><path d="m814.85 535.09v-13.35"/><path d="m792.65 526.09h14.4"/><path d="m822.65 526.09h13.8"/><path d="m820.4 470.52c0 2.692-2.183 4.875-4.875 4.875-2.692 0-4.875-2.183-4.875-4.875 0-2.692 2.183-4.875 4.875-4.875 2.692 0 4.875 2.183 4.875 4.875"/><path d="m824.15 512.97c0 4.846-3.928 8.775-8.775 8.775-4.846 0-8.775-3.928-8.775-8.775 0-4.846 3.928-8.775 8.775-8.775 4.846 0 8.775 3.928 8.775 8.775"/><path d="m793.55 449.14c-.192 0-.408.108-.6.3-.192.192-.3.408-.3.6"/><path d="m842.75 450.04c0-.192-.054-.408-.15-.6-.192-.192-.462-.3-.75-.3"/><path d="m841.85 522.79c.288 0 .558-.108.75-.3.096-.192.15-.408.15-.6"/><path d="m837.35 522.79c-.288 0-.504.054-.6.15-.192.192-.3.462-.3.75"/><path d="m835.55 533.44c.192 0 .408-.108.6-.3.192-.192.3-.408.3-.6"/><path d="m792.65 532.54c0 .192.108.408.3.6.192.192.408.3.6.3"/><path d="m949.4 532.54v-82.5"/><path d="m906.65 533.44h42"/><path d="m899.3 450.04v71.85"/><path d="m948.65 449.14h-48.45"/><path d="m905.75 532.54v-8.85"/><path d="m904.85 522.79h-4.65"/><path d="m945.05 530.29v-77.55"/><path d="m911 531.19h33.15"/><path d="m901.4 452.74v67.05"/><path d="m944.15 451.84h-41.85"/><path d="m910.1 530.29v-8.85"/><path d="m909.2 520.54h-6.9"/><path d="m944.15 531.19c.192 0 .408-.054.6-.15.192-.192.3-.462.3-.75"/><path d="m910.1 530.29c0 .288.108.558.3.75.192.096.408.15.6.15"/><path d="m910.1 521.44c0-.192-.108-.408-.3-.6-.096-.192-.312-.3-.6-.3"/><path d="m901.4 519.79c0 .192.108.408.3.6.192.096.408.15.6.15"/><path d="m902.3 451.84c-.192 0-.408.108-.6.3-.192.192-.3.408-.3.6"/><path d="m945.05 452.74c0-.192-.108-.408-.3-.6-.192-.192-.408-.3-.6-.3"/><path d="m927.2 448.09v13.8"/><path d="m949.4 457.24h-15.3"/><path d="m949.4 470.29h-13.95"/><path d="m918.05 470.29h-18.75"/><path d="m920.15 457.24h-20.85"/><path d="m949.4 491.29h-50.1"/><path d="m927.2 479.14v25.05"/><path d="m949.4 513.04h-13.8"/><path d="m917.9 513.04h-18.6"/><path d="m927.2 535.09v-13.2"/><path d="m949.4 526.09h-14.4"/><path d="m919.4 526.09h-13.65"/><path d="m933.5 512.97c0 3.687-2.988 6.675-6.675 6.675-3.687 0-6.675-2.988-6.675-6.675 0-3.687 2.988-6.675 6.675-6.675 3.687 0 6.675 2.988 6.675 6.675"/><path d="m949.4 450.04c0-.192-.054-.408-.15-.6-.192-.192-.408-.3-.6-.3"/><path d="m900.2 449.14c-.192 0-.408.108-.6.3-.192.192-.3.408-.3.6"/><path d="m899.3 521.89c0 .192.108.408.3.6.192.192.408.3.6.3"/><path d="m905.75 523.69c0-.288-.108-.558-.3-.75-.192-.096-.408-.15-.6-.15"/><path d="m905.75 532.54c0 .192.054.408.15.6.192.192.462.3.75.3"/><path d="m948.65 533.44c.192 0 .408-.108.6-.3.096-.192.15-.408.15-.6"/><path d="m843.65 486.04v-36c0-.497.404-.9.9-.9h52.95c.496 0 .9.404.9.9v36 35.85c0 .496-.404.9-.9.9h-52.95c-.496 0-.9-.404-.9-.9v-35.85"/><path d="m843.65 457.24h16.8"/><path d="m898.4 457.24h-16.95"/><path d="m898.4 470.29h-16.95"/><path d="m843.65 470.29h16.8"/><path d="m843.65 491.29h16.05"/><path d="m882.65 491.29h15.75"/><path d="m898.4 513.04h-16.95"/><path d="m843.65 513.04h16.8"/><path d="m871.1 522.79v-19.5"/><path d="m871.1 448.09v32.1"/><path d="m871.1 474.19v6"/><path d="m871.1 503.29v1.8"/><path d="m874.7 491.74c0 1.988-1.611 3.6-3.6 3.6-1.989 0-3.6-1.613-3.6-3.6 0-1.988 1.611-3.6 3.6-3.6 1.989 0 3.6 1.613 3.6 3.6"/><path d="m877.85 491.82c0 3.687-2.988 6.675-6.675 6.675-3.687 0-6.675-2.988-6.675-6.675 0-3.687 2.988-6.675 6.675-6.675 3.687 0 6.675 2.988 6.675 6.675"/><path d="m882.65 491.74c0 6.38-5.17 11.55-11.55 11.55-6.38 0-11.55-5.171-11.55-11.55 0-6.38 5.17-11.55 11.55-11.55 6.38 0 11.55 5.171 11.55 11.55"/><path d="m845.75 486.19v-33.45c0-.497.404-.9.9-.9h48.75c.496 0 .9.404.9.9v33.45 33.6c0 .414-.404.75-.9.75h-48.75c-.496 0-.9-.336-.9-.75v-33.6"/><path d="m849.2 529.69c0 1.658-1.344 3-3 3-1.656 0-3-1.342-3-3 0-1.658 1.344-3 3-3 1.656 0 3 1.342 3 3"/></g><g stroke="#aaa"><path d="m869 524.44c0 .581-.47 1.05-1.05 1.05-.581 0-1.05-.47-1.05-1.05 0-.581.47-1.05 1.05-1.05.581 0 1.05.47 1.05 1.05"/><path d="m874.55 525.04v-1.2h-5.1v1.2h5.1"/><path d="m843.2 535.24v-1.95h-2.1v1.95h2.1"/></g><path d="m858.95 529.69c0 1.658-1.344 3-3 3-1.656 0-3-1.342-3-3 0-1.658 1.344-3 3-3 1.656 0 3 1.342 3 3" stroke="#000"/><path d="m852.95 535.24v-1.95h-2.1v1.95h2.1" stroke="#aaa"/><path d="m874.1 529.69c0 1.658-1.344 3-3 3-1.656 0-3-1.342-3-3 0-1.658 1.344-3 3-3 1.656 0 3 1.342 3 3" stroke="#000"/><path d="m868.1 535.24v-1.95h-2.1v1.95h2.1" stroke="#aaa"/><path d="m889.25 529.69c0 1.658-1.344 3-3 3-1.656 0-3-1.342-3-3 0-1.658 1.344-3 3-3 1.656 0 3 1.342 3 3" stroke="#000"/><path d="m883.1 535.24v-1.95h-1.95v1.95h1.95" stroke="#aaa"/><path d="m899 529.69c0 1.658-1.344 3-3 3-1.656 0-3-1.342-3-3 0-1.658 1.344-3 3-3 1.656 0 3 1.342 3 3" stroke="#000"/><path d="m892.85 535.24v-1.95h-1.95v1.95h1.95" stroke="#aaa"/><g stroke="#000"><path d="m933.5 470.52c0 3.687-2.988 6.675-6.675 6.675-3.687 0-6.675-2.988-6.675-6.675 0-3.687 2.988-6.675 6.675-6.675 3.687 0 6.675 2.988 6.675 6.675"/><path d="m792.65 552.04h156.75"/></g></g></svg>