<svg xmlns="http://www.w3.org/2000/svg" width="87.25" height="168.85" viewBox="0 0 87.247687 168.84769"><g transform="translate(-434.93-265.03)"><text transform="matrix(1.25 0 0 1.25 433.55 499.46)" font-family="TT26Dt00" font-size="12"><tspan y="0" x="0">Floor (Small 350mm Door):</tspan><tspan y="16.56" x="0">Single with Hinges on Left (440mm)</tspan><tspan y="33.12" x="0">F/350S/L</tspan></text><g fill="none" stroke="#000" stroke-linejoin="round" stroke-linecap="round" stroke-width=".54" stroke-miterlimit="10"><path d="m443.15 433.61v-147.9"/><path d="m505.1 433.61v-147.9"/><path d="m505.1 285.71h-61.95"/><path d="m488.3 396.41v-93.9"/><path d="m459.95 396.41v-93.9"/><path d="m488.3 302.51h-28.35"/><path d="m513.05 279.56h-77.85"/><path d="m513.05 279.56v154.05"/><path d="m435.2 279.56v154.05"/><path d="m513.05 433.61h-77.85"/><path d="m488.3 396.41h-28.35"/><path d="m505.1 413.21h-61.95"/><path d="m499.25 342.41c0 1.409-1.142 2.55-2.55 2.55-1.407 0-2.55-1.142-2.55-2.55 0-1.409 1.143-2.55 2.55-2.55 1.409 0 2.55 1.142 2.55 2.55"/><path d="m487.1 396.41v-93.9"/><path d="m461.15 396.41v-93.9"/><path d="m513.05 274.16h-77.85"/><path d="m513.05 265.31h-77.85"/><path d="m513.05 433.61v-154.05"/><path d="m521.9 279.56h-8.85"/><path d="m521.9 274.16v5.4"/><path d="m513.05 274.16h8.85"/><path d="m521.9 274.16h-8.85"/><path d="m521.9 265.31v8.85"/><path d="m513.05 265.31h8.85"/></g></g></svg>