<svg xmlns="http://www.w3.org/2000/svg" width="184.9" height="133.45" viewBox="0 0 184.89769 133.4477"><g transform="translate(-172.9-386.04)" fill="none" stroke-linejoin="round" stroke-linecap="round" stroke-width=".54" stroke-miterlimit="10"><g stroke="#888"><path d="m255.68 507.66v-36"/><path d="m255.68 469.11v-36.15"/><path d="m255.68 430.41v-36"/><path d="m275.18 507.66v-36"/><path d="m275.18 469.11v-36.15"/><path d="m275.18 430.41v-36"/><path d="m294.68 507.66v-36"/><path d="m294.68 469.11v-36.15"/><path d="m294.68 430.41v-36"/><path d="m314.03 507.66v-36"/><path d="m314.03 469.11v-36.15"/><path d="m314.03 430.41v-36"/><path d="m333.53 507.66v-36"/><path d="m333.53 469.11v-36.15"/><path d="m333.53 430.41v-36"/><path d="m236.18 507.66v-36"/><path d="m236.18 469.11v-36.15"/><path d="m236.18 430.41v-36"/><path d="m216.68 507.66v-36"/><path d="m216.68 469.11v-36.15"/><path d="m216.68 430.41v-36"/><path d="m197.18 507.66v-36"/><path d="m197.18 469.11v-36.15"/><path d="m197.18 430.41v-36"/></g><g stroke="#000"><path d="m173.18 519.21h184.35"/><path d="m173.18 386.31h184.35"/><path d="m173.18 519.21v-132.9"/><path d="m349.58 507.66v-113.25"/><path d="m181.28 507.66v-113.25"/><path d="m181.28 394.41h168.3"/><path d="m181.28 507.66h168.3"/><path d="m357.53 519.21v-132.9"/><path d="m349.58 430.41h-168.3"/><path d="m349.58 432.96h-168.3"/><path d="m349.58 469.11h-168.3"/><path d="m349.58 471.66h-168.3"/></g></g></svg>