<svg xmlns="http://www.w3.org/2000/svg" width="184.89" height="57.24" viewBox="0 0 184.89384 57.243844"><g transform="translate(-172.91-600.54)" fill="none" stroke="#888" stroke-linejoin="round" stroke-linecap="round" stroke-width=".54" stroke-miterlimit="10"><path d="m357.53 657.51v-56.7h-184.35v56.7h184.35"/><path d="m181.28 657.51v-.9"/><path d="m181.28 652.86v-3.75"/><path d="m181.28 645.36v-3.75"/><path d="m181.28 637.86v-3.75"/><path d="m181.28 630.36v-3.75"/><path d="m181.28 622.86v-3.75"/><path d="m181.28 615.36v-3.75"/><path d="m181.28 607.86v-.9"/><path d="m349.58 657.51v-.9"/><path d="m349.58 652.86v-3.75"/><path d="m349.58 645.36v-3.75"/><path d="m349.58 637.86v-3.75"/><path d="m349.58 630.36v-3.75"/><path d="m349.58 622.86v-3.75"/><path d="m349.58 615.36v-3.75"/><path d="m349.58 607.86v-.9"/><path d="m181.28 606.96h3.45"/><path d="m188.48 606.96h3.75"/><path d="m195.98 606.96h3.75"/><path d="m203.48 606.96h3.75"/><path d="m210.98 606.96h3.75"/><path d="m218.48 606.96h3.75"/><path d="m225.98 606.96h3.75"/><path d="m233.48 606.96h3.75"/><path d="m240.98 606.96h3.75"/><path d="m248.48 606.96h3.75"/><path d="m255.98 606.96h3.75"/><path d="m263.48 606.96h3.75"/><path d="m270.98 606.96h3.75"/><path d="m278.48 606.96h3.75"/><path d="m285.98 606.96h3.75"/><path d="m293.48 606.96h3.75"/><path d="m300.98 606.96h3.75"/><path d="m308.48 606.96h3.75"/><path d="m315.98 606.96h3.75"/><path d="m323.48 606.96h3.75"/><path d="m330.98 606.96h3.75"/><path d="m338.48 606.96h3.75"/><path d="m345.98 606.96h3.6"/></g></svg>